<svg width="71" height="55" viewBox="0 0 71 55" fill="none" xmlns="http://www.w3.org/2000/svg">
<path d="M40.2539 17.3074L40.2246 17.5168L40.3766 17.3688L40.2539 17.3074L40.2246 17.5168L40.3766 17.3688L40.3059 17.4368L40.3899 17.3834L40.3766 17.3688L40.3059 17.4368L40.3899 17.3834L40.3486 17.2434C40.3326 17.1541 40.3232 17.0301 40.3232 16.8941C40.3192 16.4008 40.4486 15.7421 40.4792 15.6354C40.7406 14.6354 41.1806 13.6341 41.8486 12.9501C42.6739 12.1008 43.7006 11.6434 44.8579 11.3661C46.0112 11.0901 47.2792 11.0074 48.5139 10.8928C49.8926 10.7634 51.4513 10.5834 52.8339 10.0488C54.2259 9.51144 55.4632 8.5421 56.1072 7.07944C56.4259 6.35544 56.5792 5.56878 56.5792 4.78611C56.5792 3.06744 55.8339 1.32078 54.3072 0.351444C54.0486 0.187444 53.7072 0.26475 53.5446 0.523416C53.3819 0.780749 53.4592 1.12078 53.7166 1.28478C54.8579 2.00078 55.4752 3.37411 55.4752 4.78611C55.4752 5.42344 55.3486 6.06343 55.0979 6.63409C54.5939 7.77543 53.6272 8.55544 52.4352 9.01944C51.2392 9.48478 49.7659 9.66875 48.4126 9.79409C47.1992 9.90742 45.8806 9.98742 44.6006 10.2928C43.3246 10.5954 42.0699 11.1368 41.0566 12.1808C40.1926 13.0741 39.7046 14.2448 39.4126 15.3528C39.3552 15.5781 39.2219 16.2314 39.2192 16.8941C39.2206 17.1728 39.2406 17.4474 39.3366 17.7261C39.3872 17.8634 39.4592 18.0074 39.5859 18.1381C39.7099 18.2701 39.9006 18.3754 40.0993 18.4008C40.4006 18.4434 40.6806 18.2328 40.7232 17.9314C40.7659 17.6301 40.5566 17.3501 40.2552 17.3088" fill="#472618"/>
<path d="M33.7124 20.1349L37.8631 13.1122L44.6231 15.0856L44.3391 23.2402L33.7124 20.1349Z" fill="#BDBCBC"/>
<path d="M37.6485 12.5703L37.2845 13.1863L33.6178 19.3917L33.0151 20.4103L34.1525 20.7423L43.6418 23.517L44.7778 23.8477L44.8191 22.6663L45.0698 15.4597L45.0951 14.745L44.4085 14.545L38.3351 12.7717L37.6485 12.5703ZM38.0765 13.6543L44.1511 15.4277L43.8992 22.633L34.4098 19.8597L38.0765 13.6543Z" fill="#472618"/>
<path d="M54.7775 53.6621C53.3109 53.6608 51.8469 53.4501 50.4269 53.0354C44.6362 51.3434 40.3589 46.4368 39.4549 40.4888L28.3415 37.2434C25.3949 40.6101 21.1669 42.5328 16.6909 42.5328C15.2255 42.5328 13.7615 42.3234 12.3415 41.9074C4.1442 39.5114 -0.575803 30.8954 1.81886 22.6968C3.7362 16.1314 9.84819 11.5474 16.6789 11.5474C18.1455 11.5474 19.6095 11.7581 21.0295 12.1741L59.1149 23.3008C67.3109 25.6968 72.0322 34.3128 69.6375 42.5101C67.7202 49.0768 61.6082 53.6621 54.7775 53.6621Z" fill="#E9E9E9"/>
<path d="M16.679 11.0878C9.64437 11.0878 3.35236 15.8091 1.3777 22.5691C-1.08897 31.0104 3.77237 39.8838 12.2137 42.3504C13.675 42.7771 15.1817 42.9931 16.691 42.9931C21.2017 42.9931 25.4684 41.0958 28.4924 37.7678L39.047 40.8504C40.071 46.8424 44.4297 51.7611 50.2977 53.4771C51.7604 53.9051 53.267 54.1211 54.7777 54.1211C61.8124 54.1211 68.1044 49.3984 70.079 42.6384C72.5444 34.1984 67.683 25.3264 59.243 22.8598L21.159 11.7331C19.6964 11.3051 18.1897 11.0878 16.679 11.0878ZM16.679 12.0078C18.075 12.0078 19.4937 12.2038 20.9004 12.6144L58.9857 23.7424C66.951 26.0704 71.523 34.4144 69.1964 42.3811C67.2804 48.9424 61.2844 53.2011 54.7777 53.2011C53.3817 53.2011 51.963 53.0064 50.5564 52.5944C44.6604 50.8704 40.6244 45.8544 39.8684 40.1304L28.1857 36.7198C25.355 40.0798 21.143 42.0744 16.691 42.0744C15.2964 42.0744 13.8777 41.8771 12.471 41.4664C4.50437 39.1384 -0.0676362 30.7958 2.26036 22.8264C4.17636 16.2664 10.1724 12.0078 16.679 12.0078Z" fill="#472618"/>
<path d="M54.7428 53.1445C53.3481 53.1445 51.9308 52.9485 50.5241 52.5379C46.5295 51.3699 43.3895 48.6899 41.5441 45.3045C40.6828 43.7085 40.1095 41.9552 39.8681 40.1312L39.8428 40.1245C39.8415 40.1085 39.8388 40.0925 39.8375 40.0765L28.1548 36.6632C25.3241 40.0232 21.1135 42.0179 16.6615 42.0179C15.2668 42.0179 13.8468 41.8219 12.4401 41.4099C8.42281 40.2365 5.26947 37.5339 3.42813 34.1205C1.64147 30.7752 1.11213 26.7552 2.26013 22.8272C2.26013 22.8245 2.26147 22.8232 2.26147 22.8205C0.657468 30.4325 5.16548 38.1112 12.7561 40.3299C14.1628 40.7419 15.5815 40.9365 16.9775 40.9365C21.4281 40.9365 25.6401 38.9419 28.4708 35.5819L40.1521 38.9965C40.9095 44.7179 44.9455 49.7325 50.8401 51.4579C52.2468 51.8672 53.6641 52.0632 55.0588 52.0632C61.3855 52.0632 67.2308 48.0365 69.3108 41.7819C69.2655 41.9632 69.2175 42.1445 69.1655 42.3272C67.2481 48.8872 61.2495 53.1445 54.7428 53.1445Z" fill="#AEACAD"/>
<path d="M41.5444 45.3027C40.6738 43.7041 40.0911 41.9494 39.8431 40.1227L39.8684 40.1294C40.1098 41.9534 40.6831 43.7067 41.5444 45.3027ZM3.42844 34.1187C1.61777 30.7614 1.07511 26.7187 2.22977 22.7681C2.28311 22.5881 2.33778 22.4081 2.39778 22.2307C2.34844 22.4267 2.30311 22.6227 2.26177 22.8187C2.26177 22.8214 2.26044 22.8227 2.26044 22.8254C1.11244 26.7534 1.64177 30.7734 3.42844 34.1187Z" fill="#381D12"/>
<path d="M16.6615 40.0098C15.4282 40.0098 14.1975 39.8324 13.0029 39.4831C6.11088 37.4698 2.14155 30.2258 4.15355 23.3338C5.76688 17.8138 10.9042 13.9591 16.6469 13.9591C17.8802 13.9591 19.1122 14.1364 20.3069 14.4858C27.1989 16.5004 31.1682 23.7444 29.1535 30.6378C27.5415 36.1564 22.4055 40.0098 16.6615 40.0098Z" fill="#BDBCBC"/>
<path d="M16.6487 13.6948C10.7887 13.6948 5.54733 17.6294 3.90066 23.2588C1.84733 30.2908 5.89799 37.6814 12.9287 39.7361C14.1487 40.0921 15.4033 40.2734 16.662 40.2734C22.522 40.2734 27.7633 36.3414 29.4073 30.7121C31.462 23.6788 27.4127 16.2881 20.3807 14.2321C19.162 13.8761 17.906 13.6948 16.6487 13.6948ZM16.6487 14.2215C17.834 14.2215 19.038 14.3881 20.2327 14.7374C26.9967 16.7148 30.878 23.7974 28.9007 30.5641C27.2753 36.1321 22.1847 39.7454 16.662 39.7454C15.4767 39.7454 14.2727 39.5788 13.0767 39.2294C6.31265 37.2534 2.43267 30.1694 4.40733 23.4068C6.03533 17.8374 11.1247 14.2215 16.6487 14.2215Z" fill="#472618"/>
<path d="M16.6614 40.2051C15.4094 40.2051 14.16 40.0251 12.948 39.6717C5.95072 37.6264 1.92272 30.2731 3.96538 23.2784C5.60272 17.6758 10.8174 13.7624 16.6467 13.7624C17.8987 13.7624 19.148 13.9424 20.3614 14.2957C27.3574 16.3411 31.3867 23.6957 29.3414 30.6917C27.7054 36.2931 22.492 40.2051 16.6614 40.2051Z" fill="#BDBCBC"/>
<path d="M16.6482 13.3007C10.6149 13.302 5.21756 17.3513 3.52423 23.1487C1.40956 30.3873 5.57889 37.998 12.8189 40.1127C14.0736 40.4794 15.3669 40.666 16.6615 40.666C22.6949 40.666 28.0909 36.618 29.7829 30.8207C31.8989 23.5807 27.7296 15.97 20.4909 13.854C19.2362 13.4874 17.9442 13.3007 16.6482 13.3007ZM16.6482 14.2207C17.8335 14.2207 19.0376 14.3874 20.2322 14.7367C26.9962 16.714 30.8776 23.7967 28.9002 30.5633C27.2749 36.1313 22.1842 39.7447 16.6615 39.7447C15.4762 39.7447 14.2722 39.578 13.0762 39.2287C6.31221 37.2527 2.43222 30.1687 4.40689 23.406C6.03489 17.8367 11.1242 14.2207 16.6482 14.2207Z" fill="#472618"/>
<path d="M16.6621 39.7441C15.4768 39.7441 14.2728 39.5775 13.0768 39.2281C13.0634 39.2255 13.0501 39.2215 13.0381 39.2175C13.0368 39.2175 13.0368 39.2175 13.0368 39.2175C9.98077 38.3135 7.51677 36.3655 5.91943 33.8775C7.4861 35.7521 9.60609 37.2001 12.1274 37.9348C13.3234 38.2841 14.5274 38.4508 15.7128 38.4508C21.2341 38.4495 26.3261 34.8361 27.9514 29.2681C29.0301 25.5775 28.3648 21.7935 26.4421 18.7961C28.5301 21.2975 29.6328 24.5615 29.3821 27.9215C29.3808 27.9228 29.3808 27.9228 29.3808 27.9241C29.3794 27.9401 29.3794 27.9561 29.3781 27.9708C29.3781 27.9721 29.3781 27.9721 29.3781 27.9735C29.3768 27.9801 29.3768 27.9868 29.3754 27.9935C29.3754 27.9975 29.3754 28.0015 29.3754 28.0041C29.3741 28.0148 29.3728 28.0241 29.3728 28.0348C29.3714 28.0401 29.3714 28.0468 29.3714 28.0521C29.3701 28.0575 29.3701 28.0615 29.3701 28.0668C29.3687 28.0775 29.3674 28.0868 29.3674 28.0975C29.3674 28.1001 29.3661 28.1041 29.3661 28.1068C29.3648 28.1161 29.3648 28.1255 29.3634 28.1348C29.3634 28.1375 29.3634 28.1401 29.3634 28.1428C29.3621 28.1535 29.3608 28.1655 29.3594 28.1775C29.3594 28.1788 29.3594 28.1801 29.3594 28.1828C29.3568 28.2081 29.3541 28.2321 29.3514 28.2575C29.3514 28.2588 29.3514 28.2588 29.3514 28.2588C29.2754 29.0121 29.1301 29.7681 28.9128 30.5201C28.9128 30.5228 28.9128 30.5241 28.9114 30.5255C28.9088 30.5375 28.9048 30.5495 28.9008 30.5628C27.2754 36.1308 22.1848 39.7441 16.6621 39.7441Z" fill="#908E8E"/>
<path d="M16.6621 39.7441C15.4768 39.7441 14.2714 39.5775 13.0768 39.2281C14.2728 39.5775 15.4768 39.7441 16.6621 39.7441C22.1848 39.7441 27.2754 36.1308 28.9008 30.5628C27.2754 36.1308 22.1861 39.7441 16.6621 39.7441ZM13.0368 39.2175C9.97943 38.3135 7.51543 36.3668 5.91943 33.8775C7.51677 36.3655 9.98077 38.3135 13.0368 39.2175ZM29.3514 28.2575C29.3541 28.2321 29.3568 28.2081 29.3594 28.1828C29.3568 28.2068 29.3541 28.2321 29.3514 28.2575Z" fill="#381D12"/>
<path d="M54.6187 51.2949C53.3667 51.2949 52.1173 51.1163 50.9053 50.7616C47.516 49.7723 44.7147 47.5203 43.0187 44.4229C41.3227 41.3269 40.9334 37.7549 41.924 34.3656C43.5614 28.7629 48.7773 24.8496 54.6067 24.8496C55.8587 24.8496 57.108 25.0296 58.32 25.3842C65.316 27.4282 69.3454 34.7842 67.3 41.7802C65.6627 47.3829 60.448 51.2949 54.6187 51.2949Z" fill="#BDBCBC"/>
<path d="M54.6082 24.3919C48.5736 24.3919 43.1762 28.4412 41.4829 34.2385C40.4576 37.7439 40.8602 41.4412 42.6162 44.6452C44.3709 47.8505 47.2696 50.1785 50.7776 51.2039C52.0309 51.5705 53.3229 51.7559 54.6189 51.7559C60.6509 51.7559 66.0482 47.7079 67.7416 41.9092C68.7669 38.4025 68.3656 34.7065 66.6096 31.5025C64.8536 28.2972 61.9562 25.9679 58.4496 24.9439C57.1949 24.5772 55.9029 24.3919 54.6082 24.3919ZM54.6082 25.3105C55.7922 25.3105 56.9962 25.4772 58.1909 25.8265C64.9536 27.8025 68.8362 34.8892 66.8589 41.6519C65.2309 47.2199 60.1402 50.8359 54.6189 50.8359C53.4336 50.8359 52.2296 50.6692 51.0349 50.3212C44.2709 48.3452 40.3896 41.2585 42.3656 34.4959C43.9936 28.9279 49.0842 25.3105 54.6082 25.3105Z" fill="#472618"/>
<path d="M16.2202 34.5645L15.8829 34.5165L13.2496 33.7471C12.6149 33.5618 12.2509 32.8951 12.4336 32.2618L13.2775 29.3738C13.3282 29.2018 13.3082 29.0205 13.2216 28.8618C13.1349 28.7058 12.9936 28.5911 12.8229 28.5418L9.93489 27.6978C9.62956 27.6098 9.37489 27.4045 9.22156 27.1231C9.06689 26.8431 9.03223 26.5191 9.12023 26.2125L9.8909 23.5765C10.0389 23.0711 10.5122 22.7151 11.0429 22.7151L11.3749 22.7631L14.2642 23.6071L14.4522 23.6338C14.7482 23.6338 15.0135 23.4365 15.0949 23.1525L15.9389 20.2618C16.0882 19.7551 16.5602 19.4018 17.0882 19.4018L17.4256 19.4511L20.0602 20.2191C20.6949 20.4058 21.0602 21.0738 20.8736 21.7045L20.0309 24.5925C19.9269 24.9471 20.1322 25.3218 20.4856 25.4245L23.3749 26.2685C24.0082 26.4551 24.3722 27.1231 24.1882 27.7565L23.4189 30.3898C23.2709 30.8965 22.7976 31.2511 22.2669 31.2511L21.9322 31.2031L19.0442 30.3591L18.8589 30.3338C18.5616 30.3338 18.2949 30.5311 18.2122 30.8165L17.3696 33.7045C17.2216 34.2111 16.7496 34.5645 16.2202 34.5645Z" fill="#4F4C4C"/>
<path d="M17.0901 19.1375C16.4461 19.1375 15.8687 19.5681 15.6874 20.1868L14.8421 23.0775C14.7927 23.2495 14.6327 23.3694 14.4527 23.3694L14.3407 23.3534L11.4501 22.5095C11.3181 22.4708 11.1807 22.4521 11.0434 22.4521C10.3967 22.4521 9.81939 22.8841 9.63806 23.5041L8.86739 26.1375C8.75939 26.5121 8.80206 26.9054 8.99006 27.2494C9.17806 27.5934 9.48872 27.8428 9.86205 27.9521L12.7501 28.7948L12.9914 28.9895L13.0247 29.2988L12.1807 32.1868C11.9567 32.9588 12.4021 33.7721 13.1727 33.9988L15.8114 34.7694C15.9434 34.8081 16.0807 34.8281 16.2207 34.8281C16.8661 34.8281 17.4421 34.3948 17.6221 33.7775L18.4661 30.8895C18.5167 30.7175 18.6781 30.5961 18.8594 30.5961L18.9714 30.6134L21.8594 31.4561C21.9927 31.4948 22.1287 31.5161 22.2674 31.5161C22.9141 31.5161 23.4927 31.0815 23.6714 30.4615L24.442 27.8308C24.6674 27.0574 24.2234 26.2428 23.4501 26.0161L20.5607 25.1708C20.3447 25.1081 20.2221 24.8814 20.2834 24.6654L21.1274 21.7788C21.354 21.0081 20.9087 20.1934 20.1367 19.9654L17.4994 19.1961C17.3674 19.1574 17.2287 19.1375 17.0901 19.1375ZM17.0901 19.6654L17.3514 19.7028L19.9874 20.4708C20.4807 20.6175 20.7661 21.1374 20.6207 21.6308L19.7781 24.5188C19.6341 25.0121 19.9194 25.5335 20.4127 25.6775L23.3007 26.5201C23.7941 26.6668 24.0794 27.1868 23.9354 27.6828L23.1661 30.3148C23.0474 30.7228 22.6727 30.9868 22.2674 30.9868L22.0074 30.9494L19.1194 30.1068L18.8594 30.0694C18.4541 30.0694 18.0794 30.3348 17.9594 30.7415L17.1167 33.6294C16.9981 34.0348 16.6234 34.3001 16.2207 34.3001L15.9581 34.2628L13.3234 33.4948C12.8301 33.3495 12.5447 32.8281 12.6874 32.3361L13.5314 29.4481C13.6754 28.9521 13.3914 28.4321 12.8981 28.2895L10.0087 27.4455C9.5154 27.3015 9.23006 26.7788 9.37406 26.2868L10.1447 23.6508C10.2634 23.2441 10.6394 22.9788 11.0434 22.9788L11.3021 23.0161L14.1901 23.8588L14.4527 23.8974C14.8567 23.8974 15.2314 23.6308 15.3487 23.2268L16.1927 20.3348C16.3114 19.9308 16.6861 19.6654 17.0901 19.6654Z" fill="#472618"/>
<path d="M16.2208 34.3008L15.9582 34.2634L13.3235 33.4955C13.0422 33.4115 12.8288 33.2075 12.7235 32.9555C12.6982 32.8955 12.6795 32.8314 12.6675 32.7661L15.0382 33.4581C15.1315 33.4861 15.2261 33.4994 15.3195 33.4994C15.7608 33.4994 16.1701 33.2088 16.2995 32.7661L17.2181 29.6221C17.3475 29.1795 17.7568 28.8901 18.1981 28.8901C18.2915 28.8901 18.3861 28.9021 18.4795 28.9301L21.6235 29.8501C21.7182 29.8768 21.8142 29.8901 21.9075 29.8901C22.3488 29.8901 22.7568 29.6021 22.8861 29.1595L23.6101 26.6795C23.9021 26.9075 24.0435 27.2955 23.9381 27.6741C23.9368 27.6768 23.9368 27.6794 23.9355 27.6834L23.1661 30.3154C23.0475 30.7234 22.6728 30.9875 22.2675 30.9875L22.0075 30.9501L19.1195 30.1075C19.0328 30.0821 18.9448 30.0701 18.8595 30.0701C18.4555 30.0701 18.0795 30.3341 17.9595 30.7421L17.1168 33.6301C16.9981 34.0354 16.6235 34.3008 16.2208 34.3008Z" fill="#484545"/>
<path d="M16.2205 34.3027C16.1338 34.3027 16.0458 34.2894 15.9578 34.2641L13.3231 33.4961C13.0418 33.4134 12.8285 33.2094 12.7231 32.9561C12.8285 33.2081 13.0418 33.4121 13.3231 33.4961L15.9578 34.2641L16.2205 34.3014C16.6231 34.3014 16.9978 34.0361 17.1165 33.6307C16.9978 34.0361 16.6231 34.3027 16.2205 34.3027ZM22.2671 30.9881C22.1805 30.9881 22.0925 30.9774 22.0071 30.9507L22.2671 30.9881C22.6725 30.9881 23.0471 30.7241 23.1658 30.3161C23.0471 30.7241 22.6711 30.9881 22.2671 30.9881Z" fill="#3F2115"/>
<path d="M34.1058 33.3164L34.0151 33.2977L30.5111 32.2724L30.3405 32.0684C30.2698 31.9444 30.2525 31.7977 30.2911 31.6591L30.4231 31.2111C30.4858 30.9884 30.6951 30.8284 30.9325 30.8284H30.9858L31.0845 30.8497L34.4364 31.8297C34.7164 31.9124 34.8778 32.2071 34.7991 32.4871L34.6684 32.9351C34.6031 33.1591 34.3925 33.3164 34.1551 33.3164H34.1058Z" fill="#4F4C4C"/>
<path d="M30.9324 30.4589C30.5311 30.4589 30.1751 30.7309 30.0671 31.1175L29.9404 31.5495C29.8724 31.7895 29.9031 32.0429 30.0217 32.2495C30.1404 32.4589 30.3351 32.6096 30.5657 32.6722L33.903 33.6482L34.0057 33.6776L34.1551 33.6855C34.5551 33.6855 34.9124 33.4162 35.0217 33.0335L35.1511 32.5962C35.2857 32.1135 35.0124 31.6176 34.5444 31.4762L31.1857 30.4962L31.0844 30.4669L30.9324 30.4589ZM30.9324 31.1962L30.9791 31.2029L34.3337 32.1829L34.4457 32.3882L34.3151 32.8309L34.1551 32.9469L34.111 32.9429L30.7577 31.9616L30.6457 31.7576L30.7764 31.3149L30.9324 31.1962Z" fill="#472618"/>
<path d="M39.4822 34.8887L39.3836 34.866L36.0329 33.8873C35.7502 33.802 35.5889 33.506 35.6715 33.2247L35.7996 32.7833C35.8689 32.5553 36.0782 32.398 36.3115 32.398H36.3649L36.4622 32.4207L39.9596 33.4433L40.1329 33.6567L40.2049 33.79L40.1742 34.0633L40.0462 34.5047C39.9836 34.7287 39.7729 34.8887 39.5355 34.8887H39.4822Z" fill="#4F4C4C"/>
<path d="M36.311 32.0325C35.9177 32.0325 35.5617 32.2965 35.4483 32.6738L35.3163 33.1245C35.1763 33.5965 35.451 34.0991 35.9244 34.2418L39.2817 35.2218L39.383 35.2498L39.535 35.2578C39.9377 35.2578 40.2937 34.9871 40.4017 34.6005L40.5284 34.1658C40.595 33.9365 40.5697 33.6925 40.455 33.4818C40.3404 33.2698 40.1484 33.1151 39.9177 33.0485L36.563 32.0671L36.4617 32.0391L36.311 32.0325ZM36.311 32.7685L36.3564 32.7751L39.7097 33.7538L39.8217 33.9591L39.6924 34.4031L39.535 34.5205L39.4884 34.5151L36.135 33.5351L36.023 33.3298L36.1524 32.8871L36.311 32.7685Z" fill="#472618"/>
<path d="M56.2595 35.9375C55.9289 35.9375 55.5982 35.8895 55.2782 35.7948C53.4302 35.2548 52.3675 33.3135 52.9062 31.4668C53.3395 29.9868 54.7169 28.9522 56.2555 28.9522C56.5862 28.9522 56.9168 29.0015 57.2368 29.0948C59.0835 29.6348 60.1475 31.5762 59.6088 33.4228C59.1755 34.9028 57.7982 35.9375 56.2595 35.9375Z" fill="#EE515E"/>
<path d="M56.2556 28.586C54.5542 28.586 53.0316 29.7287 52.5529 31.3633C51.9569 33.4047 53.1329 35.5527 55.1756 36.15C55.5289 36.2527 55.8942 36.3047 56.2596 36.3047C57.9609 36.3047 59.4836 35.1634 59.9622 33.5274C60.5582 31.486 59.3809 29.338 57.3409 28.742C56.9862 28.638 56.6209 28.586 56.2556 28.586ZM56.2556 29.322C56.5462 29.322 56.8396 29.362 57.1329 29.4487C58.7876 29.9327 59.7382 31.6647 59.2556 33.3207C58.8569 34.6834 57.6116 35.5687 56.2596 35.5687C55.9689 35.5687 55.6742 35.5287 55.3822 35.4434C53.7262 34.958 52.7769 33.2247 53.2596 31.57C53.6582 30.2074 54.9036 29.322 56.2556 29.322Z" fill="#472618"/>
<path d="M56.2594 35.5684C56.1301 35.5684 55.9994 35.5617 55.8687 35.5444C55.7061 35.523 55.5434 35.4897 55.3821 35.443C55.3754 35.4404 55.3687 35.439 55.3621 35.4377C55.2594 35.407 55.1594 35.371 55.0621 35.331C55.0607 35.3297 55.0594 35.3284 55.0567 35.3284C55.0541 35.327 55.0501 35.3257 55.0474 35.3244C55.0434 35.323 55.0407 35.3217 55.0367 35.3204C55.0354 35.319 55.0341 35.319 55.0327 35.3177C54.4954 35.0897 54.0501 34.7204 53.7261 34.271C54.0634 34.5777 54.4741 34.8124 54.9421 34.951C55.2341 35.0364 55.5287 35.0764 55.8194 35.0764C57.1714 35.0764 58.4181 34.191 58.8154 32.8284C59.0954 31.8684 58.8941 30.883 58.3514 30.1284C58.9061 30.6297 59.2661 31.319 59.3581 32.0644C59.3581 32.0657 59.3581 32.0657 59.3581 32.067C59.3594 32.0724 59.3594 32.0777 59.3607 32.083C59.3607 32.083 59.3607 32.0844 59.3607 32.0857C59.3607 32.091 59.3621 32.0977 59.3621 32.103C59.3621 32.1044 59.3621 32.1044 59.3621 32.1057C59.3634 32.111 59.3634 32.115 59.3647 32.119C59.3647 32.1204 59.3647 32.123 59.3647 32.1244C59.3647 32.1297 59.3661 32.1337 59.3661 32.139C59.3661 32.1404 59.3661 32.1417 59.3661 32.143C59.3674 32.1484 59.3674 32.1524 59.3674 32.1577C59.3687 32.1604 59.3687 32.1617 59.3687 32.1644C59.3687 32.1684 59.3687 32.171 59.3701 32.1737C59.3701 32.1764 59.3701 32.179 59.3701 32.1817C59.3701 32.1857 59.3714 32.191 59.3714 32.1964C59.3714 32.199 59.3714 32.2017 59.3714 32.2044C59.3727 32.207 59.3727 32.2097 59.3727 32.2124C59.3727 32.2164 59.3727 32.219 59.3727 32.2217C59.3727 32.2244 59.3741 32.2257 59.3741 32.2284C59.3741 32.235 59.3741 32.2404 59.3754 32.2457C59.3754 32.247 59.3754 32.2497 59.3754 32.2524C59.3754 32.255 59.3754 32.259 59.3754 32.2617C59.3754 32.2644 59.3767 32.2657 59.3767 32.2684C59.3767 32.271 59.3767 32.275 59.3767 32.2777V32.279C59.3767 32.287 59.3781 32.295 59.3781 32.3017C59.3781 32.3044 59.3781 32.3057 59.3781 32.307C59.3781 32.311 59.3781 32.3137 59.3781 32.3177C59.3781 32.319 59.3794 32.3217 59.3794 32.323C59.3794 32.331 59.3794 32.3377 59.3794 32.3457V32.347C59.3794 32.351 59.3794 32.355 59.3794 32.359C59.3807 32.3604 59.3807 32.3617 59.3807 32.363C59.3807 32.367 59.3807 32.371 59.3807 32.3737C59.3807 32.375 59.3807 32.375 59.3807 32.375C59.3807 32.383 59.3807 32.391 59.3807 32.399C59.3807 32.4004 59.3807 32.4017 59.3807 32.403C59.3807 32.407 59.3807 32.411 59.3807 32.4137C59.3807 32.4164 59.3807 32.4177 59.3807 32.419C59.3807 32.427 59.3807 32.435 59.3807 32.443C59.3807 32.447 59.3807 32.451 59.3807 32.455C59.3807 32.4564 59.3807 32.4577 59.3807 32.459C59.3807 32.463 59.3807 32.467 59.3807 32.471C59.3807 32.471 59.3807 32.4724 59.3807 32.4737C59.3807 32.4804 59.3807 32.487 59.3807 32.495C59.3807 32.4964 59.3807 32.4977 59.3807 32.5004C59.3807 32.503 59.3807 32.507 59.3807 32.5097C59.3807 32.5124 59.3807 32.5137 59.3807 32.5164C59.3807 32.523 59.3794 32.531 59.3794 32.5377C59.3794 32.5377 59.3794 32.539 59.3794 32.5404C59.3794 32.5444 59.3794 32.547 59.3794 32.551C59.3794 32.5524 59.3794 32.555 59.3794 32.5564C59.3794 32.5604 59.3794 32.563 59.3794 32.567C59.3781 32.5684 59.3781 32.571 59.3781 32.5724C59.3781 32.579 59.3781 32.5844 59.3781 32.5897C59.3781 32.5924 59.3781 32.595 59.3781 32.5977C59.3767 32.6004 59.3767 32.603 59.3767 32.607C59.3767 32.6097 59.3767 32.611 59.3767 32.6137C59.3767 32.6177 59.3767 32.6204 59.3754 32.6244C59.3754 32.6284 59.3754 32.6324 59.3754 32.6377C59.3754 32.6404 59.3754 32.643 59.3741 32.6457C59.3741 32.6484 59.3741 32.6524 59.3741 32.655C59.3741 32.6577 59.3741 32.6604 59.3741 32.663C59.3727 32.6657 59.3727 32.6697 59.3727 32.6737C59.3727 32.6764 59.3727 32.6804 59.3714 32.6844C59.3714 32.687 59.3714 32.691 59.3714 32.695C59.3714 32.6977 59.3701 32.7004 59.3701 32.703C59.3701 32.7057 59.3701 32.7097 59.3701 32.7124C59.3687 32.715 59.3687 32.7177 59.3687 32.7204C59.3687 32.7257 59.3674 32.731 59.3674 32.735C59.3674 32.7377 59.3674 32.7404 59.3674 32.7417C59.3661 32.7457 59.3661 32.7497 59.3661 32.7524C59.3661 32.755 59.3647 32.7564 59.3647 32.759C59.3647 32.7644 59.3647 32.7684 59.3634 32.7737C59.3634 32.7737 59.3634 32.775 59.3634 32.7764C59.3634 32.783 59.3621 32.787 59.3621 32.7937C59.3607 32.795 59.3607 32.7964 59.3607 32.7977C59.3607 32.803 59.3594 32.807 59.3594 32.8124C59.3594 32.8137 59.3594 32.815 59.3594 32.8164C59.3581 32.8217 59.3581 32.8284 59.3567 32.8337V32.835C59.3554 32.8404 59.3554 32.847 59.3541 32.8524C59.3541 32.8524 59.3541 32.8537 59.3541 32.855C59.3527 32.867 59.3501 32.879 59.3487 32.8924C59.3487 32.8924 59.3487 32.8924 59.3487 32.8937C59.3474 32.899 59.3474 32.9057 59.3461 32.911V32.9124C59.3434 32.9244 59.3421 32.9377 59.3394 32.9497C59.3394 32.951 59.3394 32.951 59.3394 32.9524C59.3367 32.971 59.3327 32.9897 59.3301 33.0084C59.3301 33.0097 59.3287 33.0097 59.3287 33.0097C59.3274 33.023 59.3247 33.035 59.3221 33.047C59.3221 33.0484 59.3221 33.0484 59.3221 33.0484C59.3154 33.0804 59.3087 33.1137 59.3007 33.1457C59.2967 33.1644 59.2914 33.1844 59.2874 33.203C59.2874 33.2044 59.2874 33.2044 59.2874 33.2044C59.2834 33.2164 59.2807 33.2297 59.2767 33.2417C59.2767 33.243 59.2767 33.243 59.2767 33.2444C59.2754 33.2497 59.2741 33.2564 59.2714 33.2617C59.2701 33.2684 59.2687 33.275 59.2661 33.2804C59.2661 33.2817 59.2661 33.283 59.2661 33.283C59.2647 33.2884 59.2634 33.2937 59.2621 33.299C59.2607 33.3004 59.2607 33.3017 59.2607 33.3017C59.2594 33.3084 59.2567 33.3137 59.2554 33.3204C59.0941 33.8737 58.7914 34.3497 58.3994 34.7177C57.8274 35.2564 57.0621 35.5684 56.2594 35.5684Z" fill="#EA2F41"/>
<path d="M59.362 32.7937C59.362 32.787 59.3634 32.783 59.3634 32.7764C59.3634 32.7817 59.362 32.787 59.362 32.7937ZM59.3794 32.5404C59.3794 32.539 59.3794 32.5377 59.3794 32.5377C59.3794 32.539 59.3794 32.539 59.3794 32.5404ZM59.3767 32.2684C59.3767 32.2657 59.3754 32.2644 59.3754 32.2617C59.3754 32.2644 59.3754 32.2657 59.3767 32.2684ZM59.3647 32.119C59.3634 32.115 59.3634 32.111 59.362 32.1057C59.3634 32.1097 59.3634 32.115 59.3647 32.119ZM59.358 32.0644C59.266 31.319 58.906 30.6297 58.3514 30.1284C58.35 30.127 58.35 30.1257 58.3487 30.1244C58.906 30.6284 59.266 31.319 59.358 32.0644Z" fill="#471814"/>
<path d="M56.8875 29.7579C56.8795 29.7566 56.7928 29.7459 56.6515 29.7459L56.4555 29.7513C56.3328 29.7579 56.2395 29.8633 56.2462 29.9873C56.2542 30.1086 56.3582 30.2033 56.4808 30.1953L56.6515 30.1899L56.8315 30.1979C56.9528 30.2126 57.0648 30.1273 57.0795 30.0059C57.0942 29.8833 57.0088 29.7726 56.8875 29.7579ZM56.3515 29.7593C56.1568 29.7766 55.9209 29.8126 55.6675 29.8886L55.5182 30.1646L55.7942 30.3153C56.0128 30.2486 56.2195 30.2166 56.3902 30.2006C56.5115 30.1899 56.6022 30.0833 56.5915 29.9606C56.5808 29.8393 56.4728 29.7486 56.3515 29.7606V29.7593ZM55.2728 30.0353L55.1768 30.0806L55.0768 30.3779L55.3742 30.4793L55.4555 30.4406L55.5662 30.1459L55.2728 30.0353ZM54.5888 30.4699L54.2888 30.7699L54.3142 31.0833L54.6275 31.0579L54.8782 30.8059L54.9009 30.4926L54.5888 30.4699ZM54.2222 30.8526C54.0862 31.0246 53.9622 31.2219 53.8555 31.4486L53.9622 31.7433L54.2568 31.6379C54.3488 31.4419 54.4555 31.2726 54.5702 31.1273L54.5342 30.8153L54.2222 30.8513V30.8526ZM53.7009 31.8353L53.6688 31.9339L53.8168 32.2113L54.0942 32.0646L54.1222 31.9766L53.9808 31.6953L53.7009 31.8353ZM53.5208 32.6006C53.5048 32.7126 53.4915 32.8286 53.4808 32.9486C53.4702 33.0699 53.5608 33.1779 53.6835 33.1886C53.8048 33.1993 53.9128 33.1086 53.9235 32.9873L53.9595 32.6659C53.9782 32.5446 53.8942 32.4326 53.7728 32.4139C53.6515 32.3966 53.5395 32.4793 53.5208 32.6006Z" fill="white"/>
<path d="M52.8313 47.6699C52.5006 47.6699 52.17 47.6219 51.85 47.5286C50.9553 47.2686 50.2166 46.6766 49.7686 45.8579C49.3193 45.0393 49.2166 44.0966 49.478 43.2006C49.91 41.7206 51.2873 40.6873 52.8273 40.6873C53.158 40.6873 53.4873 40.7339 53.8086 40.8286C54.7033 41.0899 55.4433 41.6846 55.8913 42.5033C56.3393 43.3206 56.442 44.2646 56.1806 45.1593C55.7486 46.6379 54.3713 47.6699 52.8313 47.6699Z" fill="#F9F282"/>
<path d="M52.8268 40.3184C51.1241 40.3184 49.6028 41.4598 49.1241 43.0971C48.8361 44.0864 48.9495 45.1291 49.4455 46.0344C49.9401 46.9384 50.7575 47.5944 51.7468 47.8824C52.1001 47.9851 52.4655 48.0371 52.8308 48.0371C54.5335 48.0371 56.0562 46.8971 56.5335 45.2611C56.8228 44.2718 56.7095 43.2291 56.2135 42.3251C55.7188 41.4198 54.9001 40.7638 53.9108 40.4731C53.5575 40.3704 53.1921 40.3184 52.8268 40.3184ZM52.8268 41.0544C53.1175 41.0544 53.4108 41.0945 53.7041 41.1798C55.3601 41.6651 56.3108 43.3984 55.8268 45.0558C55.4281 46.4171 54.1828 47.3011 52.8308 47.3011C52.5401 47.3011 52.2455 47.2611 51.9521 47.1758C50.2975 46.6931 49.3468 44.9584 49.8321 43.3024C50.2295 41.9398 51.4748 41.0544 52.8268 41.0544Z" fill="#472618"/>
<path d="M52.8311 47.3008C52.5404 47.3008 52.2457 47.2608 51.9524 47.1755C51.5164 47.0475 51.127 46.8328 50.8017 46.5555C50.611 46.3915 50.4417 46.2075 50.2964 46.0061C50.6351 46.3101 51.047 46.5474 51.5137 46.6834C51.807 46.7688 52.1017 46.8088 52.391 46.8088C53.743 46.8088 54.9884 45.9235 55.387 44.5608C55.6684 43.6021 55.4644 42.6128 54.9217 41.8595C55.043 41.9688 55.155 42.0875 55.2564 42.2128C55.2604 42.2168 55.2631 42.2221 55.2671 42.2261C55.6191 42.6661 55.8484 43.1981 55.9257 43.7621C55.9257 43.7621 55.9257 43.7621 55.9257 43.7634C55.9257 43.7688 55.9271 43.7741 55.9271 43.7808C55.9284 43.7821 55.9284 43.7834 55.9284 43.7848C55.9284 43.7888 55.9297 43.7928 55.9297 43.7955C55.9297 43.7981 55.9297 43.8021 55.9311 43.8048C55.9311 43.8061 55.9311 43.8088 55.9311 43.8101C55.9777 44.2061 55.9497 44.6168 55.835 45.0248C55.835 45.0261 55.8351 45.0275 55.8337 45.0288C55.8337 45.0328 55.8324 45.0355 55.8311 45.0395C55.8297 45.0448 55.8284 45.0501 55.8271 45.0555C55.4284 46.4168 54.1831 47.3008 52.8311 47.3008Z" fill="#F5EB51"/>
<path d="M51.9529 47.1758C51.5169 47.0491 51.1276 46.8331 50.8022 46.5558C51.1276 46.8331 51.5169 47.0478 51.9529 47.1758ZM55.9263 43.7625C55.8489 43.1985 55.6196 42.6664 55.2676 42.2264C55.6196 42.6664 55.8489 43.1971 55.9263 43.7625ZM55.2676 42.2264C55.2636 42.2224 55.2609 42.2171 55.2569 42.2131C55.2609 42.2171 55.2636 42.2211 55.2676 42.2264Z" fill="#462515"/>
<path d="M53.4581 41.4871C53.4514 41.4871 53.3647 41.4764 53.2221 41.4764L53.0274 41.4817C52.9047 41.4884 52.8101 41.5937 52.8181 41.7164C52.8247 41.8391 52.9301 41.9324 53.0527 41.9257L53.2221 41.9204L53.4034 41.9284C53.5247 41.9431 53.6354 41.8577 53.6514 41.7351C53.6661 41.6137 53.5807 41.5031 53.4594 41.4884L53.4581 41.4871ZM52.9234 41.4897C52.7274 41.5071 52.4927 41.5431 52.2394 41.6191L52.0887 41.8951L52.3648 42.0444C52.5848 41.9791 52.7914 41.9471 52.9621 41.9311C53.0834 41.9204 53.1741 41.8137 53.1634 41.6911C53.1514 41.5684 53.0447 41.4791 52.9234 41.4897ZM51.8447 41.7657L51.7487 41.8111L51.6487 42.1084L51.9461 42.2084L52.0274 42.1711L52.1381 41.8764L51.8434 41.7657H51.8447ZM51.1594 42.1991L50.8607 42.5004L50.8847 42.8137L51.1994 42.7897L51.4501 42.5364L51.4741 42.2231L51.1594 42.1991ZM50.7941 42.5831C50.6581 42.7551 50.5341 42.9524 50.4274 43.1804L50.5341 43.4751L50.8287 43.3684C50.9221 43.1724 51.0274 43.0031 51.1421 42.8577L51.1047 42.5457L50.7941 42.5831ZM50.2727 43.5657L50.2421 43.6644L50.3887 43.9417L50.6661 43.7951L50.6941 43.7071L50.5541 43.4257L50.2727 43.5657ZM50.0927 44.3324L50.0541 44.6791C50.0434 44.8004 50.1341 44.9084 50.2567 44.9191C50.3781 44.9297 50.4861 44.8391 50.4968 44.7164L50.5328 44.3977C50.5501 44.2751 50.4661 44.1631 50.3461 44.1444C50.2247 44.1257 50.1114 44.2097 50.0927 44.3324Z" fill="white"/>
<path d="M48.419 40.2031C48.0896 40.2031 47.7603 40.1565 47.4416 40.0631C45.5923 39.5218 44.5296 37.5805 45.0683 35.7338C45.5016 34.2538 46.879 33.2205 48.4176 33.2205C48.7483 33.2205 49.079 33.2685 49.399 33.3618C50.2923 33.6205 51.0323 34.2151 51.4803 35.0325C51.9283 35.8511 52.0323 36.7938 51.7696 37.6898C51.3389 39.1698 49.9603 40.2031 48.419 40.2031Z" fill="#6ECDB0"/>
<path d="M48.4177 32.8536C46.7164 32.8536 45.1937 33.9949 44.715 35.6296C44.119 37.6723 45.295 39.8189 47.3377 40.4163C47.691 40.5203 48.055 40.5723 48.419 40.5723C50.123 40.5723 51.6457 39.4283 52.123 37.7923C52.4124 36.8029 52.299 35.7589 51.803 34.8549C51.3083 33.9523 50.491 33.2963 49.5017 33.0083C49.1483 32.9056 48.7844 32.8536 48.4177 32.8536ZM48.4177 33.5883C48.7084 33.5883 49.003 33.6296 49.295 33.7149C50.951 34.1963 51.9003 35.9309 51.4163 37.5869C51.019 38.9523 49.7724 39.8349 48.419 39.8349C48.1297 39.8349 47.8363 39.7936 47.5443 39.7096C45.8883 39.2243 44.939 37.4909 45.4217 35.8363C45.8204 34.4736 47.0657 33.5883 48.4177 33.5883Z" fill="#472618"/>
<path d="M48.4192 39.834C48.1299 39.834 47.8365 39.7927 47.5445 39.7087C47.5379 39.7073 47.5312 39.7047 47.5245 39.7033V39.702C47.4219 39.6727 47.3219 39.6366 47.2259 39.5966C47.2232 39.5953 47.2219 39.5953 47.2192 39.594C47.2165 39.5927 47.2125 39.5913 47.2099 39.59C47.2059 39.5887 47.2032 39.5873 47.1992 39.586C47.1979 39.586 47.1965 39.5847 47.1952 39.5833C46.6579 39.3553 46.2125 38.9873 45.8872 38.5367C46.2259 38.8447 46.6365 39.078 47.1045 39.2167C47.3965 39.302 47.6912 39.342 47.9805 39.342C49.3325 39.342 50.5792 38.458 50.9779 37.094C51.2579 36.134 51.0552 35.1473 50.5152 34.3927C50.6045 34.474 50.6899 34.562 50.7699 34.6527C51.3459 35.3127 51.6339 36.202 51.5179 37.1073C51.5165 37.11 51.5165 37.1126 51.5165 37.1153C51.5165 37.118 51.5152 37.1207 51.5152 37.1233C51.5139 37.134 51.5125 37.146 51.5099 37.158V37.1593C51.4899 37.2953 51.4605 37.43 51.4232 37.566C51.4219 37.566 51.4219 37.5673 51.4219 37.5673C51.4205 37.574 51.4179 37.5807 51.4165 37.586C51.2605 38.122 50.9739 38.5833 50.6006 38.946C50.0246 39.5073 49.2419 39.834 48.4192 39.834Z" fill="#3BBB93"/>
<path d="M48.4201 39.834C48.1295 39.834 47.8361 39.794 47.5441 39.7087C47.8361 39.7927 48.1295 39.834 48.4188 39.834C49.2415 39.834 50.0242 39.5073 50.6002 38.946C50.0242 39.5073 49.2415 39.834 48.4201 39.834ZM51.4228 37.566C51.4602 37.43 51.4895 37.2953 51.5095 37.1593C51.4895 37.2953 51.4602 37.4313 51.4228 37.566ZM50.7695 34.6527C50.6895 34.562 50.6041 34.474 50.5148 34.3927C50.5135 34.3927 50.5135 34.3913 50.5121 34.39C50.6041 34.4727 50.6895 34.5607 50.7695 34.6527Z" fill="#2D2519"/>
<path d="M49.0483 34.0214C49.0416 34.0201 48.9536 34.0107 48.8109 34.0107L48.6176 34.0161C48.4949 34.0214 48.4016 34.1281 48.4083 34.2494C48.4149 34.3721 48.5203 34.4654 48.6429 34.4587L48.8109 34.4534C48.9323 34.4534 48.9936 34.4627 48.995 34.4614C49.1163 34.4774 49.2269 34.3907 49.2416 34.2694C49.2563 34.1467 49.1709 34.0374 49.0496 34.0214H49.0483ZM48.5136 34.0227C48.3189 34.0401 48.083 34.0761 47.8296 34.1521L47.6803 34.4281L47.9563 34.5774C48.175 34.5134 48.3816 34.4801 48.5523 34.4654C48.6736 34.4534 48.7643 34.3467 48.755 34.2241C48.743 34.1014 48.6363 34.0107 48.5136 34.0227ZM47.4349 34.2987L47.3389 34.3441L47.2389 34.6414L47.5363 34.7414L47.6176 34.7027L47.7283 34.4094L47.4349 34.2974V34.2987ZM46.751 34.7321L46.451 35.0321L46.4749 35.3467L46.7883 35.3214L47.0403 35.0681L47.0643 34.7547L46.751 34.7307V34.7321ZM46.3843 35.1147C46.2483 35.2867 46.1243 35.4854 46.0176 35.7121L46.1243 36.0067L46.419 35.9014C46.511 35.7041 46.6176 35.5347 46.7323 35.3907L46.695 35.0787L46.3843 35.1161V35.1147ZM45.863 36.0974L45.831 36.1961L45.9789 36.4734L46.2563 36.3267L46.2843 36.2401L46.1443 35.9574L45.863 36.0974ZM45.6829 36.8641C45.6669 36.9761 45.6536 37.0921 45.6429 37.2121C45.6323 37.3347 45.7229 37.4414 45.8456 37.4521C45.9669 37.4641 46.075 37.3721 46.0856 37.2507L46.1216 36.9281C46.1403 36.8067 46.0563 36.6947 45.9349 36.6774C45.8136 36.6587 45.7016 36.7427 45.6829 36.8654" fill="white"/>
<path d="M60.4871 43.7285C60.1577 43.7285 59.8284 43.6805 59.5084 43.5872C57.6604 43.0472 56.5964 41.1045 57.1377 39.2565C57.5697 37.7778 58.9484 36.7432 60.4884 36.7432C60.8177 36.7432 61.1471 36.7898 61.4657 36.8845C63.3137 37.4245 64.3777 39.3672 63.839 41.2152C63.4057 42.6938 62.0284 43.7285 60.4871 43.7285Z" fill="#B792D0"/>
<path d="M60.4889 36.3763C58.785 36.3763 57.2623 37.5203 56.7849 39.155C56.1876 41.1963 57.3636 43.3457 59.4049 43.9417C59.7596 44.0457 60.1223 44.0977 60.4876 44.0977C62.1903 44.0977 63.7143 42.9537 64.193 41.3203C64.7876 39.2777 63.6129 37.1297 61.5703 36.531C61.2169 36.4283 60.8529 36.3763 60.4889 36.3763ZM60.4889 37.1137C60.7783 37.1137 61.0716 37.1537 61.3636 37.2377C63.0196 37.723 63.9689 39.4577 63.4863 41.1137C63.0876 42.4777 61.8396 43.3603 60.4876 43.3603C60.1983 43.3603 59.9036 43.3203 59.6129 43.2363C57.9569 42.751 57.0063 41.0177 57.4916 39.3603C57.8903 37.999 59.1369 37.1137 60.4889 37.1137Z" fill="#472618"/>
<path d="M60.4876 43.3594C60.1982 43.3594 59.9036 43.3194 59.6129 43.2354C59.6062 43.2327 59.6009 43.2314 59.5942 43.2287C59.5929 43.2287 59.5916 43.2287 59.5889 43.2287C59.5849 43.226 59.5809 43.2247 59.5756 43.2234C59.5742 43.2234 59.5715 43.2234 59.5702 43.222C59.5662 43.2207 59.5622 43.2194 59.5582 43.218C59.5556 43.218 59.5542 43.2167 59.5516 43.2167C59.5476 43.2154 59.5436 43.214 59.5396 43.2127C59.5382 43.2114 59.5356 43.2114 59.5329 43.21C59.5289 43.2087 59.5249 43.2074 59.5209 43.206C59.5182 43.206 59.5169 43.2047 59.5142 43.2047C59.5089 43.202 59.5036 43.2007 59.4996 43.1994C59.4956 43.198 59.4929 43.1967 59.4902 43.1954C59.4876 43.1954 59.4849 43.194 59.4822 43.1927C59.4782 43.1927 59.4742 43.1914 59.4715 43.19C59.4689 43.1887 59.4676 43.1887 59.4662 43.1874C59.4609 43.186 59.4569 43.1847 59.4529 43.1834C59.4516 43.1834 59.4516 43.1834 59.4502 43.1834C58.8302 42.9647 58.3169 42.5647 57.9556 42.0634C58.2942 42.3674 58.7049 42.6047 59.1729 42.7394C59.4649 42.826 59.7609 42.866 60.0502 42.866C61.4022 42.866 62.6489 41.9807 63.0462 40.6207C63.3276 39.6594 63.1236 38.6727 62.5809 37.9167C62.9702 38.2687 63.2635 38.7127 63.4355 39.202C63.4369 39.206 63.4382 39.2087 63.4382 39.2114C63.4395 39.2127 63.4396 39.2154 63.4409 39.2167C63.6449 39.8074 63.6742 40.466 63.4862 41.1127C63.3729 41.498 63.1929 41.8447 62.9622 42.1447C62.3742 42.9047 61.4582 43.3594 60.4876 43.3594Z" fill="#9368BA"/>
<path d="M60.487 43.3594C60.1977 43.3594 59.9044 43.3194 59.6124 43.2354C59.903 43.3194 60.1977 43.3594 60.487 43.3594ZM63.4857 41.1127C63.6737 40.466 63.6444 39.8074 63.4404 39.2167C63.6444 39.8074 63.675 40.466 63.4857 41.1127Z" fill="#3B1E19"/>
<path d="M61.1166 37.5476C61.11 37.5476 61.022 37.537 60.8793 37.537L60.686 37.5423C60.5633 37.549 60.47 37.6543 60.4766 37.777C60.4833 37.8983 60.5886 37.993 60.7113 37.9863L60.8793 37.9809C61.0006 37.9809 61.062 37.989 61.062 37.989C61.1847 38.0036 61.2953 37.917 61.31 37.7956C61.3246 37.6743 61.2393 37.5636 61.118 37.5489L61.1166 37.5476ZM60.582 37.5503C60.386 37.5663 60.1513 37.6036 59.898 37.6783L59.7473 37.9543L60.0233 38.105C60.2433 38.0396 60.45 38.0076 60.6206 37.9916C60.742 37.981 60.8326 37.8743 60.822 37.7516C60.8113 37.6289 60.7033 37.5383 60.582 37.5489V37.5503ZM59.5033 37.825L59.4073 37.8703L59.306 38.1676L59.6046 38.269L59.686 38.2303L59.7967 37.9356L59.5033 37.825ZM58.818 38.2596L58.5193 38.5596L58.5433 38.873L58.8566 38.8489L59.1086 38.5956L59.1313 38.2809L58.818 38.2583V38.2596ZM58.4513 38.6423C58.3153 38.8143 58.1913 39.0116 58.086 39.2383L58.1913 39.5329L58.4873 39.4276C58.5793 39.2316 58.686 39.0623 58.8007 38.9169L58.7633 38.605L58.4513 38.6423ZM57.9313 39.625L57.8993 39.7236L58.0473 40.0009L58.3246 39.853L58.3526 39.7663L58.2126 39.4836L57.9313 39.6236V39.625ZM57.7513 40.3916C57.734 40.5023 57.7206 40.6196 57.7113 40.7396C57.7006 40.861 57.7913 40.969 57.914 40.9796C58.0353 40.9903 58.1433 40.8983 58.154 40.777L58.19 40.4556C58.2073 40.3343 58.1233 40.2223 58.0033 40.205C57.882 40.1863 57.7686 40.2703 57.7513 40.3916Z" fill="white"/>
<path d="M5.87552 27.0921L5.87419 26.9467L5.87684 26.7147C5.88084 26.5107 5.71951 26.3441 5.51685 26.3401C5.31285 26.3347 5.14485 26.4961 5.14085 26.6987L5.13818 26.9467L5.13952 27.1054C5.14352 27.3081 5.31151 27.4707 5.51418 27.4667C5.71818 27.4627 5.87951 27.2947 5.87684 27.0921H5.87552ZM5.87951 26.6201C5.88484 26.4094 5.89818 26.1987 5.91551 25.9907C5.93284 25.7894 5.78351 25.6107 5.58084 25.5921C5.37818 25.5747 5.20084 25.7254 5.18218 25.9281C5.16351 26.1494 5.15017 26.3734 5.14351 26.5987C5.13684 26.8014 5.29685 26.9707 5.50085 26.9774C5.70351 26.9827 5.87284 26.8241 5.87951 26.6201ZM5.95552 25.6147L5.96618 25.5214C5.99285 25.3187 5.85151 25.1347 5.64884 25.1081C5.44751 25.0827 5.26352 25.2241 5.23685 25.4254L5.22485 25.5254C5.19952 25.7281 5.34217 25.9107 5.54484 25.9361C5.74617 25.9614 5.93018 25.8174 5.95552 25.6161V25.6147ZM6.06618 24.8987C6.09018 24.7747 6.11684 24.6521 6.14484 24.5294C6.18884 24.3307 6.06485 24.1334 5.86618 24.0881C5.66751 24.0427 5.47152 24.1681 5.42619 24.3654C5.39685 24.4974 5.36884 24.6281 5.34351 24.7614C5.30484 24.9614 5.43685 25.1534 5.63685 25.1921C5.83552 25.2307 6.02885 25.0987 6.06751 24.8987H6.06618ZM6.16484 24.4361C6.21418 24.2307 6.26884 24.0281 6.32751 23.8281C6.38617 23.6321 6.27551 23.4281 6.08084 23.3707C5.88484 23.3121 5.68085 23.4227 5.62352 23.6187C5.55952 23.8321 5.50084 24.0481 5.44884 24.2667C5.40218 24.4641 5.52485 24.6627 5.72218 24.7094C5.92085 24.7561 6.11818 24.6334 6.16484 24.4361ZM6.44351 23.4667L6.47419 23.3761C6.53952 23.1854 6.43818 22.9747 6.24618 22.9081C6.05418 22.8414 5.84484 22.9441 5.77817 23.1361L5.74618 23.2307C5.68084 23.4227 5.78484 23.6321 5.97684 23.6974C6.17017 23.7614 6.37817 23.6574 6.44351 23.4654V23.4667ZM6.69818 22.7867L6.84884 22.4387C6.93284 22.2534 6.85151 22.0347 6.66618 21.9521C6.48085 21.8681 6.26351 21.9494 6.17951 22.1347C6.12351 22.2561 6.07018 22.3801 6.01818 22.5054C5.94085 22.6934 6.03018 22.9081 6.21685 22.9854C6.40485 23.0641 6.61951 22.9747 6.69818 22.7867ZM6.88885 22.3534C6.97818 22.1627 7.07285 21.9747 7.17285 21.7894C7.26885 21.6107 7.20218 21.3867 7.02218 21.2907C6.84352 21.1947 6.62085 21.2614 6.52485 21.4401C6.41819 21.6374 6.31685 21.8387 6.22218 22.0427C6.13552 22.2254 6.21551 22.4454 6.39951 22.5307C6.58351 22.6161 6.80218 22.5374 6.88885 22.3534ZM7.35819 21.4587L7.40619 21.3774C7.51019 21.2027 7.45284 20.9774 7.27817 20.8734C7.10351 20.7681 6.87819 20.8254 6.77419 21.0001L6.72218 21.0867C6.61952 21.2627 6.67818 21.4881 6.85418 21.5907C7.03018 21.6934 7.25552 21.6334 7.35819 21.4587ZM7.74484 20.8454L7.96217 20.5361C8.08217 20.3707 8.04618 20.1414 7.88218 20.0214C7.71818 19.9014 7.48751 19.9374 7.36885 20.1027L7.13551 20.4321C7.02085 20.6001 7.06485 20.8294 7.23418 20.9441C7.40218 21.0574 7.63017 21.0134 7.74484 20.8454ZM8.01952 20.4601C8.14485 20.2907 8.27417 20.1254 8.41017 19.9641C8.53951 19.8081 8.51818 19.5761 8.36351 19.4467C8.20751 19.3161 7.97551 19.3374 7.84484 19.4934C7.70084 19.6641 7.56217 19.8414 7.42751 20.0201C7.30617 20.1827 7.34085 20.4134 7.50352 20.5347C7.66618 20.6574 7.89685 20.6227 8.01818 20.4614L8.01952 20.4601ZM8.65685 19.6787L8.72085 19.6094C8.85818 19.4587 8.84751 19.2254 8.69818 19.0881C8.54751 18.9507 8.31417 18.9614 8.17684 19.1121L8.10885 19.1867C7.97285 19.3387 7.98618 19.5707 8.13685 19.7067C8.28885 19.8427 8.52085 19.8307 8.65819 19.6801L8.65685 19.6787ZM9.15952 19.1561L9.43418 18.8961C9.58485 18.7587 9.59552 18.5267 9.45819 18.3761C9.32219 18.2254 9.08885 18.2147 8.93818 18.3521L8.64484 18.6294C8.49951 18.7707 8.49685 19.0041 8.63952 19.1494C8.78085 19.2947 9.01286 19.2974 9.15952 19.1547V19.1561ZM9.50485 18.8334C9.66085 18.6934 9.82218 18.5574 9.98618 18.4267C10.1448 18.3001 10.1715 18.0681 10.0448 17.9094C9.91817 17.7494 9.68751 17.7227 9.52751 17.8494C9.35151 17.9907 9.18084 18.1347 9.01418 18.2854C8.86218 18.4201 8.84885 18.6521 8.98485 18.8041C9.12085 18.9561 9.35285 18.9681 9.50485 18.8334ZM10.2848 18.1961L10.3622 18.1401C10.5262 18.0201 10.5622 17.7894 10.4422 17.6254C10.3235 17.4614 10.0928 17.4254 9.92884 17.5454L9.84751 17.6054C9.68351 17.7254 9.65018 17.9561 9.77152 18.1187C9.89152 18.2827 10.1222 18.3161 10.2848 18.1961ZM10.8822 17.7854L11.2022 17.5867C11.3768 17.4827 11.4342 17.2561 11.3302 17.0814C11.2262 16.9067 11.0009 16.8494 10.8262 16.9534L10.4835 17.1654C10.3128 17.2747 10.2635 17.5027 10.3729 17.6734C10.4822 17.8441 10.7102 17.8934 10.8808 17.7841L10.8822 17.7854ZM11.2835 17.5374C11.4648 17.4321 11.6488 17.3321 11.8368 17.2361C12.0168 17.1441 12.0902 16.9227 11.9982 16.7414C11.9062 16.5601 11.6835 16.4881 11.5035 16.5801C11.3022 16.6827 11.1062 16.7894 10.9128 16.9014C10.7368 17.0041 10.6768 17.2294 10.7795 17.4067C10.8822 17.5814 11.1075 17.6414 11.2835 17.5387V17.5374ZM12.1755 17.0721L12.2608 17.0321C12.4462 16.9481 12.5275 16.7307 12.4435 16.5454C12.3595 16.3601 12.1409 16.2774 11.9569 16.3627L11.8648 16.4041C11.6808 16.4894 11.6008 16.7094 11.6875 16.8934C11.7728 17.0774 11.9915 17.1561 12.1755 17.0707V17.0721ZM12.8409 16.7894L13.1955 16.6587C13.3875 16.5921 13.4902 16.3827 13.4235 16.1907C13.3569 15.9987 13.1462 15.8974 12.9555 15.9641C12.8275 16.0081 12.7022 16.0534 12.5755 16.1027C12.3862 16.1761 12.2915 16.3881 12.3662 16.5787C12.4382 16.7681 12.6515 16.8614 12.8409 16.7894ZM13.2848 16.6281C13.4835 16.5614 13.6849 16.5001 13.8889 16.4454C14.0835 16.3907 14.1995 16.1881 14.1462 15.9934C14.0928 15.7974 13.8902 15.6814 13.6942 15.7347C13.4768 15.7947 13.2622 15.8601 13.0502 15.9307C12.8582 15.9947 12.7542 16.2041 12.8195 16.3974C12.8835 16.5894 13.0928 16.6934 13.2862 16.6281H13.2848ZM14.2555 16.3521L14.3475 16.3307C14.5448 16.2854 14.6702 16.0881 14.6249 15.8907C14.5795 15.6921 14.3822 15.5667 14.1848 15.6121L14.0862 15.6361C13.8875 15.6827 13.7648 15.8801 13.8128 16.0774C13.8582 16.2761 14.0569 16.3974 14.2542 16.3521H14.2555ZM14.9648 16.2094C15.0888 16.1894 15.2142 16.1707 15.3395 16.1534C15.5409 16.1281 15.6822 15.9427 15.6569 15.7414C15.6302 15.5401 15.4448 15.3974 15.2435 15.4254C15.1102 15.4414 14.9768 15.4614 14.8448 15.4827C14.6435 15.5161 14.5075 15.7067 14.5422 15.9067C14.5755 16.1067 14.7648 16.2427 14.9648 16.2094ZM15.4328 16.1427C15.6408 16.1174 15.8502 16.0974 16.0608 16.0841C16.2635 16.0707 16.4169 15.8961 16.4049 15.6934C16.3915 15.4907 16.2168 15.3374 16.0142 15.3494C15.7888 15.3641 15.5648 15.3841 15.3435 15.4121C15.1422 15.4361 14.9982 15.6187 15.0235 15.8214C15.0475 16.0227 15.2315 16.1667 15.4328 16.1427ZM16.4382 16.0667L16.5328 16.0641C16.7368 16.0601 16.8969 15.8921 16.8929 15.6881C16.8889 15.4854 16.7208 15.3241 16.5182 15.3281L16.4168 15.3307C16.2142 15.3374 16.0542 15.5067 16.0595 15.7094C16.0662 15.9121 16.2355 16.0734 16.4382 16.0667Z" fill="white"/>
<path d="M54.6178 50.8359C53.8485 50.8359 53.0711 50.7666 52.2938 50.6213C51.8738 50.5439 51.4538 50.4439 51.0351 50.3213C51.0218 50.3173 51.0085 50.3133 50.9965 50.3093C50.9952 50.3093 50.9938 50.3093 50.9925 50.3079C50.9805 50.3053 50.9685 50.3013 50.9578 50.2986C50.9551 50.2973 50.9538 50.2973 50.9511 50.2959C50.9405 50.2933 50.9298 50.2893 50.9178 50.2866C50.9165 50.2866 50.9151 50.2853 50.9125 50.2853C50.9018 50.2813 50.8898 50.2786 50.8791 50.2746C50.8778 50.2746 50.8765 50.2733 50.8738 50.2733C50.8631 50.2693 50.8511 50.2653 50.8391 50.2626C50.8378 50.2626 50.8378 50.2613 50.8365 50.2613C50.3258 50.1039 49.8338 49.9173 49.3591 49.7026C49.3578 49.7026 49.3551 49.7013 49.3538 49.6999C49.3431 49.6959 49.3338 49.6906 49.3231 49.6866C49.3218 49.6853 49.3191 49.6853 49.3178 49.6839C49.3085 49.6799 49.2978 49.6746 49.2885 49.6706C49.2858 49.6693 49.2831 49.6679 49.2805 49.6666C49.2711 49.6626 49.2631 49.6586 49.2538 49.6546C49.2511 49.6533 49.2471 49.6519 49.2445 49.6506C49.2365 49.6466 49.2285 49.6426 49.2205 49.6386C49.2165 49.6373 49.2125 49.6359 49.2085 49.6333C49.2005 49.6306 49.1925 49.6266 49.1858 49.6239C49.1818 49.6213 49.1778 49.6199 49.1725 49.6173C49.1658 49.6146 49.1591 49.6106 49.1538 49.6079C49.1378 49.5999 49.1231 49.5933 49.1085 49.5866C49.1071 49.5866 49.1058 49.5853 49.1058 49.5853C49.0951 49.5799 49.0858 49.5759 49.0765 49.5719C49.0751 49.5706 49.0738 49.5693 49.0725 49.5693C49.0631 49.5653 49.0538 49.5599 49.0445 49.5559C49.0418 49.5546 49.0405 49.5533 49.0391 49.5533C49.0298 49.5479 49.0191 49.5439 49.0098 49.5399C49.0085 49.5386 49.0071 49.5373 49.0058 49.5373C48.9965 49.5319 48.9858 49.5279 48.9765 49.5226C48.9751 49.5226 48.9738 49.5213 48.9725 49.5213C46.8445 48.4746 45.1045 46.8813 43.8765 44.9666C45.4431 46.8426 47.5631 48.2906 50.0845 49.0266C51.2805 49.3759 52.4845 49.5426 53.6698 49.5426C59.1925 49.5426 64.2831 45.9279 65.9098 40.3573C66.9885 36.6693 66.3232 32.8866 64.3978 29.8866C66.8738 32.8506 67.9645 36.8839 67.0591 40.8786C67.0591 40.8799 67.0591 40.8799 67.0591 40.8813C67.0538 40.9053 67.0485 40.9293 67.0431 40.9533C67.0418 40.9546 67.0418 40.9559 67.0418 40.9586C67.0378 40.9733 67.0338 40.9879 67.0312 41.0039L67.0298 41.0053C67.0285 41.0133 67.0271 41.0213 67.0245 41.0293C67.0245 41.0306 67.0245 41.0306 67.0245 41.0319C67.0205 41.0453 67.0178 41.0599 67.0138 41.0746C67.0125 41.0773 67.0125 41.0799 67.0111 41.0826C67.0058 41.1053 67.0005 41.1266 66.9951 41.1479C66.9938 41.1533 66.9938 41.1573 66.9925 41.1626C66.9898 41.1719 66.9871 41.1813 66.9845 41.1919C66.9831 41.1973 66.9818 41.2026 66.9805 41.2066C66.9791 41.2133 66.9778 41.2199 66.9765 41.2253C66.9751 41.2306 66.9725 41.2373 66.9711 41.2439C66.9698 41.2506 66.9672 41.2599 66.9658 41.2666C66.9645 41.2733 66.9618 41.2786 66.9605 41.2853C66.9591 41.2906 66.9578 41.2959 66.9565 41.3013C66.9538 41.3106 66.9511 41.3199 66.9498 41.3293C66.9471 41.3346 66.9458 41.3399 66.9445 41.3453C66.9431 41.3506 66.9418 41.3573 66.9405 41.3639C66.9378 41.3693 66.9365 41.3746 66.9351 41.3799C66.9325 41.3893 66.9311 41.3986 66.9285 41.4079C66.9271 41.4119 66.9258 41.4173 66.9245 41.4213C66.9218 41.4306 66.9191 41.4386 66.9165 41.4479C66.9165 41.4519 66.9151 41.4559 66.9138 41.4599C66.9111 41.4693 66.9085 41.4773 66.9071 41.4866C66.9058 41.4906 66.9045 41.4946 66.9031 41.4986C66.9005 41.5093 66.8978 41.5199 66.8938 41.5293C66.8938 41.5333 66.8925 41.5359 66.8911 41.5386C66.8898 41.5479 66.8871 41.5573 66.8845 41.5666C66.8831 41.5693 66.8818 41.5719 66.8818 41.5746C66.8778 41.5866 66.8751 41.5973 66.8725 41.6079C66.8711 41.6119 66.8698 41.6146 66.8698 41.6173C66.8658 41.6293 66.8631 41.6399 66.8591 41.6519C65.6031 45.9479 62.2872 49.0813 58.3005 50.2906C57.1192 50.6479 55.8805 50.8359 54.6178 50.8359Z" fill="#908E8E"/>
<path d="M66.8589 41.6518C66.8629 41.6398 66.8655 41.6291 66.8695 41.6171C66.8655 41.6291 66.8629 41.6411 66.8589 41.6518ZM50.8362 50.2611C50.3268 50.1038 49.8335 49.9171 49.3589 49.7024C49.8335 49.9171 50.3255 50.1038 50.8362 50.2611ZM49.3535 49.6998C49.3442 49.6958 49.3335 49.6904 49.3229 49.6864C49.3335 49.6904 49.3428 49.6958 49.3535 49.6998ZM49.3175 49.6838C49.3068 49.6798 49.2975 49.6744 49.2882 49.6704C49.2975 49.6744 49.3082 49.6798 49.3175 49.6838ZM49.2082 49.6331C49.2002 49.6304 49.1935 49.6264 49.1855 49.6238C49.1922 49.6264 49.2002 49.6304 49.2082 49.6331ZM66.9162 41.4478C66.9188 41.4384 66.9215 41.4304 66.9242 41.4211C66.9215 41.4304 66.9188 41.4398 66.9162 41.4478ZM66.9402 41.3638C66.9415 41.3571 66.9428 41.3504 66.9442 41.3451C66.9428 41.3518 66.9415 41.3571 66.9402 41.3638ZM66.9602 41.2851C66.9615 41.2784 66.9642 41.2731 66.9655 41.2664C66.9629 41.2731 66.9615 41.2784 66.9602 41.2851ZM66.9802 41.2064C66.9815 41.2024 66.9828 41.1971 66.9842 41.1918C66.9828 41.1971 66.9815 41.2011 66.9802 41.2064ZM67.0415 40.9584C67.0415 40.9558 67.0415 40.9544 67.0428 40.9531C67.0415 40.9544 67.0415 40.9571 67.0415 40.9584Z" fill="#381D12"/>
<path d="M43.8335 38.1838L43.8322 38.0385L43.8348 37.8079C43.8388 37.6039 43.6775 37.4358 43.4748 37.4318C43.2708 37.4265 43.1029 37.5879 43.0989 37.7919L43.0962 38.0385L43.0975 38.1972C43.1015 38.3998 43.2695 38.5625 43.4722 38.5585C43.6748 38.5545 43.8375 38.3878 43.8335 38.1838ZM43.8375 37.7119C43.8428 37.5012 43.8548 37.2918 43.8735 37.0838C43.8908 36.8812 43.7415 36.7025 43.5388 36.6852C43.3362 36.6665 43.1575 36.8172 43.1402 37.0198C43.1202 37.2412 43.1082 37.4652 43.1015 37.6905C43.0948 37.8945 43.2549 38.0638 43.4575 38.0692C43.6615 38.0758 43.8308 37.9159 43.8375 37.7132V37.7119ZM43.9122 36.7079L43.9242 36.6132C43.9509 36.4119 43.8082 36.2265 43.6068 36.1998C43.4055 36.1745 43.2202 36.3172 43.1949 36.5185L43.1815 36.6185C43.1575 36.8198 43.3002 37.0025 43.5028 37.0279C43.7042 37.0532 43.8882 36.9092 43.9135 36.7079H43.9122ZM44.0242 35.9905C44.0482 35.8665 44.0735 35.7439 44.1015 35.6212C44.1468 35.4225 44.0229 35.2252 43.8242 35.1812C43.6255 35.1358 43.4282 35.2599 43.3842 35.4585C43.3535 35.5892 43.3268 35.7212 43.3015 35.8532C43.2628 36.0532 43.3949 36.2452 43.5935 36.2838C43.7935 36.3225 43.9869 36.1905 44.0242 35.9919V35.9905ZM44.1229 35.5292C44.1722 35.3239 44.2255 35.1198 44.2855 34.9198C44.3442 34.7252 44.2335 34.5199 44.0388 34.4625C43.8428 34.4025 43.6375 34.5145 43.5802 34.7092C43.5162 34.9239 43.4588 35.1412 43.4068 35.3599C43.3602 35.5572 43.4815 35.7545 43.6802 35.8025C43.8788 35.8492 44.0762 35.7265 44.1229 35.5292ZM44.4002 34.5585L44.4309 34.4692C44.4975 34.2772 44.3962 34.0665 44.2042 34.0012C44.0122 33.9332 43.8028 34.0359 43.7362 34.2279L43.7028 34.3239C43.6388 34.5172 43.7415 34.7252 43.9348 34.7905C44.1282 34.8545 44.3362 34.7505 44.4015 34.5585H44.4002ZM44.6562 33.8785L44.8068 33.5318C44.8908 33.3452 44.8095 33.1279 44.6242 33.0439C44.4389 32.9599 44.2215 33.0412 44.1375 33.2265C44.0815 33.3492 44.0268 33.4732 43.9762 33.5972C43.8975 33.7852 43.9868 33.9999 44.1748 34.0785C44.3628 34.1559 44.5775 34.0665 44.6562 33.8799V33.8785ZM44.8468 33.4452C44.9362 33.2545 45.0295 33.0665 45.1295 32.8812C45.2255 32.7025 45.1588 32.4785 44.9802 32.3825C44.8015 32.2865 44.5775 32.3532 44.4815 32.5332C44.3748 32.7292 44.2748 32.9305 44.1788 33.1345C44.0935 33.3185 44.1735 33.5372 44.3575 33.6239C44.5415 33.7092 44.7602 33.6292 44.8468 33.4452ZM45.3148 32.5518L45.3629 32.4692C45.4669 32.2945 45.4095 32.0692 45.2348 31.9652C45.0602 31.8612 44.8349 31.9185 44.7309 32.0932L44.6802 32.1799C44.5775 32.3545 44.6362 32.5798 44.8122 32.6838C44.9868 32.7852 45.2122 32.7265 45.3148 32.5505V32.5518ZM45.7015 31.9372L45.9202 31.6292C46.0402 31.4639 46.0042 31.2332 45.8402 31.1132C45.6762 30.9932 45.4455 31.0292 45.3255 31.1932L45.0922 31.5252C44.9789 31.6932 45.0229 31.9212 45.1909 32.0358C45.3589 32.1505 45.5882 32.1052 45.7015 31.9372ZM45.9762 31.5518C46.1015 31.3825 46.2322 31.2185 46.3669 31.0572C46.4962 30.8999 46.4762 30.6679 46.3202 30.5385C46.1642 30.4079 45.9322 30.4278 45.8015 30.5838C45.6588 30.7572 45.5188 30.9319 45.3855 31.1132C45.2642 31.2759 45.2975 31.5065 45.4615 31.6265C45.6242 31.7479 45.8548 31.7145 45.9762 31.5518ZM46.6148 30.7705L46.6775 30.6998C46.8148 30.5505 46.8042 30.3172 46.6549 30.1812C46.5042 30.0438 46.2708 30.0545 46.1348 30.2052L46.0669 30.2799C45.9309 30.4305 45.9442 30.6625 46.0949 30.7985C46.2455 30.9332 46.4788 30.9212 46.6148 30.7705ZM47.1162 30.2478L47.3909 29.9879C47.5415 29.8505 47.5522 29.6185 47.4162 29.4678C47.2788 29.3172 47.0455 29.3065 46.8962 29.4439L46.6028 29.7212C46.4562 29.8625 46.4535 30.0959 46.5949 30.2412C46.7375 30.3865 46.9695 30.3892 47.1162 30.2478ZM47.4615 29.9239C47.6175 29.7852 47.7788 29.6492 47.9428 29.5185C48.1015 29.3918 48.1282 29.1598 48.0015 29.0012C47.8748 28.8425 47.6428 28.8159 47.4842 28.9425C47.3095 29.0825 47.1375 29.2265 46.9708 29.3772C46.8188 29.5119 46.8068 29.7439 46.9415 29.8959C47.0775 30.0465 47.3095 30.0599 47.4615 29.9239ZM48.2428 29.2879L48.3188 29.2318C48.4828 29.1118 48.5189 28.8812 48.3989 28.7172C48.2802 28.5532 48.0495 28.5172 47.8855 28.6372L47.8042 28.6972C47.6415 28.8172 47.6069 29.0479 47.7282 29.2105C47.8482 29.3745 48.0788 29.4079 48.2428 29.2879ZM48.8388 28.8772L49.1589 28.6772C49.3335 28.5732 49.3908 28.3479 49.2868 28.1732C49.1828 27.9985 48.9562 27.9412 48.7828 28.0452L48.4402 28.2572C48.2695 28.3665 48.2202 28.5945 48.3295 28.7652C48.4402 28.9358 48.6682 28.9852 48.8388 28.8759V28.8772ZM49.2402 28.6292C49.4215 28.5239 49.6055 28.4239 49.7935 28.3279C49.9749 28.2359 50.0469 28.0145 49.9549 27.8332C49.8629 27.6518 49.6415 27.5799 49.4602 27.6719C49.2602 27.7732 49.0628 27.8812 48.8695 27.9932C48.6935 28.0959 48.6348 28.3212 48.7375 28.4972C48.8388 28.6732 49.0642 28.7318 49.2415 28.6305L49.2402 28.6292ZM50.1322 28.1638L50.2175 28.1239C50.4028 28.0385 50.4842 27.8212 50.4002 27.6372C50.3162 27.4519 50.0975 27.3692 49.9135 27.4545L49.8215 27.4959C49.6375 27.5812 49.5575 27.7998 49.6442 27.9838C49.7295 28.1692 49.9482 28.2479 50.1322 28.1625V28.1638ZM50.7975 27.8799L51.1535 27.7505C51.3442 27.6838 51.4468 27.4745 51.3802 27.2825C51.3135 27.0905 51.1042 26.9879 50.9122 27.0559C50.7842 27.0985 50.6589 27.1452 50.5335 27.1945C50.3429 27.2665 50.2495 27.4798 50.3229 27.6692C50.3949 27.8585 50.6082 27.9532 50.7975 27.8799ZM51.2428 27.7199C51.4402 27.6532 51.6415 27.5918 51.8455 27.5358C52.0402 27.4825 52.1562 27.2812 52.1028 27.0852C52.0495 26.8892 51.8468 26.7732 51.6522 26.8265C51.4348 26.8852 51.2202 26.9519 51.0082 27.0225C50.8148 27.0865 50.7108 27.2959 50.7762 27.4879C50.8402 27.6812 51.0495 27.7852 51.2428 27.7199ZM52.2122 27.4439L52.3042 27.4225C52.5015 27.3772 52.6268 27.1812 52.5815 26.9812C52.5375 26.7838 52.3402 26.6585 52.1415 26.7039L52.0428 26.7279C51.8455 26.7732 51.7228 26.9718 51.7695 27.1692C51.8162 27.3665 52.0135 27.4892 52.2122 27.4439ZM52.9229 27.3012C53.0455 27.2812 53.1709 27.2625 53.2962 27.2465C53.4975 27.2199 53.6402 27.0345 53.6135 26.8332C53.5882 26.6318 53.4028 26.4892 53.2015 26.5158C53.0668 26.5332 52.9335 26.5532 52.8015 26.5745C52.6015 26.6079 52.4655 26.7985 52.4989 26.9985C52.5322 27.1985 52.7215 27.3345 52.9229 27.3012ZM53.3895 27.2332C53.5975 27.2092 53.8068 27.1892 54.0175 27.1759C54.2202 27.1625 54.3735 26.9878 54.3615 26.7852C54.3482 26.5825 54.1735 26.4292 53.9708 26.4412C53.7455 26.4559 53.5228 26.4772 53.3015 26.5025C53.0988 26.5278 52.9562 26.7105 52.9802 26.9132C53.0055 27.1145 53.1882 27.2572 53.3909 27.2332H53.3895ZM54.3949 27.1585L54.4909 27.1559C54.6935 27.1519 54.8548 26.9838 54.8508 26.7812C54.8455 26.5772 54.6775 26.4159 54.4748 26.4212L54.3735 26.4225C54.1708 26.4292 54.0095 26.5985 54.0162 26.8012C54.0215 27.0052 54.1922 27.1652 54.3949 27.1599" fill="white"/>
<path d="M18.4522 23.7559C18.3802 23.7559 18.3002 23.7439 18.2149 23.7199L17.0976 23.3905C16.6042 23.2479 16.5056 22.8425 16.8762 22.4852L17.7176 21.6799C17.8616 21.5425 18.0109 21.4759 18.1469 21.4759C18.3602 21.4759 18.5389 21.6385 18.6136 21.9439L18.8896 23.0745C18.9909 23.4865 18.8002 23.7559 18.4522 23.7559Z" fill="#3D393A"/>
<path d="M15.1428 32.5547C14.9308 32.5547 14.7508 32.392 14.6762 32.088L14.4002 30.956C14.3002 30.544 14.4895 30.2747 14.8362 30.2747C14.9095 30.2747 14.9895 30.2867 15.0762 30.312L16.1922 30.6374C16.6855 30.7814 16.7855 31.1894 16.4148 31.544L15.5722 32.3493C15.4282 32.488 15.2788 32.5547 15.1428 32.5547Z" fill="#3D393A"/>
<path d="M20.3803 29.2871C20.0123 29.2871 19.8189 29.0044 19.9416 28.5831L20.2683 27.4684C20.3536 27.1751 20.5323 27.0218 20.7363 27.0218C20.8776 27.0218 21.0309 27.0938 21.1763 27.2444L21.9789 28.0858C22.3349 28.4578 22.2176 28.8618 21.7176 28.9844L20.5869 29.2604C20.5136 29.2778 20.4443 29.2871 20.3803 29.2871Z" fill="#3D393A"/>
<path d="M12.5555 27.0098C12.4142 27.0098 12.2595 26.9364 12.1155 26.7844L11.3115 25.9431C10.9555 25.5698 11.0742 25.1684 11.5728 25.0471L12.7035 24.7711C12.7782 24.7524 12.8488 24.7444 12.9128 24.7444C13.2808 24.7444 13.4728 25.0271 13.3488 25.4458L13.0222 26.5618C12.9382 26.8551 12.7595 27.0098 12.5555 27.0098Z" fill="#3D393A"/>
<path d="M16.7555 27.6094C16.7048 27.6094 16.6542 27.6027 16.6048 27.588C16.3168 27.5027 16.1502 27.2 16.2342 26.9134C16.3048 26.676 16.5222 26.5227 16.7568 26.5227C16.8075 26.5227 16.8582 26.5294 16.9088 26.544C17.1968 26.6267 17.3635 26.9294 17.2795 27.2187C17.2088 27.4547 16.9915 27.6094 16.7555 27.6094Z" fill="#413E3E"/>
<path d="M33.1494 17.7833L33.5254 17.8927C33.6721 17.9353 33.8254 17.8513 33.8681 17.7047C33.9107 17.5593 33.8268 17.4047 33.6801 17.3633L33.3041 17.254C33.1587 17.21 33.0054 17.2953 32.9628 17.4407C32.9201 17.5873 33.0041 17.7407 33.1494 17.7833ZM33.6188 17.9193L34.2441 18.102C34.3908 18.1447 34.5441 18.062 34.5868 17.9153C34.6294 17.7687 34.5454 17.6153 34.3988 17.574L33.7734 17.39C33.6281 17.3473 33.4748 17.4313 33.4321 17.578C33.3881 17.7233 33.4721 17.8767 33.6188 17.9193ZM34.6201 18.2113L34.7148 18.2393C34.8601 18.282 35.0134 18.198 35.0561 18.0513C35.0988 17.906 35.0147 17.7527 34.8681 17.71L34.7748 17.6833C34.6281 17.6393 34.4748 17.7233 34.4321 17.87C34.3894 18.0167 34.4734 18.1687 34.6201 18.2113ZM35.3401 18.422L35.7148 18.5327C35.8614 18.5753 36.0148 18.4913 36.0574 18.3447C36.1001 18.1993 36.0161 18.0447 35.8694 18.002L35.4948 17.8927C35.3481 17.85 35.1948 17.934 35.1521 18.0807C35.1094 18.226 35.1934 18.3793 35.3401 18.422ZM35.8094 18.5593L36.4347 18.742C36.5801 18.786 36.7334 18.702 36.7761 18.5553C36.8201 18.4087 36.7361 18.2553 36.5894 18.2127L35.9641 18.03C35.8174 17.9873 35.6641 18.0713 35.6214 18.218C35.5788 18.3633 35.6628 18.5167 35.8094 18.5593ZM36.8094 18.8527L36.9041 18.8793C37.0494 18.922 37.2028 18.838 37.2454 18.6913C37.2894 18.546 37.2054 18.3927 37.0588 18.35L36.9641 18.322C36.8188 18.2793 36.6654 18.3633 36.6228 18.51C36.5788 18.6553 36.6628 18.81 36.8094 18.8527ZM37.5294 19.062L37.9054 19.1713C38.0508 19.214 38.2041 19.1313 38.2468 18.9833C38.2894 18.838 38.2054 18.6847 38.0601 18.642L37.6841 18.5327C37.5374 18.49 37.3841 18.574 37.3414 18.7207C37.2988 18.866 37.3828 19.0193 37.5294 19.062ZM37.9988 19.1993L38.6241 19.382C38.7708 19.4247 38.9241 19.3407 38.9668 19.194C39.0094 19.0487 38.9254 18.8953 38.7788 18.8527L38.1534 18.6687C38.0068 18.626 37.8534 18.71 37.8108 18.8567C37.7681 19.002 37.8521 19.1567 37.9988 19.1993ZM39.0001 19.4913L39.0934 19.5193C39.2401 19.562 39.3934 19.478 39.4361 19.3313C39.4787 19.186 39.3948 19.0327 39.2481 18.99L39.1548 18.962C39.0081 18.9193 38.8548 19.0033 38.8121 19.15C38.7694 19.2953 38.8534 19.45 39.0001 19.4913ZM39.7188 19.702L40.0948 19.8113C40.2414 19.854 40.3948 19.77 40.4374 19.6233C40.4801 19.478 40.3961 19.3247 40.2494 19.282L39.8734 19.1727C39.7281 19.13 39.5748 19.214 39.5321 19.3607C39.4894 19.506 39.5734 19.6593 39.7188 19.702ZM40.1881 19.8393L40.8148 20.022C40.9601 20.0647 41.1134 19.9807 41.1561 19.834C41.2001 19.6887 41.1161 19.5353 40.9694 19.4927L40.3428 19.31C40.1974 19.266 40.0441 19.35 40.0014 19.4967C39.9587 19.6433 40.0428 19.7967 40.1881 19.8393ZM41.1894 20.1313L41.2841 20.1593C41.4294 20.202 41.5828 20.118 41.6254 19.9713C41.6681 19.826 41.5841 19.6727 41.4374 19.63L41.3441 19.602C41.1988 19.5593 41.0454 19.6433 41.0027 19.79C40.9587 19.9353 41.0428 20.0887 41.1894 20.1313ZM41.9094 20.342L42.2841 20.4513C42.4308 20.494 42.5841 20.41 42.6268 20.2647C42.6694 20.118 42.5854 19.9647 42.4388 19.922L42.0641 19.8113C41.9174 19.7687 41.7641 19.8527 41.7214 19.9993C41.6788 20.1447 41.7628 20.2993 41.9094 20.342ZM42.3788 20.478L43.0041 20.662C43.1508 20.7047 43.3041 20.6207 43.3468 20.474C43.3894 20.3287 43.3054 20.1753 43.1588 20.1327L42.5334 19.95C42.3868 19.9073 42.2334 19.99 42.1908 20.1367C42.1481 20.2833 42.2321 20.4367 42.3788 20.478ZM43.3801 20.7713L43.4734 20.798C43.6188 20.842 43.7721 20.7567 43.8148 20.6113C43.8588 20.4647 43.7748 20.3113 43.6281 20.2687L43.5347 20.242C43.3881 20.1993 43.2348 20.2833 43.1921 20.4287C43.1494 20.5753 43.2334 20.7287 43.3801 20.7713ZM44.0988 20.9807L44.4748 21.09C44.6201 21.134 44.7734 21.05 44.8161 20.9033C44.8601 20.7567 44.7761 20.6033 44.6294 20.562L44.2534 20.4527C44.1068 20.4087 43.9534 20.4927 43.9108 20.6393C43.8681 20.786 43.9521 20.9393 44.0988 20.9807ZM44.5681 21.1193L45.1934 21.3007C45.3401 21.3447 45.4934 21.2593 45.5361 21.114C45.5787 20.9673 45.4948 20.814 45.3481 20.7713L44.7228 20.59C44.5761 20.546 44.4228 20.6313 44.3814 20.7767C44.3374 20.9233 44.4214 21.0767 44.5681 21.1193ZM45.5694 21.4113L45.6628 21.438C45.8094 21.4807 45.9628 21.398 46.0054 21.2513C46.0481 21.1047 45.9641 20.9513 45.8174 20.9087L45.7241 20.882C45.5774 20.8393 45.4241 20.9233 45.3814 21.0687C45.3388 21.2153 45.4227 21.3687 45.5694 21.4113Z" fill="white"/>
</svg>
