<svg width="69" height="52" viewBox="0 0 69 52" fill="none" xmlns="http://www.w3.org/2000/svg">
<path d="M26.638 48.2441C26.478 48.2441 26.326 48.1721 26.226 48.0468C26.1247 47.9215 26.0873 47.7575 26.122 47.6001L27.778 40.1055C27.8313 39.8628 28.046 39.6895 28.2953 39.6895H40.2473C40.4967 39.6895 40.7113 39.8628 40.7647 40.1055L42.4207 47.6001C42.4553 47.7575 42.418 47.9215 42.3167 48.0468C42.2167 48.1721 42.0647 48.2441 41.9047 48.2441H26.638Z" fill="#918F90"/>
<path d="M40.2478 39.1614H28.2959C27.7985 39.1614 27.3679 39.5068 27.2612 39.9908L25.6052 47.4854C25.5358 47.7988 25.6118 48.1281 25.8132 48.3774C26.0145 48.6281 26.3185 48.7734 26.6385 48.7734H41.9052C42.2252 48.7734 42.5292 48.6281 42.7305 48.3774C42.9318 48.1281 43.0078 47.7988 42.9385 47.4854L41.2825 39.9908C41.1758 39.5068 40.7452 39.1614 40.2478 39.1614ZM40.2478 40.2201L41.9052 47.7148H26.6385L28.2959 40.2201H40.2478Z" fill="#472618"/>
<path d="M1.19987 40.7637C0.89987 40.7637 0.657227 40.521 0.657227 40.221V1.39834C0.657227 1.09834 0.89987 0.854332 1.19987 0.854332H67.3439C67.6439 0.854332 67.8866 1.09834 67.8866 1.39834V40.221C67.8866 40.521 67.6439 40.7637 67.3439 40.7637H1.19987Z" fill="#BFC0BE"/>
<path d="M67.3439 0.310647H1.19993C0.599935 0.310647 0.113281 0.795967 0.113281 1.3973V40.22C0.113281 40.82 0.599935 41.3066 1.19993 41.3066H67.3439C67.9439 41.3066 68.4306 40.82 68.4306 40.22V1.3973C68.4306 0.795967 67.9439 0.310647 67.3439 0.310647ZM67.3439 1.3973V40.22H1.19993V1.3973H67.3439Z" fill="#472618"/>
<path d="M67.3432 40.2207H1.19922V39.0674H65.7139V1.39803H67.3432V40.2207Z" fill="#929796"/>
<path d="M5.54658 36.7422C5.24658 36.7422 5.00391 36.4995 5.00391 36.1995V5.41819C5.00391 5.11819 5.24658 4.87552 5.54658 4.87552H62.9972C63.2972 4.87552 63.5399 5.11819 63.5399 5.41819V36.1995C63.5399 36.4995 63.2972 36.7422 62.9972 36.7422H5.54658Z" fill="#263034"/>
<path d="M62.9973 4.33182H5.54661C4.94661 4.33182 4.45996 4.81717 4.45996 5.41717V36.1985C4.45996 36.7985 4.94661 37.2852 5.54661 37.2852H62.9973C63.5973 37.2852 64.0839 36.7985 64.0839 36.1985V5.41717C64.0839 4.81717 63.5973 4.33182 62.9973 4.33182ZM62.9973 5.41717V36.1985H5.54661V5.41717H62.9973Z" fill="#472618"/>
<path d="M5.54658 36.7422C5.24658 36.7422 5.00391 36.4995 5.00391 36.1995V5.41819C5.00391 5.11819 5.24658 4.87552 5.54658 4.87552H62.9972C63.2972 4.87552 63.5399 5.11819 63.5399 5.41819V36.1995C63.5399 36.4995 63.2972 36.7422 62.9972 36.7422H5.54658Z" fill="#36454C"/>
<path d="M62.9973 4.33182H5.54661C4.94661 4.33182 4.45996 4.81717 4.45996 5.41717V36.1985C4.45996 36.7985 4.94661 37.2852 5.54661 37.2852H62.9973C63.5973 37.2852 64.0839 36.7985 64.0839 36.1985V5.41717C64.0839 4.81717 63.5973 4.33182 62.9973 4.33182ZM62.9973 5.41717V36.1985H5.54661V5.41717H62.9973Z" fill="#472618"/>
<path d="M59.9899 5.41791C59.9899 5.41791 61.5686 19.7806 53.7472 27.6632C46.2499 35.2205 5.5459 33.1285 5.5459 33.1285V36.1992H62.9965V5.41791H59.9899Z" fill="#263034"/>
<path d="M23.2303 50.8047C21.8863 50.8047 20.793 49.514 20.793 47.926C20.793 46.3407 21.8863 45.05 23.2303 45.05H45.2876C46.6303 45.05 47.7223 46.3407 47.7223 47.926C47.7223 49.514 46.6303 50.8047 45.2876 50.8047H23.2303Z" fill="#BFC0BE"/>
<path d="M45.2871 44.4625H23.2298C21.5605 44.4625 20.2031 46.0159 20.2031 47.9265C20.2031 49.8399 21.5605 51.3945 23.2298 51.3945H45.2871C46.9551 51.3945 48.3111 49.8399 48.3111 47.9265C48.3111 46.0159 46.9551 44.4625 45.2871 44.4625ZM45.2871 45.6412C46.3058 45.6412 47.1338 46.6639 47.1338 47.9265C47.1338 49.1919 46.3058 50.2159 45.2871 50.2159H23.2298C22.2085 50.2159 21.3818 49.1919 21.3818 47.9265C21.3818 46.6639 22.2085 45.6412 23.2298 45.6412H45.2871Z" fill="#472618"/>
<path d="M45.2875 50.2148H23.2302C23.2248 50.2148 23.2195 50.2148 23.2155 50.2148C23.2142 50.2148 23.2129 50.2148 23.2115 50.2148C23.2075 50.2148 23.2035 50.2148 23.1995 50.2148C23.1982 50.2148 23.1969 50.2148 23.1955 50.2148C23.1915 50.2135 23.1862 50.2135 23.1809 50.2135C23.1809 50.2135 23.1795 50.2135 23.1782 50.2135C23.1742 50.2135 23.1702 50.2135 23.1675 50.2135C23.1648 50.2135 23.1635 50.2135 23.1609 50.2135C23.1582 50.2135 23.1555 50.2135 23.1515 50.2122C23.1502 50.2122 23.1489 50.2122 23.1462 50.2122C23.1422 50.2122 23.1382 50.2122 23.1342 50.2108C23.1315 50.2108 23.1289 50.2108 23.1275 50.2108C23.1249 50.2108 23.1222 50.2108 23.1195 50.2108C23.1169 50.2108 23.1142 50.2108 23.1129 50.2108C23.1102 50.2095 23.1089 50.2095 23.1075 50.2095C23.1009 50.2095 23.0955 50.2082 23.0902 50.2082C23.0889 50.2082 23.0875 50.2082 23.0875 50.2082C23.0835 50.2082 23.0809 50.2069 23.0769 50.2069C23.0755 50.2069 23.0755 50.2069 23.0742 50.2069C22.4382 50.1415 21.8928 49.6762 21.6035 49.0135L21.7075 49.0188H43.7648C44.7862 49.0188 45.6129 47.9962 45.6129 46.7335C45.6129 46.3375 45.5315 45.9682 45.3915 45.6442C46.3102 45.7082 47.0489 46.6015 47.1262 47.7282C47.1275 47.7322 47.1275 47.7375 47.1275 47.7415C47.1275 47.7469 47.1289 47.7509 47.1289 47.7549C47.1289 47.7562 47.1289 47.7562 47.1289 47.7575C47.1289 47.7615 47.1289 47.7655 47.1289 47.7682C47.1289 47.7695 47.1289 47.7709 47.1289 47.7722C47.1302 47.7749 47.1302 47.7788 47.1302 47.7828C47.1302 47.7842 47.1302 47.7855 47.1302 47.7868C47.1302 47.7895 47.1302 47.7935 47.1302 47.7962C47.1302 47.7988 47.1302 47.7988 47.1302 47.8002C47.1315 47.8042 47.1315 47.8082 47.1315 47.8108C47.1315 47.8122 47.1315 47.8135 47.1315 47.8162C47.1315 47.8188 47.1315 47.8215 47.1315 47.8255C47.1315 47.8269 47.1315 47.8282 47.1315 47.8308C47.1315 47.8335 47.1315 47.8362 47.1328 47.8389C47.1328 47.8415 47.1328 47.8428 47.1328 47.8455C47.1328 47.8482 47.1328 47.8508 47.1328 47.8535C47.1328 47.8562 47.1328 47.8588 47.1328 47.8602C47.1328 47.8628 47.1328 47.8655 47.1328 47.8682C47.1328 47.8708 47.1328 47.8735 47.1328 47.8762C47.1328 47.8775 47.1328 47.8802 47.1328 47.8828C47.1328 47.8855 47.1328 47.8882 47.1328 47.8909C47.1328 47.8922 47.1328 47.8948 47.1328 47.8962C47.1328 47.8988 47.1328 47.9029 47.1328 47.9055C47.1328 47.9069 47.1328 47.9095 47.1328 47.9108C47.1342 47.9162 47.1342 47.9202 47.1342 47.9255C47.1342 49.1909 46.3062 50.2148 45.2875 50.2148Z" fill="#929796"/>
<path d="M23.0742 50.2069C22.4382 50.1415 21.8928 49.6775 21.6035 49.0135C21.8928 49.6762 22.4382 50.1415 23.0742 50.2069ZM47.1328 47.8909C47.1328 47.8882 47.1328 47.8855 47.1328 47.8828C47.1328 47.8842 47.1328 47.8882 47.1328 47.8909Z" fill="#392118"/>
<path d="M15.9372 6.49432H10.2346C9.7919 6.49432 9.43324 6.85299 9.43324 7.29565C9.43324 7.73965 9.7919 8.09699 10.2346 8.09699H15.9372C16.3799 8.09699 16.7386 7.73965 16.7386 7.29565C16.7386 6.85299 16.3799 6.49432 15.9372 6.49432ZM8.80924 6.49432H8.22259C8.01059 6.49432 7.80392 6.57965 7.65592 6.72899C7.50659 6.87832 7.41992 7.08499 7.41992 7.29565V14.6837C7.41992 15.1277 7.77992 15.4863 8.22259 15.4863C8.66526 15.4863 9.02393 15.1277 9.02393 14.6837V7.29565H8.22259V8.09699H8.80924C9.25191 8.09699 9.61058 7.73832 9.61058 7.29565C9.61058 6.85432 9.25191 6.49565 8.80924 6.49565" fill="white"/>
<path d="M22.9633 47.3184H28.6646C28.9046 47.3184 29.0993 47.125 29.0993 46.885C29.0993 46.645 28.9046 46.4504 28.6646 46.4504H22.9633C22.722 46.4504 22.5273 46.645 22.5273 46.885C22.5273 47.125 22.722 47.3184 22.9633 47.3184ZM30.0913 47.3184H32.3793C32.6193 47.3184 32.814 47.125 32.814 46.885C32.814 46.645 32.6193 46.4504 32.3793 46.4504H30.0913C29.85 46.4504 29.6553 46.645 29.6553 46.885C29.6553 47.125 29.85 47.3184 30.0913 47.3184Z" fill="white"/>
<path d="M51.02 20.5661L53.0283 25.8829C52.4364 25.7984 51.8449 25.6925 51.2426 25.5971L50.1112 22.6594L48.9487 25.3546C48.3782 25.2593 47.8177 25.2275 47.2471 25.1534L49.287 20.5029L47.4368 15.7363H49.1493L50.1849 18.3995L51.2949 15.7363H53.028L51.02 20.5661ZM46.0847 15.7363H44.5309V24.9528C45.0382 24.9846 45.5665 25.0056 46.0847 25.0688V15.7363ZM43.1885 24.847C41.7724 24.7519 40.3559 24.6677 38.908 24.6356V15.7364H40.4932V23.1349C41.4024 23.1559 42.3111 23.2296 43.1885 23.2719V24.847ZM37.2165 19.3407V20.926H35.0499V24.53H33.486V15.7363H37.9251V17.3216H35.0502V19.3408H37.2168L37.2165 19.3407ZM30.8221 17.3216V24.6146C30.2935 24.6146 29.7547 24.6146 29.2366 24.6356V17.3216H27.5983V15.7363H32.4706V17.3216H30.8221ZM25.8862 21.0102C25.1888 21.0102 24.3642 21.0102 23.7723 21.0423V23.399C24.7024 23.3355 25.6325 23.2617 26.573 23.23V24.7519L22.1871 25.101V15.7363H26.5728V17.3216H23.7722V19.4567C24.3854 19.4567 25.326 19.425 25.8861 19.425V21.0105L25.8862 21.0102ZM17.1026 20.1224V25.6607C16.5323 25.7243 16.0246 25.7984 15.4858 25.8829V15.7363H16.9974L19.0582 21.4969V15.7363H20.6438V25.2275C20.0836 25.3229 19.5127 25.3546 18.9104 25.4389L17.1026 20.1224Z" fill="#E50914"/>
</svg>
