<svg width="45" height="63" viewBox="0 0 45 63" fill="none" xmlns="http://www.w3.org/2000/svg">
<path d="M23.0465 12.8242C21.3345 12.8242 19.7905 12.3773 18.3252 11.4559C18.1398 11.3398 18.0278 11.1373 18.0278 10.9185V5.63195C18.0278 5.39342 18.1625 5.17475 18.3772 5.06528L18.6625 4.99715C18.7958 4.99715 18.9291 5.03982 19.0398 5.12102C20.5785 6.25862 22.2465 6.81062 24.1358 6.81062C26.0932 6.81062 28.0385 6.25342 30.0972 5.66382C32.1505 5.07582 34.2732 4.46795 36.4078 4.46795C38.5798 4.46795 40.4932 5.10129 42.2585 6.40542C42.4212 6.52529 42.5159 6.71489 42.5159 6.91582V9.63462C42.5159 9.86529 42.3918 10.0784 42.1892 10.1909L41.8812 10.2706L41.5438 10.1721C40.2878 9.38409 38.9638 8.99968 37.4972 8.99968C35.2105 8.99968 32.9251 9.90648 30.5065 10.8663C28.0825 11.8294 25.5772 12.8242 23.0478 12.8242H23.0465Z" fill="#F6891E"/>
<path d="M36.4091 3.83143C34.1851 3.83143 32.0184 4.45023 29.9224 5.05183C27.9078 5.6289 26.0038 6.17317 24.1358 6.17317C22.3624 6.17317 20.8638 5.6757 19.4171 4.60903C19.1944 4.44503 18.9304 4.36117 18.6624 4.36117C18.4677 4.36117 18.2718 4.4049 18.0905 4.49703C17.6625 4.7133 17.3931 5.15183 17.3931 5.63036V10.9169C17.3931 11.3544 17.6171 11.7612 17.9878 11.9929C19.5558 12.9784 21.2118 13.457 23.0478 13.457C25.6984 13.457 28.2624 12.4398 30.7411 11.456C33.1024 10.5185 35.3318 9.63303 37.4971 9.63303C38.8398 9.63303 40.0531 9.98517 41.2064 10.709C41.4117 10.8382 41.6464 10.9024 41.8811 10.9024C42.0931 10.9024 42.3051 10.8502 42.4957 10.745C42.9011 10.521 43.1518 10.0956 43.1518 9.63303V6.91423C43.1518 6.5101 42.9611 6.13143 42.6358 5.8929C40.7584 4.5049 38.7211 3.83143 36.4091 3.83143ZM36.4091 5.1013C38.2331 5.1013 40.0571 5.56637 41.8811 6.91423C41.8811 7.82103 41.8811 8.72783 41.8811 9.63303C40.4198 8.71583 38.9584 8.36223 37.4971 8.36223C32.6811 8.36223 27.8638 12.1877 23.0478 12.1877C21.5864 12.1877 20.1251 11.8357 18.6624 10.9169C18.6624 9.15437 18.6624 7.39183 18.6624 5.63036C20.4877 6.97676 22.3118 7.44504 24.1358 7.44504C28.2278 7.44504 32.3171 5.1013 36.4091 5.1013Z" fill="#472618"/>
<path d="M23.0478 12.1875C22.1572 12.1875 21.2665 12.0568 20.3758 11.7464C20.2131 11.6902 20.0518 11.6276 19.8892 11.5594L19.8945 10.4464C20.9452 10.8902 21.9972 11.073 23.0478 11.073C25.4558 11.073 27.8638 10.1167 30.2718 9.16097C32.6812 8.2047 35.0892 7.24737 37.4972 7.24737C38.9585 7.24737 40.4198 7.6011 41.8812 8.5183C41.8812 8.89017 41.8812 9.26204 41.8812 9.63284C41.2758 9.25164 40.6691 8.96884 40.0625 8.76777C39.2078 8.48337 38.3518 8.36204 37.4972 8.36204C35.2892 8.36204 33.0812 9.16617 30.8718 10.037C30.6718 10.1167 30.4718 10.1954 30.2718 10.2755C27.8638 11.2312 25.4558 12.1875 23.0478 12.1875Z" fill="#F46F1C"/>
<path d="M9.81239 44.2402C5.94039 44.2402 1.48303 42.4829 0.849696 39.2266C0.112362 35.4334 4.88703 31.4522 9.48837 30.5574C10.1377 30.4308 10.7977 30.3668 11.4484 30.3668C12.6884 30.3668 13.8817 30.596 14.9537 31.035V1.45344C14.9537 1.2601 15.0417 1.07743 15.1937 0.956098C15.307 0.866765 15.4457 0.818769 15.5884 0.818769L15.7324 0.836103L18.8057 1.5521C19.095 1.61877 19.2977 1.87743 19.2964 2.17343L19.1337 37.3053C18.799 40.5506 15.9097 43.2881 12.1057 44.0282C11.3817 44.1694 10.6097 44.2402 9.81239 44.2402Z" fill="#F6891E"/>
<path d="M15.5885 0.184955C15.3045 0.184955 15.0258 0.280955 14.7978 0.459622C14.4951 0.700955 14.3191 1.06629 14.3191 1.45429V5.11455V9.46762V30.1395C13.4111 29.8718 12.4431 29.7316 11.4485 29.7316C10.7578 29.7316 10.0564 29.801 9.3671 29.9343C4.4791 30.8848 -0.578208 35.2051 0.227125 39.3479C0.932459 42.977 5.58314 44.877 9.81248 44.877C10.6511 44.877 11.4631 44.801 12.2271 44.6531C16.3031 43.8598 19.4018 40.8916 19.7631 37.4359L19.7698 37.3088L19.9325 2.17562C19.9351 1.58362 19.5271 1.06762 18.9498 0.934288L15.8765 0.218289L15.5885 0.184955ZM15.5885 1.45429L18.6618 2.17163L18.4991 37.3036C18.2045 40.137 15.5778 42.7078 11.9858 43.4051C11.2898 43.5411 10.5551 43.6062 9.81248 43.6062C6.04314 43.6062 2.02181 41.925 1.47381 39.1062C0.817805 35.7302 5.38977 32.0026 9.60844 31.1812C10.2311 31.0608 10.8471 31.0036 11.4485 31.0036C12.9845 31.0036 14.4178 31.3812 15.5885 32.0488V9.46762V5.11455V1.45429Z" fill="#472618"/>
<path d="M9.81266 43.6055C7.01133 43.6055 4.07131 42.6773 2.52197 41.044C4.16464 42.2253 6.62066 42.8825 8.97666 42.8825C9.72066 42.8825 10.454 42.8175 11.15 42.6816C14.742 41.9841 17.3686 39.4133 17.6633 36.58L17.8246 1.976L18.6619 2.17201L18.4993 37.304C18.2046 40.1373 15.578 42.7081 11.986 43.4055C11.29 43.5399 10.5567 43.6055 9.81266 43.6055Z" fill="#F46F1C"/>
<path d="M12.2822 31.9617C12.2715 31.9617 12.1621 31.9533 11.9728 31.9533C11.8395 31.9533 11.6649 31.9576 11.4569 31.9685C11.1462 31.9841 10.9088 32.2497 10.9261 32.559C10.9435 32.8685 11.2075 33.1054 11.5168 33.0898C11.7035 33.0789 11.8581 33.0762 11.9728 33.0762L12.1542 33.0789L12.2061 33.0814C12.5155 33.1018 12.7835 32.8685 12.8035 32.5601C12.8248 32.2508 12.5915 31.983 12.2835 31.9628L12.2822 31.9617ZM11.2569 31.9814C10.8942 32.007 10.4475 32.0576 9.94481 32.1497C9.63948 32.2044 9.43816 32.4976 9.49416 32.8029C9.55016 33.107 9.84215 33.3096 10.1475 33.2533C10.6048 33.1696 11.0102 33.1242 11.3382 33.1002C11.6475 33.0773 11.8808 32.8096 11.8582 32.5002C11.8355 32.1909 11.5662 31.9576 11.2569 31.9805V31.9814ZM9.17014 32.3174L8.97815 32.3669C8.67815 32.4472 8.50082 32.7549 8.58082 33.0549C8.66082 33.3533 8.96884 33.532 9.26884 33.4508L9.44214 33.4054C9.74214 33.3309 9.92482 33.0257 9.85015 32.7257C9.77415 32.4242 9.47014 32.2414 9.17014 32.3174ZM7.72085 32.7789C7.47952 32.8721 7.23552 32.9762 6.99019 33.0924C6.70886 33.2242 6.58882 33.559 6.72216 33.8388C6.85282 34.1174 7.18747 34.2377 7.46747 34.107C7.69014 34.0029 7.91016 33.9081 8.1275 33.8242C8.41683 33.7106 8.55948 33.3857 8.44748 33.0976C8.33415 32.8081 8.00885 32.6653 7.72085 32.7789ZM6.81018 33.1789C6.42751 33.3685 6.04086 33.5857 5.65686 33.8362C5.39686 34.0054 5.32346 34.3524 5.4928 34.6122C5.66213 34.871 6.01014 34.9456 6.27014 34.7762C6.61414 34.5508 6.96214 34.3549 7.30614 34.1857C7.58481 34.0481 7.69813 33.7106 7.56213 33.4336C7.4248 33.1565 7.08884 33.0414 6.81018 33.1789ZM5.00484 34.2961L4.84748 34.419C4.60482 34.6122 4.56352 34.9642 4.75686 35.207C4.95019 35.4497 5.30218 35.4909 5.54618 35.2976L5.68615 35.1882C5.93282 34.9986 5.97949 34.6472 5.79149 34.4002C5.60349 34.1549 5.25151 34.107 5.00484 34.2961ZM3.85946 35.3096C3.67813 35.495 3.49819 35.6924 3.32352 35.8986C3.12352 36.1352 3.15286 36.4882 3.39019 36.6898C3.62619 36.8898 3.97948 36.859 4.18082 36.6232C4.33815 36.4377 4.49816 36.2617 4.66083 36.095C4.87816 35.8737 4.87552 35.5174 4.65419 35.3002C4.43286 35.083 4.0768 35.0866 3.85946 35.3081V35.3096ZM3.19683 36.0524C2.92617 36.383 2.66619 36.7404 2.42086 37.1257C2.25419 37.3857 2.33016 37.732 2.59149 37.9002C2.85283 38.0669 3.1995 37.9898 3.36617 37.7294C3.58883 37.3805 3.8235 37.059 4.06617 36.7601C4.26083 36.52 4.22485 36.1669 3.98485 35.9721C3.74485 35.7762 3.3915 35.8122 3.19683 36.0524Z" fill="white"/>
<path d="M34.1209 61.9883C33.9089 61.9883 33.6915 61.9763 33.4742 61.9524C30.8169 61.6602 27.9209 59.5815 28.1662 57.3404C28.3955 55.2456 31.1875 53.9482 33.6435 53.9482C33.8822 53.9482 34.1182 53.9618 34.3475 53.9867C35.3075 54.0951 36.2128 54.4352 36.9502 54.9508L40.2982 44.1763L32.3862 39.6591L28.2502 52.9628C27.5715 54.5602 25.8609 55.5508 23.8742 55.5508C23.6609 55.5508 23.4448 55.5388 23.2262 55.5148C20.5702 55.2232 17.6728 53.143 17.9195 50.903C18.1488 48.8082 20.9409 47.5107 23.3969 47.5107C23.6342 47.5107 23.8702 47.5243 24.1008 47.5497C25.0382 47.6524 25.9302 47.9815 26.6622 48.4842L31.2955 33.5806C31.3528 33.3962 31.4902 33.2472 31.6715 33.1763L31.9008 33.1336L32.2222 33.2216L44.0182 40.1404C44.2715 40.2899 44.3902 40.5951 44.3035 40.8763L43.0635 44.8696L38.4969 59.4044C37.8169 60.9976 36.1075 61.9883 34.1209 61.9883Z" fill="#F6891E"/>
<path d="M31.9007 32.5001C31.746 32.5001 31.59 32.5267 31.442 32.584C31.0807 32.7256 30.8034 33.0214 30.6874 33.3922L30.0994 35.284L29.3994 37.5351L26.2927 47.5293C25.6474 47.2105 24.9287 47.0017 24.1687 46.9173C23.9167 46.8908 23.6581 46.8772 23.3967 46.8772C20.6074 46.8772 17.5594 48.3564 17.2887 50.8351C16.9981 53.472 20.1474 55.8137 23.1568 56.147C23.3981 56.172 23.6381 56.1856 23.8741 56.1856C26.1154 56.1856 28.054 55.0428 28.8114 53.2747L28.8568 53.1522L32.7581 40.6017L39.5407 44.4747L36.5847 53.9897C35.9287 53.66 35.1967 53.4428 34.4194 53.3564C34.1634 53.3282 33.9047 53.3146 33.6434 53.3146C30.8527 53.3146 27.8061 54.7949 27.5354 57.272C27.2461 59.9094 30.394 62.2523 33.4034 62.584C33.646 62.6105 33.8847 62.623 34.1207 62.623C36.3621 62.623 38.2994 61.4813 39.0568 59.7162L39.1021 59.5949L43.6687 45.0616L44.3221 42.9589L44.9087 41.0641C45.0847 40.5017 44.8474 39.8922 44.3394 39.5933L32.5434 32.6736C32.3461 32.5589 32.1247 32.5001 31.9007 32.5001ZM31.9007 33.7695L43.6967 40.6881L43.1087 42.5813L42.4568 44.6804L37.8901 59.2146C37.3421 60.4908 35.8514 61.3522 34.1207 61.3522C33.9314 61.3522 33.7381 61.3413 33.5434 61.3214C31.2287 61.0652 28.5954 59.2589 28.798 57.4094C28.982 55.7241 31.4541 54.584 33.6434 54.584C33.8581 54.584 34.0714 54.596 34.278 54.6173C35.5127 54.7559 36.5754 55.3028 37.2674 56.0684L41.0554 43.8788L32.014 38.7146L27.6447 52.7747C27.0967 54.0532 25.6047 54.9146 23.8741 54.9146C23.6834 54.9146 23.49 54.9043 23.2954 54.884C20.9834 54.6283 18.3474 52.8214 18.55 50.972C18.7354 49.2856 21.2101 48.147 23.3967 48.147C23.6114 48.147 23.8234 48.1589 24.0314 48.1804C25.2434 48.3137 26.2914 48.847 26.9834 49.5897L30.6114 37.9121L31.3127 35.6626L31.9007 33.7695Z" fill="#472618"/>
<path d="M23.8741 54.9141C23.6835 54.9141 23.4901 54.9037 23.2954 54.8834C22.3381 54.7766 21.3261 54.4063 20.4821 53.8755C19.3901 53.1891 18.5821 52.2355 18.5435 51.2474C19.3235 52.5261 21.2141 53.5703 22.9287 53.7583C23.1914 53.7875 23.4554 53.8011 23.7141 53.8011C25.3981 53.8011 26.9341 53.1943 27.4608 51.9662L32.0141 38.7141L27.6448 52.7741C27.0968 54.0526 25.6048 54.9141 23.8741 54.9141Z" fill="#DC7725"/>
<path d="M23.8726 54.916C23.6832 54.916 23.4899 54.9051 23.2952 54.8838C22.3379 54.7786 21.3246 54.4067 20.4819 53.8759C21.3259 54.4067 22.3379 54.777 23.2952 54.8838C23.4899 54.904 23.6833 54.9144 23.8739 54.9144C25.6046 54.9144 27.0966 54.053 27.6446 52.7744C27.0966 54.053 25.6046 54.916 23.8726 54.916Z" fill="#412219"/>
<path d="M34.1212 61.3535C33.9319 61.3535 33.7385 61.3426 33.5438 61.3227C32.5905 61.2175 31.5825 60.8492 30.7412 60.3227C29.6438 59.6347 28.8292 58.6784 28.7905 57.6868C29.5705 58.968 31.4611 60.0092 33.1758 60.1972C33.3705 60.2186 33.5639 60.2295 33.7545 60.2295C35.4852 60.2295 36.9772 59.3665 37.5239 58.0905L42.0918 43.5577L42.7438 41.4577L43.0931 40.3363L43.6972 40.6894L43.1091 42.5826L42.4572 44.6816L37.8905 59.2159C37.3425 60.4921 35.8519 61.3535 34.1212 61.3535Z" fill="#DC7725"/>
<path d="M25.5566 48.7852C25.5473 48.7826 25.3926 48.7243 25.1286 48.6576C24.9659 48.6159 24.8006 48.715 24.7592 48.8774C24.7192 49.0399 24.8179 49.2055 24.9806 49.2467L25.2513 49.3227L25.3392 49.3535C25.4952 49.4134 25.6712 49.3347 25.7312 49.1784C25.7912 49.0211 25.7126 48.8467 25.5566 48.7868V48.7852ZM25.0246 48.632C24.8313 48.5868 24.5939 48.5415 24.3193 48.5082C24.1526 48.4878 24.0006 48.6066 23.9806 48.7732C23.9606 48.9399 24.0793 49.091 24.246 49.1107C24.4966 49.1415 24.7126 49.1826 24.8859 49.2243C25.0499 49.2612 25.2126 49.1602 25.2513 48.9962C25.29 48.832 25.1873 48.6696 25.0246 48.6306V48.632ZM23.8913 48.4707L23.7846 48.4654C23.6166 48.4576 23.4753 48.5894 23.4686 48.756C23.4619 48.9243 23.5926 49.0639 23.7606 49.0722L23.8579 49.0774C24.0246 49.0868 24.1686 48.9576 24.1779 48.791C24.1873 48.6227 24.0593 48.48 23.8913 48.4707ZM23.0686 48.4759C22.9286 48.4852 22.7859 48.4998 22.6406 48.5202C22.4739 48.5426 22.3579 48.6972 22.3806 48.8628C22.4046 49.0295 22.5579 49.1451 22.7246 49.1211C22.8553 49.104 22.9846 49.091 23.1113 49.0816C23.2779 49.0696 23.4046 48.9243 23.3926 48.7576C23.3806 48.5894 23.2353 48.4628 23.0686 48.4748V48.4759ZM22.5339 48.5363C22.3059 48.5722 22.0699 48.6211 21.8312 48.691C21.6699 48.7363 21.5753 48.904 21.6219 49.0654C21.6673 49.2268 21.8353 49.3202 21.9966 49.2748C22.2113 49.2134 22.4219 49.1696 22.6286 49.1363C22.7939 49.1092 22.9073 48.9544 22.8806 48.7878C22.8539 48.6227 22.6992 48.5092 22.5339 48.5363ZM21.4206 48.8227L21.3193 48.8612C21.1619 48.9227 21.0846 49.0972 21.146 49.2544C21.206 49.4107 21.3819 49.4878 21.5379 49.4279L21.6286 49.3946C21.7859 49.3363 21.8673 49.1612 21.81 49.004C21.7513 48.8467 21.5766 48.7654 21.4206 48.8243V48.8227ZM20.6646 49.1628C20.5406 49.2306 20.4166 49.303 20.2926 49.3816C20.1512 49.4722 20.1099 49.6587 20.1993 49.8014C20.2899 49.9426 20.4779 49.9826 20.6193 49.8935L20.9526 49.6987C21.1006 49.6186 21.1566 49.4331 21.0766 49.2868C20.9966 49.1388 20.8126 49.0826 20.6646 49.1628ZM20.2019 49.4399C20.0086 49.568 19.8179 49.7107 19.6286 49.8707C19.5006 49.98 19.4846 50.1707 19.5926 50.2987C19.7006 50.4268 19.8926 50.4426 20.0206 50.3347C20.1913 50.191 20.3646 50.0612 20.5379 49.9467C20.6779 49.8535 20.7153 49.6654 20.6233 49.5254C20.53 49.3852 20.3419 49.3467 20.2019 49.4399Z" fill="white"/>
<path d="M35.8554 55.4473C35.8461 55.443 35.6927 55.3842 35.4287 55.3176C35.266 55.2764 35.1007 55.3749 35.0594 55.5378C35.018 55.702 35.1167 55.867 35.2807 55.9072L35.5514 55.9842L35.6381 56.0139C35.7954 56.0738 35.9701 55.9951 36.0301 55.8389C36.0901 55.6815 36.0127 55.5071 35.8554 55.4473ZM35.3234 55.2925C35.1314 55.2473 34.8928 55.202 34.6181 55.1686C34.4514 55.1482 34.3007 55.267 34.2807 55.4337C34.2607 55.6003 34.3794 55.7509 34.5461 55.7712C34.7954 55.802 35.0127 55.843 35.1861 55.8842C35.3487 55.9217 35.5128 55.8201 35.5514 55.6566C35.5888 55.4925 35.4874 55.3295 35.3234 55.291V55.2925ZM34.1914 55.131L34.0834 55.1258C33.9167 55.1175 33.7754 55.2498 33.7688 55.4165C33.7621 55.5842 33.8927 55.7258 34.0594 55.7321L34.1568 55.7378C34.3248 55.7473 34.4674 55.6176 34.4781 55.4509C34.4874 55.2842 34.3581 55.1405 34.1914 55.131ZM33.3674 55.1364C33.2287 55.1457 33.0861 55.1602 32.9394 55.1806C32.7727 55.203 32.6567 55.3566 32.6807 55.5233C32.7034 55.6899 32.8568 55.8055 33.0234 55.7831C33.1554 55.7643 33.2834 55.7509 33.4101 55.7416C33.5781 55.7296 33.7034 55.5842 33.6927 55.4176C33.6807 55.2498 33.5354 55.1233 33.3674 55.1353V55.1364ZM32.8327 55.1962C32.6047 55.2321 32.3701 55.2831 32.1301 55.3498C31.9687 55.3962 31.8754 55.5629 31.9221 55.7258C31.9674 55.8867 32.1354 55.9806 32.2967 55.9353C32.5114 55.8738 32.7221 55.8285 32.9274 55.7962C33.0927 55.7697 33.2061 55.6149 33.1807 55.4498C33.1541 55.2831 32.9994 55.1697 32.8327 55.1962ZM31.7194 55.4831L31.6181 55.5217C31.4621 55.5815 31.3847 55.7561 31.4447 55.9139C31.5047 56.0697 31.6808 56.1473 31.8381 56.0883L31.9287 56.0534C32.086 55.9962 32.1661 55.8217 32.1087 55.6643C32.0514 55.5071 31.8767 55.4258 31.7194 55.4831ZM30.9647 55.8217C30.8394 55.8899 30.7154 55.9618 30.5914 56.0405C30.4501 56.131 30.4087 56.3175 30.4994 56.4591C30.5887 56.6003 30.7768 56.643 30.9181 56.5525L31.2527 56.3577C31.3994 56.2774 31.4554 56.0925 31.3754 55.9457C31.2967 55.7977 31.1114 55.7415 30.9647 55.8217ZM30.5021 56.0987C30.3088 56.2269 30.1167 56.3697 29.9274 56.5295C29.7981 56.6378 29.7821 56.8295 29.8914 56.9577C29.9994 57.0867 30.1901 57.103 30.3194 56.9951C30.4901 56.8498 30.6634 56.7217 30.8367 56.6055C30.9767 56.5123 31.0154 56.3244 30.9221 56.1842C30.8301 56.0441 30.6408 56.0071 30.5021 56.0987Z" fill="white"/>
</svg>
