<svg width="59" height="44" viewBox="0 0 59 44" fill="none" xmlns="http://www.w3.org/2000/svg">
<path d="M18.5894 3.03739L33.3028 0.713378L37.1801 7.67485L17.0454 10.8535L18.5894 3.03739Z" fill="#6ACDE9"/>
<path d="M33.5441 0.217587L32.9201 0.316521L18.8307 2.54052L18.2067 2.63892L18.0854 3.25933L16.7281 10.1312L16.4761 11.4004L17.7547 11.1989L36.6107 8.22172L37.8907 8.02026L37.2601 6.88839L33.8507 0.768124L33.5441 0.217587ZM33.0614 1.20826L36.4708 7.32852L17.6147 10.3056L18.9721 3.43226L33.0614 1.20826Z" fill="#472618"/>
<path d="M22.0368 5.33507L30.7301 3.9632L33.1501 8.31013L21.0728 10.2168L22.0368 5.33507Z" fill="#263034"/>
<path d="M30.9727 3.46922L30.3487 3.56669L22.2781 4.84002L21.6541 4.93909L21.5314 5.55882L20.7541 9.49629L20.5034 10.7656L21.7821 10.564L32.5821 8.85882L33.8607 8.65615L33.2301 7.52549L31.2794 4.02029L30.9727 3.46922ZM30.4887 4.46043L32.4407 7.96563L21.6407 9.67083L22.4181 5.73336L30.4887 4.46043Z" fill="#472618"/>
<path d="M13.3007 12.7778C13.3781 13.2726 13.0407 13.736 12.5487 13.8152L6.74472 14.7308C6.25139 14.8095 5.78739 14.471 5.71006 13.9787L5.15672 10.4819C5.08072 9.9871 5.41672 9.52563 5.91006 9.44696L11.7141 8.53083C12.2074 8.45216 12.6701 8.78816 12.7487 9.28296L13.3007 12.7778Z" fill="#B8741E"/>
<path d="M13.3005 12.7772L12.8538 12.848L12.8578 12.9199C12.8592 13.1371 12.6965 13.333 12.4765 13.3678L6.67385 14.2839H6.67652L6.60186 14.2891C6.38452 14.2891 6.18851 14.1267 6.15651 13.909L5.60319 10.409L5.59785 10.3387C5.59785 10.1183 5.75518 9.92776 5.97785 9.89336L11.7845 8.97563L11.8565 8.96882C12.0725 8.97042 12.2659 9.12669 12.3019 9.35322L12.8538 12.848L13.3005 12.7772L13.7459 12.7063L13.1938 9.21149C13.0885 8.54229 12.5138 8.06523 11.8565 8.06523L11.6405 8.08389L5.83918 8.99963C5.16985 9.10376 4.69252 9.68136 4.69385 10.3387L4.70985 10.5506L5.26319 14.048C5.36852 14.7147 5.94186 15.1918 6.60186 15.1934L6.81118 15.1772H6.81385L12.6192 14.26C13.2859 14.1516 13.7619 13.5772 13.7619 12.9199L13.7459 12.7063L13.3005 12.7772Z" fill="#472618"/>
<path d="M7.09867 43.2129C6.12534 43.2129 5.30401 42.4916 5.14667 41.4984L0.889332 14.5353C0.715998 13.4342 1.44267 12.4009 2.508 12.2317L51.432 4.50769L51.7307 4.48476C52.704 4.48476 53.5253 5.2061 53.6827 6.19943L57.94 33.1624C58.0267 33.7088 57.8973 34.253 57.5773 34.6916C57.272 35.1104 56.8253 35.3848 56.3187 35.4634L7.39734 43.19L7.09867 43.2129Z" fill="#6ACDE9"/>
<path d="M51.732 4.03375C51.6094 4.03375 51.4854 4.04308 51.3614 4.06188L2.43871 11.7857C1.12538 11.9941 0.230714 13.2608 0.442714 14.6061L4.70005 41.5696C4.89339 42.7847 5.90139 43.666 7.09872 43.666C7.22139 43.666 7.34406 43.6565 7.46939 43.6379L56.3907 35.9113C57.0134 35.8155 57.5654 35.4764 57.9427 34.9592C58.3347 34.4217 58.4921 33.7592 58.3867 33.0941L54.1294 6.13002C53.936 4.91548 52.928 4.03375 51.732 4.03375ZM51.7307 4.93628C52.4654 4.93628 53.1134 5.49255 53.2361 6.26961L57.4934 33.2337C57.6294 34.0909 57.0734 34.8899 56.2507 35.018L7.32671 42.7447L7.09872 42.7633C6.36539 42.7633 5.71605 42.2071 5.59338 41.43L1.33606 14.466C1.20006 13.6087 1.75738 12.8097 2.58005 12.6789L51.5027 4.95508L51.7307 4.93628Z" fill="#472618"/>
<path d="M7.1001 42.7617C6.37743 42.7617 5.7361 42.2205 5.6001 41.4632L54.6094 33.723C55.4641 33.5882 56.0401 32.7606 55.9001 31.8726L51.6481 4.94292L51.7294 4.93772C51.7308 4.93772 51.7308 4.93772 51.7308 4.93772C52.4014 4.93772 53.0028 5.40438 53.1934 6.07785C53.2108 6.14025 53.2254 6.20439 53.2361 6.26945L57.4934 33.2336C57.5081 33.3205 57.5134 33.4069 57.5134 33.4924C57.5134 34.2454 56.9894 34.9028 56.2508 35.0178L7.32676 42.7445L7.10675 42.7617C7.10409 42.7617 7.10276 42.7617 7.1001 42.7617Z" fill="#4CC3E3"/>
<path d="M29.2601 39.625C21.0427 39.625 14.1467 33.7223 12.8627 25.5933C12.1707 21.2078 13.2268 16.8146 15.8374 13.2223C18.4494 9.6318 22.3027 7.27287 26.6881 6.58233C27.5534 6.44473 28.4321 6.37554 29.3014 6.37554C37.5188 6.37554 44.4148 12.2771 45.6988 20.4078C47.1294 29.4599 40.9267 37.9875 31.8734 39.4182C31.0081 39.5542 30.1294 39.625 29.2601 39.625Z" fill="#B8741E"/>
<path d="M29.3019 5.79178C28.4019 5.79178 27.4912 5.86365 26.5952 6.00538C22.0565 6.72098 18.0685 9.16258 15.3659 12.8798C12.6632 16.597 11.5699 21.1439 12.2859 25.6839C13.6152 34.0986 20.7525 40.209 29.2592 40.209C30.1578 40.209 31.0685 40.1371 31.9645 39.9944C41.3352 38.5131 47.7538 29.6866 46.2738 20.3172C44.9445 11.9011 37.8072 5.79178 29.3019 5.79178ZM29.3005 6.95845C37.0565 6.95845 43.8738 12.597 45.1218 20.4986C46.5045 29.2491 40.5299 37.4601 31.7819 38.8423C30.9339 38.9773 30.0898 39.0423 29.2592 39.0423C21.5032 39.0423 14.6858 33.4038 13.4378 25.5011C12.0565 16.7516 18.0285 8.53871 26.7778 7.15685C27.6258 7.02351 28.4699 6.95845 29.3005 6.95845Z" fill="#472618"/>
<path d="M29.2677 36.2324C22.7237 36.2324 17.233 31.535 16.2117 25.0631C15.073 17.8579 20.0103 11.0683 27.217 9.92975C27.905 9.82042 28.6037 9.76576 29.2943 9.76576C35.837 9.76576 41.3277 14.4647 42.349 20.935C43.4877 28.1418 38.5503 34.9314 31.345 36.0699C30.657 36.1776 29.9583 36.2324 29.2677 36.2324Z" fill="#263034"/>
<path d="M29.2944 9.0675C28.5677 9.0675 27.8317 9.12484 27.109 9.23937C19.521 10.4384 14.3223 17.5863 15.521 25.1727C16.5957 31.9874 22.377 36.9316 29.2677 36.9316C29.9944 36.9316 30.7304 36.8754 31.453 36.7608C39.041 35.5608 44.2383 28.4144 43.0397 20.8264C41.965 14.0128 36.1837 9.0675 29.2944 9.0675ZM29.2944 10.466C35.3544 10.466 40.6837 14.8718 41.6584 21.0446C42.7384 27.8811 38.0717 34.2983 31.2357 35.3779C30.5744 35.4836 29.917 35.5342 29.2677 35.5342C23.2064 35.5342 17.877 31.129 16.9024 24.954C15.8224 18.118 20.489 11.7019 27.3264 10.6207C27.9877 10.517 28.645 10.466 29.2944 10.466Z" fill="#472618"/>
<path d="M48.5361 9.43267C48.5907 9.78054 48.3547 10.1061 48.0067 10.1608L43.7094 10.8379C43.3627 10.8925 43.0361 10.6551 42.9801 10.3097L42.7827 9.05133C42.7281 8.70293 42.9654 8.3764 43.3121 8.32173L47.6094 7.64307C47.9574 7.58841 48.2827 7.82747 48.3374 8.17374L48.5361 9.43267Z" fill="#E9E9E9"/>
<path d="M48.5356 9.43145L48.2209 9.47931L48.2249 9.52984C48.2249 9.68198 48.1129 9.82051 47.9542 9.84597L43.6596 10.522L43.6089 10.5246C43.4556 10.5262 43.3182 10.411 43.2942 10.258L43.0969 9.00064L43.0929 8.95011C43.0929 8.79397 43.2036 8.65958 43.3609 8.63504L47.6582 7.95637L47.6649 7.95531L47.7076 7.95117C47.8596 7.95011 47.9982 8.06317 48.0222 8.22197L48.2209 9.48091L48.5356 9.43145L48.8502 9.38091L48.6516 8.12304C48.5756 7.65277 48.1729 7.31424 47.7076 7.31424L47.5529 7.32731L47.6089 7.64185L47.5596 7.32625L43.2622 8.00584C42.7916 8.07931 42.4556 8.48611 42.4556 8.95011L42.4676 9.10064L42.6649 10.358C42.7409 10.8262 43.1449 11.1621 43.6089 11.1621L43.7569 11.1512L48.0556 10.4741C48.5249 10.3965 48.8609 9.99398 48.8622 9.52984L48.8502 9.38091L48.5356 9.43145Z" fill="#472618"/>
<path d="M49.9315 8.68407C49.9648 8.89193 49.8222 9.08513 49.6142 9.11847C49.4075 9.15073 49.2115 9.00914 49.1795 8.80127C49.1448 8.59354 49.2875 8.39981 49.4955 8.36647C49.7035 8.33207 49.8995 8.4758 49.9315 8.68407Z" fill="#F9A72B"/>
<path d="M42.9302 9.99414L48.4862 9.11654L48.3875 8.48734L42.8315 9.3644" fill="#472618"/>
<path d="M11.6707 12.6052L10.6574 12.765C10.3387 12.8156 10.1227 13.1145 10.172 13.4317C10.2227 13.7489 10.5214 13.9661 10.8387 13.9156L11.8521 13.7556C12.1707 13.7061 12.3867 13.4077 12.3374 13.09C12.2867 12.7718 11.9881 12.5556 11.6707 12.6052ZM10.4041 12.8052L8.71472 13.0718C8.39606 13.1222 8.18005 13.4208 8.22939 13.7385C8.28005 14.0556 8.57872 14.2728 8.89605 14.2222L10.5854 13.9556C10.9027 13.9052 11.1201 13.6077 11.0694 13.29C11.0201 12.9718 10.7214 12.7556 10.4041 12.8052ZM7.70006 13.2328L7.44672 13.2728C7.12939 13.3222 6.91206 13.6208 6.96272 13.9385C7.01339 14.2566 7.31072 14.4728 7.62939 14.4233L7.88272 14.3822C8.20006 14.3328 8.41739 14.0342 8.36673 13.717C8.31739 13.3994 8.01873 13.1822 7.70006 13.2328ZM5.75738 13.5394L4.74405 13.6994C4.42672 13.7504 4.20939 14.0478 4.26005 14.3661C4.30939 14.6837 4.60805 14.9009 4.92672 14.8504L5.94005 14.69C6.25738 14.6394 6.47472 14.3421 6.42405 14.0233C6.37472 13.7061 6.07605 13.4889 5.75738 13.5394ZM4.49072 13.7394L3.40006 13.9129C3.08139 13.9624 2.86539 14.2609 2.91606 14.578L3.00939 15.177C3.06005 15.4942 3.35739 15.7104 3.67605 15.6609C3.99339 15.6113 4.21072 15.3129 4.16139 14.9957L4.15738 14.9718L4.67338 14.89C4.99072 14.8394 5.20672 14.5421 5.15738 14.2249C5.10672 13.9061 4.80805 13.69 4.49072 13.741V13.7394ZM3.1694 16.19L3.20939 16.4437C3.26005 16.7609 3.55739 16.978 3.87605 16.9276C4.19339 16.877 4.41072 16.5796 4.36005 16.2624L4.32006 16.0088C4.27073 15.69 3.97205 15.4744 3.65471 15.5233C3.33605 15.5744 3.12006 15.8728 3.1694 16.19ZM3.47605 18.1328L3.63606 19.1462C3.68673 19.4634 3.9854 19.6812 4.30273 19.6301C4.62006 19.5812 4.8374 19.2822 4.78673 18.965L4.62672 17.9514C4.57739 17.6328 4.27872 17.417 3.96005 17.4661C3.64272 17.517 3.42672 17.8156 3.47605 18.1328ZM3.67605 19.4009L3.94272 21.0889C3.99339 21.4061 4.29205 21.6233 4.60939 21.5728C4.92672 21.5233 5.14405 21.2249 5.09339 20.9077L4.82672 19.2181C4.77739 18.9009 4.47872 18.6837 4.16139 18.7342C3.84272 18.7848 3.62672 19.0822 3.67605 19.4009Z" fill="white"/>
<path d="M28.1222 13.0934C27.7369 13.1079 27.3569 13.1694 26.9863 13.2678C26.6743 13.3495 26.4889 13.6694 26.5716 13.9803C26.6542 14.2907 26.9729 14.4762 27.2836 14.3949C27.5809 14.3162 27.8756 14.2678 28.1703 14.2558C28.4916 14.2429 28.7409 13.9719 28.7276 13.6506C28.7143 13.3293 28.4436 13.0803 28.1236 13.0934H28.1222ZM26.7129 13.347C26.1263 13.5334 25.5663 13.8069 25.0369 14.1377C24.7649 14.3079 24.6809 14.6667 24.8516 14.9402C25.0223 15.2121 25.3822 15.2959 25.6556 15.1257C26.1142 14.8377 26.5889 14.6079 27.0649 14.459C27.3716 14.3601 27.5409 14.0334 27.4436 13.7267C27.3463 13.4199 27.0196 13.2495 26.7129 13.347ZM24.1476 14.7667L23.9369 14.9377C23.6903 15.1438 23.6556 15.5105 23.8623 15.759C24.0676 16.0053 24.4356 16.0402 24.6823 15.8334L24.8703 15.6803C25.1236 15.4814 25.1663 15.1147 24.9663 14.8615C24.7663 14.6095 24.3996 14.5667 24.1476 14.7667ZM22.6476 16.1839C22.4036 16.4558 22.1743 16.7334 21.9623 17.0095C21.7663 17.2642 21.8156 17.6293 22.0703 17.8257C22.3263 18.0214 22.6916 17.9735 22.8876 17.7173C23.0809 17.4653 23.2903 17.2121 23.5143 16.9626C23.7289 16.7241 23.7089 16.3558 23.4703 16.1413C23.2303 15.9257 22.8623 15.9454 22.6476 16.1839ZM21.8009 17.2241C21.7023 17.359 21.6076 17.4934 21.5169 17.6267C21.2663 17.9949 21.0503 18.3855 20.8636 18.7891C20.7289 19.0814 20.8569 19.4282 21.1503 19.5626C21.4423 19.6959 21.7876 19.5694 21.9222 19.2762C22.0836 18.9267 22.2689 18.5934 22.4809 18.2803C22.5636 18.159 22.6502 18.0377 22.7396 17.9137C22.9302 17.6533 22.8756 17.2891 22.6156 17.0986C22.3569 16.9079 21.9916 16.9642 21.8009 17.2241ZM20.4676 19.8105L20.3876 20.071C20.2969 20.3787 20.4743 20.7027 20.7836 20.7923C21.0916 20.8829 21.4156 20.7069 21.5062 20.3975L21.5769 20.1678C21.6756 19.8615 21.5063 19.5334 21.2009 19.4345C20.8943 19.3361 20.5663 19.5043 20.4676 19.8105ZM20.0303 21.8386C19.9876 22.1959 19.9596 22.5547 19.9476 22.9121C19.9369 23.2345 20.1889 23.5027 20.5116 23.5137C20.8329 23.5257 21.1023 23.2735 21.1129 22.9522C21.1236 22.6257 21.1476 22.3011 21.1863 21.9787C21.2249 21.659 20.9969 21.3694 20.6783 21.3309C20.3583 21.2923 20.0689 21.5189 20.0303 21.8386ZM19.9423 23.1814L19.9409 23.3377C19.9409 23.8881 19.9756 24.4345 20.0423 24.9667C20.0823 25.2866 20.3743 25.5121 20.6929 25.4719C21.0116 25.4319 21.2383 25.1413 21.1983 24.8225C21.1383 24.3377 21.1062 23.8402 21.1062 23.3377L21.1076 23.1959C21.1116 22.8735 20.8529 22.6095 20.5316 22.6053C20.2103 22.6011 19.9463 22.859 19.9423 23.1814Z" fill="white"/>
</svg>
