<svg width="52" height="51" viewBox="0 0 52 51" fill="none" xmlns="http://www.w3.org/2000/svg">
<path d="M26.171 50.0801C13.2814 50.0801 2.50632 39.9974 1.64179 27.1228C1.20059 20.5641 3.33966 14.2281 7.66526 9.27874C11.9907 4.33074 17.9845 1.36275 24.5418 0.922751C25.1027 0.884085 25.6606 0.866762 26.2147 0.866762C39.1029 0.866762 49.8762 10.9494 50.7415 23.8241C51.6509 37.3588 41.3775 49.1121 27.8402 50.0241C27.2802 50.0614 26.7229 50.0801 26.171 50.0801Z" fill="#E9E9E9"/>
<path d="M26.2162 0.10864C25.6438 0.10864 25.0636 0.128665 24.4912 0.167331C17.7324 0.621998 11.5553 3.68065 7.0969 8.78065C2.63864 13.882 0.433968 20.414 0.888635 27.1727C1.7797 40.4407 12.886 50.834 26.1714 50.834C26.7406 50.834 27.3193 50.8166 27.89 50.7766C41.8446 49.8366 52.4326 37.722 51.4953 23.7727C50.6033 10.5033 39.5006 0.10864 26.2162 0.10864ZM26.2152 1.62065C38.658 1.62065 49.1406 11.274 49.9873 23.874C50.87 37.014 40.9313 48.3847 27.79 49.27C27.2473 49.306 26.7073 49.3247 26.1714 49.3247C13.7266 49.3247 3.24277 39.67 2.39637 27.0713C1.51197 13.9287 11.451 2.55797 24.5928 1.67531C25.137 1.63931 25.6782 1.62065 26.2152 1.62065Z" fill="black"/>
<path d="M26.1718 49.3242C19.3728 49.3242 13.1588 46.4416 8.78223 41.7736C12.7265 44.6309 17.5629 46.3015 22.7385 46.3015C23.2744 46.3015 23.815 46.2829 24.3577 46.2469C37.5 45.3642 47.4386 33.9935 46.5559 20.8509C46.1719 15.1349 43.8026 10.0255 40.168 6.15088C45.676 10.1402 49.4466 16.4389 49.9773 23.7429C49.9773 23.7456 49.9773 23.7455 49.9773 23.7469C49.9786 23.7589 49.98 23.7722 49.98 23.7842C49.98 23.7855 49.9813 23.7882 49.9813 23.7909C49.9813 23.8016 49.9826 23.8136 49.984 23.8256C49.984 23.8269 49.984 23.8309 49.984 23.8335C49.9853 23.8469 49.9853 23.8616 49.9866 23.8749C50.0226 24.4136 50.0413 24.9495 50.0413 25.4815C50.0493 37.9309 40.392 48.4215 27.7893 49.2709C27.2466 49.3069 26.708 49.3242 26.1718 49.3242Z" fill="#9A9899"/>
<path d="M20.699 34.3914C19.1182 30.7848 17.513 27.3154 16.4229 24.1661C18.1641 22.6368 19.4479 21.0821 21.2083 19.6234C22.7968 18.3114 24.4463 17.0248 26.3001 16.0928C28.3654 17.2154 29.6721 18.1528 31.2627 19.5301C32.9587 20.9994 34.5067 22.5608 35.9867 24.3941C34.8227 27.5221 33.1347 30.9514 31.4694 34.5194C27.8734 35.0061 24.2823 34.9648 20.699 34.3914Z" fill="#263034"/>
<path d="M20.6989 34.3907L21.391 34.0881C19.8061 30.4721 18.2072 27.0147 17.1369 23.9174L16.4228 24.1654L16.9213 24.732C18.7161 23.152 19.9957 21.6041 21.69 20.2041C23.2666 18.9001 24.8744 17.6534 26.64 16.7667L26.3 16.0921L25.9394 16.7547C27.968 17.8587 29.2013 18.7454 30.768 20.1C32.4346 21.544 33.948 23.0721 35.3986 24.8681L35.9866 24.3934L35.2786 24.1294C34.1346 27.204 32.4546 30.6227 30.7853 34.1987L31.4693 34.5187L31.368 33.7694C29.7466 33.9894 28.128 34.0987 26.5093 34.0987C24.6104 34.0987 22.7129 33.9467 20.8176 33.644L20.6989 34.3907L20.5796 35.1374C22.5525 35.4507 24.5296 35.6094 26.5093 35.6094C28.196 35.6094 29.8826 35.496 31.5706 35.2667C31.8266 35.232 32.0453 35.0707 32.1546 34.8374C33.816 31.2787 35.5106 27.8374 36.6946 24.6574C36.788 24.4054 36.7426 24.1267 36.5746 23.9187C35.064 22.0481 33.4813 20.4507 31.7573 18.9574C30.1413 17.5561 28.7626 16.568 26.6613 15.4267C26.444 15.3094 26.1822 15.304 25.9609 15.416C24.0181 16.3934 22.3265 17.7201 20.7265 19.0401C18.8994 20.5574 17.6113 22.1187 15.9244 23.596C15.6926 23.7987 15.6082 24.12 15.7088 24.4107C16.8176 27.616 18.4301 31.096 20.0066 34.6934C20.1098 34.9294 20.3254 35.0961 20.5796 35.1374L20.6989 34.3907Z" fill="black"/>
<path d="M26.9875 8.27539C26.8555 8.27539 26.7235 8.24072 26.6048 8.17139C24.6539 7.02872 23.3049 6.02739 21.6284 4.47806C21.0512 3.94473 20.4935 3.39805 19.9498 2.83538C19.7618 2.64205 19.6919 2.36208 19.7669 2.10075C19.8419 1.84208 20.0497 1.64206 20.3121 1.57673C21.696 1.23673 23.1189 1.01674 24.5429 0.922071C25.1003 0.883404 25.655 0.866081 26.206 0.866081C28.8582 0.866081 31.4741 1.29008 33.9808 2.12874C34.2355 2.21274 34.4261 2.42741 34.4808 2.69007C34.5368 2.95274 34.4475 3.22472 34.2475 3.40472C33.7448 3.86072 33.2235 4.31407 32.6555 4.75273C31.1342 5.9274 29.3408 7.26339 27.3048 8.20605L26.9875 8.27539Z" fill="#263034"/>
<path d="M26.2051 0.111231C25.6363 0.111231 25.0603 0.12992 24.491 0.167253C23.0243 0.26592 21.5571 0.493896 20.1311 0.84323C19.6057 0.972563 19.1899 1.37258 19.0399 1.89258C18.8894 2.41258 19.0295 2.97258 19.4057 3.36191C19.9593 3.93391 20.5347 4.49658 21.1145 5.03258C22.8342 6.62192 24.2191 7.64858 26.2223 8.82458C26.4586 8.96058 26.7226 9.03125 26.9866 9.03125C27.2026 9.03125 27.4199 8.98458 27.6226 8.88991C29.7293 7.91524 31.5639 6.55124 33.1173 5.3499C33.6266 4.95657 34.1306 4.52992 34.7546 3.96592C35.1533 3.60458 35.3293 3.06059 35.2199 2.53392C35.1093 2.00859 34.7293 1.5819 34.2199 1.41123C31.6346 0.548564 28.9386 0.111231 26.2051 0.111231ZM26.2051 1.62191C28.8279 1.62191 31.3639 2.0499 33.7412 2.84456C33.2506 3.28723 32.7439 3.72724 32.1919 4.15524C30.5626 5.41524 28.8706 6.64724 26.9866 7.51924C24.9593 6.33257 23.6847 5.34991 22.1405 3.92324C21.5738 3.39924 21.0259 2.86323 20.4921 2.31123C21.8161 1.9859 23.1858 1.76989 24.5921 1.67523C25.1327 1.63923 25.6702 1.62191 26.2051 1.62191Z" fill="black"/>
<path d="M50.0111 25.0586L49.6738 24.9799C49.0658 24.6772 48.4564 24.3546 47.8444 23.9853C46.0844 22.9279 44.2404 21.7453 42.6871 20.2519C42.5084 20.0799 42.4258 19.8333 42.4644 19.5879C42.8244 17.3479 43.2684 15.7279 44.1031 13.6093C44.3911 12.8786 44.6978 12.1613 45.0244 11.4493C45.1364 11.2039 45.3724 11.0372 45.6418 11.0119L45.7111 11.0092C45.9551 11.0092 46.1871 11.1279 46.3284 11.3306C48.9124 14.9999 50.4391 19.3199 50.7418 23.8239L50.7658 24.2612C50.7791 24.5319 50.6511 24.7879 50.4258 24.9346C50.3004 25.0173 50.1564 25.0586 50.0111 25.0586Z" fill="#263034"/>
<path d="M45.7114 10.2537L45.5741 10.2604C45.0341 10.3098 44.5634 10.6431 44.3381 11.1351C43.9994 11.8724 43.6848 12.6124 43.4008 13.3337C42.5434 15.5071 42.0874 17.1684 41.7194 19.4684C41.6408 19.9577 41.8061 20.4537 42.1634 20.7977C43.7701 22.3417 45.6581 23.5551 47.4581 24.6337C48.0101 24.9671 48.6074 25.2937 49.3368 25.6577C49.5488 25.7617 49.7808 25.8164 50.0114 25.8164C50.3008 25.8164 50.5901 25.7324 50.8408 25.5671C51.2914 25.2711 51.5488 24.7604 51.5208 24.2217L51.5128 24.0844L51.4954 23.7791C51.1848 19.1311 49.6114 14.6778 46.9474 10.8951C46.6621 10.4911 46.2008 10.2537 45.7114 10.2537ZM45.7114 11.7657C48.1408 15.2164 49.6848 19.3564 49.9874 23.8751C49.9968 24.0177 50.0034 24.1617 50.0114 24.3044C49.4208 24.0097 48.8301 23.6977 48.2354 23.3377C46.4674 22.2791 44.7061 21.1457 43.2114 19.7084C43.5834 17.3884 44.0354 15.8431 44.8061 13.8884C45.0888 13.1684 45.3914 12.4631 45.7114 11.7657Z" fill="black"/>
<path d="M33.4326 48.9551C33.2486 48.9551 33.0672 48.8884 32.9272 48.7617C32.7272 48.5817 32.6379 48.3097 32.6926 48.0457C32.8299 47.3791 32.9859 46.7111 33.1859 46.0191C33.7192 44.1737 34.3806 42.0431 35.4712 40.0764C35.5912 39.8591 35.8099 39.7164 36.0566 39.6911C37.1472 39.5817 38.0752 39.5297 38.9792 39.5297C39.9992 39.5297 41.0099 39.5951 42.2552 39.7417C43.0339 39.8311 43.8059 39.9431 44.5752 40.0777C44.8419 40.1244 45.0619 40.3111 45.1552 40.5644C45.2472 40.8191 45.1966 41.1017 45.0219 41.3097C42.0192 44.8791 38.0899 47.5111 33.6619 48.9204L33.4326 48.9551Z" fill="#263034"/>
<path d="M38.9787 38.7723C38.0493 38.7723 37.0973 38.8243 35.98 38.9363C35.488 38.9869 35.0493 39.275 34.8093 39.7083C33.6813 41.743 33.0053 43.923 32.46 45.807C32.276 46.4416 32.116 47.103 31.952 47.8923C31.844 48.419 32.0213 48.9616 32.42 49.3216C32.7013 49.5749 33.064 49.7109 33.432 49.7109C33.5853 49.7109 33.74 49.6869 33.8907 49.6389C38.456 48.1869 42.5053 45.4749 45.6 41.7936C45.948 41.3816 46.0493 40.8136 45.864 40.3043C45.68 39.7963 45.2387 39.4269 44.7053 39.3323C43.9347 39.1976 43.1387 39.0816 42.34 38.9896C41.0667 38.8389 40.0293 38.7723 38.9787 38.7723ZM38.9787 40.2843C40.0293 40.2843 41.0267 40.3563 42.1667 40.491C42.932 40.579 43.688 40.6883 44.444 40.8216C41.5893 44.2149 37.7973 46.8109 33.432 48.1989C33.5667 47.5496 33.7173 46.8989 33.9107 46.2269C34.484 44.2483 35.1253 42.2563 36.1307 40.4416C37.1933 40.3336 38.104 40.2843 38.9787 40.2843Z" fill="black"/>
<path d="M16.043 47.8145L15.7212 47.7425C11.507 45.7571 7.9545 42.6331 5.44663 38.7118C5.30236 38.4851 5.28889 38.1985 5.41129 37.9585C5.53369 37.7211 5.77369 37.5638 6.04196 37.5491C6.56489 37.5198 7.09356 37.5011 7.63569 37.5011L8.12796 37.5065C10.0524 37.5491 12.2868 37.6438 14.4597 38.1905C14.7004 38.2518 14.8946 38.4265 14.9821 38.6585C15.7805 40.7798 16.1988 42.4065 16.5242 44.6585C16.6384 45.4345 16.7269 46.2118 16.7956 46.9918C16.8201 47.2611 16.6972 47.5238 16.4753 47.6785C16.3466 47.7678 16.1956 47.8145 16.043 47.8145Z" fill="#263034"/>
<path d="M7.6356 36.745C7.13453 36.745 6.60027 36.761 6.00027 36.7943C5.46374 36.825 4.98307 37.137 4.73827 37.6143C4.49347 38.093 4.52107 38.6663 4.81014 39.117C7.39454 43.161 11.056 46.3783 15.3987 48.4263C15.6039 48.5223 15.8236 48.5703 16.0429 48.5703C16.3476 48.5703 16.6497 48.4783 16.9075 48.2983C17.3517 47.989 17.5965 47.465 17.5481 46.9263C17.4763 46.1063 17.3831 45.3076 17.2716 44.549C16.9377 42.2383 16.5091 40.569 15.6893 38.3903C15.5153 37.9276 15.1241 37.5796 14.6445 37.457C12.3949 36.8903 10.1101 36.7956 8.14493 36.7516C7.97413 36.7476 7.80333 36.745 7.6356 36.745ZM7.6356 38.257C7.79293 38.257 7.95067 38.2583 8.11067 38.261C10.1705 38.309 12.2607 38.4156 14.2747 38.9236C15.1017 41.121 15.4752 42.6863 15.7763 44.7663C15.8883 45.5303 15.9752 46.293 16.0429 47.0583C11.9716 45.1397 8.50907 42.0983 6.08361 38.3036C6.59241 38.2756 7.10693 38.257 7.6356 38.257Z" fill="black"/>
<path d="M2.72232 21.959C2.54672 21.959 2.37272 21.8976 2.23472 21.7803C2.02846 21.6056 1.93059 21.335 1.97899 21.0696C2.80565 16.499 4.91285 12.263 8.07232 8.82298C8.21659 8.66565 8.41966 8.57897 8.62846 8.57897L8.78846 8.59632C9.05032 8.65232 9.26338 8.84299 9.34672 9.09899C9.55818 9.74432 9.75566 10.4043 9.92432 11.1003C10.3759 12.9683 10.8598 15.1483 10.8885 17.3976C10.891 17.6456 10.7723 17.879 10.5707 18.023C8.71966 19.339 7.25459 20.1603 5.16499 21.0536C4.44312 21.363 3.71552 21.6483 2.97792 21.915L2.72232 21.959Z" fill="#263034"/>
<path d="M8.62931 7.82285C8.21171 7.82285 7.80598 7.99618 7.51638 8.31218C4.26065 11.8575 2.08931 16.2215 1.23611 20.9335C1.13984 21.4668 1.33505 22.0082 1.74705 22.3575C2.02411 22.5922 2.37158 22.7148 2.72318 22.7148C2.89504 22.7148 3.06838 22.6855 3.23558 22.6255C3.98505 22.3562 4.73505 22.0588 5.46532 21.7455C7.60652 20.8322 9.11011 19.9909 11.0096 18.6389C11.4132 18.3509 11.6508 17.8829 11.6445 17.3882C11.6153 15.0602 11.121 12.8322 10.6596 10.9242C10.5017 10.2749 10.3132 9.61886 10.0658 8.86286C9.89864 8.35353 9.47318 7.97085 8.94918 7.85752L8.62931 7.82285ZM8.62931 9.33353C8.83505 9.96153 9.02678 10.6028 9.19078 11.2788C9.67518 13.2815 10.1074 15.3322 10.1336 17.4069C8.21944 18.7695 6.80385 19.5322 4.86891 20.3575C4.15958 20.6629 3.44598 20.9442 2.72318 21.2042C3.53824 16.6988 5.62838 12.6029 8.62931 9.33353Z" fill="black"/>
<path d="M6.67546 26.7807C6.6452 26.3327 6.63014 25.89 6.63014 25.4473V25.3713C6.63174 24.9087 6.25987 24.534 5.79893 24.5327C5.33747 24.5313 4.9624 24.9033 4.96094 25.3647V25.4473C4.96094 25.9273 4.97707 26.4087 5.00987 26.8927C5.04054 27.3527 5.43853 27.7007 5.89893 27.67C6.3588 27.6393 6.70627 27.2407 6.676 26.7807H6.67546ZM6.6348 25.018C6.652 24.226 6.71667 23.4447 6.82707 22.678C6.8916 22.2207 6.5744 21.798 6.11813 21.7327C5.66146 21.6673 5.23854 21.9847 5.17387 22.442C5.0552 23.2753 4.9848 24.1233 4.96614 24.982C4.95574 25.442 5.3208 25.8247 5.78174 25.834C6.24267 25.8433 6.6244 25.478 6.63427 25.018H6.6348ZM7.07707 21.2913L7.1552 20.946C7.26147 20.4967 6.98386 20.046 6.53586 19.9407C6.08746 19.834 5.63693 20.1113 5.53066 20.5607C5.50146 20.6847 5.47294 20.81 5.44574 20.9353C5.34734 21.3847 5.6328 21.83 6.08333 21.9273C6.53387 22.026 6.97814 21.7407 7.07654 21.2913H7.07707ZM7.8348 18.698C7.9984 18.2553 8.1776 17.8207 8.37134 17.3927C8.56187 16.9727 8.376 16.478 7.95627 16.2873C7.5364 16.0967 7.0416 16.2833 6.85094 16.7033C6.64107 17.166 6.4468 17.638 6.26867 18.1193C6.10934 18.5513 6.33014 19.0313 6.7624 19.19C7.1952 19.35 7.67493 19.13 7.8348 18.6967V18.698ZM8.52027 17.0727C8.85827 16.3633 9.238 15.6767 9.65627 15.0167C9.90253 14.6273 9.78693 14.1113 9.39787 13.8647C9.00827 13.618 8.49266 13.734 8.24626 14.1233C7.79213 14.8407 7.3796 15.5847 7.01347 16.3553C6.81507 16.7713 6.9916 17.27 7.40827 17.4673C7.8244 17.666 8.3224 17.4887 8.5208 17.0727H8.52027ZM10.4531 13.854L10.6656 13.5713C10.9457 13.206 10.8765 12.682 10.5109 12.4007C10.1448 12.1207 9.6208 12.19 9.34054 12.5553L9.11094 12.8607C8.83694 13.2313 8.91506 13.754 9.28586 14.0287C9.65626 14.302 10.1791 14.2233 10.4531 13.854ZM12.2036 11.7967C12.5317 11.4607 12.8724 11.1353 13.2244 10.8247C13.5697 10.518 13.6015 9.98999 13.2957 9.64465C12.99 9.29932 12.4624 9.26732 12.1172 9.57398C11.7353 9.91265 11.3661 10.2647 11.0099 10.63C10.6875 10.958 10.6937 11.4873 11.0233 11.81C11.3531 12.1313 11.8817 12.1247 12.2036 11.7967ZM13.49 10.5927C14.0839 10.0847 14.7093 9.61132 15.3624 9.17665C15.7463 8.92065 15.85 8.40199 15.5948 8.01799C15.3391 7.63533 14.8208 7.53133 14.4375 7.78733C13.7281 8.25933 13.05 8.77267 12.4052 9.32333C12.0547 9.62333 12.0129 10.1487 12.3129 10.5007C12.6124 10.8513 13.1396 10.8927 13.49 10.5927ZM16.5624 8.43798L16.8697 8.26865C17.2749 8.04865 17.4249 7.54198 17.2057 7.13665C16.9859 6.73131 16.4791 6.58068 16.0744 6.80068L15.74 6.986C15.3391 7.21266 15.1973 7.722 15.4249 8.12333C15.6515 8.52467 16.1615 8.66598 16.5624 8.43932V8.43798ZM18.9973 7.27532C19.4328 7.10332 19.8755 6.94732 20.326 6.80598C20.7656 6.66865 21.0109 6.19934 20.8733 5.76067C20.7353 5.32067 20.2672 5.07532 19.8271 5.21266C19.338 5.36599 18.8567 5.53667 18.3843 5.72333C17.9557 5.89133 17.7452 6.37665 17.9145 6.80465C18.0839 7.23398 18.5681 7.44465 18.9968 7.27532H18.9973ZM20.6629 6.70465C21.4077 6.48598 22.1713 6.30999 22.952 6.17932C23.4067 6.10332 23.7145 5.674 23.6385 5.21933C23.5629 4.76466 23.1328 4.45668 22.6781 4.53268C21.8307 4.67401 21.0015 4.86465 20.1932 5.10198C19.7509 5.23131 19.4979 5.69531 19.6276 6.13798C19.7572 6.57931 20.2213 6.83265 20.6635 6.70331L20.6629 6.70465ZM24.3505 5.99934L24.7015 5.96865C25.1609 5.93265 25.5052 5.53265 25.4703 5.07265C25.4348 4.61265 25.0339 4.26998 24.5744 4.30465C24.4473 4.31398 24.3208 4.32465 24.1943 4.33665C23.7348 4.37798 23.3979 4.78599 23.4405 5.24465C23.4833 5.70465 23.8905 6.04201 24.35 5.99934" fill="white"/>
</svg>
