<svg width="55" height="65" viewBox="0 0 55 65" fill="none" xmlns="http://www.w3.org/2000/svg">
<path d="M38.6096 63.6992C30.9003 63.6992 24.627 57.4286 24.627 49.7192C24.627 49.5352 24.7776 49.2979 24.9616 49.2979H29.9843C30.1683 49.2979 30.3176 49.4472 30.3176 49.6299C30.3149 54.2926 34.0349 58.0139 38.6096 58.0139C43.1829 58.0139 46.903 54.2926 46.903 49.7192V1.4899C46.903 1.3059 47.0523 1.1579 47.2363 1.1579H52.2576C52.4416 1.1579 52.5909 1.3059 52.5909 1.4899V49.7192C52.5909 57.4286 46.3189 63.6992 38.6096 63.6992Z" fill="#6ECDB0"/>
<path d="M52.2576 0.823262H47.2363C46.8683 0.823262 46.5709 1.12193 46.5709 1.48859V49.6286V49.6966C46.5709 54.1086 42.9989 57.6792 38.6096 57.6792C34.2189 57.6792 30.6469 54.1086 30.6469 49.7179L30.6496 49.6286C30.6496 49.2619 30.3522 48.9632 29.9842 48.9632H24.9616C24.5936 48.9632 24.2963 49.2619 24.2963 49.6286L24.2949 49.7179C24.2949 57.6099 30.7162 64.0312 38.6096 64.0312C46.5016 64.0312 52.9229 57.6099 52.9229 49.7179V1.48859C52.9229 1.12193 52.6256 0.823262 52.2576 0.823262ZM52.2576 1.48859V49.7179C52.2576 57.2566 46.1469 63.3659 38.6096 63.3659C31.0722 63.3659 24.9603 57.2566 24.9603 49.7179L24.9616 49.6286H29.9842L29.9816 49.7179C29.9816 54.4806 33.8456 58.3459 38.6096 58.3459C43.3736 58.3459 47.2363 54.4806 47.2363 49.7179L47.2349 49.6286H47.2363V1.48859H52.2576Z" fill="#472618"/>
<path d="M30.5853 52.8945C30.5387 52.8305 30.492 52.7652 30.4453 52.6985H30.5106C30.5346 52.7639 30.56 52.8305 30.5853 52.8945Z" fill="#7B5555"/>
<path d="M30.5934 52.9043C30.5908 52.9016 30.5881 52.8976 30.5854 52.8936C30.5601 52.8296 30.5347 52.763 30.5107 52.6976H30.5147C30.5401 52.767 30.5668 52.8363 30.5934 52.9043Z" fill="#481514"/>
<path d="M38.6092 63.3672C38.5958 63.3672 38.5825 63.3672 38.5692 63.3672C38.5652 63.3672 38.5625 63.3672 38.5585 63.3672C38.5479 63.3672 38.5385 63.3672 38.5279 63.3672C38.5252 63.3672 38.5212 63.3672 38.5172 63.3672C38.5039 63.3672 38.4905 63.3672 38.4772 63.3672C38.4758 63.3672 38.4745 63.3672 38.4732 63.3672C38.4625 63.3672 38.4505 63.3659 38.4385 63.3659C38.4345 63.3659 38.4305 63.3659 38.4252 63.3659C38.4159 63.3659 38.4065 63.3659 38.3972 63.3659C38.3932 63.3659 38.3892 63.3659 38.3865 63.3659C38.3732 63.3659 38.3598 63.3645 38.3465 63.3645C38.3438 63.3645 38.3412 63.3645 38.3385 63.3645C38.3279 63.3645 38.3172 63.3645 38.3079 63.3645C38.3039 63.3645 38.2985 63.3645 38.2945 63.3632C38.2852 63.3632 38.2745 63.3632 38.2652 63.3632C38.2612 63.3632 38.2585 63.3632 38.2545 63.3632C38.2425 63.3632 38.2305 63.3618 38.2172 63.3618C38.2132 63.3618 38.2092 63.3618 38.2039 63.3618C38.1959 63.3618 38.1865 63.3605 38.1772 63.3605C38.1732 63.3605 38.1679 63.3605 38.1639 63.3605C38.1519 63.3605 38.1412 63.3592 38.1292 63.3592C38.1279 63.3592 38.1252 63.3592 38.1239 63.3592C38.1105 63.3578 38.0985 63.3579 38.0865 63.3579C38.0825 63.3579 38.0785 63.3579 38.0732 63.3565C38.0652 63.3565 38.0545 63.3565 38.0465 63.3565C38.0425 63.3552 38.0372 63.3552 38.0332 63.3552C38.0212 63.3552 38.0092 63.3539 37.9959 63.3539C37.9932 63.3539 37.9892 63.3539 37.9865 63.3539C37.9772 63.3525 37.9665 63.3525 37.9572 63.3525C37.9519 63.3512 37.9465 63.3512 37.9425 63.3512C37.9345 63.3512 37.9265 63.3512 37.9172 63.3499C37.9132 63.3499 37.9079 63.3499 37.9025 63.3499C37.8905 63.3485 37.8785 63.3485 37.8665 63.3472C37.8625 63.3472 37.8585 63.3472 37.8532 63.3472C37.8452 63.3459 37.8359 63.3458 37.8279 63.3458C37.8225 63.3445 37.8172 63.3445 37.8118 63.3445C37.8025 63.3445 37.7945 63.3432 37.7865 63.3432C37.7812 63.3432 37.7772 63.3418 37.7732 63.3418C37.7612 63.3418 37.7492 63.3405 37.7385 63.3405C37.7332 63.3392 37.7265 63.3392 37.7212 63.3392C37.7132 63.3379 37.7065 63.3379 37.6985 63.3379C37.6932 63.3365 37.6879 63.3365 37.6812 63.3365C37.6732 63.3352 37.6665 63.3352 37.6585 63.3352C37.6505 63.3339 37.6412 63.3339 37.6332 63.3325C37.6252 63.3325 37.6172 63.3325 37.6092 63.3312C37.6038 63.3312 37.5972 63.3299 37.5919 63.3299C37.5839 63.3299 37.5772 63.3285 37.5705 63.3285C37.5652 63.3285 37.5585 63.3272 37.5519 63.3272C37.5439 63.3258 37.5372 63.3258 37.5292 63.3258C37.5199 63.3245 37.5092 63.3232 37.4999 63.3232C37.4945 63.3219 37.4879 63.3219 37.4825 63.3219C37.4745 63.3205 37.4679 63.3205 37.4612 63.3192C37.4559 63.3192 37.4505 63.3192 37.4452 63.3179C37.4372 63.3179 37.4292 63.3165 37.4225 63.3165H37.4212C37.4025 63.3152 37.3852 63.3138 37.3679 63.3112C37.3639 63.3112 37.3585 63.3112 37.3545 63.3098C37.3465 63.3098 37.3399 63.3085 37.3319 63.3085C37.3279 63.3085 37.3225 63.3072 37.3185 63.3072C37.2919 63.3045 37.2652 63.3019 37.2385 63.2992C37.2345 63.2992 37.2319 63.2992 37.2292 63.2979C37.2199 63.2979 37.2119 63.2965 37.2025 63.2952C37.1999 63.2952 37.1985 63.2952 37.1959 63.2952C37.1772 63.2925 37.1585 63.2912 37.1399 63.2885C37.1385 63.2885 37.1385 63.2885 37.1372 63.2885C37.1292 63.2885 37.1198 63.2872 37.1105 63.2859C37.1078 63.2859 37.1039 63.2859 37.1012 63.2845C37.0932 63.2845 37.0838 63.2832 37.0758 63.2819C37.0745 63.2819 37.0745 63.2819 37.0732 63.2819C37.0532 63.2792 37.0332 63.2778 37.0132 63.2752H37.0118C37.0025 63.2738 36.9919 63.2725 36.9825 63.2712C36.9812 63.2712 36.9798 63.2712 36.9785 63.2712C33.5278 62.8605 30.4719 61.1619 28.3052 58.6712C28.3012 58.6672 28.2972 58.6619 28.2945 58.6579C28.2905 58.6539 28.2865 58.6498 28.2839 58.6458C28.2772 58.6392 28.2705 58.6312 28.2639 58.6232C28.2625 58.6219 28.2625 58.6205 28.2612 58.6192C28.2519 58.6099 28.2439 58.5992 28.2345 58.5899V58.5885C27.4039 57.6179 26.7065 56.5285 26.1719 55.3512C28.6172 59.0259 32.7985 61.4512 37.5452 61.4512C45.0825 61.4512 51.1932 55.3392 51.1932 47.8019V35.6739H51.9319C52.0425 35.6739 52.1519 35.6659 52.2572 35.6499V49.7192C52.2572 57.2579 46.1465 63.3672 38.6092 63.3672ZM52.2572 25.3032C52.1519 25.2885 52.0425 25.2805 51.9319 25.2805H51.1932V1.48986H52.2572V25.3032Z" fill="#248B6A"/>
<path d="M38.4729 63.3672C38.4609 63.3672 38.4503 63.3659 38.4383 63.3659C38.4503 63.3659 38.4623 63.3672 38.4729 63.3672ZM38.2543 63.3632C38.2423 63.3632 38.2289 63.3618 38.2169 63.3618C38.2303 63.3618 38.2423 63.3632 38.2543 63.3632ZM38.1236 63.3592C38.1116 63.3578 38.0983 63.3579 38.0863 63.3579C38.0983 63.3579 38.1103 63.3578 38.1236 63.3592ZM38.0729 63.3565C38.0636 63.3565 38.0556 63.3565 38.0463 63.3565C38.0543 63.3565 38.0649 63.3565 38.0729 63.3565ZM37.8116 63.3445C37.8036 63.3445 37.7943 63.3432 37.7863 63.3432C37.7943 63.3432 37.8023 63.3445 37.8116 63.3445ZM37.7729 63.3418C37.7609 63.3418 37.7503 63.3405 37.7383 63.3405C37.7489 63.3405 37.7609 63.3418 37.7729 63.3418ZM37.5916 63.3299C37.5849 63.3299 37.5769 63.3285 37.5703 63.3285C37.5769 63.3285 37.5836 63.3299 37.5916 63.3299ZM37.4609 63.3192C37.4543 63.3192 37.4503 63.3192 37.4449 63.3179C37.4503 63.3192 37.4556 63.3192 37.4609 63.3192ZM37.2023 63.2952C37.2009 63.2952 37.1983 63.2952 37.1956 63.2952C37.1983 63.2952 37.1996 63.2952 37.2023 63.2952ZM37.1103 63.2859C37.1076 63.2859 37.1049 63.2859 37.1009 63.2845C37.1036 63.2859 37.1076 63.2859 37.1103 63.2859ZM37.0756 63.2819C37.0743 63.2819 37.0729 63.2819 37.0729 63.2819C37.0743 63.2819 37.0743 63.2819 37.0756 63.2819ZM28.2343 58.5885C27.4023 57.6165 26.7036 56.5259 26.1689 55.3459C26.1703 55.3472 26.1703 55.3499 26.1716 55.3512C26.7063 56.5285 27.4036 57.6179 28.2343 58.5885Z" fill="#1E1D13"/>
<path d="M23.1901 52.3652C22.1261 52.3652 21.2607 51.5026 21.2607 50.4399V47.3359C21.2607 46.2719 22.1261 45.4066 23.1901 45.4066H32.4981C33.5607 45.4066 34.4261 46.2719 34.4261 47.3359V50.4399C34.4261 51.5026 33.5607 52.3652 32.4981 52.3652H23.1901Z" fill="#6ECDB0"/>
<path d="M32.4984 45.0739H23.1904C21.9424 45.0739 20.9277 46.0886 20.9277 47.3366V50.4406C20.9277 51.6846 21.9424 52.6992 23.1904 52.6992H32.4984C33.7451 52.6992 34.7584 51.6846 34.7584 50.4406V47.3366C34.7584 46.0886 33.7451 45.0739 32.4984 45.0739ZM32.4984 45.7392C33.3784 45.7392 34.0931 46.4566 34.0931 47.3366V50.4406C34.0931 51.3206 33.3784 52.0339 32.4984 52.0339H23.1904C22.3077 52.0339 21.5931 51.3206 21.5931 50.4406V47.3366C21.5931 46.4566 22.3077 45.7392 23.1904 45.7392H32.4984Z" fill="#472618"/>
<path d="M32.4981 52.0332H23.1901C22.4301 52.0332 21.7941 51.5039 21.6328 50.7932H30.8235C31.7048 50.7932 32.4181 50.0772 32.4181 49.1972V46.0932L32.3955 45.8279H32.4981C33.3781 45.8279 34.0928 46.5439 34.0928 47.4239V50.4399C34.0928 51.3199 33.3781 52.0332 32.4981 52.0332Z" fill="#2FB78C"/>
<path d="M32.4982 52.1211H23.1902C22.3995 52.1211 21.7435 51.5491 21.6182 50.7931H21.6328C21.7942 51.5037 22.4302 52.0331 23.1902 52.0331H32.4982C33.3782 52.0331 34.0928 51.3198 34.0928 50.4398V47.4238V50.5251C34.0928 51.4077 33.3782 52.1211 32.4982 52.1211Z" fill="#262519"/>
<path d="M23.1866 47.3789H23.6346C23.7813 47.3789 23.8999 47.2602 23.8999 47.1136C23.8999 46.9656 23.7813 46.8469 23.6346 46.8469H23.1866C23.0386 46.8469 22.9199 46.9656 22.9199 47.1136C22.9199 47.2602 23.0386 47.3789 23.1866 47.3789ZM23.7466 47.3789H24.4933C24.6399 47.3789 24.7599 47.2602 24.7599 47.1136C24.7599 46.9656 24.6399 46.8469 24.4933 46.8469H23.7466C23.5986 46.8469 23.4799 46.9656 23.4799 47.1136C23.4799 47.2602 23.5986 47.3789 23.7466 47.3789ZM24.9426 47.3789H25.0546C25.2013 47.3789 25.3199 47.2602 25.3199 47.1136C25.3199 46.9656 25.2013 46.8469 25.0546 46.8469H24.9426C24.7946 46.8469 24.6759 46.9656 24.6759 47.1136C24.6759 47.2602 24.7946 47.3789 24.9426 47.3789ZM25.8013 47.3789H26.2493C26.3973 47.3789 26.5159 47.2602 26.5159 47.1136C26.5159 46.9656 26.3973 46.8469 26.2493 46.8469H25.8013C25.6546 46.8469 25.5359 46.9656 25.5359 47.1136C25.5359 47.2602 25.6546 47.3789 25.8013 47.3789ZM26.3626 47.3789H27.1092C27.2559 47.3789 27.3746 47.2602 27.3746 47.1136C27.3746 46.9656 27.2559 46.8469 27.1092 46.8469H26.3626C26.2146 46.8469 26.0959 46.9656 26.0959 47.1136C26.0959 47.2602 26.2146 47.3789 26.3626 47.3789ZM27.5573 47.3789H27.6693C27.8173 47.3789 27.9359 47.2602 27.9359 47.1136C27.9359 46.9656 27.8173 46.8469 27.6693 46.8469H27.5573C27.4106 46.8469 27.2919 46.9656 27.2919 47.1136C27.2919 47.2602 27.4106 47.3789 27.5573 47.3789ZM28.4173 47.3789H28.8653C29.0119 47.3789 29.1319 47.2602 29.1319 47.1136C29.1319 46.9656 29.0119 46.8469 28.8653 46.8469H28.4173C28.2706 46.8469 28.1506 46.9656 28.1506 47.1136C28.1506 47.2602 28.2706 47.3789 28.4173 47.3789ZM28.9772 47.3789H29.5693C29.7159 47.3789 29.8346 47.2602 29.8346 47.1136C29.8346 46.9656 29.7159 46.8469 29.5693 46.8469H28.9772C28.8306 46.8469 28.7119 46.9656 28.7119 47.1136C28.7119 47.2602 28.8306 47.3789 28.9772 47.3789Z" fill="white"/>
<path d="M47.9199 2.51958V2.96758C47.9199 3.11424 48.0386 3.23291 48.1866 3.23291C48.3333 3.23291 48.4519 3.11424 48.4519 2.96758V2.51958C48.4519 2.37291 48.3333 2.25425 48.1866 2.25425C48.0386 2.25425 47.9199 2.37291 47.9199 2.51958ZM47.9199 3.07957V3.82757C47.9199 3.97424 48.0386 4.0929 48.1866 4.0929C48.3333 4.0929 48.4519 3.97424 48.4519 3.82757V3.07957C48.4519 2.93291 48.3333 2.81424 48.1866 2.81424C48.0386 2.81424 47.9199 2.93291 47.9199 3.07957ZM47.9199 4.27557V4.38758C47.9199 4.53425 48.0386 4.65291 48.1866 4.65291C48.3333 4.65291 48.4519 4.53425 48.4519 4.38758V4.27557C48.4519 4.1289 48.3333 4.01024 48.1866 4.01024C48.0386 4.01024 47.9199 4.1289 47.9199 4.27557ZM47.9199 5.13558V5.58358C47.9199 5.73024 48.0386 5.84891 48.1866 5.84891C48.3333 5.84891 48.4519 5.73024 48.4519 5.58358V5.13558C48.4519 4.98758 48.3333 4.86891 48.1866 4.86891C48.0386 4.86891 47.9199 4.98758 47.9199 5.13558ZM47.9199 5.69557V6.44357C47.9199 6.59024 48.0386 6.7089 48.1866 6.7089C48.3333 6.7089 48.4519 6.59024 48.4519 6.44357V5.69557C48.4519 5.54891 48.3333 5.42891 48.1866 5.42891C48.0386 5.42891 47.9199 5.54891 47.9199 5.69557ZM47.9199 6.89157V7.00358C47.9199 7.15025 48.0386 7.26891 48.1866 7.26891C48.3333 7.26891 48.4519 7.15025 48.4519 7.00358V6.89157C48.4519 6.7449 48.3333 6.6249 48.1866 6.6249C48.0386 6.6249 47.9199 6.7449 47.9199 6.89157ZM47.9199 7.75158V8.19958C47.9199 8.34491 48.0386 8.46491 48.1866 8.46491C48.3333 8.46491 48.4519 8.34491 48.4519 8.19958V7.75158C48.4519 7.60358 48.3333 7.48491 48.1866 7.48491C48.0386 7.48491 47.9199 7.60358 47.9199 7.75158ZM47.9199 8.31157V9.05957C47.9199 9.2049 48.0386 9.3249 48.1866 9.3249C48.3333 9.3249 48.4519 9.2049 48.4519 9.05957V8.31157C48.4519 8.16491 48.3333 8.04491 48.1866 8.04491C48.0386 8.04491 47.9199 8.16491 47.9199 8.31157ZM47.9199 9.50757V9.61958C47.9199 9.76491 48.0386 9.88491 48.1866 9.88491C48.3333 9.88491 48.4519 9.76491 48.4519 9.61958V9.50757C48.4519 9.35957 48.3333 9.2409 48.1866 9.2409C48.0386 9.2409 47.9199 9.35957 47.9199 9.50757ZM47.9199 10.3662V10.8156C47.9199 10.9609 48.0386 11.0809 48.1866 11.0809C48.3333 11.0809 48.4519 10.9609 48.4519 10.8156V10.3662C48.4519 10.2196 48.3333 10.0996 48.1866 10.0996C48.0386 10.0996 47.9199 10.2196 47.9199 10.3662ZM47.9199 10.9276V11.6742C47.9199 11.8209 48.0386 11.9396 48.1866 11.9396C48.3333 11.9396 48.4519 11.8209 48.4519 11.6742V10.9276C48.4519 10.7796 48.3333 10.6609 48.1866 10.6609C48.0386 10.6609 47.9199 10.7796 47.9199 10.9276ZM47.9199 12.1222V12.2342C47.9199 12.3809 48.0386 12.5009 48.1866 12.5009C48.3333 12.5009 48.4519 12.3809 48.4519 12.2342V12.1222C48.4519 11.9756 48.3333 11.8569 48.1866 11.8569C48.0386 11.8569 47.9199 11.9756 47.9199 12.1222ZM47.9199 12.9822V13.4302C47.9199 13.5769 48.0386 13.6969 48.1866 13.6969C48.3333 13.6969 48.4519 13.5769 48.4519 13.4302V12.9822C48.4519 12.8356 48.3333 12.7156 48.1866 12.7156C48.0386 12.7156 47.9199 12.8356 47.9199 12.9822ZM47.9199 13.5422V14.2903C47.9199 14.4369 48.0386 14.5556 48.1866 14.5556C48.3333 14.5556 48.4519 14.4369 48.4519 14.2903V13.5422C48.4519 13.3956 48.3333 13.2769 48.1866 13.2769C48.0386 13.2769 47.9199 13.3956 47.9199 13.5422ZM47.9199 14.7382V14.8502C47.9199 14.9969 48.0386 15.1169 48.1866 15.1169C48.3333 15.1169 48.4519 14.9969 48.4519 14.8502V14.7382C48.4519 14.5916 48.3333 14.4716 48.1866 14.4716C48.0386 14.4716 47.9199 14.5916 47.9199 14.7382ZM47.9199 15.5982V16.0462C47.9199 16.1929 48.0386 16.3116 48.1866 16.3116C48.3333 16.3116 48.4519 16.1929 48.4519 16.0462V15.5982C48.4519 15.4516 48.3333 15.3316 48.1866 15.3316C48.0386 15.3316 47.9199 15.4516 47.9199 15.5982ZM47.9199 16.1582V16.9049C47.9199 17.0516 48.0386 17.1716 48.1866 17.1716C48.3333 17.1716 48.4519 17.0516 48.4519 16.9049V16.1582C48.4519 16.0116 48.3333 15.8916 48.1866 15.8916C48.0386 15.8916 47.9199 16.0116 47.9199 16.1582ZM47.9199 17.3542V17.4662C47.9199 17.6129 48.0386 17.7316 48.1866 17.7316C48.3333 17.7316 48.4519 17.6129 48.4519 17.4662V17.3542C48.4519 17.2062 48.3333 17.0876 48.1866 17.0876C48.0386 17.0876 47.9199 17.2062 47.9199 17.3542ZM47.9199 18.2129V18.6622C47.9199 18.8089 48.0386 18.9276 48.1866 18.9276C48.3333 18.9276 48.4519 18.8089 48.4519 18.6622V18.2129C48.4519 18.0662 48.3333 17.9476 48.1866 17.9476C48.0386 17.9476 47.9199 18.0662 47.9199 18.2129ZM47.9199 18.7742V18.8636C47.9199 19.0102 48.0386 19.1289 48.1866 19.1289C48.3333 19.1289 48.4519 19.0102 48.4519 18.8636V18.7742C48.4519 18.6262 48.3333 18.5076 48.1866 18.5076C48.0386 18.5076 47.9199 18.6262 47.9199 18.7742Z" fill="white"/>
<path d="M53.5266 33.4105C53.5266 34.2918 52.8119 35.0078 51.9319 35.0078H46.1146C45.2332 35.0078 44.5186 34.2918 44.5186 33.4105V27.5411C44.5186 26.6611 45.2332 25.9452 46.1146 25.9452H51.9319C52.8119 25.9452 53.5266 26.6611 53.5266 27.5411V33.4105Z" fill="#EA388E"/>
<path d="M53.5265 33.4109H53.2105C53.2091 34.1162 52.6358 34.6896 51.9318 34.6909H46.1145C45.4078 34.6896 44.8358 34.1162 44.8345 33.4109V27.5415C44.8358 26.8362 45.4078 26.2629 46.1145 26.2615H51.9318C52.6358 26.2629 53.2091 26.8362 53.2105 27.5415V33.4109H53.5265H53.8438V27.5415C53.8438 26.4855 52.9878 25.6282 51.9318 25.6282H46.1145C45.0572 25.6282 44.2012 26.4855 44.2012 27.5415V33.4109C44.2012 34.4669 45.0572 35.3229 46.1145 35.3242H51.9318C52.9878 35.3229 53.8438 34.4669 53.8438 33.4109H53.5265Z" fill="#472618"/>
<path d="M46.1149 35.3398C45.0509 35.3398 44.1855 34.4745 44.1855 33.4105V27.5412C44.1855 26.4772 45.0509 25.6132 46.1149 25.6132H51.9322C52.9962 25.6132 53.8602 26.4772 53.8602 27.5412V33.4105C53.8602 34.4745 52.9962 35.3398 51.9322 35.3398H46.1149Z" fill="#EA388E"/>
<path d="M51.9322 25.2805H46.1148C44.8682 25.2805 43.8535 26.2938 43.8535 27.5418V33.4111C43.8535 34.6591 44.8682 35.6738 46.1148 35.6738H51.9322C53.1789 35.6738 54.1922 34.6591 54.1922 33.4111V27.5418C54.1922 26.2938 53.1789 25.2805 51.9322 25.2805ZM51.9322 25.9458C52.8122 25.9458 53.5269 26.6618 53.5269 27.5418V33.4111C53.5269 34.2925 52.8122 35.0085 51.9322 35.0085H46.1148C45.2335 35.0085 44.5188 34.2925 44.5188 33.4111V27.5418C44.5188 26.6618 45.2335 25.9458 46.1148 25.9458H51.9322Z" fill="#472618"/>
<path d="M51.9319 35.0078H47.1719C47.2745 34.7465 47.3692 34.4785 47.4545 34.2078H50.2972C51.1785 34.2078 51.8919 33.4945 51.8919 32.6118V26.7438C51.8919 26.4531 51.8132 26.1812 51.6772 25.9452H51.9319C52.8119 25.9452 53.5265 26.6611 53.5265 27.5411V33.4105C53.5265 34.2918 52.8119 35.0078 51.9319 35.0078Z" fill="#E72D85"/>
<path d="M37.5239 41.6523C33.5519 41.6523 29.9466 39.119 28.2826 35.1763H20.7186C19.0546 39.119 15.4479 41.6523 11.4772 41.6523C5.86388 41.6523 1.2959 36.639 1.2959 30.4763C1.2959 24.3137 5.86388 19.3003 11.4772 19.3003H37.5239C43.1372 19.3003 47.7052 24.3137 47.7052 30.4763C47.7052 36.639 43.1372 41.6523 37.5239 41.6523Z" fill="#EA388E"/>
<path d="M37.5239 18.9821H11.4772C5.68918 18.9821 0.978516 24.1381 0.978516 30.4754C0.978516 36.8127 5.68918 41.9688 11.4772 41.9688C15.5118 41.9688 19.1772 39.4407 20.9265 35.4927H28.0745C29.8239 39.4407 33.4892 41.9688 37.5239 41.9688C43.3119 41.9688 48.0212 36.8127 48.0212 30.4754C48.0212 24.1381 43.3119 18.9821 37.5239 18.9821ZM37.5239 19.6167C42.9719 19.6167 47.3879 24.4781 47.3879 30.4754C47.3879 36.4727 42.9719 41.3354 37.5239 41.3354C33.4905 41.3354 30.0252 38.6741 28.4945 34.8581H20.5065C18.9759 38.6741 15.5105 41.3354 11.4772 41.3354C6.02918 41.3354 1.61318 36.4727 1.61318 30.4754C1.61318 24.4781 6.02918 19.6167 11.4772 19.6167H37.5239Z" fill="#472618"/>
<path d="M37.5588 39.2891C34.0921 39.2891 30.9801 36.7957 29.9148 33.1957H18.8668C17.8041 36.7957 14.6921 39.2891 11.2255 39.2891C6.79479 39.2891 3.18945 35.337 3.18945 30.4757C3.18945 25.6157 6.79479 21.6624 11.2255 21.6624H37.8828L37.9761 21.6757C42.2534 21.9157 45.5935 25.765 45.5935 30.4757C45.5935 35.337 41.9895 39.2891 37.5588 39.2891Z" fill="#6ACDE9"/>
<path d="M37.8824 21.3598H11.225C6.6277 21.3598 2.8877 25.4505 2.8877 30.4758C2.8877 35.5025 6.6277 39.5918 11.225 39.5918C14.7544 39.5918 17.929 37.1091 19.089 33.4985H29.693C30.8544 37.1091 34.0277 39.5918 37.5584 39.5918C42.1544 39.5918 45.8944 35.5025 45.8944 30.4758C45.8944 25.6158 42.445 21.6425 38.0224 21.3771L37.8824 21.3598ZM37.8824 21.9625V21.9731C42.0024 22.1611 45.2917 25.8958 45.2917 30.4758C45.2917 35.1771 41.8277 38.9891 37.5584 38.9891C34.0504 38.9891 31.089 36.4158 30.1423 32.8958H18.6384C17.693 36.4158 14.7317 38.9891 11.225 38.9891C6.95437 38.9891 3.49036 35.1771 3.49036 30.4758C3.49036 25.7758 6.95437 21.9625 11.225 21.9625H37.8824Z" fill="#472618"/>
<path d="M37.5581 38.9883C37.5488 38.9883 37.5408 38.9883 37.5314 38.9883C37.5314 38.9883 37.5274 38.9883 37.5248 38.9883C37.5181 38.9883 37.5101 38.9883 37.5035 38.9883C37.5008 38.9883 37.4981 38.9883 37.4981 38.9883C37.4901 38.9883 37.4808 38.9883 37.4728 38.9869C37.4701 38.9869 37.4674 38.9869 37.4674 38.9869C37.4594 38.9869 37.4528 38.9869 37.4448 38.9869H37.4395C37.4208 38.9869 37.4034 38.9869 37.3848 38.9856H37.3821C37.3634 38.9856 37.3434 38.9843 37.3248 38.9843C36.1648 38.9469 35.0701 38.6269 34.0928 38.0869C39.6914 38.0349 46.3461 35.3376 43.0941 24.5349C44.3621 25.9669 45.1768 27.8869 45.2794 30.0163V30.0176C45.2808 30.0256 45.2808 30.0336 45.2808 30.0429V30.0443C45.2821 30.0523 45.2821 30.0616 45.2821 30.0696V30.0709C45.2834 30.0789 45.2834 30.0869 45.2834 30.0949V30.0976C45.2834 30.1056 45.2848 30.1136 45.2848 30.1203V30.1256C45.2848 30.1323 45.2848 30.1403 45.2861 30.1483V30.1523C45.2861 30.1603 45.2861 30.1683 45.2861 30.1763V30.1789C45.2861 30.1856 45.2874 30.1936 45.2874 30.2016V30.2056C45.2874 30.2123 45.2874 30.2189 45.2874 30.2256C45.2874 30.2283 45.2874 30.2323 45.2874 30.2323C45.2888 30.2389 45.2888 30.2456 45.2888 30.2523C45.2888 30.2549 45.2888 30.2589 45.2888 30.2589C45.2888 30.2683 45.2888 30.2776 45.2888 30.2856C45.2888 30.2949 45.2901 30.3029 45.2901 30.3123V30.3136C45.2901 30.3216 45.2901 30.3296 45.2901 30.3389V30.3403C45.2901 30.3469 45.2901 30.3536 45.2901 30.3603C45.2901 30.3629 45.2901 30.3669 45.2901 30.3669C45.2901 30.3736 45.2901 30.3803 45.2901 30.3869C45.2901 30.3896 45.2901 30.3936 45.2901 30.3936C45.2914 30.4003 45.2914 30.4056 45.2914 30.4123C45.2914 30.4149 45.2914 30.4176 45.2914 30.4216C45.2914 30.4389 45.2914 30.4576 45.2914 30.4749C45.2914 35.1763 41.8274 38.9883 37.5581 38.9883Z" fill="#2CB8DC"/>
<path d="M5.82217 36.5645C4.7635 35.4258 4.00085 33.9551 3.67285 32.3058L9.46751 22.1858C10.0035 22.0471 10.5635 21.9698 11.1382 21.9631C11.1395 21.9631 11.1395 21.9631 11.1409 21.9631C11.1489 21.9631 11.1568 21.9631 11.1648 21.9631C11.1662 21.9631 11.1675 21.9631 11.1702 21.9631C11.1768 21.9618 11.1848 21.9618 11.1915 21.9618C11.1942 21.9618 11.1955 21.9618 11.1968 21.9618C11.2062 21.9618 11.2155 21.9618 11.2248 21.9618H14.1848L5.82217 36.5645Z" fill="#BEE4EF"/>
<path d="M11.2251 38.9883C11.2171 38.9883 11.2091 38.9883 11.2024 38.9883C11.1997 38.9883 11.1971 38.9883 11.1944 38.9883C11.1891 38.9883 11.1837 38.9883 11.1784 38.9883C11.1757 38.9883 11.1717 38.9883 11.1691 38.9883C11.1651 38.9883 11.1611 38.9883 11.1571 38.9883C11.1531 38.9883 11.1491 38.9883 11.1451 38.9883C11.1411 38.9869 11.1384 38.9869 11.1344 38.9869C11.1304 38.9869 11.1264 38.9869 11.1211 38.9869C10.2757 38.9749 9.46374 38.8123 8.70508 38.5243L18.1864 21.9616H22.777L13.1891 38.7096C12.5997 38.8803 11.9837 38.9763 11.3517 38.9869C11.3411 38.9869 11.3317 38.9869 11.3211 38.9869C11.3197 38.9869 11.3184 38.9869 11.3184 38.9869C11.3091 38.9869 11.2997 38.9883 11.2904 38.9883C11.2891 38.9883 11.2891 38.9883 11.2877 38.9883C11.2784 38.9883 11.2691 38.9883 11.2597 38.9883C11.2571 38.9883 11.2557 38.9883 11.2531 38.9883C11.2437 38.9883 11.2344 38.9883 11.2251 38.9883Z" fill="#BEE4EF"/>
<path d="M11.1454 38.9883C11.1427 38.9869 11.1388 38.9869 11.1348 38.9869C11.1388 38.9869 11.1414 38.9869 11.1454 38.9883Z" fill="#9F8473"/>
</svg>
