<svg width="222" height="174" viewBox="0 0 222 174" fill="none" xmlns="http://www.w3.org/2000/svg">
<path d="M132.956 23.669H157.892L191.532 107.967L177.679 113.109L158.678 64.0369L116.731 104.405L121.483 118.647L108.027 123.399L83.4873 58.8951H72.4105V44.2495H110.796V58.8951H98.9259L111.192 89.3627L151.56 49.7878L147.601 38.3146H131.971L132.956 23.669Z" fill="black"/>
<path d="M190.534 78.2265L196.244 93.0373C198.174 94.4384 201.557 97.2869 203.957 101.973C205.82 105.608 206.356 108.932 206.521 111.047C206.455 112.798 205.979 119.943 199.899 125.983C193.481 132.354 185.425 132.929 183.687 133.015C182.12 132.982 173.357 132.632 166.807 125.792C161.566 120.313 160.952 114.028 160.846 112.124V105.621L156.424 90.3805C155.043 91.7816 153.391 93.7312 151.917 96.3021C149.71 100.142 148.831 103.751 148.441 106.176C148.262 107.802 148.077 109.421 147.899 111.047C147.734 113.016 146.868 126.419 157.872 136.934C168.274 146.881 181.466 146.762 183.68 146.703C185.603 146.795 201.617 147.324 212.482 135.203C220.856 125.864 220.717 115.105 220.605 112.461C220.73 110.34 221.266 97.538 210.863 87.5584C203.005 80.0241 193.561 78.5701 190.534 78.2198V78.2265Z" fill="black"/>
<path d="M80.6189 86.2696C78.4578 84.8619 73.2565 82.106 66.6276 83.2758C59.9921 84.4456 56.1655 88.8075 55.1609 90.0236C54.0176 91.4974 50.9378 95.8659 50.6734 102.297C50.4157 108.562 52.98 113.076 53.9845 114.669C59.1131 120.848 67.229 123.624 74.836 121.787C84.2737 119.506 88.2722 111.245 89.171 109.091C89.2701 108.859 89.3296 108.701 89.356 108.621L97.0027 126.122L90.7307 130.986L94.9076 142.658L77.4929 149.174L73.6001 137.774L65.0216 137.582L59.2321 147.879L44.104 140.305L48.1752 128.951L43.2515 123.379L31.6064 128.131L25.2155 111.067L36.2459 106.183L37.2174 97.2076L25.8103 93.7246L32.1351 76.5147L44.5138 80.3744L50.6272 74.9021L46.2189 63.1182L62.3053 57.0974C64.1096 60.9042 65.9072 64.7044 67.7115 68.5112C70.0709 68.7888 72.4369 69.0663 74.7964 69.3439" fill="black"/>
<path d="M149.558 1L195.424 116.889" stroke="#77D2FA" stroke-miterlimit="10" stroke-dasharray="3 3"/>
<path d="M79.2112 23.669H216.421" stroke="#77D2FA" stroke-miterlimit="10" stroke-dasharray="3 3"/>
<path d="M79.2112 38.1824H216.421" stroke="#77D2FA" stroke-miterlimit="10" stroke-dasharray="3 3"/>
<path d="M40.2973 43.8926H177.507" stroke="#77D2FA" stroke-miterlimit="10" stroke-dasharray="3 3"/>
<path d="M40.2973 58.2077H177.507" stroke="#77D2FA" stroke-miterlimit="10" stroke-dasharray="3 3"/>
<path d="M134.892 6.76968L180.759 122.659" stroke="#77D2FA" stroke-miterlimit="10" stroke-dasharray="3 3"/>
<path d="M66.3038 15.5927L116.645 143.239" stroke="#77D2FA" stroke-miterlimit="10" stroke-dasharray="3 3"/>
<path d="M34.8713 32.7233L81.6962 161.698" stroke="#77D2FA" stroke-miterlimit="10" stroke-dasharray="3 3"/>
<path d="M51.9754 26.5174L98.8003 155.493" stroke="#77D2FA" stroke-miterlimit="10" stroke-dasharray="3 3"/>
<path d="M85.622 39.9272L32.2475 166.331" stroke="#77D2FA" stroke-miterlimit="10" stroke-dasharray="3 3"/>
<path d="M102.382 47.0054L49.008 173.41" stroke="#77D2FA" stroke-miterlimit="10" stroke-dasharray="3 3"/>
<path d="M111.562 75.8472L1.92529 120.841" stroke="#77D2FA" stroke-miterlimit="10" stroke-dasharray="3 3"/>
<path d="M118.409 92.7002L8.77222 137.694" stroke="#77D2FA" stroke-miterlimit="10" stroke-dasharray="3 3"/>
<path d="M138.223 105.138L5.72546 69.4827" stroke="#77D2FA" stroke-miterlimit="10" stroke-dasharray="3 3"/>
<path d="M133.498 122.712L1 87.0495" stroke="#77D2FA" stroke-miterlimit="10" stroke-dasharray="3 3"/>
<path d="M83.7318 19.0889L134.073 146.729" stroke="#77D2FA" stroke-miterlimit="10" stroke-dasharray="3 3"/>
<path d="M70.1898 121.919C81.3298 121.919 90.3606 113.169 90.3606 102.376C90.3606 91.5826 81.3298 82.8329 70.1898 82.8329C59.0499 82.8329 50.0191 91.5826 50.0191 102.376C50.0191 113.169 59.0499 121.919 70.1898 121.919Z" stroke="#77D2FA" stroke-miterlimit="10" stroke-dasharray="3 3"/>
<path d="M71.1746 136.895C90.1221 136.895 105.482 122.017 105.482 103.665C105.482 85.3121 90.1221 70.4344 71.1746 70.4344C52.2272 70.4344 36.8672 85.3121 36.8672 103.665C36.8672 122.017 52.2272 136.895 71.1746 136.895Z" stroke="#77D2FA" stroke-miterlimit="10" stroke-dasharray="3 3"/>
<path d="M183.244 133.742C196.099 133.742 206.521 123.649 206.521 111.199C206.521 98.7485 196.099 88.6555 183.244 88.6555C170.388 88.6555 159.967 98.7485 159.967 111.199C159.967 123.649 170.388 133.742 183.244 133.742Z" stroke="#77D2FA" stroke-miterlimit="10" stroke-dasharray="3 3"/>
<path d="M184.235 147.707C204.321 147.707 220.605 131.936 220.605 112.481C220.605 93.0262 204.321 77.2549 184.235 77.2549C164.149 77.2549 147.866 93.0262 147.866 112.481C147.866 131.936 164.149 147.707 184.235 147.707Z" stroke="#77D2FA" stroke-miterlimit="10" stroke-dasharray="3 3"/>
</svg>
