<svg width="347" height="400" viewBox="0 0 347 400" fill="none" xmlns="http://www.w3.org/2000/svg">
<rect x="0.5" y="0.5" width="346" height="399" rx="4.5" stroke="#9747FF" stroke-dasharray="10 5"/>
<path d="M20.5 53C20.5 48.5817 24.0817 45 28.5 45H318.5V78C318.5 82.4183 314.918 86 310.5 86H28.5C24.0817 86 20.5 82.4183 20.5 78V53Z" fill="white" fill-opacity="0.8"/>
<path d="M32.9409 69L29.3089 57.896H30.8129L33.6929 66.952H33.2609L36.0929 57.896H37.1809L40.0129 66.952H39.5969L42.4769 57.896H43.9649L40.3489 69H39.2769L36.4289 59.96H36.8449L34.0129 69H32.9409ZM50.932 69V64.568C50.932 63.992 50.7507 63.5173 50.388 63.144C50.0253 62.7707 49.556 62.584 48.98 62.584C48.596 62.584 48.2547 62.6693 47.956 62.84C47.6573 63.0107 47.4227 63.2453 47.252 63.544C47.0813 63.8427 46.996 64.184 46.996 64.568L46.404 64.232C46.404 63.656 46.532 63.144 46.788 62.696C47.044 62.248 47.4013 61.896 47.86 61.64C48.3187 61.3733 48.836 61.24 49.412 61.24C49.988 61.24 50.4947 61.368 50.932 61.624C51.38 61.88 51.732 62.2373 51.988 62.696C52.244 63.1547 52.372 63.6827 52.372 64.28V69H50.932ZM45.556 69V57.576H46.996V69H45.556ZM57.8416 69.16C57.0843 69.16 56.4016 68.9893 55.7936 68.648C55.1856 68.296 54.7056 67.8213 54.3536 67.224C54.0016 66.6267 53.8256 65.9493 53.8256 65.192C53.8256 64.4453 53.9963 63.7733 54.3376 63.176C54.6896 62.5787 55.159 62.1093 55.7456 61.768C56.343 61.416 57.0096 61.24 57.7456 61.24C58.4496 61.24 59.0683 61.4 59.6016 61.72C60.1456 62.04 60.567 62.4827 60.8656 63.048C61.175 63.6133 61.3296 64.2533 61.3296 64.968C61.3296 65.0747 61.3243 65.192 61.3136 65.32C61.303 65.4373 61.2816 65.576 61.2496 65.736H54.8336V64.536H60.4816L59.9536 65C59.9536 64.488 59.863 64.056 59.6816 63.704C59.5003 63.3413 59.2443 63.064 58.9136 62.872C58.583 62.6693 58.183 62.568 57.7136 62.568C57.223 62.568 56.791 62.6747 56.4176 62.888C56.0443 63.1013 55.7563 63.4 55.5536 63.784C55.351 64.168 55.2496 64.6213 55.2496 65.144C55.2496 65.6773 55.3563 66.1467 55.5696 66.552C55.783 66.9467 56.087 67.256 56.4816 67.48C56.8763 67.6933 57.3296 67.8 57.8416 67.8C58.2683 67.8 58.6576 67.7253 59.0096 67.576C59.3723 67.4267 59.6816 67.2027 59.9376 66.904L60.8656 67.848C60.503 68.2747 60.055 68.6 59.5216 68.824C58.999 69.048 58.439 69.16 57.8416 69.16ZM68.2758 69V64.568C68.2758 63.992 68.0944 63.5173 67.7318 63.144C67.3691 62.7707 66.8998 62.584 66.3238 62.584C65.9398 62.584 65.5984 62.6693 65.2998 62.84C65.0011 63.0107 64.7664 63.2453 64.5958 63.544C64.4251 63.8427 64.3398 64.184 64.3398 64.568L63.7478 64.232C63.7478 63.656 63.8758 63.144 64.1318 62.696C64.3878 62.248 64.7451 61.896 65.2038 61.64C65.6624 61.3733 66.1798 61.24 66.7558 61.24C67.3318 61.24 67.8384 61.384 68.2758 61.672C68.7238 61.96 69.0758 62.3387 69.3318 62.808C69.5878 63.2667 69.7158 63.7573 69.7158 64.28V69H68.2758ZM62.8997 69V61.4H64.3398V69H62.8997ZM78.4655 69.16C77.7188 69.16 77.0415 68.984 76.4335 68.632C75.8362 68.28 75.3615 67.8053 75.0095 67.208C74.6682 66.6 74.4975 65.928 74.4975 65.192C74.4975 64.4453 74.6682 63.7733 75.0095 63.176C75.3615 62.5787 75.8362 62.1093 76.4335 61.768C77.0415 61.416 77.7188 61.24 78.4655 61.24C79.0522 61.24 79.5962 61.352 80.0975 61.576C80.5988 61.7893 81.0308 62.104 81.3935 62.52L80.4335 63.48C80.1988 63.2027 79.9108 62.9947 79.5695 62.856C79.2388 62.7067 78.8708 62.632 78.4655 62.632C77.9855 62.632 77.5588 62.744 77.1855 62.968C76.8122 63.1813 76.5188 63.48 76.3055 63.864C76.0922 64.248 75.9855 64.6907 75.9855 65.192C75.9855 65.6933 76.0922 66.136 76.3055 66.52C76.5188 66.904 76.8122 67.208 77.1855 67.432C77.5588 67.656 77.9855 67.768 78.4655 67.768C78.8708 67.768 79.2388 67.6987 79.5695 67.56C79.9108 67.4107 80.2042 67.1973 80.4495 66.92L81.3935 67.88C81.0415 68.2853 80.6095 68.6 80.0975 68.824C79.5962 69.048 79.0522 69.16 78.4655 69.16ZM85.8974 69.16C85.204 69.16 84.5747 68.9893 84.0094 68.648C83.444 68.296 82.996 67.8213 82.6654 67.224C82.3454 66.6267 82.1854 65.9547 82.1854 65.208C82.1854 64.4613 82.3454 63.7893 82.6654 63.192C82.996 62.5947 83.4387 62.12 83.9934 61.768C84.5587 61.416 85.1934 61.24 85.8974 61.24C86.4734 61.24 86.9854 61.3627 87.4334 61.608C87.892 61.8427 88.26 62.1733 88.5374 62.6C88.8147 63.016 88.9694 63.5013 89.0014 64.056V66.344C88.9694 66.888 88.8147 67.3733 88.5374 67.8C88.2707 68.2267 87.908 68.5627 87.4494 68.808C87.0014 69.0427 86.484 69.16 85.8974 69.16ZM86.1374 67.8C86.852 67.8 87.428 67.56 87.8654 67.08C88.3027 66.5893 88.5214 65.9653 88.5214 65.208C88.5214 64.6853 88.42 64.232 88.2174 63.848C88.0254 63.4533 87.748 63.1493 87.3854 62.936C87.0227 62.712 86.6014 62.6 86.1214 62.6C85.6414 62.6 85.2147 62.712 84.8414 62.936C84.4787 63.16 84.1907 63.4693 83.9774 63.864C83.7747 64.248 83.6734 64.6907 83.6734 65.192C83.6734 65.704 83.7747 66.1573 83.9774 66.552C84.1907 66.936 84.484 67.24 84.8574 67.464C85.2307 67.688 85.6574 67.8 86.1374 67.8ZM88.4254 69V66.952L88.6974 65.096L88.4254 63.256V61.4H89.8814V69H88.4254ZM97.3539 69V64.568C97.3539 63.992 97.1725 63.5173 96.8099 63.144C96.4472 62.7707 95.9779 62.584 95.4019 62.584C95.0179 62.584 94.6765 62.6693 94.3779 62.84C94.0792 63.0107 93.8445 63.2453 93.6739 63.544C93.5032 63.8427 93.4179 64.184 93.4179 64.568L92.8259 64.232C92.8259 63.656 92.9539 63.144 93.2099 62.696C93.4659 62.248 93.8232 61.896 94.2819 61.64C94.7405 61.3733 95.2579 61.24 95.8339 61.24C96.4099 61.24 96.9165 61.384 97.3539 61.672C97.8019 61.96 98.1539 62.3387 98.4099 62.808C98.6659 63.2667 98.7939 63.7573 98.7939 64.28V69H97.3539ZM91.9779 69V61.4H93.4179V69H91.9779ZM104.328 69V57.896H105.832V69H104.328ZM115.045 69.16C114.287 69.16 113.605 68.9893 112.997 68.648C112.389 68.296 111.909 67.8213 111.557 67.224C111.205 66.6267 111.029 65.9493 111.029 65.192C111.029 64.4453 111.199 63.7733 111.541 63.176C111.893 62.5787 112.362 62.1093 112.949 61.768C113.546 61.416 114.213 61.24 114.949 61.24C115.653 61.24 116.271 61.4 116.805 61.72C117.349 62.04 117.77 62.4827 118.069 63.048C118.378 63.6133 118.533 64.2533 118.533 64.968C118.533 65.0747 118.527 65.192 118.517 65.32C118.506 65.4373 118.485 65.576 118.453 65.736H112.037V64.536H117.685L117.157 65C117.157 64.488 117.066 64.056 116.885 63.704C116.703 63.3413 116.447 63.064 116.117 62.872C115.786 62.6693 115.386 62.568 114.917 62.568C114.426 62.568 113.994 62.6747 113.621 62.888C113.247 63.1013 112.959 63.4 112.757 63.784C112.554 64.168 112.453 64.6213 112.453 65.144C112.453 65.6773 112.559 66.1467 112.773 66.552C112.986 66.9467 113.29 67.256 113.685 67.48C114.079 67.6933 114.533 67.8 115.045 67.8C115.471 67.8 115.861 67.7253 116.213 67.576C116.575 67.4267 116.885 67.2027 117.141 66.904L118.069 67.848C117.706 68.2747 117.258 68.6 116.725 68.824C116.202 69.048 115.642 69.16 115.045 69.16ZM124.861 69L122.493 65.672L122.221 65.416L119.229 61.4H120.973L123.133 64.36L123.405 64.584L126.605 69H124.861ZM119.085 69L122.221 64.776L123.036 65.832L120.781 69H119.085ZM123.516 65.4L122.685 64.376L124.781 61.4H126.461L123.516 65.4ZM131.931 69.16C131.355 69.16 130.832 69.0427 130.363 68.808C129.904 68.5627 129.536 68.2267 129.259 67.8C128.982 67.3733 128.827 66.888 128.795 66.344V64.056C128.827 63.5013 128.982 63.016 129.259 62.6C129.547 62.1733 129.92 61.8427 130.379 61.608C130.848 61.3627 131.366 61.24 131.931 61.24C132.624 61.24 133.248 61.416 133.803 61.768C134.368 62.12 134.811 62.5947 135.131 63.192C135.451 63.7893 135.611 64.4613 135.611 65.208C135.611 65.9547 135.451 66.6267 135.131 67.224C134.811 67.8213 134.368 68.296 133.803 68.648C133.248 68.9893 132.624 69.16 131.931 69.16ZM127.931 72.184V61.4H129.371V63.4L129.099 65.24L129.371 67.096V72.184H127.931ZM131.691 67.8C132.171 67.8 132.592 67.688 132.955 67.464C133.318 67.24 133.606 66.936 133.819 66.552C134.032 66.1573 134.139 65.704 134.139 65.192C134.139 64.6907 134.032 64.2427 133.819 63.848C133.606 63.4533 133.318 63.1493 132.955 62.936C132.592 62.712 132.176 62.6 131.707 62.6C131.227 62.6 130.806 62.712 130.443 62.936C130.08 63.1493 129.798 63.4533 129.595 63.848C129.392 64.2427 129.291 64.696 129.291 65.208C129.291 65.7093 129.387 66.1573 129.579 66.552C129.782 66.936 130.064 67.24 130.427 67.464C130.8 67.688 131.222 67.8 131.691 67.8ZM140.764 69.16C140.006 69.16 139.324 68.9893 138.716 68.648C138.108 68.296 137.628 67.8213 137.276 67.224C136.924 66.6267 136.748 65.9493 136.748 65.192C136.748 64.4453 136.918 63.7733 137.26 63.176C137.612 62.5787 138.081 62.1093 138.668 61.768C139.265 61.416 139.932 61.24 140.668 61.24C141.372 61.24 141.99 61.4 142.524 61.72C143.068 62.04 143.489 62.4827 143.788 63.048C144.097 63.6133 144.252 64.2533 144.252 64.968C144.252 65.0747 144.246 65.192 144.236 65.32C144.225 65.4373 144.204 65.576 144.172 65.736H137.756V64.536H143.404L142.876 65C142.876 64.488 142.785 64.056 142.604 63.704C142.422 63.3413 142.166 63.064 141.836 62.872C141.505 62.6693 141.105 62.568 140.636 62.568C140.145 62.568 139.713 62.6747 139.34 62.888C138.966 63.1013 138.678 63.4 138.476 63.784C138.273 64.168 138.172 64.6213 138.172 65.144C138.172 65.6773 138.278 66.1467 138.492 66.552C138.705 66.9467 139.009 67.256 139.404 67.48C139.798 67.6933 140.252 67.8 140.764 67.8C141.19 67.8 141.58 67.7253 141.932 67.576C142.294 67.4267 142.604 67.2027 142.86 66.904L143.788 67.848C143.425 68.2747 142.977 68.6 142.444 68.824C141.921 69.048 141.361 69.16 140.764 69.16ZM149.294 69.16C148.547 69.16 147.87 68.984 147.262 68.632C146.664 68.28 146.19 67.8053 145.838 67.208C145.496 66.6 145.326 65.928 145.326 65.192C145.326 64.4453 145.496 63.7733 145.838 63.176C146.19 62.5787 146.664 62.1093 147.262 61.768C147.87 61.416 148.547 61.24 149.294 61.24C149.88 61.24 150.424 61.352 150.926 61.576C151.427 61.7893 151.859 62.104 152.222 62.52L151.262 63.48C151.027 63.2027 150.739 62.9947 150.398 62.856C150.067 62.7067 149.699 62.632 149.294 62.632C148.814 62.632 148.387 62.744 148.014 62.968C147.64 63.1813 147.347 63.48 147.134 63.864C146.92 64.248 146.814 64.6907 146.814 65.192C146.814 65.6933 146.92 66.136 147.134 66.52C147.347 66.904 147.64 67.208 148.014 67.432C148.387 67.656 148.814 67.768 149.294 67.768C149.699 67.768 150.067 67.6987 150.398 67.56C150.739 67.4107 151.032 67.1973 151.278 66.92L152.222 67.88C151.87 68.2853 151.438 68.6 150.926 68.824C150.424 69.048 149.88 69.16 149.294 69.16ZM154.724 69V58.216H156.164V69H154.724ZM152.852 62.712V61.4H158.036V62.712H152.852ZM165.271 69.064L161.975 61.4H163.575L166.023 67.4H165.511L168.087 61.4H169.687L166.135 69.064H165.271ZM163.095 72.184L165.335 67.592L166.135 69.064L164.695 72.184H163.095ZM174.044 69.16C173.297 69.16 172.625 68.984 172.028 68.632C171.43 68.28 170.956 67.8053 170.604 67.208C170.252 66.6 170.076 65.9227 170.076 65.176C170.076 64.44 170.252 63.7787 170.604 63.192C170.956 62.5947 171.43 62.12 172.028 61.768C172.625 61.416 173.297 61.24 174.044 61.24C174.78 61.24 175.446 61.416 176.044 61.768C176.652 62.1093 177.132 62.5787 177.484 63.176C177.836 63.7733 178.012 64.44 178.012 65.176C178.012 65.9227 177.836 66.6 177.484 67.208C177.132 67.8053 176.652 68.28 176.044 68.632C175.446 68.984 174.78 69.16 174.044 69.16ZM174.044 67.768C174.524 67.768 174.95 67.656 175.324 67.432C175.697 67.208 175.99 66.904 176.204 66.52C176.417 66.1253 176.524 65.6773 176.524 65.176C176.524 64.6853 176.412 64.248 176.188 63.864C175.974 63.48 175.681 63.1813 175.308 62.968C174.945 62.744 174.524 62.632 174.044 62.632C173.564 62.632 173.137 62.744 172.764 62.968C172.39 63.1813 172.097 63.48 171.884 63.864C171.67 64.248 171.564 64.6853 171.564 65.176C171.564 65.6773 171.67 66.1253 171.884 66.52C172.097 66.904 172.39 67.208 172.764 67.432C173.137 67.656 173.564 67.768 174.044 67.768ZM182.69 69.16C182.071 69.16 181.511 69.0213 181.01 68.744C180.519 68.456 180.135 68.0613 179.858 67.56C179.581 67.0587 179.442 66.4773 179.442 65.816V61.4H180.882V65.752C180.882 66.168 180.951 66.5307 181.09 66.84C181.239 67.1387 181.453 67.368 181.73 67.528C182.007 67.688 182.333 67.768 182.706 67.768C183.271 67.768 183.714 67.592 184.034 67.24C184.354 66.8773 184.514 66.3813 184.514 65.752V61.4H185.954V65.816C185.954 66.4773 185.815 67.0587 185.538 67.56C185.261 68.0613 184.877 68.456 184.386 68.744C183.906 69.0213 183.341 69.16 182.69 69.16ZM192.38 69V58.216H193.82V69H192.38ZM190.508 62.712V61.4H195.692V62.712H190.508ZM200.341 69.16C199.594 69.16 198.922 68.984 198.325 68.632C197.727 68.28 197.253 67.8053 196.901 67.208C196.549 66.6 196.373 65.9227 196.373 65.176C196.373 64.44 196.549 63.7787 196.901 63.192C197.253 62.5947 197.727 62.12 198.325 61.768C198.922 61.416 199.594 61.24 200.341 61.24C201.077 61.24 201.743 61.416 202.341 61.768C202.949 62.1093 203.429 62.5787 203.781 63.176C204.133 63.7733 204.309 64.44 204.309 65.176C204.309 65.9227 204.133 66.6 203.781 67.208C203.429 67.8053 202.949 68.28 202.341 68.632C201.743 68.984 201.077 69.16 200.341 69.16ZM200.341 67.768C200.821 67.768 201.247 67.656 201.621 67.432C201.994 67.208 202.287 66.904 202.501 66.52C202.714 66.1253 202.821 65.6773 202.821 65.176C202.821 64.6853 202.709 64.248 202.485 63.864C202.271 63.48 201.978 63.1813 201.605 62.968C201.242 62.744 200.821 62.632 200.341 62.632C199.861 62.632 199.434 62.744 199.061 62.968C198.687 63.1813 198.394 63.48 198.181 63.864C197.967 64.248 197.861 64.6853 197.861 65.176C197.861 65.6773 197.967 66.1253 198.181 66.52C198.394 66.904 198.687 67.208 199.061 67.432C199.434 67.656 199.861 67.768 200.341 67.768ZM212.491 69.16C211.798 69.16 211.168 68.9893 210.603 68.648C210.038 68.296 209.59 67.8213 209.259 67.224C208.939 66.6267 208.779 65.9547 208.779 65.208C208.779 64.4613 208.939 63.7893 209.259 63.192C209.59 62.5947 210.032 62.12 210.587 61.768C211.152 61.416 211.787 61.24 212.491 61.24C213.067 61.24 213.579 61.3627 214.027 61.608C214.486 61.8427 214.854 62.1733 215.131 62.6C215.408 63.016 215.563 63.5013 215.595 64.056V66.344C215.563 66.888 215.408 67.3733 215.131 67.8C214.864 68.2267 214.502 68.5627 214.043 68.808C213.595 69.0427 213.078 69.16 212.491 69.16ZM212.731 67.8C213.446 67.8 214.022 67.56 214.459 67.08C214.896 66.5893 215.115 65.9653 215.115 65.208C215.115 64.6853 215.014 64.232 214.811 63.848C214.619 63.4533 214.342 63.1493 213.979 62.936C213.616 62.712 213.195 62.6 212.715 62.6C212.235 62.6 211.808 62.712 211.435 62.936C211.072 63.16 210.784 63.4693 210.571 63.864C210.368 64.248 210.267 64.6907 210.267 65.192C210.267 65.704 210.368 66.1573 210.571 66.552C210.784 66.936 211.078 67.24 211.451 67.464C211.824 67.688 212.251 67.8 212.731 67.8ZM215.019 69V66.952L215.291 65.096L215.019 63.256V61.4H216.475V69H215.019ZM218.572 69V61.4H220.012V69H218.572ZM220.012 64.664L219.468 64.424C219.468 63.4533 219.692 62.68 220.14 62.104C220.588 61.528 221.233 61.24 222.076 61.24C222.46 61.24 222.806 61.3093 223.116 61.448C223.425 61.576 223.713 61.7947 223.98 62.104L223.036 63.08C222.876 62.9093 222.7 62.7867 222.508 62.712C222.316 62.6373 222.092 62.6 221.836 62.6C221.302 62.6 220.865 62.7707 220.524 63.112C220.182 63.4533 220.012 63.9707 220.012 64.664ZM225.025 69V61.4H226.465V69H225.025ZM226.465 64.664L225.921 64.424C225.921 63.4533 226.145 62.68 226.593 62.104C227.041 61.528 227.686 61.24 228.529 61.24C228.913 61.24 229.259 61.3093 229.569 61.448C229.878 61.576 230.166 61.7947 230.433 62.104L229.489 63.08C229.329 62.9093 229.153 62.7867 228.961 62.712C228.769 62.6373 228.545 62.6 228.289 62.6C227.755 62.6 227.318 62.7707 226.977 63.112C226.635 63.4533 226.465 63.9707 226.465 64.664ZM231.463 69V61.4H232.903V69H231.463ZM232.183 59.88C231.916 59.88 231.697 59.7947 231.527 59.624C231.356 59.4427 231.271 59.2187 231.271 58.952C231.271 58.696 231.356 58.4827 231.527 58.312C231.697 58.1307 231.916 58.04 232.183 58.04C232.449 58.04 232.668 58.1307 232.839 58.312C233.009 58.4827 233.095 58.696 233.095 58.952C233.095 59.2187 233.009 59.4427 232.839 59.624C232.668 59.7947 232.449 59.88 232.183 59.88ZM237.633 69L234.145 61.4H235.745L238.545 67.816H237.617L240.433 61.4H241.969L238.481 69H237.633ZM246.42 69.16C245.662 69.16 244.98 68.9893 244.372 68.648C243.764 68.296 243.284 67.8213 242.932 67.224C242.58 66.6267 242.404 65.9493 242.404 65.192C242.404 64.4453 242.574 63.7733 242.916 63.176C243.268 62.5787 243.737 62.1093 244.324 61.768C244.921 61.416 245.588 61.24 246.324 61.24C247.028 61.24 247.646 61.4 248.18 61.72C248.724 62.04 249.145 62.4827 249.444 63.048C249.753 63.6133 249.908 64.2533 249.908 64.968C249.908 65.0747 249.902 65.192 249.892 65.32C249.881 65.4373 249.86 65.576 249.828 65.736H243.412V64.536H249.06L248.532 65C248.532 64.488 248.441 64.056 248.26 63.704C248.078 63.3413 247.822 63.064 247.492 62.872C247.161 62.6693 246.761 62.568 246.292 62.568C245.801 62.568 245.369 62.6747 244.996 62.888C244.622 63.1013 244.334 63.4 244.132 63.784C243.929 64.168 243.828 64.6213 243.828 65.144C243.828 65.6773 243.934 66.1467 244.148 66.552C244.361 66.9467 244.665 67.256 245.06 67.48C245.454 67.6933 245.908 67.8 246.42 67.8C246.846 67.8 247.236 67.7253 247.588 67.576C247.95 67.4267 248.26 67.2027 248.516 66.904L249.444 67.848C249.081 68.2747 248.633 68.6 248.1 68.824C247.577 69.048 247.017 69.16 246.42 69.16ZM253.926 65.48L253.91 62.44L254.342 62.424C254.715 62.424 255.041 62.344 255.318 62.184C255.606 62.024 255.83 61.8053 255.99 61.528C256.15 61.2507 256.23 60.9413 256.23 60.6C256.23 60.248 256.15 59.9387 255.99 59.672C255.841 59.4053 255.622 59.1973 255.334 59.048C255.057 58.8987 254.726 58.824 254.342 58.824C253.83 58.824 253.387 58.952 253.014 59.208C252.641 59.464 252.342 59.8267 252.118 60.296L251.062 59.416C251.371 58.7867 251.814 58.296 252.39 57.944C252.977 57.592 253.649 57.416 254.406 57.416C255.057 57.416 255.633 57.5493 256.134 57.816C256.635 58.072 257.025 58.4347 257.302 58.904C257.579 59.3627 257.718 59.896 257.718 60.504C257.718 61.0587 257.59 61.5653 257.334 62.024C257.089 62.472 256.737 62.8453 256.278 63.144C255.83 63.432 255.297 63.6187 254.678 63.704L255.302 63.064L255.174 65.48H253.926ZM254.534 69.16C254.235 69.16 253.985 69.0587 253.782 68.856C253.59 68.6533 253.494 68.4027 253.494 68.104C253.494 67.8053 253.59 67.56 253.782 67.368C253.985 67.1653 254.235 67.064 254.534 67.064C254.833 67.064 255.078 67.1653 255.27 67.368C255.473 67.56 255.574 67.8053 255.574 68.104C255.574 68.4027 255.473 68.6533 255.27 68.856C255.078 69.0587 254.833 69.16 254.534 69.16Z" fill="#0A304C"/>
<path d="M268.528 75L271.756 67.128L272.356 67.224L269.188 75H268.528ZM266.98 67.38V66.816H272.356V67.224L272.068 67.38H266.98ZM274.471 75.12C274.311 75.12 274.175 75.06 274.063 74.94C273.959 74.82 273.907 74.684 273.907 74.532C273.907 74.364 273.959 74.224 274.063 74.112C274.175 74 274.311 73.944 274.471 73.944C274.639 73.944 274.779 74 274.891 74.112C275.003 74.224 275.059 74.364 275.059 74.532C275.059 74.684 275.003 74.82 274.891 74.94C274.779 75.06 274.639 75.12 274.471 75.12ZM274.471 71.316C274.311 71.316 274.175 71.256 274.063 71.136C273.959 71.016 273.907 70.88 273.907 70.728C273.907 70.56 273.959 70.42 274.063 70.308C274.175 70.196 274.311 70.14 274.471 70.14C274.639 70.14 274.779 70.196 274.891 70.308C275.003 70.42 275.059 70.56 275.059 70.728C275.059 70.88 275.003 71.016 274.891 71.136C274.779 71.256 274.639 71.316 274.471 71.316ZM280.07 75.12C279.47 75.12 278.922 74.948 278.426 74.604C277.93 74.252 277.534 73.76 277.238 73.128C276.95 72.496 276.806 71.752 276.806 70.896C276.806 70.032 276.95 69.288 277.238 68.664C277.526 68.04 277.914 67.556 278.402 67.212C278.898 66.868 279.442 66.696 280.034 66.696C280.642 66.696 281.19 66.868 281.678 67.212C282.174 67.556 282.566 68.044 282.854 68.676C283.142 69.3 283.286 70.044 283.286 70.908C283.286 71.764 283.142 72.508 282.854 73.14C282.566 73.772 282.178 74.26 281.69 74.604C281.202 74.948 280.662 75.12 280.07 75.12ZM280.046 74.52C280.542 74.52 280.986 74.38 281.378 74.1C281.77 73.812 282.078 73.396 282.302 72.852C282.534 72.308 282.65 71.656 282.65 70.896C282.65 70.136 282.534 69.488 282.302 68.952C282.078 68.416 281.77 68.004 281.378 67.716C280.986 67.428 280.538 67.284 280.034 67.284C279.546 67.284 279.106 67.428 278.714 67.716C278.322 68.004 278.01 68.416 277.778 68.952C277.554 69.488 277.442 70.136 277.442 70.896C277.442 71.656 277.554 72.308 277.778 72.852C278.01 73.396 278.322 73.812 278.714 74.1C279.106 74.38 279.55 74.52 280.046 74.52ZM285.485 75L288.713 67.128L289.313 67.224L286.145 75H285.485ZM283.937 67.38V66.816H289.313V67.224L289.025 67.38H283.937ZM293.992 71.616V71.052H296.584C296.96 71.052 297.292 70.98 297.58 70.836C297.868 70.684 298.096 70.472 298.264 70.2C298.432 69.92 298.516 69.592 298.516 69.216C298.516 68.84 298.432 68.516 298.264 68.244C298.096 67.964 297.868 67.752 297.58 67.608C297.292 67.456 296.96 67.38 296.584 67.38H293.992V66.816H296.656C297.136 66.816 297.56 66.916 297.928 67.116C298.304 67.308 298.6 67.584 298.816 67.944C299.04 68.304 299.152 68.728 299.152 69.216C299.152 69.704 299.04 70.128 298.816 70.488C298.6 70.84 298.304 71.116 297.928 71.316C297.56 71.516 297.136 71.616 296.656 71.616H293.992ZM293.608 75V66.816H294.244V75H293.608ZM300.815 75V66.816H301.271L304.871 72.72H304.523L308.123 66.816H308.579V75H307.943V67.908L308.099 67.944L304.931 73.14H304.475L301.307 67.944L301.451 67.908V75H300.815Z" fill="#0A304C"/>
<path d="M318.5 45C318.5 45 324.238 45 325.7 45C327.162 45 327.5 46.5 326.15 48C324.8 49.5 319 54.5 318.5 56C318.5 47 318.5 45 318.5 45Z" fill="white" fill-opacity="0.8"/>
<rect x="85.5" y="88" width="233" height="41" rx="8" fill="white" fill-opacity="0.8"/>
<path d="M95.4783 112V104.4H96.9183V112H95.4783ZM96.1983 102.88C95.9316 102.88 95.7129 102.795 95.5423 102.624C95.3716 102.443 95.2863 102.219 95.2863 101.952C95.2863 101.696 95.3716 101.483 95.5423 101.312C95.7129 101.131 95.9316 101.04 96.1983 101.04C96.4649 101.04 96.6836 101.131 96.8543 101.312C97.0249 101.483 97.1103 101.696 97.1103 101.952C97.1103 102.219 97.0249 102.443 96.8543 102.624C96.6836 102.795 96.4649 102.88 96.1983 102.88ZM105.601 112.16C104.907 112.16 104.278 111.989 103.713 111.648C103.147 111.296 102.699 110.821 102.368 110.224C102.049 109.627 101.889 108.955 101.889 108.208C101.889 107.461 102.049 106.789 102.368 106.192C102.699 105.595 103.142 105.12 103.697 104.768C104.262 104.416 104.897 104.24 105.601 104.24C106.177 104.24 106.689 104.363 107.137 104.608C107.595 104.843 107.963 105.173 108.241 105.6C108.518 106.016 108.673 106.501 108.705 107.056V109.344C108.673 109.888 108.518 110.373 108.241 110.8C107.974 111.227 107.611 111.563 107.153 111.808C106.705 112.043 106.187 112.16 105.601 112.16ZM105.841 110.8C106.555 110.8 107.131 110.56 107.569 110.08C108.006 109.589 108.225 108.965 108.225 108.208C108.225 107.685 108.123 107.232 107.921 106.848C107.729 106.453 107.451 106.149 107.089 105.936C106.726 105.712 106.305 105.6 105.825 105.6C105.345 105.6 104.918 105.712 104.545 105.936C104.182 106.16 103.894 106.469 103.681 106.864C103.478 107.248 103.377 107.691 103.377 108.192C103.377 108.704 103.478 109.157 103.681 109.552C103.894 109.936 104.187 110.24 104.561 110.464C104.934 110.688 105.361 110.8 105.841 110.8ZM108.129 112V109.952L108.401 108.096L108.129 106.256V104.4H109.585V112H108.129ZM111.681 112V104.4H113.121V112H111.681ZM116.817 112V107.408C116.817 106.843 116.641 106.4 116.289 106.08C115.948 105.749 115.516 105.584 114.993 105.584C114.641 105.584 114.326 105.659 114.049 105.808C113.772 105.957 113.548 106.165 113.377 106.432C113.206 106.699 113.121 107.019 113.121 107.392L112.529 107.104C112.529 106.528 112.652 106.027 112.897 105.6C113.153 105.173 113.5 104.843 113.937 104.608C114.374 104.363 114.865 104.24 115.409 104.24C115.942 104.24 116.422 104.357 116.849 104.592C117.286 104.827 117.628 105.157 117.873 105.584C118.129 106.011 118.257 106.517 118.257 107.104V112H116.817ZM121.953 112V107.408C121.953 106.843 121.777 106.4 121.425 106.08C121.084 105.749 120.657 105.584 120.145 105.584C119.793 105.584 119.473 105.659 119.185 105.808C118.908 105.957 118.684 106.165 118.513 106.432C118.342 106.699 118.257 107.019 118.257 107.392L117.441 107.104C117.473 106.517 117.628 106.016 117.905 105.6C118.193 105.173 118.561 104.843 119.009 104.608C119.457 104.363 119.948 104.24 120.481 104.24C121.036 104.24 121.532 104.357 121.969 104.592C122.406 104.827 122.753 105.157 123.009 105.584C123.276 106.011 123.409 106.523 123.409 107.12V112H121.953ZM130.873 112L127.865 104.4H129.369L131.545 110.32H131.065L133.225 104.4H134.057L136.217 110.32H135.737L137.913 104.4H139.417L136.425 112H135.577L133.385 106.256H133.913L131.705 112H130.873ZM143.71 112.16C143.017 112.16 142.387 111.989 141.822 111.648C141.257 111.296 140.809 110.821 140.478 110.224C140.158 109.627 139.998 108.955 139.998 108.208C139.998 107.461 140.158 106.789 140.478 106.192C140.809 105.595 141.251 105.12 141.806 104.768C142.371 104.416 143.006 104.24 143.71 104.24C144.286 104.24 144.798 104.363 145.246 104.608C145.705 104.843 146.073 105.173 146.35 105.6C146.627 106.016 146.782 106.501 146.814 107.056V109.344C146.782 109.888 146.627 110.373 146.35 110.8C146.083 111.227 145.721 111.563 145.262 111.808C144.814 112.043 144.297 112.16 143.71 112.16ZM143.95 110.8C144.665 110.8 145.241 110.56 145.678 110.08C146.115 109.589 146.334 108.965 146.334 108.208C146.334 107.685 146.233 107.232 146.03 106.848C145.838 106.453 145.561 106.149 145.198 105.936C144.835 105.712 144.414 105.6 143.934 105.6C143.454 105.6 143.027 105.712 142.654 105.936C142.291 106.16 142.003 106.469 141.79 106.864C141.587 107.248 141.486 107.691 141.486 108.192C141.486 108.704 141.587 109.157 141.79 109.552C142.003 109.936 142.297 110.24 142.67 110.464C143.043 110.688 143.47 110.8 143.95 110.8ZM146.238 112V109.952L146.51 108.096L146.238 106.256V104.4H147.694V112H146.238ZM149.806 112V104.4H151.246V112H149.806ZM150.526 102.88C150.26 102.88 150.041 102.795 149.87 102.624C149.7 102.443 149.614 102.219 149.614 101.952C149.614 101.696 149.7 101.483 149.87 101.312C150.041 101.131 150.26 101.04 150.526 101.04C150.793 101.04 151.012 101.131 151.182 101.312C151.353 101.483 151.438 101.696 151.438 101.952C151.438 102.219 151.353 102.443 151.182 102.624C151.012 102.795 150.793 102.88 150.526 102.88ZM154.537 112V101.216H155.977V112H154.537ZM152.665 105.712V104.4H157.849V105.712H152.665ZM159.275 112V104.4H160.715V112H159.275ZM159.995 102.88C159.728 102.88 159.51 102.795 159.339 102.624C159.168 102.443 159.083 102.219 159.083 101.952C159.083 101.696 159.168 101.483 159.339 101.312C159.51 101.131 159.728 101.04 159.995 101.04C160.262 101.04 160.48 101.131 160.651 101.312C160.822 101.483 160.907 101.696 160.907 101.952C160.907 102.219 160.822 102.443 160.651 102.624C160.48 102.795 160.262 102.88 159.995 102.88ZM168.213 112V107.568C168.213 106.992 168.032 106.517 167.669 106.144C167.307 105.771 166.837 105.584 166.261 105.584C165.877 105.584 165.536 105.669 165.237 105.84C164.939 106.011 164.704 106.245 164.533 106.544C164.363 106.843 164.277 107.184 164.277 107.568L163.685 107.232C163.685 106.656 163.813 106.144 164.069 105.696C164.325 105.248 164.683 104.896 165.141 104.64C165.6 104.373 166.117 104.24 166.693 104.24C167.269 104.24 167.776 104.384 168.213 104.672C168.661 104.96 169.013 105.339 169.269 105.808C169.525 106.267 169.653 106.757 169.653 107.28V112H168.213ZM162.837 112V104.4H164.277V112H162.837ZM174.755 115.344C173.976 115.344 173.283 115.2 172.675 114.912C172.078 114.624 171.598 114.219 171.235 113.696L172.163 112.752C172.472 113.147 172.84 113.445 173.267 113.648C173.694 113.861 174.2 113.968 174.787 113.968C175.566 113.968 176.179 113.76 176.627 113.344C177.086 112.939 177.315 112.389 177.315 111.696V109.808L177.571 108.096L177.315 106.4V104.4H178.755V111.696C178.755 112.421 178.584 113.056 178.243 113.6C177.912 114.144 177.443 114.571 176.835 114.88C176.238 115.189 175.544 115.344 174.755 115.344ZM174.755 111.872C174.062 111.872 173.438 111.707 172.883 111.376C172.339 111.045 171.907 110.592 171.587 110.016C171.267 109.429 171.107 108.773 171.107 108.048C171.107 107.323 171.267 106.677 171.587 106.112C171.907 105.536 172.339 105.083 172.883 104.752C173.438 104.411 174.062 104.24 174.755 104.24C175.352 104.24 175.88 104.357 176.339 104.592C176.798 104.827 177.16 105.157 177.427 105.584C177.704 106 177.854 106.491 177.875 107.056V109.072C177.843 109.627 177.688 110.117 177.411 110.544C177.144 110.96 176.782 111.285 176.323 111.52C175.864 111.755 175.342 111.872 174.755 111.872ZM175.043 110.512C175.512 110.512 175.923 110.411 176.275 110.208C176.638 110.005 176.915 109.723 177.107 109.36C177.299 108.987 177.395 108.555 177.395 108.064C177.395 107.573 177.294 107.147 177.091 106.784C176.899 106.411 176.627 106.123 176.275 105.92C175.923 105.707 175.507 105.6 175.027 105.6C174.547 105.6 174.126 105.707 173.763 105.92C173.4 106.123 173.112 106.411 172.899 106.784C172.696 107.147 172.595 107.568 172.595 108.048C172.595 108.528 172.696 108.955 172.899 109.328C173.112 109.701 173.4 109.995 173.763 110.208C174.136 110.411 174.563 110.512 175.043 110.512ZM187.429 112.16C186.735 112.16 186.106 111.989 185.541 111.648C184.975 111.296 184.527 110.821 184.197 110.224C183.877 109.627 183.717 108.955 183.717 108.208C183.717 107.461 183.877 106.789 184.197 106.192C184.527 105.595 184.97 105.12 185.525 104.768C186.09 104.416 186.725 104.24 187.429 104.24C188.005 104.24 188.517 104.363 188.965 104.608C189.423 104.843 189.791 105.173 190.069 105.6C190.346 106.016 190.501 106.501 190.533 107.056V109.344C190.501 109.888 190.346 110.373 190.069 110.8C189.802 111.227 189.439 111.563 188.981 111.808C188.533 112.043 188.015 112.16 187.429 112.16ZM187.669 110.8C188.383 110.8 188.959 110.56 189.397 110.08C189.834 109.589 190.053 108.965 190.053 108.208C190.053 107.685 189.951 107.232 189.749 106.848C189.557 106.453 189.279 106.149 188.917 105.936C188.554 105.712 188.133 105.6 187.653 105.6C187.173 105.6 186.746 105.712 186.373 105.936C186.01 106.16 185.722 106.469 185.509 106.864C185.306 107.248 185.205 107.691 185.205 108.192C185.205 108.704 185.306 109.157 185.509 109.552C185.722 109.936 186.015 110.24 186.389 110.464C186.762 110.688 187.189 110.8 187.669 110.8ZM189.957 112V109.952L190.229 108.096L189.957 106.256V104.4H191.413V112H189.957ZM194.646 112V101.216H196.086V112H194.646ZM192.774 105.712V104.4H197.958V105.712H192.774ZM202.697 112V100.576H204.137V112H202.697ZM209.716 112.16C208.969 112.16 208.297 111.984 207.7 111.632C207.102 111.28 206.628 110.805 206.276 110.208C205.924 109.6 205.748 108.923 205.748 108.176C205.748 107.44 205.924 106.779 206.276 106.192C206.628 105.595 207.102 105.12 207.7 104.768C208.297 104.416 208.969 104.24 209.716 104.24C210.452 104.24 211.118 104.416 211.716 104.768C212.324 105.109 212.804 105.579 213.156 106.176C213.508 106.773 213.684 107.44 213.684 108.176C213.684 108.923 213.508 109.6 213.156 110.208C212.804 110.805 212.324 111.28 211.716 111.632C211.118 111.984 210.452 112.16 209.716 112.16ZM209.716 110.768C210.196 110.768 210.622 110.656 210.996 110.432C211.369 110.208 211.662 109.904 211.876 109.52C212.089 109.125 212.196 108.677 212.196 108.176C212.196 107.685 212.084 107.248 211.86 106.864C211.646 106.48 211.353 106.181 210.98 105.968C210.617 105.744 210.196 105.632 209.716 105.632C209.236 105.632 208.809 105.744 208.436 105.968C208.062 106.181 207.769 106.48 207.556 106.864C207.342 107.248 207.236 107.685 207.236 108.176C207.236 108.677 207.342 109.125 207.556 109.52C207.769 109.904 208.062 110.208 208.436 110.432C208.809 110.656 209.236 110.768 209.716 110.768ZM218.778 112.16C218.031 112.16 217.354 111.984 216.746 111.632C216.149 111.28 215.674 110.805 215.322 110.208C214.981 109.6 214.81 108.928 214.81 108.192C214.81 107.445 214.981 106.773 215.322 106.176C215.674 105.579 216.149 105.109 216.746 104.768C217.354 104.416 218.031 104.24 218.778 104.24C219.365 104.24 219.909 104.352 220.41 104.576C220.911 104.789 221.343 105.104 221.706 105.52L220.746 106.48C220.511 106.203 220.223 105.995 219.882 105.856C219.551 105.707 219.183 105.632 218.778 105.632C218.298 105.632 217.871 105.744 217.498 105.968C217.125 106.181 216.831 106.48 216.618 106.864C216.405 107.248 216.298 107.691 216.298 108.192C216.298 108.693 216.405 109.136 216.618 109.52C216.831 109.904 217.125 110.208 217.498 110.432C217.871 110.656 218.298 110.768 218.778 110.768C219.183 110.768 219.551 110.699 219.882 110.56C220.223 110.411 220.517 110.197 220.762 109.92L221.706 110.88C221.354 111.285 220.922 111.6 220.41 111.824C219.909 112.048 219.365 112.16 218.778 112.16ZM226.21 112.16C225.517 112.16 224.887 111.989 224.322 111.648C223.757 111.296 223.309 110.821 222.978 110.224C222.658 109.627 222.498 108.955 222.498 108.208C222.498 107.461 222.658 106.789 222.978 106.192C223.309 105.595 223.751 105.12 224.306 104.768C224.871 104.416 225.506 104.24 226.21 104.24C226.786 104.24 227.298 104.363 227.746 104.608C228.205 104.843 228.573 105.173 228.85 105.6C229.127 106.016 229.282 106.501 229.314 107.056V109.344C229.282 109.888 229.127 110.373 228.85 110.8C228.583 111.227 228.221 111.563 227.762 111.808C227.314 112.043 226.797 112.16 226.21 112.16ZM226.45 110.8C227.165 110.8 227.741 110.56 228.178 110.08C228.615 109.589 228.834 108.965 228.834 108.208C228.834 107.685 228.733 107.232 228.53 106.848C228.338 106.453 228.061 106.149 227.698 105.936C227.335 105.712 226.914 105.6 226.434 105.6C225.954 105.6 225.527 105.712 225.154 105.936C224.791 106.16 224.503 106.469 224.29 106.864C224.087 107.248 223.986 107.691 223.986 108.192C223.986 108.704 224.087 109.157 224.29 109.552C224.503 109.936 224.797 110.24 225.17 110.464C225.543 110.688 225.97 110.8 226.45 110.8ZM228.738 112V109.952L229.01 108.096L228.738 106.256V104.4H230.194V112H228.738ZM233.427 112V101.216H234.867V112H233.427ZM231.555 105.712V104.4H236.739V105.712H231.555ZM238.166 112V104.4H239.606V112H238.166ZM238.886 102.88C238.619 102.88 238.4 102.795 238.23 102.624C238.059 102.443 237.974 102.219 237.974 101.952C237.974 101.696 238.059 101.483 238.23 101.312C238.4 101.131 238.619 101.04 238.886 101.04C239.152 101.04 239.371 101.131 239.542 101.312C239.712 101.483 239.798 101.696 239.798 101.952C239.798 102.219 239.712 102.443 239.542 102.624C239.371 102.795 239.152 102.88 238.886 102.88ZM245.2 112.16C244.453 112.16 243.781 111.984 243.184 111.632C242.587 111.28 242.112 110.805 241.76 110.208C241.408 109.6 241.232 108.923 241.232 108.176C241.232 107.44 241.408 106.779 241.76 106.192C242.112 105.595 242.587 105.12 243.184 104.768C243.781 104.416 244.453 104.24 245.2 104.24C245.936 104.24 246.603 104.416 247.2 104.768C247.808 105.109 248.288 105.579 248.64 106.176C248.992 106.773 249.168 107.44 249.168 108.176C249.168 108.923 248.992 109.6 248.64 110.208C248.288 110.805 247.808 111.28 247.2 111.632C246.603 111.984 245.936 112.16 245.2 112.16ZM245.2 110.768C245.68 110.768 246.107 110.656 246.48 110.432C246.853 110.208 247.147 109.904 247.36 109.52C247.573 109.125 247.68 108.677 247.68 108.176C247.68 107.685 247.568 107.248 247.344 106.864C247.131 106.48 246.837 106.181 246.464 105.968C246.101 105.744 245.68 105.632 245.2 105.632C244.72 105.632 244.293 105.744 243.92 105.968C243.547 106.181 243.253 106.48 243.04 106.864C242.827 107.248 242.72 107.685 242.72 108.176C242.72 108.677 242.827 109.125 243.04 109.52C243.253 109.904 243.547 110.208 243.92 110.432C244.293 110.656 244.72 110.768 245.2 110.768ZM256.166 112V107.568C256.166 106.992 255.985 106.517 255.622 106.144C255.26 105.771 254.79 105.584 254.214 105.584C253.83 105.584 253.489 105.669 253.19 105.84C252.892 106.011 252.657 106.245 252.486 106.544C252.316 106.843 252.23 107.184 252.23 107.568L251.638 107.232C251.638 106.656 251.766 106.144 252.022 105.696C252.278 105.248 252.636 104.896 253.094 104.64C253.553 104.373 254.07 104.24 254.646 104.24C255.222 104.24 255.729 104.384 256.166 104.672C256.614 104.96 256.966 105.339 257.222 105.808C257.478 106.267 257.606 106.757 257.606 107.28V112H256.166ZM250.79 112V104.4H252.23V112H250.79Z" fill="#0A304C"/>
<path d="M268.528 118L271.756 110.128L272.356 110.224L269.188 118H268.528ZM266.98 110.38V109.816H272.356V110.224L272.068 110.38H266.98ZM274.471 118.12C274.311 118.12 274.175 118.06 274.063 117.94C273.959 117.82 273.907 117.684 273.907 117.532C273.907 117.364 273.959 117.224 274.063 117.112C274.175 117 274.311 116.944 274.471 116.944C274.639 116.944 274.779 117 274.891 117.112C275.003 117.224 275.059 117.364 275.059 117.532C275.059 117.684 275.003 117.82 274.891 117.94C274.779 118.06 274.639 118.12 274.471 118.12ZM274.471 114.316C274.311 114.316 274.175 114.256 274.063 114.136C273.959 114.016 273.907 113.88 273.907 113.728C273.907 113.56 273.959 113.42 274.063 113.308C274.175 113.196 274.311 113.14 274.471 113.14C274.639 113.14 274.779 113.196 274.891 113.308C275.003 113.42 275.059 113.56 275.059 113.728C275.059 113.88 275.003 114.016 274.891 114.136C274.779 114.256 274.639 114.316 274.471 114.316ZM280.07 118.12C279.47 118.12 278.922 117.948 278.426 117.604C277.93 117.252 277.534 116.76 277.238 116.128C276.95 115.496 276.806 114.752 276.806 113.896C276.806 113.032 276.95 112.288 277.238 111.664C277.526 111.04 277.914 110.556 278.402 110.212C278.898 109.868 279.442 109.696 280.034 109.696C280.642 109.696 281.19 109.868 281.678 110.212C282.174 110.556 282.566 111.044 282.854 111.676C283.142 112.3 283.286 113.044 283.286 113.908C283.286 114.764 283.142 115.508 282.854 116.14C282.566 116.772 282.178 117.26 281.69 117.604C281.202 117.948 280.662 118.12 280.07 118.12ZM280.046 117.52C280.542 117.52 280.986 117.38 281.378 117.1C281.77 116.812 282.078 116.396 282.302 115.852C282.534 115.308 282.65 114.656 282.65 113.896C282.65 113.136 282.534 112.488 282.302 111.952C282.078 111.416 281.77 111.004 281.378 110.716C280.986 110.428 280.538 110.284 280.034 110.284C279.546 110.284 279.106 110.428 278.714 110.716C278.322 111.004 278.01 111.416 277.778 111.952C277.554 112.488 277.442 113.136 277.442 113.896C277.442 114.656 277.554 115.308 277.778 115.852C278.01 116.396 278.322 116.812 278.714 117.1C279.106 117.38 279.55 117.52 280.046 117.52ZM285.485 118L288.713 110.128L289.313 110.224L286.145 118H285.485ZM283.937 110.38V109.816H289.313V110.224L289.025 110.38H283.937ZM293.992 114.616V114.052H296.584C296.96 114.052 297.292 113.98 297.58 113.836C297.868 113.684 298.096 113.472 298.264 113.2C298.432 112.92 298.516 112.592 298.516 112.216C298.516 111.84 298.432 111.516 298.264 111.244C298.096 110.964 297.868 110.752 297.58 110.608C297.292 110.456 296.96 110.38 296.584 110.38H293.992V109.816H296.656C297.136 109.816 297.56 109.916 297.928 110.116C298.304 110.308 298.6 110.584 298.816 110.944C299.04 111.304 299.152 111.728 299.152 112.216C299.152 112.704 299.04 113.128 298.816 113.488C298.6 113.84 298.304 114.116 297.928 114.316C297.56 114.516 297.136 114.616 296.656 114.616H293.992ZM293.608 118V109.816H294.244V118H293.608ZM300.815 118V109.816H301.271L304.871 115.72H304.523L308.123 109.816H308.579V118H307.943V110.908L308.099 110.944L304.931 116.14H304.475L301.307 110.944L301.451 110.908V118H300.815Z" fill="#0A304C"/>
<path d="M198.5 157C198.5 152.582 202.082 149 206.5 149H318.5V182C318.5 186.418 314.918 190 310.5 190H206.5C202.082 190 198.5 186.418 198.5 182V157Z" fill="white" fill-opacity="0.8"/>
<path d="M211.569 173V162.216H213.073V173H211.569ZM207.793 163.272V161.896H216.833V163.272H207.793ZM223.745 173V168.568C223.745 167.992 223.563 167.517 223.201 167.144C222.838 166.771 222.369 166.584 221.793 166.584C221.409 166.584 221.067 166.669 220.769 166.84C220.47 167.011 220.235 167.245 220.065 167.544C219.894 167.843 219.809 168.184 219.809 168.568L219.217 168.232C219.217 167.656 219.345 167.144 219.601 166.696C219.857 166.248 220.214 165.896 220.673 165.64C221.131 165.373 221.649 165.24 222.225 165.24C222.801 165.24 223.307 165.368 223.745 165.624C224.193 165.88 224.545 166.237 224.801 166.696C225.057 167.155 225.185 167.683 225.185 168.28V173H223.745ZM218.368 173V161.576H219.809V173H218.368ZM230.366 173.16C229.673 173.16 229.043 172.989 228.478 172.648C227.913 172.296 227.465 171.821 227.134 171.224C226.814 170.627 226.654 169.955 226.654 169.208C226.654 168.461 226.814 167.789 227.134 167.192C227.465 166.595 227.907 166.12 228.462 165.768C229.027 165.416 229.662 165.24 230.366 165.24C230.942 165.24 231.454 165.363 231.902 165.608C232.361 165.843 232.729 166.173 233.006 166.6C233.283 167.016 233.438 167.501 233.47 168.056V170.344C233.438 170.888 233.283 171.373 233.006 171.8C232.739 172.227 232.377 172.563 231.918 172.808C231.47 173.043 230.953 173.16 230.366 173.16ZM230.606 171.8C231.321 171.8 231.897 171.56 232.334 171.08C232.771 170.589 232.99 169.965 232.99 169.208C232.99 168.685 232.889 168.232 232.686 167.848C232.494 167.453 232.217 167.149 231.854 166.936C231.491 166.712 231.07 166.6 230.59 166.6C230.11 166.6 229.683 166.712 229.31 166.936C228.947 167.16 228.659 167.469 228.446 167.864C228.243 168.248 228.142 168.691 228.142 169.192C228.142 169.704 228.243 170.157 228.446 170.552C228.659 170.936 228.953 171.24 229.326 171.464C229.699 171.688 230.126 171.8 230.606 171.8ZM232.894 173V170.952L233.166 169.096L232.894 167.256V165.4H234.35V173H232.894ZM241.823 173V168.568C241.823 167.992 241.641 167.517 241.279 167.144C240.916 166.771 240.447 166.584 239.871 166.584C239.487 166.584 239.145 166.669 238.847 166.84C238.548 167.011 238.313 167.245 238.143 167.544C237.972 167.843 237.887 168.184 237.887 168.568L237.295 168.232C237.295 167.656 237.423 167.144 237.679 166.696C237.935 166.248 238.292 165.896 238.751 165.64C239.209 165.373 239.727 165.24 240.303 165.24C240.879 165.24 241.385 165.384 241.823 165.672C242.271 165.96 242.623 166.339 242.879 166.808C243.135 167.267 243.263 167.757 243.263 168.28V173H241.823ZM236.447 173V165.4H237.887V173H236.447ZM250.076 173L246.524 169.112L250.044 165.4H251.788L247.868 169.496L247.932 168.664L251.932 173H250.076ZM245.212 173V161.576H246.652V173H245.212ZM255.144 173.16C254.717 173.16 254.312 173.107 253.928 173C253.555 172.883 253.208 172.723 252.888 172.52C252.568 172.307 252.291 172.056 252.056 171.768L252.984 170.84C253.261 171.181 253.581 171.437 253.944 171.608C254.307 171.768 254.712 171.848 255.16 171.848C255.608 171.848 255.955 171.773 256.2 171.624C256.445 171.464 256.568 171.245 256.568 170.968C256.568 170.691 256.467 170.477 256.264 170.328C256.072 170.168 255.821 170.04 255.512 169.944C255.203 169.837 254.872 169.736 254.52 169.64C254.179 169.533 253.853 169.4 253.544 169.24C253.235 169.08 252.979 168.861 252.776 168.584C252.584 168.307 252.488 167.939 252.488 167.48C252.488 167.021 252.6 166.627 252.824 166.296C253.048 165.955 253.357 165.693 253.752 165.512C254.157 165.331 254.643 165.24 255.208 165.24C255.805 165.24 256.333 165.347 256.792 165.56C257.261 165.763 257.645 166.072 257.944 166.488L257.016 167.416C256.803 167.139 256.536 166.925 256.216 166.776C255.907 166.627 255.555 166.552 255.16 166.552C254.744 166.552 254.424 166.627 254.2 166.776C253.987 166.915 253.88 167.112 253.88 167.368C253.88 167.624 253.976 167.821 254.168 167.96C254.36 168.099 254.611 168.216 254.92 168.312C255.24 168.408 255.571 168.509 255.912 168.616C256.253 168.712 256.579 168.845 256.888 169.016C257.197 169.187 257.448 169.416 257.64 169.704C257.843 169.992 257.944 170.371 257.944 170.84C257.944 171.555 257.688 172.12 257.176 172.536C256.675 172.952 255.997 173.16 255.144 173.16Z" fill="#0A304C"/>
<path d="M268.528 179L271.756 171.128L272.356 171.224L269.188 179H268.528ZM266.98 171.38V170.816H272.356V171.224L272.068 171.38H266.98ZM274.471 179.12C274.311 179.12 274.175 179.06 274.063 178.94C273.959 178.82 273.907 178.684 273.907 178.532C273.907 178.364 273.959 178.224 274.063 178.112C274.175 178 274.311 177.944 274.471 177.944C274.639 177.944 274.779 178 274.891 178.112C275.003 178.224 275.059 178.364 275.059 178.532C275.059 178.684 275.003 178.82 274.891 178.94C274.779 179.06 274.639 179.12 274.471 179.12ZM274.471 175.316C274.311 175.316 274.175 175.256 274.063 175.136C273.959 175.016 273.907 174.88 273.907 174.728C273.907 174.56 273.959 174.42 274.063 174.308C274.175 174.196 274.311 174.14 274.471 174.14C274.639 174.14 274.779 174.196 274.891 174.308C275.003 174.42 275.059 174.56 275.059 174.728C275.059 174.88 275.003 175.016 274.891 175.136C274.779 175.256 274.639 175.316 274.471 175.316ZM280.07 179.12C279.47 179.12 278.922 178.948 278.426 178.604C277.93 178.252 277.534 177.76 277.238 177.128C276.95 176.496 276.806 175.752 276.806 174.896C276.806 174.032 276.95 173.288 277.238 172.664C277.526 172.04 277.914 171.556 278.402 171.212C278.898 170.868 279.442 170.696 280.034 170.696C280.642 170.696 281.19 170.868 281.678 171.212C282.174 171.556 282.566 172.044 282.854 172.676C283.142 173.3 283.286 174.044 283.286 174.908C283.286 175.764 283.142 176.508 282.854 177.14C282.566 177.772 282.178 178.26 281.69 178.604C281.202 178.948 280.662 179.12 280.07 179.12ZM280.046 178.52C280.542 178.52 280.986 178.38 281.378 178.1C281.77 177.812 282.078 177.396 282.302 176.852C282.534 176.308 282.65 175.656 282.65 174.896C282.65 174.136 282.534 173.488 282.302 172.952C282.078 172.416 281.77 172.004 281.378 171.716C280.986 171.428 280.538 171.284 280.034 171.284C279.546 171.284 279.106 171.428 278.714 171.716C278.322 172.004 278.01 172.416 277.778 172.952C277.554 173.488 277.442 174.136 277.442 174.896C277.442 175.656 277.554 176.308 277.778 176.852C278.01 177.396 278.322 177.812 278.714 178.1C279.106 178.38 279.55 178.52 280.046 178.52ZM285.485 179L288.713 171.128L289.313 171.224L286.145 179H285.485ZM283.937 171.38V170.816H289.313V171.224L289.025 171.38H283.937ZM293.992 175.616V175.052H296.584C296.96 175.052 297.292 174.98 297.58 174.836C297.868 174.684 298.096 174.472 298.264 174.2C298.432 173.92 298.516 173.592 298.516 173.216C298.516 172.84 298.432 172.516 298.264 172.244C298.096 171.964 297.868 171.752 297.58 171.608C297.292 171.456 296.96 171.38 296.584 171.38H293.992V170.816H296.656C297.136 170.816 297.56 170.916 297.928 171.116C298.304 171.308 298.6 171.584 298.816 171.944C299.04 172.304 299.152 172.728 299.152 173.216C299.152 173.704 299.04 174.128 298.816 174.488C298.6 174.84 298.304 175.116 297.928 175.316C297.56 175.516 297.136 175.616 296.656 175.616H293.992ZM293.608 179V170.816H294.244V179H293.608ZM300.815 179V170.816H301.271L304.871 176.72H304.523L308.123 170.816H308.579V179H307.943V171.908L308.099 171.944L304.931 177.14H304.475L301.307 171.944L301.451 171.908V179H300.815Z" fill="#0A304C"/>
<path d="M318.5 149C318.5 149 324.238 149 325.7 149C327.162 149 327.5 150.5 326.15 152C324.8 153.5 319 158.5 318.5 160C318.5 151 318.5 149 318.5 149Z" fill="white" fill-opacity="0.8"/>
<path d="M28.4997 225C28.4997 225 22.762 225 21.2998 225C19.8377 225 19.4998 226.5 20.8498 228C22.1999 229.5 28.0004 234.5 28.4998 236C28.4999 227 28.4997 225 28.4997 225Z" fill="#93B1BA" fill-opacity="0.3"/>
<path d="M28.5 210H143.5C147.918 210 151.5 213.582 151.5 218V243C151.5 247.418 147.918 251 143.5 251H36.5C32.0817 251 28.5 247.418 28.5 243V210Z" fill="#93B1BA" fill-opacity="0.3"/>
<path d="M38.6245 234V222.896H40.1285V234H38.6245ZM45.7925 234V222.896H47.2965V234H45.7925ZM39.6485 228.944V227.568H46.1605V228.944H39.6485ZM49.6814 234V226.4H51.1214V234H49.6814ZM50.4014 224.88C50.1347 224.88 49.916 224.795 49.7454 224.624C49.5747 224.443 49.4894 224.219 49.4894 223.952C49.4894 223.696 49.5747 223.483 49.7454 223.312C49.916 223.131 50.1347 223.04 50.4014 223.04C50.668 223.04 50.8867 223.131 51.0574 223.312C51.228 223.483 51.3134 223.696 51.3134 223.952C51.3134 224.219 51.228 224.443 51.0574 224.624C50.8867 224.795 50.668 224.88 50.4014 224.88ZM63.6916 234L58.0916 228.208L63.5796 222.896H65.5316L59.6116 228.592V227.76L65.6916 234H63.6916ZM56.8276 234V222.896H58.3316V234H56.8276ZM69.6474 234.16C68.954 234.16 68.3247 233.989 67.7594 233.648C67.194 233.296 66.746 232.821 66.4154 232.224C66.0954 231.627 65.9354 230.955 65.9354 230.208C65.9354 229.461 66.0954 228.789 66.4154 228.192C66.746 227.595 67.1887 227.12 67.7434 226.768C68.3087 226.416 68.9434 226.24 69.6474 226.24C70.2234 226.24 70.7354 226.363 71.1834 226.608C71.642 226.843 72.01 227.173 72.2874 227.6C72.5647 228.016 72.7194 228.501 72.7514 229.056V231.344C72.7194 231.888 72.5647 232.373 72.2874 232.8C72.0207 233.227 71.658 233.563 71.1994 233.808C70.7514 234.043 70.234 234.16 69.6474 234.16ZM69.8874 232.8C70.602 232.8 71.178 232.56 71.6154 232.08C72.0527 231.589 72.2714 230.965 72.2714 230.208C72.2714 229.685 72.17 229.232 71.9674 228.848C71.7754 228.453 71.498 228.149 71.1354 227.936C70.7727 227.712 70.3514 227.6 69.8714 227.6C69.3914 227.6 68.9647 227.712 68.5914 227.936C68.2287 228.16 67.9407 228.469 67.7274 228.864C67.5247 229.248 67.4234 229.691 67.4234 230.192C67.4234 230.704 67.5247 231.157 67.7274 231.552C67.9407 231.936 68.234 232.24 68.6074 232.464C68.9807 232.688 69.4074 232.8 69.8874 232.8ZM72.1754 234V231.952L72.4474 230.096L72.1754 228.256V226.4H73.6314V234H72.1754ZM75.7279 234V226.4H77.1679V234H75.7279ZM77.1679 229.664L76.6239 229.424C76.6239 228.453 76.8479 227.68 77.2959 227.104C77.7439 226.528 78.3892 226.24 79.2319 226.24C79.6159 226.24 79.9625 226.309 80.2719 226.448C80.5812 226.576 80.8692 226.795 81.1359 227.104L80.1919 228.08C80.0319 227.909 79.8559 227.787 79.6639 227.712C79.4719 227.637 79.2479 227.6 78.9919 227.6C78.4585 227.6 78.0212 227.771 77.6799 228.112C77.3385 228.453 77.1679 228.971 77.1679 229.664ZM83.2865 234V223.216H84.7265V234H83.2865ZM81.4145 227.712V226.4H86.5985V227.712H81.4145ZM88.0251 234V226.4H89.4651V234H88.0251ZM88.7451 224.88C88.4785 224.88 88.2598 224.795 88.0891 224.624C87.9185 224.443 87.8331 224.219 87.8331 223.952C87.8331 223.696 87.9185 223.483 88.0891 223.312C88.2598 223.131 88.4785 223.04 88.7451 223.04C89.0118 223.04 89.2305 223.131 89.4011 223.312C89.5718 223.483 89.6571 223.696 89.6571 223.952C89.6571 224.219 89.5718 224.443 89.4011 224.624C89.2305 224.795 89.0118 224.88 88.7451 224.88ZM96.4513 234L92.8993 230.112L96.4193 226.4H98.1633L94.2433 230.496L94.3073 229.664L98.3073 234H96.4513ZM91.5872 234V222.576H93.0273V234H91.5872Z" fill="white"/>
<path d="M108.05 240L110.69 233.53L111.4 233.58L108.81 240H108.05ZM106.86 233.77V233.12H111.4V233.58L111.08 233.77H106.86ZM113.133 240.1C112.967 240.1 112.83 240.043 112.723 239.93C112.623 239.817 112.573 239.683 112.573 239.53C112.573 239.363 112.623 239.227 112.723 239.12C112.83 239.007 112.967 238.95 113.133 238.95C113.293 238.95 113.427 239.007 113.533 239.12C113.647 239.227 113.703 239.363 113.703 239.53C113.703 239.683 113.647 239.817 113.533 239.93C113.427 240.043 113.293 240.1 113.133 240.1ZM113.133 236.95C112.967 236.95 112.83 236.893 112.723 236.78C112.623 236.667 112.573 236.533 112.573 236.38C112.573 236.213 112.623 236.077 112.723 235.97C112.83 235.863 112.967 235.81 113.133 235.81C113.293 235.81 113.427 235.863 113.533 235.97C113.647 236.077 113.703 236.213 113.703 236.38C113.703 236.533 113.647 236.667 113.533 236.78C113.427 236.893 113.293 236.95 113.133 236.95ZM117.779 240.1C117.272 240.1 116.809 239.957 116.389 239.67C115.969 239.377 115.632 238.963 115.379 238.43C115.132 237.897 115.009 237.27 115.009 236.55C115.009 235.823 115.132 235.2 115.379 234.68C115.625 234.153 115.955 233.747 116.369 233.46C116.789 233.167 117.252 233.02 117.759 233.02C118.272 233.02 118.735 233.163 119.149 233.45C119.569 233.737 119.902 234.147 120.149 234.68C120.395 235.207 120.519 235.833 120.519 236.56C120.519 237.28 120.395 237.907 120.149 238.44C119.902 238.973 119.572 239.383 119.159 239.67C118.745 239.957 118.285 240.1 117.779 240.1ZM117.759 239.41C118.152 239.41 118.499 239.3 118.799 239.08C119.105 238.853 119.345 238.53 119.519 238.11C119.692 237.683 119.779 237.163 119.779 236.55C119.779 235.943 119.692 235.43 119.519 235.01C119.345 234.583 119.105 234.26 118.799 234.04C118.499 233.82 118.152 233.71 117.759 233.71C117.372 233.71 117.025 233.82 116.719 234.04C116.419 234.26 116.182 234.58 116.009 235C115.835 235.42 115.749 235.937 115.749 236.55C115.749 237.163 115.835 237.683 116.009 238.11C116.182 238.53 116.419 238.853 116.719 239.08C117.025 239.3 117.372 239.41 117.759 239.41ZM122.611 240L124.761 237.16L125.011 237.06C124.917 237.18 124.811 237.283 124.691 237.37C124.571 237.457 124.431 237.523 124.271 237.57C124.111 237.617 123.927 237.64 123.721 237.64C123.314 237.64 122.944 237.54 122.611 237.34C122.277 237.14 122.007 236.87 121.801 236.53C121.601 236.19 121.501 235.807 121.501 235.38C121.501 234.94 121.607 234.543 121.821 234.19C122.041 233.83 122.327 233.547 122.681 233.34C123.041 233.127 123.441 233.02 123.881 233.02C124.327 233.02 124.727 233.123 125.081 233.33C125.441 233.537 125.724 233.817 125.931 234.17C126.144 234.523 126.251 234.917 126.251 235.35C126.251 235.937 126.047 236.51 125.641 237.07L123.471 240H122.611ZM123.881 237.05C124.187 237.05 124.464 236.977 124.711 236.83C124.957 236.683 125.151 236.483 125.291 236.23C125.437 235.97 125.511 235.687 125.511 235.38C125.511 235.06 125.437 234.773 125.291 234.52C125.151 234.267 124.957 234.067 124.711 233.92C124.464 233.767 124.187 233.69 123.881 233.69C123.574 233.69 123.297 233.767 123.051 233.92C122.804 234.067 122.607 234.27 122.461 234.53C122.314 234.783 122.241 235.067 122.241 235.38C122.241 235.687 122.314 235.967 122.461 236.22C122.607 236.473 122.804 236.677 123.051 236.83C123.304 236.977 123.581 237.05 123.881 237.05ZM130.204 237.24V236.59H132.234C132.514 236.59 132.764 236.533 132.984 236.42C133.21 236.307 133.387 236.147 133.514 235.94C133.647 235.727 133.714 235.473 133.714 235.18C133.714 234.887 133.647 234.637 133.514 234.43C133.387 234.217 133.21 234.053 132.984 233.94C132.764 233.82 132.514 233.76 132.234 233.76H130.204V233.12H132.284C132.697 233.12 133.067 233.207 133.394 233.38C133.72 233.547 133.977 233.783 134.164 234.09C134.357 234.397 134.454 234.76 134.454 235.18C134.454 235.593 134.357 235.957 134.164 236.27C133.977 236.577 133.72 236.817 133.394 236.99C133.067 237.157 132.697 237.24 132.284 237.24H130.204ZM129.734 240V233.12H130.464V240H129.734ZM135.73 240V233.12H136.25L139.22 237.99H138.85L141.82 233.12H142.34V240H141.6V234.4L141.77 234.44L139.29 238.51H138.77L136.29 234.44L136.46 234.4V240H135.73Z" fill="white"/>
<rect x="28.5" y="253" width="238" height="41" rx="8" fill="#93B1BA" fill-opacity="0.3"/>
<path d="M38.1089 277V265.896H39.6129V277H38.1089ZM41.8499 269.432L42.8419 267.528L43.3539 267.4C43.3005 267.517 43.2312 267.613 43.1459 267.688C43.0712 267.763 42.9752 267.8 42.8579 267.8C42.6339 267.8 42.4259 267.709 42.2339 267.528C42.0525 267.336 41.9619 267.101 41.9619 266.824C41.9619 266.525 42.0632 266.269 42.2659 266.056C42.4792 265.843 42.7352 265.736 43.0339 265.736C43.3112 265.736 43.5565 265.843 43.7699 266.056C43.9832 266.269 44.0899 266.525 44.0899 266.824C44.0899 266.941 44.0632 267.085 44.0099 267.256C43.9672 267.416 43.8765 267.629 43.7379 267.896L42.6819 269.88L41.8499 269.432ZM45.9622 277V265.576H47.4023V277H45.9622ZM49.5091 277V265.576H50.9491V277H49.5091ZM60.3841 277.16C59.8081 277.16 59.2855 277.043 58.8161 276.808C58.3575 276.563 57.9895 276.227 57.7121 275.8C57.4348 275.373 57.2801 274.888 57.2481 274.344V272.056C57.2801 271.501 57.4348 271.016 57.7121 270.6C58.0001 270.173 58.3735 269.843 58.8321 269.608C59.3015 269.363 59.8188 269.24 60.3841 269.24C61.0775 269.24 61.7015 269.416 62.2561 269.768C62.8215 270.12 63.2641 270.595 63.5841 271.192C63.9041 271.789 64.0641 272.461 64.0641 273.208C64.0641 273.955 63.9041 274.627 63.5841 275.224C63.2641 275.821 62.8215 276.296 62.2561 276.648C61.7015 276.989 61.0775 277.16 60.3841 277.16ZM56.3841 277V265.576H57.8241V271.256L57.5521 273.096L57.8241 274.952V277H56.3841ZM60.1441 275.8C60.6241 275.8 61.0455 275.688 61.4081 275.464C61.7708 275.24 62.0588 274.936 62.2721 274.552C62.4855 274.157 62.5921 273.704 62.5921 273.192C62.5921 272.691 62.4855 272.243 62.2721 271.848C62.0588 271.453 61.7708 271.149 61.4081 270.936C61.0455 270.712 60.6295 270.6 60.1601 270.6C59.6801 270.6 59.2588 270.712 58.8961 270.936C58.5335 271.149 58.2508 271.453 58.0481 271.848C57.8455 272.243 57.7441 272.696 57.7441 273.208C57.7441 273.709 57.8401 274.157 58.0321 274.552C58.2348 274.936 58.5175 275.24 58.8801 275.464C59.2535 275.688 59.6748 275.8 60.1441 275.8ZM69.2166 277.16C68.4593 277.16 67.7766 276.989 67.1686 276.648C66.5606 276.296 66.0806 275.821 65.7286 275.224C65.3766 274.627 65.2006 273.949 65.2006 273.192C65.2006 272.445 65.3713 271.773 65.7126 271.176C66.0646 270.579 66.534 270.109 67.1206 269.768C67.718 269.416 68.3846 269.24 69.1206 269.24C69.8246 269.24 70.4433 269.4 70.9766 269.72C71.5206 270.04 71.942 270.483 72.2406 271.048C72.55 271.613 72.7046 272.253 72.7046 272.968C72.7046 273.075 72.6993 273.192 72.6886 273.32C72.678 273.437 72.6566 273.576 72.6246 273.736H66.2086V272.536H71.8566L71.3286 273C71.3286 272.488 71.238 272.056 71.0566 271.704C70.8753 271.341 70.6193 271.064 70.2886 270.872C69.958 270.669 69.558 270.568 69.0886 270.568C68.598 270.568 68.166 270.675 67.7926 270.888C67.4193 271.101 67.1313 271.4 66.9286 271.784C66.726 272.168 66.6246 272.621 66.6246 273.144C66.6246 273.677 66.7313 274.147 66.9446 274.552C67.158 274.947 67.462 275.256 67.8566 275.48C68.2513 275.693 68.7046 275.8 69.2166 275.8C69.6433 275.8 70.0326 275.725 70.3846 275.576C70.7473 275.427 71.0566 275.203 71.3126 274.904L72.2406 275.848C71.878 276.275 71.43 276.6 70.8966 276.824C70.374 277.048 69.814 277.16 69.2166 277.16ZM78.7709 277V266.216H80.2109V277H78.7709ZM76.8989 270.712V269.4H82.0829V270.712H76.8989ZM88.8695 277V272.568C88.8695 271.992 88.6882 271.517 88.3255 271.144C87.9628 270.771 87.4935 270.584 86.9175 270.584C86.5335 270.584 86.1922 270.669 85.8935 270.84C85.5948 271.011 85.3602 271.245 85.1895 271.544C85.0188 271.843 84.9335 272.184 84.9335 272.568L84.3415 272.232C84.3415 271.656 84.4695 271.144 84.7255 270.696C84.9815 270.248 85.3388 269.896 85.7975 269.64C86.2562 269.373 86.7735 269.24 87.3495 269.24C87.9255 269.24 88.4322 269.368 88.8695 269.624C89.3175 269.88 89.6695 270.237 89.9255 270.696C90.1815 271.155 90.3095 271.683 90.3095 272.28V277H88.8695ZM83.4935 277V265.576H84.9335V277H83.4935ZM95.7791 277.16C95.0218 277.16 94.3391 276.989 93.7311 276.648C93.1231 276.296 92.6431 275.821 92.2911 275.224C91.9391 274.627 91.7631 273.949 91.7631 273.192C91.7631 272.445 91.9338 271.773 92.2751 271.176C92.6271 270.579 93.0965 270.109 93.6831 269.768C94.2805 269.416 94.9471 269.24 95.6831 269.24C96.3871 269.24 97.0058 269.4 97.5391 269.72C98.0831 270.04 98.5045 270.483 98.8031 271.048C99.1125 271.613 99.2671 272.253 99.2671 272.968C99.2671 273.075 99.2618 273.192 99.2511 273.32C99.2405 273.437 99.2191 273.576 99.1871 273.736H92.7711V272.536H98.4191L97.8911 273C97.8911 272.488 97.8005 272.056 97.6191 271.704C97.4378 271.341 97.1818 271.064 96.8511 270.872C96.5205 270.669 96.1205 270.568 95.6511 270.568C95.1605 270.568 94.7285 270.675 94.3551 270.888C93.9818 271.101 93.6938 271.4 93.4911 271.784C93.2885 272.168 93.1871 272.621 93.1871 273.144C93.1871 273.677 93.2938 274.147 93.5071 274.552C93.7205 274.947 94.0245 275.256 94.4191 275.48C94.8138 275.693 95.2671 275.8 95.7791 275.8C96.2058 275.8 96.5951 275.725 96.9471 275.576C97.3098 275.427 97.6191 275.203 97.8751 274.904L98.8031 275.848C98.4405 276.275 97.9925 276.6 97.4591 276.824C96.9365 277.048 96.3765 277.16 95.7791 277.16ZM100.837 277V269.4H102.277V277H100.837ZM102.277 272.664L101.733 272.424C101.733 271.453 101.957 270.68 102.405 270.104C102.853 269.528 103.499 269.24 104.341 269.24C104.725 269.24 105.072 269.309 105.381 269.448C105.691 269.576 105.979 269.795 106.245 270.104L105.301 271.08C105.141 270.909 104.965 270.787 104.773 270.712C104.581 270.637 104.357 270.6 104.101 270.6C103.568 270.6 103.131 270.771 102.789 271.112C102.448 271.453 102.277 271.971 102.277 272.664ZM110.529 277.16C109.772 277.16 109.089 276.989 108.481 276.648C107.873 276.296 107.393 275.821 107.041 275.224C106.689 274.627 106.513 273.949 106.513 273.192C106.513 272.445 106.684 271.773 107.025 271.176C107.377 270.579 107.846 270.109 108.433 269.768C109.03 269.416 109.697 269.24 110.433 269.24C111.137 269.24 111.756 269.4 112.289 269.72C112.833 270.04 113.254 270.483 113.553 271.048C113.862 271.613 114.017 272.253 114.017 272.968C114.017 273.075 114.012 273.192 114.001 273.32C113.99 273.437 113.969 273.576 113.937 273.736H107.521V272.536H113.169L112.641 273C112.641 272.488 112.55 272.056 112.369 271.704C112.188 271.341 111.932 271.064 111.601 270.872C111.27 270.669 110.87 270.568 110.401 270.568C109.91 270.568 109.478 270.675 109.105 270.888C108.732 271.101 108.444 271.4 108.241 271.784C108.038 272.168 107.937 272.621 107.937 273.144C107.937 273.677 108.044 274.147 108.257 274.552C108.47 274.947 108.774 275.256 109.169 275.48C109.564 275.693 110.017 275.8 110.529 275.8C110.956 275.8 111.345 275.725 111.697 275.576C112.06 275.427 112.369 275.203 112.625 274.904L113.553 275.848C113.19 276.275 112.742 276.6 112.209 276.824C111.686 277.048 111.126 277.16 110.529 277.16ZM118.931 277V269.4H120.371V277H118.931ZM119.651 267.88C119.385 267.88 119.166 267.795 118.995 267.624C118.825 267.443 118.739 267.219 118.739 266.952C118.739 266.696 118.825 266.483 118.995 266.312C119.166 266.131 119.385 266.04 119.651 266.04C119.918 266.04 120.137 266.131 120.307 266.312C120.478 266.483 120.563 266.696 120.563 266.952C120.563 267.219 120.478 267.443 120.307 267.624C120.137 267.795 119.918 267.88 119.651 267.88ZM127.87 277V272.568C127.87 271.992 127.688 271.517 127.326 271.144C126.963 270.771 126.494 270.584 125.918 270.584C125.534 270.584 125.192 270.669 124.894 270.84C124.595 271.011 124.36 271.245 124.19 271.544C124.019 271.843 123.934 272.184 123.934 272.568L123.342 272.232C123.342 271.656 123.47 271.144 123.726 270.696C123.982 270.248 124.339 269.896 124.798 269.64C125.256 269.373 125.774 269.24 126.35 269.24C126.926 269.24 127.432 269.384 127.87 269.672C128.318 269.96 128.67 270.339 128.926 270.808C129.182 271.267 129.31 271.757 129.31 272.28V277H127.87ZM122.493 277V269.4H123.934V277H122.493ZM137.499 277.16C136.742 277.16 136.065 277.027 135.467 276.76C134.881 276.483 134.385 276.083 133.979 275.56L135.003 274.536C135.249 274.909 135.585 275.208 136.011 275.432C136.449 275.645 136.934 275.752 137.467 275.752C137.969 275.752 138.406 275.656 138.779 275.464C139.163 275.272 139.462 275.005 139.675 274.664C139.899 274.312 140.011 273.896 140.011 273.416C140.011 272.925 139.905 272.509 139.691 272.168C139.478 271.827 139.19 271.571 138.827 271.4C138.475 271.219 138.086 271.128 137.659 271.128C137.222 271.128 136.822 271.181 136.459 271.288C136.107 271.395 135.771 271.576 135.451 271.832L135.467 270.872C135.649 270.648 135.857 270.467 136.091 270.328C136.326 270.189 136.593 270.083 136.891 270.008C137.19 269.933 137.537 269.896 137.931 269.896C138.699 269.896 139.35 270.056 139.883 270.376C140.417 270.696 140.822 271.128 141.099 271.672C141.387 272.216 141.531 272.824 141.531 273.496C141.531 274.2 141.355 274.829 141.003 275.384C140.662 275.939 140.187 276.376 139.579 276.696C138.971 277.005 138.278 277.16 137.499 277.16ZM135.451 271.832L134.635 271.016L135.131 265.896H136.507L135.947 271.16L135.451 271.832ZM135.435 267.24L135.131 265.896H140.971V267.24H135.435ZM146.572 277V269.4H148.012V277H146.572ZM151.708 277V272.408C151.708 271.843 151.532 271.4 151.18 271.08C150.838 270.749 150.406 270.584 149.884 270.584C149.532 270.584 149.217 270.659 148.94 270.808C148.662 270.957 148.438 271.165 148.268 271.432C148.097 271.699 148.012 272.019 148.012 272.392L147.42 272.104C147.42 271.528 147.542 271.027 147.788 270.6C148.044 270.173 148.39 269.843 148.828 269.608C149.265 269.363 149.756 269.24 150.3 269.24C150.833 269.24 151.313 269.357 151.74 269.592C152.177 269.827 152.518 270.157 152.764 270.584C153.02 271.011 153.148 271.517 153.148 272.104V277H151.708ZM156.844 277V272.408C156.844 271.843 156.668 271.4 156.316 271.08C155.974 270.749 155.548 270.584 155.036 270.584C154.684 270.584 154.364 270.659 154.076 270.808C153.798 270.957 153.574 271.165 153.404 271.432C153.233 271.699 153.148 272.019 153.148 272.392L152.332 272.104C152.364 271.517 152.518 271.016 152.796 270.6C153.084 270.173 153.452 269.843 153.9 269.608C154.348 269.363 154.838 269.24 155.372 269.24C155.926 269.24 156.422 269.357 156.86 269.592C157.297 269.827 157.644 270.157 157.9 270.584C158.166 271.011 158.3 271.523 158.3 272.12V277H156.844ZM160.275 277V269.4H161.715V277H160.275ZM160.995 267.88C160.728 267.88 160.51 267.795 160.339 267.624C160.168 267.443 160.083 267.219 160.083 266.952C160.083 266.696 160.168 266.483 160.339 266.312C160.51 266.131 160.728 266.04 160.995 266.04C161.262 266.04 161.48 266.131 161.651 266.312C161.822 266.483 161.907 266.696 161.907 266.952C161.907 267.219 161.822 267.443 161.651 267.624C161.48 267.795 161.262 267.88 160.995 267.88ZM169.213 277V272.568C169.213 271.992 169.032 271.517 168.669 271.144C168.307 270.771 167.837 270.584 167.261 270.584C166.877 270.584 166.536 270.669 166.237 270.84C165.939 271.011 165.704 271.245 165.533 271.544C165.363 271.843 165.277 272.184 165.277 272.568L164.685 272.232C164.685 271.656 164.813 271.144 165.069 270.696C165.325 270.248 165.683 269.896 166.141 269.64C166.6 269.373 167.117 269.24 167.693 269.24C168.269 269.24 168.776 269.384 169.213 269.672C169.661 269.96 170.013 270.339 170.269 270.808C170.525 271.267 170.653 271.757 170.653 272.28V277H169.213ZM163.837 277V269.4H165.277V277H163.837ZM175.659 277.16C175.04 277.16 174.48 277.021 173.979 276.744C173.488 276.456 173.104 276.061 172.827 275.56C172.55 275.059 172.411 274.477 172.411 273.816V269.4H173.851V273.752C173.851 274.168 173.92 274.531 174.059 274.84C174.208 275.139 174.422 275.368 174.699 275.528C174.976 275.688 175.302 275.768 175.675 275.768C176.24 275.768 176.683 275.592 177.003 275.24C177.323 274.877 177.483 274.381 177.483 273.752V269.4H178.923V273.816C178.923 274.477 178.784 275.059 178.507 275.56C178.23 276.061 177.846 276.456 177.355 276.744C176.875 277.021 176.31 277.16 175.659 277.16ZM182.021 277V266.216H183.461V277H182.021ZM180.149 270.712V269.4H185.333V270.712H180.149ZM190.029 277.16C189.272 277.16 188.589 276.989 187.981 276.648C187.373 276.296 186.893 275.821 186.541 275.224C186.189 274.627 186.013 273.949 186.013 273.192C186.013 272.445 186.184 271.773 186.525 271.176C186.877 270.579 187.346 270.109 187.933 269.768C188.53 269.416 189.197 269.24 189.933 269.24C190.637 269.24 191.256 269.4 191.789 269.72C192.333 270.04 192.754 270.483 193.053 271.048C193.362 271.613 193.517 272.253 193.517 272.968C193.517 273.075 193.512 273.192 193.501 273.32C193.49 273.437 193.469 273.576 193.437 273.736H187.021V272.536H192.669L192.141 273C192.141 272.488 192.05 272.056 191.869 271.704C191.688 271.341 191.432 271.064 191.101 270.872C190.77 270.669 190.37 270.568 189.901 270.568C189.41 270.568 188.978 270.675 188.605 270.888C188.232 271.101 187.944 271.4 187.741 271.784C187.538 272.168 187.437 272.621 187.437 273.144C187.437 273.677 187.544 274.147 187.757 274.552C187.97 274.947 188.274 275.256 188.669 275.48C189.064 275.693 189.517 275.8 190.029 275.8C190.456 275.8 190.845 275.725 191.197 275.576C191.56 275.427 191.869 275.203 192.125 274.904L193.053 275.848C192.69 276.275 192.242 276.6 191.709 276.824C191.186 277.048 190.626 277.16 190.029 277.16ZM197.503 277.16C197.077 277.16 196.671 277.107 196.287 277C195.914 276.883 195.567 276.723 195.247 276.52C194.927 276.307 194.65 276.056 194.415 275.768L195.343 274.84C195.621 275.181 195.941 275.437 196.303 275.608C196.666 275.768 197.071 275.848 197.519 275.848C197.967 275.848 198.314 275.773 198.559 275.624C198.805 275.464 198.927 275.245 198.927 274.968C198.927 274.691 198.826 274.477 198.623 274.328C198.431 274.168 198.181 274.04 197.871 273.944C197.562 273.837 197.231 273.736 196.879 273.64C196.538 273.533 196.213 273.4 195.903 273.24C195.594 273.08 195.338 272.861 195.135 272.584C194.943 272.307 194.847 271.939 194.847 271.48C194.847 271.021 194.959 270.627 195.183 270.296C195.407 269.955 195.717 269.693 196.111 269.512C196.517 269.331 197.002 269.24 197.567 269.24C198.165 269.24 198.693 269.347 199.151 269.56C199.621 269.763 200.005 270.072 200.303 270.488L199.375 271.416C199.162 271.139 198.895 270.925 198.575 270.776C198.266 270.627 197.914 270.552 197.519 270.552C197.103 270.552 196.783 270.627 196.559 270.776C196.346 270.915 196.239 271.112 196.239 271.368C196.239 271.624 196.335 271.821 196.527 271.96C196.719 272.099 196.97 272.216 197.279 272.312C197.599 272.408 197.93 272.509 198.271 272.616C198.613 272.712 198.938 272.845 199.247 273.016C199.557 273.187 199.807 273.416 199.999 273.704C200.202 273.992 200.303 274.371 200.303 274.84C200.303 275.555 200.047 276.12 199.535 276.536C199.034 276.952 198.357 277.16 197.503 277.16ZM203.179 277.16C202.881 277.16 202.63 277.059 202.427 276.856C202.235 276.643 202.139 276.392 202.139 276.104C202.139 275.805 202.235 275.56 202.427 275.368C202.63 275.165 202.881 275.064 203.179 275.064C203.478 275.064 203.723 275.165 203.915 275.368C204.118 275.56 204.219 275.805 204.219 276.104C204.219 276.392 204.118 276.643 203.915 276.856C203.723 277.059 203.478 277.16 203.179 277.16Z" fill="white"/>
<path d="M215.528 283L218.756 275.128L219.356 275.224L216.188 283H215.528ZM213.98 275.38V274.816H219.356V275.224L219.068 275.38H213.98ZM221.471 283.12C221.311 283.12 221.175 283.06 221.063 282.94C220.959 282.82 220.907 282.684 220.907 282.532C220.907 282.364 220.959 282.224 221.063 282.112C221.175 282 221.311 281.944 221.471 281.944C221.639 281.944 221.779 282 221.891 282.112C222.003 282.224 222.059 282.364 222.059 282.532C222.059 282.684 222.003 282.82 221.891 282.94C221.779 283.06 221.639 283.12 221.471 283.12ZM221.471 279.316C221.311 279.316 221.175 279.256 221.063 279.136C220.959 279.016 220.907 278.88 220.907 278.728C220.907 278.56 220.959 278.42 221.063 278.308C221.175 278.196 221.311 278.14 221.471 278.14C221.639 278.14 221.779 278.196 221.891 278.308C222.003 278.42 222.059 278.56 222.059 278.728C222.059 278.88 222.003 279.016 221.891 279.136C221.779 279.256 221.639 279.316 221.471 279.316ZM227.07 283.12C226.47 283.12 225.922 282.948 225.426 282.604C224.93 282.252 224.534 281.76 224.238 281.128C223.95 280.496 223.806 279.752 223.806 278.896C223.806 278.032 223.95 277.288 224.238 276.664C224.526 276.04 224.914 275.556 225.402 275.212C225.898 274.868 226.442 274.696 227.034 274.696C227.642 274.696 228.19 274.868 228.678 275.212C229.174 275.556 229.566 276.044 229.854 276.676C230.142 277.3 230.286 278.044 230.286 278.908C230.286 279.764 230.142 280.508 229.854 281.14C229.566 281.772 229.178 282.26 228.69 282.604C228.202 282.948 227.662 283.12 227.07 283.12ZM227.046 282.52C227.542 282.52 227.986 282.38 228.378 282.1C228.77 281.812 229.078 281.396 229.302 280.852C229.534 280.308 229.65 279.656 229.65 278.896C229.65 278.136 229.534 277.488 229.302 276.952C229.078 276.416 228.77 276.004 228.378 275.716C227.986 275.428 227.538 275.284 227.034 275.284C226.546 275.284 226.106 275.428 225.714 275.716C225.322 276.004 225.01 276.416 224.778 276.952C224.554 277.488 224.442 278.136 224.442 278.896C224.442 279.656 224.554 280.308 224.778 280.852C225.01 281.396 225.322 281.812 225.714 282.1C226.106 282.38 226.55 282.52 227.046 282.52ZM232.988 283L235.616 279.616L235.832 279.592C235.704 279.712 235.56 279.816 235.4 279.904C235.24 279.992 235.068 280.06 234.884 280.108C234.7 280.156 234.496 280.18 234.272 280.18C233.792 280.18 233.348 280.06 232.94 279.82C232.54 279.572 232.216 279.244 231.968 278.836C231.728 278.42 231.608 277.964 231.608 277.468C231.608 276.956 231.732 276.492 231.98 276.076C232.236 275.652 232.576 275.316 233 275.068C233.424 274.82 233.892 274.696 234.404 274.696C234.924 274.696 235.392 274.82 235.808 275.068C236.232 275.308 236.564 275.636 236.804 276.052C237.052 276.468 237.176 276.932 237.176 277.444C237.176 278.116 236.944 278.76 236.48 279.376L233.732 283H232.988ZM234.392 279.664C234.792 279.664 235.156 279.568 235.484 279.376C235.812 279.176 236.072 278.912 236.264 278.584C236.456 278.248 236.552 277.876 236.552 277.468C236.552 277.052 236.456 276.68 236.264 276.352C236.072 276.016 235.812 275.752 235.484 275.56C235.156 275.36 234.792 275.26 234.392 275.26C234 275.26 233.64 275.36 233.312 275.56C232.984 275.76 232.724 276.028 232.532 276.364C232.34 276.692 232.244 277.06 232.244 277.468C232.244 277.868 232.34 278.236 232.532 278.572C232.724 278.9 232.984 279.164 233.312 279.364C233.64 279.564 234 279.664 234.392 279.664ZM241.977 279.616V279.052H244.569C244.945 279.052 245.277 278.98 245.565 278.836C245.853 278.684 246.081 278.472 246.249 278.2C246.417 277.92 246.501 277.592 246.501 277.216C246.501 276.84 246.417 276.516 246.249 276.244C246.081 275.964 245.853 275.752 245.565 275.608C245.277 275.456 244.945 275.38 244.569 275.38H241.977V274.816H244.641C245.121 274.816 245.545 274.916 245.913 275.116C246.289 275.308 246.585 275.584 246.801 275.944C247.025 276.304 247.137 276.728 247.137 277.216C247.137 277.704 247.025 278.128 246.801 278.488C246.585 278.84 246.289 279.116 245.913 279.316C245.545 279.516 245.121 279.616 244.641 279.616H241.977ZM241.593 283V274.816H242.229V283H241.593ZM248.8 283V274.816H249.256L252.856 280.72H252.508L256.108 274.816H256.564V283H255.928V275.908L256.084 275.944L252.916 281.14H252.46L249.292 275.944L249.436 275.908V283H248.8Z" fill="white"/>
<path d="M29.4997 314C29.4997 314 23.762 314 22.2998 314C20.8377 314 20.4998 315.5 21.8498 317C23.1999 318.5 29.0004 323.5 29.4998 325C29.4999 316 29.4997 314 29.4997 314Z" fill="#93B1BA" fill-opacity="0.3"/>
<path d="M29.5 314H155.5C159.918 314 163.5 317.582 163.5 322V347C163.5 351.418 159.918 355 155.5 355H37.5C33.0817 355 29.5 351.418 29.5 347V314Z" fill="#93B1BA" fill-opacity="0.3"/>
<path d="M46.4238 331.709V332.338C46.4238 333.085 46.3304 333.755 46.1436 334.348C45.9567 334.94 45.6878 335.444 45.3369 335.858C44.986 336.273 44.5645 336.59 44.0723 336.809C43.5846 337.027 43.0378 337.137 42.4316 337.137C41.8438 337.137 41.3037 337.027 40.8115 336.809C40.3239 336.59 39.9001 336.273 39.54 335.858C39.1846 335.444 38.9089 334.94 38.7129 334.348C38.5169 333.755 38.4189 333.085 38.4189 332.338V331.709C38.4189 330.962 38.5146 330.294 38.7061 329.706C38.902 329.114 39.1777 328.61 39.5332 328.195C39.8887 327.776 40.3102 327.457 40.7979 327.238C41.29 327.02 41.8301 326.91 42.418 326.91C43.0241 326.91 43.571 327.02 44.0586 327.238C44.5508 327.457 44.9723 327.776 45.3232 328.195C45.6787 328.61 45.9499 329.114 46.1367 329.706C46.3281 330.294 46.4238 330.962 46.4238 331.709ZM45.1182 332.338V331.695C45.1182 331.103 45.0566 330.579 44.9336 330.123C44.8151 329.667 44.6396 329.285 44.4072 328.975C44.1748 328.665 43.89 328.43 43.5527 328.271C43.2201 328.111 42.8418 328.031 42.418 328.031C42.0078 328.031 41.6364 328.111 41.3037 328.271C40.9756 328.43 40.693 328.665 40.4561 328.975C40.2236 329.285 40.0436 329.667 39.916 330.123C39.7884 330.579 39.7246 331.103 39.7246 331.695V332.338C39.7246 332.935 39.7884 333.464 39.916 333.924C40.0436 334.38 40.2259 334.765 40.4629 335.079C40.7044 335.389 40.9893 335.624 41.3174 335.783C41.6501 335.943 42.0215 336.022 42.4316 336.022C42.86 336.022 43.2406 335.943 43.5732 335.783C43.9059 335.624 44.1862 335.389 44.4141 335.079C44.6465 334.765 44.8219 334.38 44.9404 333.924C45.0589 333.464 45.1182 332.935 45.1182 332.338ZM49.4727 331.183V337H48.208V329.604H49.4043L49.4727 331.183ZM49.1719 333.021L48.6455 333.001C48.6501 332.495 48.7253 332.028 48.8711 331.6C49.0169 331.167 49.222 330.791 49.4863 330.472C49.7507 330.153 50.0651 329.907 50.4297 329.733C50.7988 329.556 51.2067 329.467 51.6533 329.467C52.0179 329.467 52.346 329.517 52.6377 329.617C52.9294 329.713 53.1777 329.868 53.3828 330.082C53.5924 330.296 53.752 330.574 53.8613 330.916C53.9707 331.253 54.0254 331.666 54.0254 332.153V337H52.7539V332.14C52.7539 331.752 52.6969 331.442 52.583 331.21C52.4691 330.973 52.3027 330.802 52.084 330.697C51.8652 330.588 51.5964 330.533 51.2773 330.533C50.9629 330.533 50.6758 330.599 50.416 330.731C50.1608 330.864 49.9398 331.046 49.7529 331.278C49.5706 331.511 49.4271 331.777 49.3223 332.078C49.222 332.374 49.1719 332.689 49.1719 333.021ZM60.6768 331.073V337H59.4053V329.604H60.6084L60.6768 331.073ZM60.417 333.021L59.8291 333.001C59.8337 332.495 59.8997 332.028 60.0273 331.6C60.1549 331.167 60.3441 330.791 60.5947 330.472C60.8454 330.153 61.1576 329.907 61.5312 329.733C61.9049 329.556 62.3379 329.467 62.8301 329.467C63.1764 329.467 63.4954 329.517 63.7871 329.617C64.0788 329.713 64.3317 329.866 64.5459 330.075C64.7601 330.285 64.9264 330.554 65.0449 330.882C65.1634 331.21 65.2227 331.606 65.2227 332.071V337H63.958V332.133C63.958 331.745 63.8919 331.436 63.7598 331.203C63.6322 330.971 63.4499 330.802 63.2129 330.697C62.9759 330.588 62.6979 330.533 62.3789 330.533C62.0052 330.533 61.693 330.599 61.4424 330.731C61.1917 330.864 60.9912 331.046 60.8408 331.278C60.6904 331.511 60.5811 331.777 60.5127 332.078C60.4489 332.374 60.417 332.689 60.417 333.021ZM65.209 332.324L64.3613 332.584C64.3659 332.178 64.432 331.789 64.5596 331.415C64.6917 331.041 64.8809 330.709 65.127 330.417C65.3776 330.125 65.6852 329.895 66.0498 329.727C66.4144 329.553 66.8314 329.467 67.3008 329.467C67.6973 329.467 68.0482 329.519 68.3535 329.624C68.6634 329.729 68.9232 329.891 69.1328 330.109C69.347 330.324 69.5088 330.599 69.6182 330.937C69.7275 331.274 69.7822 331.675 69.7822 332.14V337H68.5107V332.126C68.5107 331.711 68.4447 331.39 68.3125 331.162C68.1849 330.93 68.0026 330.768 67.7656 330.677C67.5332 330.581 67.2552 330.533 66.9316 330.533C66.6536 330.533 66.4076 330.581 66.1934 330.677C65.9792 330.772 65.7992 330.905 65.6533 331.073C65.5075 331.237 65.3958 331.426 65.3184 331.641C65.2454 331.855 65.209 332.083 65.209 332.324ZM73.7744 336.234L75.832 329.604H77.1855L74.2188 338.142C74.1504 338.324 74.0592 338.52 73.9453 338.729C73.8359 338.944 73.6947 339.146 73.5215 339.338C73.3483 339.529 73.1387 339.684 72.8926 339.803C72.651 339.926 72.3617 339.987 72.0244 339.987C71.9242 339.987 71.7965 339.974 71.6416 339.946C71.4867 339.919 71.3773 339.896 71.3135 339.878L71.3066 338.853C71.3431 338.857 71.4001 338.862 71.4775 338.866C71.5596 338.875 71.6165 338.88 71.6484 338.88C71.9355 338.88 72.1794 338.841 72.3799 338.764C72.5804 338.691 72.749 338.565 72.8857 338.388C73.027 338.215 73.1478 337.975 73.248 337.67L73.7744 336.234ZM72.2637 329.604L74.1846 335.346L74.5127 336.679L73.6035 337.144L70.8828 329.604H72.2637ZM83.6729 335.688L85.5732 329.604H86.4072L86.2432 330.813L84.3086 337H83.4951L83.6729 335.688ZM82.3945 329.604L84.0146 335.756L84.1309 337H83.2764L81.1299 329.604H82.3945ZM88.2256 335.708L89.7705 329.604H91.0283L88.8818 337H88.0342L88.2256 335.708ZM86.5918 329.604L88.4512 335.585L88.6631 337H87.8564L85.8672 330.8L85.7031 329.604H86.5918ZM96.6885 335.735V331.928C96.6885 331.636 96.6292 331.383 96.5107 331.169C96.3968 330.95 96.2236 330.782 95.9912 330.663C95.7588 330.545 95.4717 330.485 95.1299 330.485C94.8109 330.485 94.5306 330.54 94.2891 330.649C94.0521 330.759 93.8652 330.902 93.7285 331.08C93.5964 331.258 93.5303 331.449 93.5303 331.654H92.2656C92.2656 331.39 92.334 331.128 92.4707 330.868C92.6074 330.608 92.8034 330.374 93.0586 330.164C93.3184 329.95 93.6283 329.781 93.9883 329.658C94.3529 329.531 94.7585 329.467 95.2051 329.467C95.7428 329.467 96.2168 329.558 96.627 329.74C97.0417 329.923 97.3652 330.198 97.5977 330.567C97.8346 330.932 97.9531 331.39 97.9531 331.941V335.387C97.9531 335.633 97.9736 335.895 98.0146 336.173C98.0602 336.451 98.1263 336.69 98.2129 336.891V337H96.8936C96.8298 336.854 96.7796 336.66 96.7432 336.419C96.7067 336.173 96.6885 335.945 96.6885 335.735ZM96.9072 332.516L96.9209 333.404H95.6426C95.2826 333.404 94.9613 333.434 94.6787 333.493C94.3962 333.548 94.1592 333.632 93.9678 333.746C93.7764 333.86 93.6305 334.004 93.5303 334.177C93.43 334.345 93.3799 334.544 93.3799 334.771C93.3799 335.004 93.4323 335.216 93.5371 335.407C93.6419 335.599 93.7992 335.751 94.0088 335.865C94.223 335.975 94.485 336.029 94.7949 336.029C95.1823 336.029 95.5241 335.947 95.8203 335.783C96.1165 335.619 96.3512 335.419 96.5244 335.182C96.7021 334.945 96.7979 334.715 96.8115 334.491L97.3516 335.1C97.3197 335.291 97.2331 335.503 97.0918 335.735C96.9505 335.968 96.7614 336.191 96.5244 336.405C96.292 336.615 96.014 336.79 95.6904 336.932C95.3714 337.068 95.0114 337.137 94.6104 337.137C94.109 337.137 93.6693 337.039 93.291 336.843C92.9173 336.647 92.6257 336.385 92.416 336.057C92.2109 335.724 92.1084 335.353 92.1084 334.942C92.1084 334.546 92.1859 334.197 92.3408 333.896C92.4958 333.591 92.7191 333.338 93.0107 333.138C93.3024 332.933 93.6533 332.778 94.0635 332.673C94.4736 332.568 94.9316 332.516 95.4375 332.516H96.9072ZM101.911 336.234L103.969 329.604H105.322L102.355 338.142C102.287 338.324 102.196 338.52 102.082 338.729C101.973 338.944 101.831 339.146 101.658 339.338C101.485 339.529 101.275 339.684 101.029 339.803C100.788 339.926 100.498 339.987 100.161 339.987C100.061 339.987 99.9333 339.974 99.7783 339.946C99.6234 339.919 99.514 339.896 99.4502 339.878L99.4434 338.853C99.4798 338.857 99.5368 338.862 99.6143 338.866C99.6963 338.875 99.7533 338.88 99.7852 338.88C100.072 338.88 100.316 338.841 100.517 338.764C100.717 338.691 100.886 338.565 101.022 338.388C101.164 338.215 101.285 337.975 101.385 337.67L101.911 336.234ZM100.4 329.604L102.321 335.346L102.649 336.679L101.74 337.144L99.0195 329.604H100.4Z" fill="white"/>
<path d="M115.528 344L118.756 336.128L119.356 336.224L116.188 344H115.528ZM113.98 336.38V335.816H119.356V336.224L119.068 336.38H113.98ZM121.471 344.12C121.311 344.12 121.175 344.06 121.063 343.94C120.959 343.82 120.907 343.684 120.907 343.532C120.907 343.364 120.959 343.224 121.063 343.112C121.175 343 121.311 342.944 121.471 342.944C121.639 342.944 121.779 343 121.891 343.112C122.003 343.224 122.059 343.364 122.059 343.532C122.059 343.684 122.003 343.82 121.891 343.94C121.779 344.06 121.639 344.12 121.471 344.12ZM121.471 340.316C121.311 340.316 121.175 340.256 121.063 340.136C120.959 340.016 120.907 339.88 120.907 339.728C120.907 339.56 120.959 339.42 121.063 339.308C121.175 339.196 121.311 339.14 121.471 339.14C121.639 339.14 121.779 339.196 121.891 339.308C122.003 339.42 122.059 339.56 122.059 339.728C122.059 339.88 122.003 340.016 121.891 340.136C121.779 340.256 121.639 340.316 121.471 340.316ZM125.354 344V335.816H125.966V344H125.354ZM123.578 336.38V335.816H125.846V336.38H123.578ZM131.031 344.12C130.431 344.12 129.883 343.948 129.387 343.604C128.891 343.252 128.495 342.76 128.199 342.128C127.911 341.496 127.767 340.752 127.767 339.896C127.767 339.032 127.911 338.288 128.199 337.664C128.487 337.04 128.875 336.556 129.363 336.212C129.859 335.868 130.403 335.696 130.995 335.696C131.603 335.696 132.151 335.868 132.639 336.212C133.135 336.556 133.527 337.044 133.815 337.676C134.103 338.3 134.247 339.044 134.247 339.908C134.247 340.764 134.103 341.508 133.815 342.14C133.527 342.772 133.139 343.26 132.651 343.604C132.163 343.948 131.623 344.12 131.031 344.12ZM131.007 343.52C131.503 343.52 131.947 343.38 132.339 343.1C132.731 342.812 133.039 342.396 133.263 341.852C133.495 341.308 133.611 340.656 133.611 339.896C133.611 339.136 133.495 338.488 133.263 337.952C133.039 337.416 132.731 337.004 132.339 336.716C131.947 336.428 131.499 336.284 130.995 336.284C130.507 336.284 130.067 336.428 129.675 336.716C129.283 337.004 128.971 337.416 128.739 337.952C128.515 338.488 128.403 339.136 128.403 339.896C128.403 340.656 128.515 341.308 128.739 341.852C128.971 342.396 129.283 342.812 129.675 343.1C130.067 343.38 130.511 343.52 131.007 343.52ZM139.129 340.616V340.052H141.721C142.097 340.052 142.429 339.98 142.717 339.836C143.005 339.684 143.233 339.472 143.401 339.2C143.569 338.92 143.653 338.592 143.653 338.216C143.653 337.84 143.569 337.516 143.401 337.244C143.233 336.964 143.005 336.752 142.717 336.608C142.429 336.456 142.097 336.38 141.721 336.38H139.129V335.816H141.793C142.273 335.816 142.697 335.916 143.065 336.116C143.441 336.308 143.737 336.584 143.953 336.944C144.177 337.304 144.289 337.728 144.289 338.216C144.289 338.704 144.177 339.128 143.953 339.488C143.737 339.84 143.441 340.116 143.065 340.316C142.697 340.516 142.273 340.616 141.793 340.616H139.129ZM138.745 344V335.816H139.381V344H138.745ZM145.952 344V335.816H146.408L150.008 341.72H149.66L153.26 335.816H153.716V344H153.08V336.908L153.236 336.944L150.068 342.14H149.612L146.444 336.944L146.588 336.908V344H145.952Z" fill="white"/>
</svg>
