<svg width="141" height="103" viewBox="0 0 141 103" fill="none" xmlns="http://www.w3.org/2000/svg">
<rect width="141" height="103" fill="#0A304C"/>
<g clip-path="url(#clip0_2933_16988)">
<path d="M73.8993 27H83.5951L96.6772 60.5819L91.2888 62.6328L83.9039 43.0791L67.5898 59.1638L69.4374 64.8362L64.2035 66.7288L54.6621 41.0339H50.3492V35.1977H65.2789V41.0339H60.6627L65.4334 53.1695L81.1297 37.4068L79.591 32.8362H73.5132L73.8993 27Z" fill="#F28B2F"/>
<path d="M96.2911 48.7345L98.5138 54.6328C99.2638 55.1921 100.582 56.3277 101.514 58.1921C102.237 59.6384 102.446 60.9661 102.512 61.8079C102.485 62.5085 102.303 65.3503 99.9367 67.7571C97.4438 70.2938 94.3056 70.5254 93.6328 70.5593C93.0261 70.5424 89.6177 70.4068 87.0697 67.6836C85.029 65.5028 84.7919 63 84.7533 62.2373V59.6441L83.0325 53.5706C82.492 54.13 81.8522 54.904 81.2787 55.9266C80.4238 57.4576 80.0763 58.8927 79.9274 59.8588C79.8557 60.5028 79.784 61.1526 79.7178 61.7966C79.6572 62.5819 79.3207 67.9209 83.5951 72.1074C87.6432 76.0735 92.7724 76.0226 93.6328 76C94.3829 76.0396 100.61 76.2486 104.834 71.4181C108.088 67.7006 108.039 63.4124 107.994 62.3616C108.044 61.5141 108.254 56.4181 104.206 52.4407C101.15 49.4407 97.4769 48.8588 96.3022 48.7232L96.2911 48.7345Z" fill="#F28B2F"/>
<path d="M53.5425 51.9378C52.7042 51.3785 50.6801 50.2768 48.1045 50.7458C45.5234 51.2147 44.0343 52.9491 43.6427 53.435C43.1959 54.0226 41.9991 55.7627 41.8999 58.3277C41.8006 60.8249 42.7988 62.6215 43.1904 63.2542C45.1869 65.7175 48.3417 66.8192 51.2978 66.0904C54.971 65.1808 56.5208 61.8927 56.8737 61.0339C56.9123 60.9435 56.9344 60.8757 56.9454 60.8475L59.9181 67.8192L57.4804 69.7571L59.1074 74.4068L52.3347 77.0056L50.8235 72.4633L47.4868 72.3842L45.2366 76.4859L39.3518 73.4689L40.9347 68.9435L39.0209 66.7232L34.4929 68.6158L32 61.8192L36.2909 59.8757L36.6714 56.2994L32.2316 54.9096L34.6914 48.0508L39.5062 49.5876L41.8833 47.4068L40.1681 42.7119L46.4224 40.3107C47.1228 41.8249 47.8232 43.339 48.5237 44.8588C49.4392 44.9717 50.3602 45.0791 51.2758 45.1921" fill="#F28B2F"/>
</g>
<defs>
<clipPath id="clip0_2933_16988">
<rect width="76" height="50" fill="white" transform="translate(32 27)"/>
</clipPath>
</defs>
</svg>
