<svg width="225" height="125" viewBox="0 0 225 125" fill="none" xmlns="http://www.w3.org/2000/svg">
<rect x="81.5" y="13.5" width="63" height="99" rx="4.5" stroke="#9747FF" stroke-dasharray="10 5"/>
<path fill-rule="evenodd" clip-rule="evenodd" d="M118.707 37.2929C119.098 37.6834 119.098 38.3166 118.707 38.7071L118.144 39.2701L119.399 43.0357C119.596 43.0121 119.797 43 120 43C122.761 43 125 45.2386 125 48C125 50.7614 122.761 53 120 53C117.239 53 115 50.7614 115 48C115 47.0603 115.259 46.1811 115.71 45.43L114.876 46.5025L113.928 48.8714C113.777 49.251 113.409 49.5 113 49.5H110.771C110.134 51.5285 108.239 53 106 53C103.239 53 101 50.7614 101 48C101 45.2386 103.239 43 106 43C106.669 43 107.308 43.1316 107.892 43.3703L108.016 43.2873C106.445 42.6007 104.471 42.7716 103.1 43.8C102.658 44.1314 102.031 44.0418 101.7 43.6C101.369 43.1582 101.458 42.5314 101.9 42.2C104.184 40.4871 107.533 40.435 109.882 42.0436L111.945 40.6679C112.11 40.5584 112.303 40.5 112.5 40.5H116.446L116.051 39.3162C115.932 38.9569 116.025 38.5607 116.293 38.2929L117.293 37.2929C117.683 36.9024 118.317 36.9024 118.707 37.2929ZM115.455 42.5H112.803L109.661 44.5945C110.385 45.3728 110.864 46.3822 110.975 47.5H112.323L113.072 45.6286C113.106 45.5416 113.153 45.46 113.211 45.3861L115.455 42.5ZM108.959 47.5C108.72 46.0812 107.486 45 106 45C104.343 45 103 46.3432 103 48C103 49.6568 104.343 51 106 51C107.11 51 108.08 50.3967 108.599 49.5H106.5C105.948 49.5 105.5 49.0523 105.5 48.5C105.5 47.9477 105.948 47.5 106.5 47.5H108.959ZM117.376 43.2889L116.449 44.4797C116.762 44.1648 117.115 43.8912 117.502 43.6679L117.376 43.2889ZM118.157 45.6328C117.453 46.1818 117 47.038 117 48C117 49.6568 118.343 51 120 51C121.657 51 123 49.6568 123 48C123 46.3613 121.686 45.0294 120.054 45.0005L120.949 47.6838C121.123 48.2077 120.84 48.774 120.316 48.9487C119.792 49.1233 119.226 48.8402 119.051 48.3162L118.157 45.6328Z" fill="#0A304C"/>
<path fill-rule="evenodd" clip-rule="evenodd" d="M118.707 75.2929C119.098 75.6834 119.098 76.3166 118.707 76.7071L118.144 77.2701L119.399 81.0357C119.596 81.0121 119.797 81 120 81C122.761 81 125 83.2386 125 86C125 88.7614 122.761 91 120 91C117.239 91 115 88.7614 115 86C115 85.0603 115.259 84.1811 115.71 83.43L114.876 84.5025L113.928 86.8714C113.777 87.251 113.409 87.5 113 87.5H110.771C110.134 89.5285 108.239 91 106 91C103.239 91 101 88.7614 101 86C101 83.2386 103.239 81 106 81C106.669 81 107.308 81.1316 107.892 81.3703L108.016 81.2873C106.445 80.6007 104.471 80.7716 103.1 81.8C102.658 82.1314 102.031 82.0418 101.7 81.6C101.369 81.1582 101.458 80.5314 101.9 80.2C104.184 78.4871 107.533 78.435 109.882 80.0436L111.945 78.6679C112.11 78.5584 112.303 78.5 112.5 78.5H116.446L116.051 77.3162C115.932 76.9569 116.025 76.5607 116.293 76.2929L117.293 75.2929C117.683 74.9024 118.317 74.9024 118.707 75.2929ZM115.455 80.5H112.803L109.661 82.5945C110.385 83.3728 110.864 84.3822 110.975 85.5H112.323L113.072 83.6286C113.106 83.5416 113.153 83.46 113.211 83.3861L115.455 80.5ZM108.959 85.5C108.72 84.0812 107.486 83 106 83C104.343 83 103 84.3432 103 86C103 87.6568 104.343 89 106 89C107.11 89 108.08 88.3967 108.599 87.5H106.5C105.948 87.5 105.5 87.0523 105.5 86.5C105.5 85.9477 105.948 85.5 106.5 85.5H108.959ZM117.376 81.2889L116.449 82.4797C116.762 82.1648 117.115 81.8912 117.502 81.6679L117.376 81.2889ZM118.157 83.6328C117.453 84.1818 117 85.038 117 86C117 87.6568 118.343 89 120 89C121.657 89 123 87.6568 123 86C123 84.3613 121.686 83.0294 120.054 83.0005L120.949 85.6838C121.123 86.2077 120.84 86.774 120.316 86.9487C119.792 87.1233 119.226 86.8402 119.051 86.3162L118.157 83.6328Z" fill="#F28B2F"/>
<rect x="157.5" y="13.5" width="63" height="99" rx="4.5" stroke="#9747FF" stroke-dasharray="10 5"/>
<path d="M184.86 35H193.14L199 40.86V49.14L193.14 55H184.86L179 49.14V40.86L184.86 35Z" stroke="#0A304C" stroke-width="2" stroke-linecap="round" stroke-linejoin="round"/>
<path d="M189 41V45" stroke="#0A304C" stroke-width="2" stroke-linecap="round" stroke-linejoin="round"/>
<path d="M189 49H189.01" stroke="#0A304C" stroke-width="2" stroke-linecap="round" stroke-linejoin="round"/>
<path d="M184.86 73H193.14L199 78.86V87.14L193.14 93H184.86L179 87.14V78.86L184.86 73Z" stroke="#F28B2F" stroke-width="2" stroke-linecap="round" stroke-linejoin="round"/>
<path d="M189 79V83" stroke="#F28B2F" stroke-width="2" stroke-linecap="round" stroke-linejoin="round"/>
<path d="M189 87H189.01" stroke="#F28B2F" stroke-width="2" stroke-linecap="round" stroke-linejoin="round"/>
<rect x="5.5" y="13.5" width="63" height="99" rx="4.5" stroke="#9747FF" stroke-dasharray="10 5"/>
<path d="M31.125 40C31.2908 40 31.4497 39.9342 31.5669 39.8169C31.6842 39.6997 31.75 39.5408 31.75 39.375C31.75 39.2092 31.6842 39.0503 31.5669 38.9331C31.4497 38.8158 31.2908 38.75 31.125 38.75C30.9592 38.75 30.8003 38.8158 30.6831 38.9331C30.5658 39.0503 30.5 39.2092 30.5 39.375C30.5 39.5408 30.5658 39.6997 30.6831 39.8169C30.8003 39.9342 30.9592 40 31.125 40ZM33.625 39.375C33.625 39.5408 33.5592 39.6997 33.4419 39.8169C33.3247 39.9342 33.1658 40 33 40C32.8342 40 32.6753 39.9342 32.5581 39.8169C32.4408 39.6997 32.375 39.5408 32.375 39.375C32.375 39.2092 32.4408 39.0503 32.5581 38.9331C32.6753 38.8158 32.8342 38.75 33 38.75C33.1658 38.75 33.3247 38.8158 33.4419 38.9331C33.5592 39.0503 33.625 39.2092 33.625 39.375ZM34.875 40C35.0408 40 35.1997 39.9342 35.3169 39.8169C35.4342 39.6997 35.5 39.5408 35.5 39.375C35.5 39.2092 35.4342 39.0503 35.3169 38.9331C35.1997 38.8158 35.0408 38.75 34.875 38.75C34.7092 38.75 34.5503 38.8158 34.4331 38.9331C34.3158 39.0503 34.25 39.2092 34.25 39.375C34.25 39.5408 34.3158 39.6997 34.4331 39.8169C34.5503 39.9342 34.7092 40 34.875 40Z" fill="#0A304C"/>
<path d="M29.5 36.25C28.837 36.25 28.2011 36.5134 27.7322 36.9822C27.2634 37.4511 27 38.087 27 38.75V51.25C27 51.913 27.2634 52.5489 27.7322 53.0178C28.2011 53.4866 28.837 53.75 29.5 53.75H44.5C45.163 53.75 45.7989 53.4866 46.2678 53.0178C46.7366 52.5489 47 51.913 47 51.25V38.75C47 38.087 46.7366 37.4511 46.2678 36.9822C45.7989 36.5134 45.163 36.25 44.5 36.25H29.5ZM44 37.6831C44.3315 37.6831 44.6495 37.8148 44.8839 38.0492C45.1183 38.2836 45.25 38.6015 45.25 38.9331V41.25H28.6339V38.9331C28.6339 38.6015 28.7656 38.2836 29 38.0492C29.2344 37.8148 29.5524 37.6831 29.8839 37.6831H44ZM28.6339 51V43H33.25V52.25H29.8839C29.5524 52.25 29.2344 52.1183 29 51.8839C28.7656 51.6495 28.6339 51.3315 28.6339 51ZM35 52.25V43H45.25V51C45.25 51.3315 45.1183 51.6495 44.8839 51.8839C44.6495 52.1183 44.3315 52.25 44 52.25H35Z" fill="#0A304C"/>
<path d="M30.125 78C30.2908 78 30.4497 77.9342 30.5669 77.8169C30.6842 77.6997 30.75 77.5408 30.75 77.375C30.75 77.2092 30.6842 77.0503 30.5669 76.9331C30.4497 76.8158 30.2908 76.75 30.125 76.75C29.9592 76.75 29.8003 76.8158 29.6831 76.9331C29.5658 77.0503 29.5 77.2092 29.5 77.375C29.5 77.5408 29.5658 77.6997 29.6831 77.8169C29.8003 77.9342 29.9592 78 30.125 78ZM32.625 77.375C32.625 77.5408 32.5592 77.6997 32.4419 77.8169C32.3247 77.9342 32.1658 78 32 78C31.8342 78 31.6753 77.9342 31.5581 77.8169C31.4408 77.6997 31.375 77.5408 31.375 77.375C31.375 77.2092 31.4408 77.0503 31.5581 76.9331C31.6753 76.8158 31.8342 76.75 32 76.75C32.1658 76.75 32.3247 76.8158 32.4419 76.9331C32.5592 77.0503 32.625 77.2092 32.625 77.375ZM33.875 78C34.0408 78 34.1997 77.9342 34.3169 77.8169C34.4342 77.6997 34.5 77.5408 34.5 77.375C34.5 77.2092 34.4342 77.0503 34.3169 76.9331C34.1997 76.8158 34.0408 76.75 33.875 76.75C33.7092 76.75 33.5503 76.8158 33.4331 76.9331C33.3158 77.0503 33.25 77.2092 33.25 77.375C33.25 77.5408 33.3158 77.6997 33.4331 77.8169C33.5503 77.9342 33.7092 78 33.875 78Z" fill="#F28B2F"/>
<path d="M29.5 74.25C28.837 74.25 28.2011 74.5134 27.7322 74.9822C27.2634 75.4511 27 76.087 27 76.75V89.25C27 89.913 27.2634 90.5489 27.7322 91.0178C28.2011 91.4866 28.837 91.75 29.5 91.75H44.5C45.163 91.75 45.7989 91.4866 46.2678 91.0178C46.7366 90.5489 47 89.913 47 89.25V76.75C47 76.087 46.7366 75.4511 46.2678 74.9822C45.7989 74.5134 45.163 74.25 44.5 74.25H29.5ZM44.5 75.5C44.8315 75.5 45.1495 75.6317 45.3839 75.8661C45.6183 76.1005 45.75 76.4185 45.75 76.75V79.25H28.25V76.75C28.25 76.4185 28.3817 76.1005 28.6161 75.8661C28.8505 75.6317 29.1685 75.5 29.5 75.5H44.5ZM28.25 89.25V80.5H33.25V90.5H29.5C29.1685 90.5 28.8505 90.3683 28.6161 90.1339C28.3817 89.8995 28.25 89.5815 28.25 89.25ZM34.5 90.5V80.5H45.75V89.25C45.75 89.5815 45.6183 89.8995 45.3839 90.1339C45.1495 90.3683 44.8315 90.5 44.5 90.5H34.5Z" fill="#F28B2F"/>
</svg>
