<svg width="170" height="51" viewBox="0 0 170 51" fill="none" xmlns="http://www.w3.org/2000/svg">
<path d="M42.6079 -7.62939e-06H52.4677L65.7712 33.6221L60.2916 35.6754L52.7818 16.0983L36.1918 32.2023L38.0707 37.8814L32.7482 39.7763L23.0454 14.0507H18.6595V8.20754H33.8418V14.0507H29.1475L33.9989 26.2008L49.9607 10.4192L48.3959 5.84313H42.2153L42.6079 -7.62939e-06Z" fill="#0A304C"/>
<path d="M65.3786 21.7604L67.6389 27.6658C68.4016 28.2258 69.7421 29.3627 70.6899 31.2294C71.4246 32.6774 71.6377 34.0067 71.705 34.8495C71.677 35.5509 71.4919 38.3961 69.0859 40.8058C66.5508 43.3455 63.3596 43.5775 62.6753 43.6114C62.0584 43.5944 58.5923 43.4587 56.0012 40.7323C53.926 38.5489 53.6848 36.043 53.6456 35.2794V32.6831L51.8957 26.6024C51.3461 27.1624 50.6955 27.9373 50.1122 28.9611C49.2429 30.494 48.8896 31.9308 48.7381 32.898C48.6652 33.5429 48.5923 34.1934 48.525 34.8382C48.4633 35.6245 48.1212 40.9698 52.4678 45.1613C56.5845 49.1321 61.8004 49.0812 62.6753 49.0586C63.4381 49.0982 69.7701 49.3075 74.0662 44.4712C77.3753 40.7492 77.3248 36.456 77.2799 35.4039C77.3304 34.5554 77.5435 29.4532 73.4269 25.4711C70.3197 22.4675 66.5845 21.8849 65.3898 21.7491L65.3786 21.7604Z" fill="#0A304C"/>
<path d="M21.9069 24.9677C21.0544 24.4077 18.9961 23.3047 16.3769 23.7741C13.7521 24.2436 12.2378 25.9802 11.8396 26.4666C11.3853 27.0549 10.1683 28.7971 10.0673 31.3651C9.96635 33.8653 10.9815 35.6641 11.3797 36.2976C13.41 38.7638 16.6181 39.8668 19.6242 39.1371C23.3595 38.2264 24.9355 34.9344 25.2944 34.0746C25.3337 33.9841 25.3561 33.9162 25.3674 33.8879L28.3904 40.868L25.9114 42.8082L27.5659 47.4635L20.6786 50.0654L19.1419 45.5176L15.7487 45.4384L13.4605 49.545L7.47616 46.5245L9.08581 41.9936L7.13965 39.7707L2.53505 41.6656L0 34.8608L4.36343 32.915L4.75042 29.3345L0.235558 27.943L2.73696 21.076L7.6332 22.6146L10.0505 20.4312L8.30623 15.7306L14.6663 13.3266C15.3786 14.8426 16.0909 16.3585 16.8031 17.8801C17.7342 17.9932 18.6708 18.1007 19.6018 18.2138" fill="#0A304C"/>
<path d="M85.6141 25.8392V6.48275H88.2109V25.8335H85.6141V25.8392ZM87.3584 18.3104V16.0252H92.5855C93.3034 16.0252 93.9428 15.8782 94.5093 15.5784C95.0701 15.2786 95.5132 14.8656 95.8385 14.3226C96.1582 13.7853 96.3208 13.1404 96.3208 12.3994C96.3208 11.6584 96.1582 11.0136 95.8385 10.4762C95.5132 9.93886 95.0757 9.52028 94.5093 9.22048C93.9484 8.92069 93.309 8.77362 92.5855 8.77362H87.3584V6.48841H92.7482C93.926 6.48841 94.9804 6.73163 95.9114 7.21243C96.8424 7.69324 97.5771 8.37767 98.1211 9.26008C98.6652 10.1425 98.9344 11.1889 98.9344 12.3994C98.9344 13.6099 98.6596 14.6281 98.1211 15.5105C97.5771 16.3929 96.8368 17.083 95.9114 17.5751C94.9804 18.0672 93.926 18.3161 92.7482 18.3161H87.3584V18.3104Z" fill="#0A304C"/>
<path d="M102.148 25.8388V6.48232H104.745V25.8331H102.148V25.8388ZM103.92 8.88067V6.48232H114.79V8.88067H103.92ZM103.92 17.0826V14.7973H114.016V17.0826H103.92ZM103.92 25.8388V23.4404H114.924V25.8388H103.92Z" fill="#0A304C"/>
<path d="M118.463 25.8388V6.48233H121.06V25.8331H118.463V25.8388ZM120.174 25.8388V23.4404H125.513C126.932 23.4404 128.177 23.1293 129.248 22.5071C130.32 21.8849 131.15 21.0251 131.75 19.9278C132.35 18.8304 132.647 17.569 132.647 16.1323C132.647 14.6955 132.344 13.4624 131.733 12.3651C131.127 11.2677 130.286 10.4136 129.215 9.79702C128.144 9.18612 126.91 8.87501 125.508 8.87501H120.196V6.47667H125.558C126.96 6.47667 128.256 6.7199 129.445 7.2007C130.634 7.6815 131.666 8.36028 132.541 9.23703C133.416 10.1138 134.1 11.1319 134.588 12.3028C135.076 13.4737 135.322 14.7577 135.322 16.1492C135.322 17.5407 135.076 18.8021 134.588 19.9843C134.1 21.1665 133.421 22.1904 132.557 23.0671C131.694 23.9439 130.662 24.6226 129.473 25.1034C128.284 25.5899 126.999 25.8275 125.614 25.8275H120.168L120.174 25.8388Z" fill="#0A304C"/>
<path d="M137.51 25.8388L145.362 6.48798H147.241L155.065 25.8388H152.243L145.799 9.46895H146.769L140.269 25.8388H137.504H137.51ZM141.245 21.4607V19.1755H151.335V21.4607H141.245Z" fill="#0A304C"/>
<path d="M157.947 25.8388V6.48232H160.544V25.8331H157.947V25.8388ZM159.714 25.8388V23.4404H170V25.8388H159.714Z" fill="#0A304C"/>
<path d="M85.659 49.743V31.0541H90.8637V49.743H85.659ZM89.8766 43.1815V39.403H93.2361C93.6343 39.403 94.0045 39.3182 94.341 39.1541C94.6775 38.9901 94.9523 38.7355 95.1598 38.3905C95.3674 38.0455 95.4739 37.6269 95.4739 37.1178C95.4739 36.6087 95.3674 36.1845 95.1598 35.8451C94.9523 35.5057 94.6775 35.2512 94.341 35.0815C94.0045 34.9118 93.6343 34.8326 93.2361 34.8326H89.8766V31.0541H94.2513C95.4459 31.0541 96.5283 31.2973 97.493 31.7781C98.4577 32.2589 99.2204 32.949 99.7813 33.854C100.342 34.7534 100.628 35.8451 100.628 37.1234C100.628 38.4018 100.348 39.4709 99.7813 40.3759C99.2148 41.2866 98.452 41.9824 97.493 42.4632C96.5283 42.944 95.4515 43.1872 94.2513 43.1872H89.8766V43.1815Z" fill="#0A304C"/>
<path d="M100.056 49.743L107.112 31.0541H112.423L119.4 49.743H113.988L108.805 33.8597H110.679L105.367 49.743H100.056ZM104.633 46.5924V42.4971H114.992V46.5924H104.633Z" fill="#0A304C"/>
<path d="M117.936 35.517V31.0541H134.257V35.517H117.936ZM123.477 49.743V31.0541H128.682V49.743H123.477Z" fill="#0A304C"/>
<path d="M144.638 50.0598C143.214 50.0598 141.89 49.8166 140.667 49.3358C139.445 48.855 138.374 48.1762 137.454 47.2994C136.534 46.4227 135.816 45.3932 135.306 44.2167C134.795 43.0345 134.537 41.7561 134.537 40.3703C134.537 38.9844 134.795 37.6834 135.306 36.5125C135.816 35.3417 136.528 34.3235 137.443 33.4694C138.351 32.6096 139.417 31.9421 140.628 31.4613C141.845 30.9805 143.163 30.7373 144.582 30.7373C146.001 30.7373 147.342 30.9635 148.536 31.4217C149.731 31.8799 150.774 32.5078 151.66 33.311L148.2 36.8293C147.785 36.3768 147.274 36.0148 146.68 35.7546C146.08 35.4944 145.384 35.3586 144.582 35.3586C143.887 35.3586 143.247 35.4718 142.67 35.698C142.086 35.9243 141.587 36.258 141.172 36.6936C140.757 37.1291 140.432 37.6608 140.196 38.283C139.961 38.9052 139.843 39.601 139.843 40.3703C139.843 41.1395 139.961 41.8636 140.196 42.4858C140.432 43.108 140.757 43.6397 141.172 44.0752C141.587 44.5108 142.086 44.8502 142.67 45.0878C143.253 45.3253 143.887 45.4441 144.582 45.4441C145.362 45.4441 146.063 45.3197 146.68 45.0764C147.297 44.8332 147.829 44.4712 148.278 44.0017L151.767 47.52C150.847 48.3233 149.815 48.9511 148.671 49.398C147.527 49.8449 146.181 50.0655 144.638 50.0655V50.0598Z" fill="#0A304C"/>
<path d="M153.567 49.743V31.0541H158.772V49.743H153.567ZM156.405 42.3953V38.0398H166.792V42.3953H156.405ZM164.756 49.743V31.0541H169.961V49.743H164.756Z" fill="#0A304C"/>
</svg>
