<svg width="360" height="225" viewBox="0 0 360 225" fill="none" xmlns="http://www.w3.org/2000/svg">
<rect x="0.5" y="0.5" width="359" height="224" rx="4.5" stroke="#9747FF" stroke-dasharray="10 5"/>
<path d="M73.56 43.3119C73.4968 43.2384 73.4274 43.1691 73.358 43.0997C70.7077 40.4496 68.0554 37.7974 65.4051 35.1472C64.5421 34.2843 63.4607 34.2843 62.5977 35.1472C60.031 37.7117 57.4705 40.2782 54.9018 42.8345C54.4958 43.2384 54.1183 43.6485 54 44.232V44.7787C54.0673 44.9664 54.1122 45.1664 54.2061 45.3398C54.5427 45.9702 55.0752 46.3048 55.7893 46.3415C55.8872 46.3456 55.9852 46.3435 56.0811 46.3456C56.0933 46.3456 56.1056 46.3537 56.1443 46.366V46.5822C56.1443 48.4632 56.1627 50.3442 56.1382 52.2232C56.1219 53.4901 57.042 54.3572 57.9744 54.4714C57.9908 54.4735 58.0071 54.4898 58.0234 54.5H61.6184C61.9652 54.3715 62.0856 54.1144 62.0835 53.7533C62.0754 52.2783 62.0795 50.8012 62.0795 49.3262C62.0795 48.6081 62.4691 48.2225 63.1914 48.2225C63.7443 48.2225 64.2972 48.2225 64.8501 48.2225C65.5173 48.2245 65.9213 48.6244 65.9213 49.2895C65.9213 50.7788 65.9274 52.2681 65.9172 53.7553C65.9152 54.1165 66.0376 54.3715 66.3844 54.5H69.9794C70.0916 54.4714 70.2038 54.4429 70.314 54.4123C71.1913 54.1613 71.8462 53.331 71.8523 52.417C71.8625 50.4768 71.8564 48.5387 71.8564 46.5985V46.3598C72.0808 46.3415 72.2971 46.3435 72.5032 46.3048C73.8906 46.0457 74.4741 44.385 73.558 43.3098L73.56 43.3119ZM63.9993 42.4448C63.2016 42.4448 62.5548 41.7981 62.5548 41.0004C62.5548 40.2027 63.2016 39.556 63.9993 39.556C64.7971 39.556 65.4439 40.2027 65.4439 41.0004C65.4439 41.7981 64.7971 42.4448 63.9993 42.4448Z" fill="#E7D0B6"/>
<path d="M89.368 51.5V38.9H91.438V51.5H89.368ZM97.378 51.5V38.9H99.448V51.5H97.378ZM90.79 45.92V44.03H97.828V45.92H90.79ZM105.872 51.68C105.032 51.68 104.27 51.482 103.586 51.086C102.902 50.678 102.356 50.132 101.948 49.448C101.552 48.764 101.354 48.002 101.354 47.162C101.354 46.322 101.552 45.566 101.948 44.894C102.356 44.222 102.902 43.688 103.586 43.292C104.27 42.884 105.032 42.68 105.872 42.68C106.724 42.68 107.492 42.878 108.176 43.274C108.86 43.67 109.4 44.21 109.796 44.894C110.204 45.566 110.408 46.322 110.408 47.162C110.408 48.002 110.204 48.764 109.796 49.448C109.4 50.132 108.86 50.678 108.176 51.086C107.492 51.482 106.724 51.68 105.872 51.68ZM105.872 49.772C106.364 49.772 106.796 49.664 107.168 49.448C107.552 49.22 107.846 48.908 108.05 48.512C108.266 48.116 108.374 47.666 108.374 47.162C108.374 46.658 108.266 46.214 108.05 45.83C107.834 45.446 107.54 45.146 107.168 44.93C106.796 44.702 106.364 44.588 105.872 44.588C105.392 44.588 104.96 44.702 104.576 44.93C104.204 45.146 103.91 45.446 103.694 45.83C103.49 46.214 103.388 46.658 103.388 47.162C103.388 47.666 103.49 48.116 103.694 48.512C103.91 48.908 104.204 49.22 104.576 49.448C104.96 49.664 105.392 49.772 105.872 49.772ZM112.055 51.5V42.86H114.035V51.5H112.055ZM117.797 51.5V46.352C117.797 45.776 117.617 45.332 117.257 45.02C116.897 44.696 116.453 44.534 115.925 44.534C115.565 44.534 115.241 44.606 114.953 44.75C114.677 44.894 114.455 45.104 114.287 45.38C114.119 45.644 114.035 45.968 114.035 46.352L113.261 45.92C113.261 45.26 113.405 44.69 113.693 44.21C113.981 43.73 114.371 43.358 114.863 43.094C115.355 42.818 115.907 42.68 116.519 42.68C117.131 42.68 117.683 42.812 118.175 43.076C118.667 43.34 119.057 43.712 119.345 44.192C119.633 44.672 119.777 45.248 119.777 45.92V51.5H117.797ZM123.539 51.5V46.352C123.539 45.776 123.359 45.332 122.999 45.02C122.639 44.696 122.195 44.534 121.667 44.534C121.319 44.534 121.001 44.606 120.713 44.75C120.425 44.894 120.197 45.104 120.029 45.38C119.861 45.644 119.777 45.968 119.777 46.352L118.661 45.92C118.721 45.26 118.913 44.69 119.237 44.21C119.561 43.73 119.975 43.358 120.479 43.094C120.995 42.818 121.559 42.68 122.171 42.68C122.795 42.68 123.359 42.812 123.863 43.076C124.367 43.34 124.769 43.712 125.069 44.192C125.369 44.672 125.519 45.248 125.519 45.92V51.5H123.539ZM131.573 51.68C130.709 51.68 129.929 51.488 129.233 51.104C128.549 50.708 128.003 50.168 127.595 49.484C127.199 48.8 127.001 48.032 127.001 47.18C127.001 46.328 127.199 45.566 127.595 44.894C127.991 44.21 128.525 43.67 129.197 43.274C129.881 42.878 130.637 42.68 131.465 42.68C132.269 42.68 132.977 42.866 133.589 43.238C134.213 43.61 134.699 44.12 135.047 44.768C135.407 45.416 135.587 46.154 135.587 46.982C135.587 47.126 135.575 47.276 135.551 47.432C135.539 47.576 135.515 47.738 135.479 47.918H128.387V46.298H134.453L133.715 46.946C133.691 46.418 133.589 45.974 133.409 45.614C133.229 45.254 132.971 44.978 132.635 44.786C132.311 44.594 131.909 44.498 131.429 44.498C130.925 44.498 130.487 44.606 130.115 44.822C129.743 45.038 129.455 45.344 129.251 45.74C129.047 46.124 128.945 46.586 128.945 47.126C128.945 47.666 129.053 48.14 129.269 48.548C129.485 48.956 129.791 49.274 130.187 49.502C130.583 49.718 131.039 49.826 131.555 49.826C131.999 49.826 132.407 49.748 132.779 49.592C133.163 49.436 133.487 49.208 133.751 48.908L135.011 50.186C134.591 50.678 134.081 51.05 133.481 51.302C132.881 51.554 132.245 51.68 131.573 51.68Z" fill="#E7D0B6"/>
<rect width="320" height="48" transform="translate(20 88.5)" fill="white" fill-opacity="0.1"/>
<path d="M73.56 111.312C73.4968 111.238 73.4274 111.169 73.358 111.1C70.7077 108.45 68.0554 105.797 65.4051 103.147C64.5421 102.284 63.4607 102.284 62.5977 103.147C60.031 105.712 57.4705 108.278 54.9018 110.834C54.4958 111.238 54.1183 111.648 54 112.232V112.779C54.0673 112.966 54.1122 113.166 54.2061 113.34C54.5427 113.97 55.0752 114.305 55.7893 114.341C55.8872 114.346 55.9852 114.344 56.0811 114.346C56.0933 114.346 56.1056 114.354 56.1443 114.366V114.582C56.1443 116.463 56.1627 118.344 56.1382 120.223C56.1219 121.49 57.042 122.357 57.9744 122.471C57.9908 122.473 58.0071 122.49 58.0234 122.5H61.6184C61.9652 122.371 62.0856 122.114 62.0835 121.753C62.0754 120.278 62.0795 118.801 62.0795 117.326C62.0795 116.608 62.4691 116.222 63.1914 116.222C63.7443 116.222 64.2972 116.222 64.8501 116.222C65.5173 116.225 65.9213 116.624 65.9213 117.289C65.9213 118.779 65.9274 120.268 65.9172 121.755C65.9152 122.116 66.0376 122.371 66.3844 122.5H69.9794C70.0916 122.471 70.2038 122.443 70.314 122.412C71.1913 122.161 71.8462 121.331 71.8523 120.417C71.8625 118.477 71.8564 116.539 71.8564 114.599V114.36C72.0808 114.341 72.2971 114.344 72.5032 114.305C73.8906 114.046 74.4741 112.385 73.558 111.31L73.56 111.312ZM63.9993 110.445C63.2016 110.445 62.5548 109.798 62.5548 109C62.5548 108.203 63.2016 107.556 63.9993 107.556C64.7971 107.556 65.4439 108.203 65.4439 109C65.4439 109.798 64.7971 110.445 63.9993 110.445Z" fill="#E7D0B6"/>
<path d="M89.368 119.5V106.9H91.438V119.5H89.368ZM97.378 119.5V106.9H99.448V119.5H97.378ZM90.79 113.92V112.03H97.828V113.92H90.79ZM105.872 119.68C105.032 119.68 104.27 119.482 103.586 119.086C102.902 118.678 102.356 118.132 101.948 117.448C101.552 116.764 101.354 116.002 101.354 115.162C101.354 114.322 101.552 113.566 101.948 112.894C102.356 112.222 102.902 111.688 103.586 111.292C104.27 110.884 105.032 110.68 105.872 110.68C106.724 110.68 107.492 110.878 108.176 111.274C108.86 111.67 109.4 112.21 109.796 112.894C110.204 113.566 110.408 114.322 110.408 115.162C110.408 116.002 110.204 116.764 109.796 117.448C109.4 118.132 108.86 118.678 108.176 119.086C107.492 119.482 106.724 119.68 105.872 119.68ZM105.872 117.772C106.364 117.772 106.796 117.664 107.168 117.448C107.552 117.22 107.846 116.908 108.05 116.512C108.266 116.116 108.374 115.666 108.374 115.162C108.374 114.658 108.266 114.214 108.05 113.83C107.834 113.446 107.54 113.146 107.168 112.93C106.796 112.702 106.364 112.588 105.872 112.588C105.392 112.588 104.96 112.702 104.576 112.93C104.204 113.146 103.91 113.446 103.694 113.83C103.49 114.214 103.388 114.658 103.388 115.162C103.388 115.666 103.49 116.116 103.694 116.512C103.91 116.908 104.204 117.22 104.576 117.448C104.96 117.664 105.392 117.772 105.872 117.772ZM112.055 119.5V110.86H114.035V119.5H112.055ZM117.797 119.5V114.352C117.797 113.776 117.617 113.332 117.257 113.02C116.897 112.696 116.453 112.534 115.925 112.534C115.565 112.534 115.241 112.606 114.953 112.75C114.677 112.894 114.455 113.104 114.287 113.38C114.119 113.644 114.035 113.968 114.035 114.352L113.261 113.92C113.261 113.26 113.405 112.69 113.693 112.21C113.981 111.73 114.371 111.358 114.863 111.094C115.355 110.818 115.907 110.68 116.519 110.68C117.131 110.68 117.683 110.812 118.175 111.076C118.667 111.34 119.057 111.712 119.345 112.192C119.633 112.672 119.777 113.248 119.777 113.92V119.5H117.797ZM123.539 119.5V114.352C123.539 113.776 123.359 113.332 122.999 113.02C122.639 112.696 122.195 112.534 121.667 112.534C121.319 112.534 121.001 112.606 120.713 112.75C120.425 112.894 120.197 113.104 120.029 113.38C119.861 113.644 119.777 113.968 119.777 114.352L118.661 113.92C118.721 113.26 118.913 112.69 119.237 112.21C119.561 111.73 119.975 111.358 120.479 111.094C120.995 110.818 121.559 110.68 122.171 110.68C122.795 110.68 123.359 110.812 123.863 111.076C124.367 111.34 124.769 111.712 125.069 112.192C125.369 112.672 125.519 113.248 125.519 113.92V119.5H123.539ZM131.573 119.68C130.709 119.68 129.929 119.488 129.233 119.104C128.549 118.708 128.003 118.168 127.595 117.484C127.199 116.8 127.001 116.032 127.001 115.18C127.001 114.328 127.199 113.566 127.595 112.894C127.991 112.21 128.525 111.67 129.197 111.274C129.881 110.878 130.637 110.68 131.465 110.68C132.269 110.68 132.977 110.866 133.589 111.238C134.213 111.61 134.699 112.12 135.047 112.768C135.407 113.416 135.587 114.154 135.587 114.982C135.587 115.126 135.575 115.276 135.551 115.432C135.539 115.576 135.515 115.738 135.479 115.918H128.387V114.298H134.453L133.715 114.946C133.691 114.418 133.589 113.974 133.409 113.614C133.229 113.254 132.971 112.978 132.635 112.786C132.311 112.594 131.909 112.498 131.429 112.498C130.925 112.498 130.487 112.606 130.115 112.822C129.743 113.038 129.455 113.344 129.251 113.74C129.047 114.124 128.945 114.586 128.945 115.126C128.945 115.666 129.053 116.14 129.269 116.548C129.485 116.956 129.791 117.274 130.187 117.502C130.583 117.718 131.039 117.826 131.555 117.826C131.999 117.826 132.407 117.748 132.779 117.592C133.163 117.436 133.487 117.208 133.751 116.908L135.011 118.186C134.591 118.678 134.081 119.05 133.481 119.302C132.881 119.554 132.245 119.68 131.573 119.68Z" fill="#E7D0B6"/>
<path d="M20 156.5H22C24.2091 156.5 26 158.291 26 160.5V200.5C26 202.709 24.2091 204.5 22 204.5H20V156.5Z" fill="#F97C35"/>
<rect width="314" height="48" transform="translate(26 156.5)" fill="white" fill-opacity="0.1"/>
<path d="M73.56 179.312C73.4968 179.238 73.4274 179.169 73.358 179.1C70.7077 176.45 68.0554 173.797 65.4051 171.147C64.5421 170.284 63.4607 170.284 62.5977 171.147C60.031 173.712 57.4705 176.278 54.9018 178.834C54.4958 179.238 54.1183 179.648 54 180.232V180.779C54.0673 180.966 54.1122 181.166 54.2061 181.34C54.5427 181.97 55.0752 182.305 55.7893 182.341C55.8872 182.346 55.9852 182.344 56.0811 182.346C56.0933 182.346 56.1056 182.354 56.1443 182.366V182.582C56.1443 184.463 56.1627 186.344 56.1382 188.223C56.1219 189.49 57.042 190.357 57.9744 190.471C57.9908 190.473 58.0071 190.49 58.0234 190.5H61.6184C61.9652 190.371 62.0856 190.114 62.0835 189.753C62.0754 188.278 62.0795 186.801 62.0795 185.326C62.0795 184.608 62.4691 184.222 63.1914 184.222C63.7443 184.222 64.2972 184.222 64.8501 184.222C65.5173 184.225 65.9213 184.624 65.9213 185.289C65.9213 186.779 65.9274 188.268 65.9172 189.755C65.9152 190.116 66.0376 190.371 66.3844 190.5H69.9794C70.0916 190.471 70.2038 190.443 70.314 190.412C71.1913 190.161 71.8462 189.331 71.8523 188.417C71.8625 186.477 71.8564 184.539 71.8564 182.599V182.36C72.0808 182.341 72.2971 182.344 72.5032 182.305C73.8906 182.046 74.4741 180.385 73.558 179.31L73.56 179.312ZM63.9993 178.445C63.2016 178.445 62.5548 177.798 62.5548 177C62.5548 176.203 63.2016 175.556 63.9993 175.556C64.7971 175.556 65.4439 176.203 65.4439 177C65.4439 177.798 64.7971 178.445 63.9993 178.445Z" fill="#F97C35"/>
<path d="M89.368 187.5V174.9H91.438V187.5H89.368ZM97.378 187.5V174.9H99.448V187.5H97.378ZM90.79 181.92V180.03H97.828V181.92H90.79ZM105.872 187.68C105.032 187.68 104.27 187.482 103.586 187.086C102.902 186.678 102.356 186.132 101.948 185.448C101.552 184.764 101.354 184.002 101.354 183.162C101.354 182.322 101.552 181.566 101.948 180.894C102.356 180.222 102.902 179.688 103.586 179.292C104.27 178.884 105.032 178.68 105.872 178.68C106.724 178.68 107.492 178.878 108.176 179.274C108.86 179.67 109.4 180.21 109.796 180.894C110.204 181.566 110.408 182.322 110.408 183.162C110.408 184.002 110.204 184.764 109.796 185.448C109.4 186.132 108.86 186.678 108.176 187.086C107.492 187.482 106.724 187.68 105.872 187.68ZM105.872 185.772C106.364 185.772 106.796 185.664 107.168 185.448C107.552 185.22 107.846 184.908 108.05 184.512C108.266 184.116 108.374 183.666 108.374 183.162C108.374 182.658 108.266 182.214 108.05 181.83C107.834 181.446 107.54 181.146 107.168 180.93C106.796 180.702 106.364 180.588 105.872 180.588C105.392 180.588 104.96 180.702 104.576 180.93C104.204 181.146 103.91 181.446 103.694 181.83C103.49 182.214 103.388 182.658 103.388 183.162C103.388 183.666 103.49 184.116 103.694 184.512C103.91 184.908 104.204 185.22 104.576 185.448C104.96 185.664 105.392 185.772 105.872 185.772ZM112.055 187.5V178.86H114.035V187.5H112.055ZM117.797 187.5V182.352C117.797 181.776 117.617 181.332 117.257 181.02C116.897 180.696 116.453 180.534 115.925 180.534C115.565 180.534 115.241 180.606 114.953 180.75C114.677 180.894 114.455 181.104 114.287 181.38C114.119 181.644 114.035 181.968 114.035 182.352L113.261 181.92C113.261 181.26 113.405 180.69 113.693 180.21C113.981 179.73 114.371 179.358 114.863 179.094C115.355 178.818 115.907 178.68 116.519 178.68C117.131 178.68 117.683 178.812 118.175 179.076C118.667 179.34 119.057 179.712 119.345 180.192C119.633 180.672 119.777 181.248 119.777 181.92V187.5H117.797ZM123.539 187.5V182.352C123.539 181.776 123.359 181.332 122.999 181.02C122.639 180.696 122.195 180.534 121.667 180.534C121.319 180.534 121.001 180.606 120.713 180.75C120.425 180.894 120.197 181.104 120.029 181.38C119.861 181.644 119.777 181.968 119.777 182.352L118.661 181.92C118.721 181.26 118.913 180.69 119.237 180.21C119.561 179.73 119.975 179.358 120.479 179.094C120.995 178.818 121.559 178.68 122.171 178.68C122.795 178.68 123.359 178.812 123.863 179.076C124.367 179.34 124.769 179.712 125.069 180.192C125.369 180.672 125.519 181.248 125.519 181.92V187.5H123.539ZM131.573 187.68C130.709 187.68 129.929 187.488 129.233 187.104C128.549 186.708 128.003 186.168 127.595 185.484C127.199 184.8 127.001 184.032 127.001 183.18C127.001 182.328 127.199 181.566 127.595 180.894C127.991 180.21 128.525 179.67 129.197 179.274C129.881 178.878 130.637 178.68 131.465 178.68C132.269 178.68 132.977 178.866 133.589 179.238C134.213 179.61 134.699 180.12 135.047 180.768C135.407 181.416 135.587 182.154 135.587 182.982C135.587 183.126 135.575 183.276 135.551 183.432C135.539 183.576 135.515 183.738 135.479 183.918H128.387V182.298H134.453L133.715 182.946C133.691 182.418 133.589 181.974 133.409 181.614C133.229 181.254 132.971 180.978 132.635 180.786C132.311 180.594 131.909 180.498 131.429 180.498C130.925 180.498 130.487 180.606 130.115 180.822C129.743 181.038 129.455 181.344 129.251 181.74C129.047 182.124 128.945 182.586 128.945 183.126C128.945 183.666 129.053 184.14 129.269 184.548C129.485 184.956 129.791 185.274 130.187 185.502C130.583 185.718 131.039 185.826 131.555 185.826C131.999 185.826 132.407 185.748 132.779 185.592C133.163 185.436 133.487 185.208 133.751 184.908L135.011 186.186C134.591 186.678 134.081 187.05 133.481 187.302C132.881 187.554 132.245 187.68 131.573 187.68Z" fill="#F97C35"/>
</svg>
