<svg width="430" height="226" viewBox="0 0 430 226" fill="none" xmlns="http://www.w3.org/2000/svg">
<rect x="0.5" y="1" width="429" height="224" rx="4.5" stroke="#9747FF" stroke-dasharray="10 5"/>
<rect width="396" height="185" transform="translate(17 20.5)" fill="#2C5878" fill-opacity="0.8"/>
<g clip-path="url(#clip0_1688_25239)">
<path d="M220.753 44.9035C221.504 45.6532 221.393 47.0195 220.486 47.6017C220.283 47.733 219.82 47.8282 219.747 47.9252C219.338 48.4751 219.345 49.6777 218.728 50.3247C218.345 50.7243 216.296 51.5844 216.324 51.9059L221.837 61.5076C222.976 61.1461 224.06 60.6513 225.234 60.3811C239.023 57.211 250.009 71.7886 242.997 84.0961C242.685 84.646 241.728 86.233 241.193 86.4271C239.479 86.741 237.713 86.7905 235.966 86.7734C238.273 85.0399 240.151 82.8802 241.056 80.0906C244.498 69.4862 233.743 59.9207 223.668 64.5559L227.979 71.9618C228.687 72.2053 229.386 71.9865 230.167 72.1882C233.442 73.0311 234.107 77.6817 231.244 79.4741C227.986 81.514 224.016 78.5265 225.127 74.8579C225.277 74.3612 225.914 73.6077 225.805 73.2252L221.597 65.8784C220.439 66.4474 219.385 67.6461 218.631 68.7117C213.078 76.5552 218.071 87.8732 227.647 88.7105C230.984 89.0016 236.705 88.9369 240.046 88.6096C241.89 88.4288 245.005 87.9855 246.628 87.0854C246.207 88.739 245.793 90.4154 245.388 92.1127C245.163 93.0527 244.944 93.9889 244.73 94.9194C244.929 92.9062 244.628 90.737 245.523 88.9122C248.239 83.3787 254.541 80.9831 260.069 84.1132C261.431 84.8839 264.93 87.6468 265.721 88.916C266.424 90.0462 265.967 91.0985 264.553 90.8892C262.023 90.5162 259.326 89.4982 256.775 89.0111C256.482 88.9559 255.983 88.7732 255.741 88.8931C255.623 88.9521 254.486 90.6837 254.341 90.9444C252.998 93.3686 252.821 95.9412 253.981 98.4891L262.683 100.793C263.081 101.109 262.852 101.979 262.513 102.323C261.644 103.206 257.318 104.352 256.027 104.454C247.634 105.122 245.209 98.4187 237.183 98.5957L179.018 98.8297C168.303 97.9829 161.266 87.4165 164.935 77.185C168.467 67.3398 180.435 63.536 189.135 69.3244L192.507 65.574C192.562 65.2809 191.499 63.5988 191.394 63.1517C191.312 62.7996 191.52 62.929 191.718 62.7159L188.272 55.8239C187.114 56.0998 186.102 56.4556 184.876 56.3528C183.662 56.252 180.292 54.9314 180.02 53.6242C179.835 52.7337 180.407 52.1685 181.23 52.0144C185.177 51.7499 189.364 50.6044 193.271 50.3799C194.299 50.3209 196.52 50.5188 194.991 51.8698C194.2 52.5681 192.387 53.5538 191.408 54.1475C191.13 54.3149 189.577 55.0665 189.562 55.2587L192.993 62.0842L193.56 61.911L194.532 63.6864L214.821 54.3967C214.494 53.4891 212.84 51.6738 213.271 50.7262C213.617 49.9631 216.778 49.6891 217.465 48.947C217.616 48.7853 218.115 47.6303 218.134 47.4229C218.159 47.1622 217.892 46.9224 217.833 46.6237C217.728 46.0966 217.827 45.3792 218.26 44.9454C218.814 44.3898 219.869 44.3289 220.755 44.9054L220.753 44.9035ZM200.332 75.1756V70.9266C199.61 71.0313 198.229 70.9266 198.542 69.8896C198.816 68.9781 200.315 69.4215 200.961 69.4386C201.607 69.4557 203.329 69.1874 203.527 69.8591C203.896 71.1131 202.544 70.9647 201.713 70.9266V75.8645L202.513 76.0928L214.817 57.2643L195.621 65.9907L200.334 75.1737H200.332V75.1756ZM201.654 88.8398H215.793C215.833 88.8398 215.909 88.6971 216.075 88.7752L218.044 90.4953L220.679 92.1698H174.989C174.882 92.1698 173.408 91.1328 173.206 90.9653C172.475 90.3564 171.852 89.5705 171.254 88.8398H200.104L200.205 83.9172C198.995 83.6451 197.823 82.8954 197.328 81.7385L196.202 81.8412C196.271 83.5081 196.109 85.1522 195.736 86.7734H192.172C192.573 85.3063 192.861 83.8297 192.745 82.296L182.889 83.7022C181.672 87.0074 176.757 85.9228 177.113 82.3512C177.265 80.8137 178.66 79.6511 180.193 79.7443L186.882 72.0188C177.191 65.8917 165.026 74.6333 167.766 85.8334C169.059 91.1232 173.814 95.005 179.233 95.3894C198.016 95.4046 216.821 95.3608 235.587 95.1801C236.962 94.5845 236.867 92.6265 235.396 92.2174C229.424 92.1774 224.171 92.7445 219.193 88.8836C210.503 82.1438 210.807 69.1627 219.74 62.8358L217.168 58.5297L204.514 77.6988C204.914 78.8804 205.186 79.6606 204.87 80.9165C204.451 82.5814 203.18 83.5291 201.588 83.9762C201.626 85.3995 201.306 87.0322 201.471 88.4422C201.49 88.6096 201.485 88.7371 201.65 88.8379H201.654V88.8398ZM195.865 79.1792C196.027 79.2838 196.717 79.183 196.882 79.0213C197.035 78.8709 197.246 78.0584 197.435 77.7368C197.623 77.4153 198.182 76.9985 198.13 76.6389L194.031 68.4358C193.96 68.3255 193.909 68.1371 193.728 68.177C193.524 68.2227 191.533 70.6983 191.257 71.0846C192.949 72.6981 194.28 74.6885 195.128 76.8691C195.267 77.225 195.76 79.1126 195.861 79.1792H195.865ZM192.402 79.7672C191.924 77.5123 190.688 75.1756 188.912 73.6914L182.517 81.0306L192.402 79.7691V79.7672Z" fill="white"/>
<path d="M233.835 108.386V101.044H235.468V108.386H233.835ZM238.38 108.386V101.044H240.022V108.386H238.38ZM234.813 105.318V103.904H238.92V105.318H234.813Z" fill="white"/>
<path d="M229.942 108.5C229.394 108.5 228.885 108.406 228.413 108.219C227.949 108.025 227.54 107.755 227.186 107.408C226.84 107.062 226.569 106.659 226.375 106.202C226.181 105.738 226.084 105.238 226.084 104.705C226.084 104.171 226.181 103.675 226.375 103.218C226.569 102.753 226.84 102.351 227.186 102.011C227.533 101.672 227.938 101.408 228.403 101.221C228.874 101.027 229.384 100.93 229.931 100.93C230.514 100.93 231.03 101.024 231.481 101.211C231.938 101.398 232.337 101.654 232.677 101.98L231.585 103.082C231.391 102.874 231.155 102.712 230.878 102.594C230.607 102.476 230.292 102.417 229.931 102.417C229.612 102.417 229.318 102.472 229.048 102.583C228.784 102.687 228.555 102.84 228.361 103.041C228.174 103.242 228.025 103.485 227.914 103.769C227.81 104.053 227.758 104.365 227.758 104.705C227.758 105.051 227.81 105.367 227.914 105.651C228.025 105.935 228.174 106.178 228.361 106.379C228.555 106.58 228.784 106.736 229.048 106.847C229.318 106.958 229.612 107.013 229.931 107.013C230.306 107.013 230.632 106.954 230.909 106.836C231.186 106.718 231.425 106.556 231.626 106.348L232.729 107.45C232.375 107.776 231.969 108.032 231.512 108.219C231.061 108.406 230.538 108.5 229.942 108.5Z" fill="white"/>
<path d="M221.794 108.386V101.148H223.427V108.386H221.794ZM219.496 102.469V101.044H225.725V102.469H219.496Z" fill="white"/>
<path d="M212.564 108.386L215.476 101.044H216.953L219.833 108.386H218.107L215.902 102.292H216.495L214.259 108.386H212.564ZM214.218 107.055V105.724H218.221V107.055H214.218Z" fill="white"/>
<path d="M208.205 105.713V104.445H209.785C209.986 104.445 210.17 104.403 210.336 104.32C210.503 104.237 210.635 104.115 210.732 103.956C210.829 103.796 210.877 103.602 210.877 103.374C210.877 103.152 210.829 102.961 210.732 102.802C210.635 102.642 210.503 102.521 210.336 102.438C210.17 102.355 209.986 102.313 209.785 102.313H208.205V101.044H210.024C210.489 101.044 210.908 101.138 211.283 101.325C211.657 101.512 211.952 101.783 212.167 102.136C212.388 102.483 212.499 102.895 212.499 103.374C212.499 103.852 212.388 104.268 212.167 104.621C211.952 104.968 211.657 105.238 211.283 105.432C210.908 105.62 210.489 105.713 210.024 105.713H208.205ZM206.957 108.386V101.044H208.59V108.386H206.957Z" fill="white"/>
<path d="M198.839 108.386V101.232H199.598V108.386H198.839ZM199.338 108.386V107.689H203.279V108.386H199.338Z" fill="white"/>
<path d="M191.002 108.386L193.935 101.232H194.506L197.408 108.386H196.586L194.059 102.063H194.361L191.813 108.386H191.002ZM192.344 106.524V105.848H196.087V106.524H192.344Z" fill="white"/>
<path d="M184.105 108.386V107.679H186.206C186.767 107.679 187.263 107.557 187.693 107.315C188.123 107.065 188.459 106.725 188.701 106.296C188.944 105.859 189.065 105.36 189.065 104.798C189.065 104.237 188.944 103.741 188.701 103.311C188.459 102.881 188.123 102.545 187.693 102.303C187.263 102.053 186.767 101.928 186.206 101.928H184.126V101.232H186.227C186.747 101.232 187.225 101.322 187.662 101.502C188.105 101.675 188.49 101.925 188.816 102.251C189.149 102.569 189.405 102.947 189.585 103.384C189.766 103.814 189.856 104.289 189.856 104.809C189.856 105.315 189.766 105.786 189.585 106.223C189.405 106.659 189.152 107.041 188.826 107.367C188.5 107.685 188.116 107.935 187.672 108.115C187.235 108.295 186.76 108.386 186.247 108.386H184.105ZM183.637 108.386V101.232H184.397V108.386H183.637Z" fill="white"/>
<path d="M177.306 108.386V101.232H178.065V108.386H177.306ZM177.805 108.386V107.689H182.017V108.386H177.805ZM177.805 105.058V104.382H181.684V105.058H177.805ZM177.805 101.928V101.232H181.954V101.928H177.805Z" fill="white"/>
<path d="M171.352 105.516V104.84H173.463C173.754 104.84 174.014 104.781 174.243 104.663C174.479 104.545 174.662 104.379 174.794 104.164C174.933 103.942 175.002 103.679 175.002 103.374C175.002 103.069 174.933 102.809 174.794 102.594C174.662 102.372 174.479 102.202 174.243 102.084C174.014 101.959 173.754 101.897 173.463 101.897H171.352V101.232H173.515C173.945 101.232 174.329 101.322 174.669 101.502C175.009 101.675 175.276 101.921 175.47 102.24C175.671 102.559 175.771 102.937 175.771 103.374C175.771 103.803 175.671 104.181 175.47 104.507C175.276 104.826 175.009 105.075 174.669 105.256C174.329 105.429 173.945 105.516 173.515 105.516H171.352ZM170.863 108.386V101.232H171.622V108.386H170.863Z" fill="white"/>
</g>
<path d="M124.812 129.517H113.145C110.855 129.517 109 131.352 109 133.616V139.384C109 141.648 110.856 143.484 113.145 143.484H124.812C127.102 143.484 128.957 141.648 128.957 139.384V133.616C128.957 131.352 127.101 129.516 124.812 129.516V129.517ZM122.009 136.78L116.552 139.355C116.519 139.371 116.482 139.378 116.445 139.376C116.408 139.374 116.372 139.363 116.341 139.343C116.31 139.324 116.284 139.297 116.266 139.264C116.248 139.232 116.238 139.196 116.238 139.159V133.85C116.239 133.813 116.249 133.777 116.267 133.744C116.286 133.712 116.312 133.685 116.344 133.666C116.376 133.647 116.412 133.636 116.449 133.634C116.486 133.633 116.523 133.64 116.556 133.657L122.014 136.392C122.05 136.41 122.081 136.438 122.102 136.473C122.123 136.507 122.134 136.547 122.134 136.588C122.133 136.629 122.121 136.668 122.099 136.702C122.077 136.737 122.046 136.764 122.009 136.781V136.78Z" fill="white"/>
<path d="M164.045 130.365V133.113H162.031V136.473H164.045V146.459H168.179V136.474H170.954C170.954 136.474 171.214 134.863 171.34 133.101H168.196V130.803C168.196 130.46 168.646 129.998 169.092 129.998H171.346V126.5H168.282C163.942 126.5 164.045 129.863 164.045 130.365Z" fill="white"/>
<path d="M225 130.407C224.25 130.734 223.456 130.949 222.644 131.044C223.497 130.543 224.138 129.749 224.448 128.81C223.64 129.28 222.759 129.612 221.841 129.79C221.455 129.385 220.99 129.063 220.475 128.844C219.96 128.625 219.406 128.513 218.846 128.515C216.58 128.515 214.743 130.325 214.743 132.555C214.743 132.871 214.779 133.18 214.849 133.475C213.224 133.398 211.632 132.982 210.176 132.256C208.72 131.529 207.432 130.507 206.393 129.254C206.029 129.868 205.837 130.57 205.839 131.284C205.84 131.952 206.007 132.609 206.325 133.196C206.644 133.784 207.104 134.282 207.663 134.647C207.012 134.626 206.376 134.452 205.805 134.14V134.19C205.805 136.148 207.22 137.781 209.095 138.153C208.743 138.247 208.38 138.294 208.015 138.294C207.75 138.294 207.493 138.269 207.242 138.219C207.51 139.027 208.023 139.731 208.71 140.234C209.397 140.737 210.223 141.014 211.074 141.026C209.614 142.151 207.822 142.758 205.979 142.753C205.647 142.753 205.321 142.733 205 142.697C206.881 143.888 209.063 144.518 211.289 144.515C218.836 144.515 222.962 138.358 222.962 133.019L222.948 132.496C223.753 131.93 224.448 131.222 225 130.407Z" fill="white"/>
<path d="M267.017 126.5H258.947C257.37 126.502 255.858 127.129 254.744 128.244C253.629 129.359 253.002 130.871 253 132.448V140.518C253.002 142.095 253.629 143.607 254.744 144.721C255.859 145.836 257.371 146.463 258.948 146.465H267.018C268.595 146.463 270.107 145.836 271.221 144.721C272.336 143.606 272.963 142.094 272.965 140.517V132.447C272.963 130.87 272.336 129.358 271.221 128.244C270.106 127.129 268.594 126.502 267.017 126.5V126.5ZM270.957 140.517C270.957 141.034 270.855 141.547 270.657 142.025C270.459 142.503 270.169 142.937 269.803 143.303C269.437 143.669 269.003 143.959 268.525 144.157C268.047 144.355 267.534 144.457 267.017 144.457H258.947C257.902 144.457 256.9 144.042 256.162 143.303C255.423 142.564 255.008 141.562 255.008 140.517V132.447C255.008 131.402 255.423 130.4 256.162 129.662C256.901 128.923 257.903 128.508 258.948 128.508H267.018C268.063 128.508 269.065 128.923 269.803 129.662C270.542 130.401 270.957 131.403 270.957 132.448V140.518V140.517Z" fill="white"/>
<path d="M262.982 131.319C261.614 131.321 260.302 131.866 259.334 132.834C258.367 133.801 257.822 135.113 257.82 136.482C257.822 137.851 258.366 139.163 259.334 140.131C260.302 141.099 261.614 141.644 262.983 141.646C264.352 141.644 265.665 141.1 266.633 140.132C267.601 139.164 268.146 137.851 268.147 136.482C268.145 135.113 267.6 133.801 266.632 132.833C265.664 131.865 264.351 131.321 262.982 131.32V131.319ZM262.982 139.638C262.146 139.638 261.343 139.306 260.751 138.714C260.16 138.122 259.827 137.32 259.827 136.483C259.827 135.646 260.16 134.844 260.751 134.252C261.343 133.66 262.146 133.328 262.982 133.328C263.819 133.328 264.622 133.66 265.213 134.252C265.805 134.844 266.137 135.646 266.137 136.483C266.137 137.32 265.805 138.122 265.213 138.714C264.622 139.306 263.819 139.638 262.982 139.638Z" fill="white"/>
<path d="M268.155 132.595C268.838 132.595 269.392 132.041 269.392 131.358C269.392 130.675 268.838 130.121 268.155 130.121C267.472 130.121 266.918 130.675 266.918 131.358C266.918 132.041 267.472 132.595 268.155 132.595Z" fill="white"/>
<path d="M320.959 138.219V145.598H316.681V138.713C316.681 136.983 316.062 135.803 314.514 135.803C313.332 135.803 312.628 136.599 312.319 137.368C312.206 137.643 312.177 138.026 312.177 138.411V145.598H307.897C307.897 145.598 307.955 133.938 307.897 132.729H312.177V134.553L312.149 134.595H312.177V134.553C312.745 133.678 313.76 132.427 316.033 132.427C318.848 132.427 320.959 134.267 320.959 138.219ZM303.421 126.526C301.958 126.526 301 127.486 301 128.749C301 129.984 301.93 130.973 303.365 130.973H303.393C304.886 130.973 305.813 129.984 305.813 128.749C305.787 127.486 304.887 126.526 303.422 126.526H303.421ZM301.254 145.598H305.532V132.729H301.254V145.598Z" fill="white"/>
<path d="M105.072 177.5H103.291L103.303 176.58H105.072C105.682 176.58 106.189 176.453 106.596 176.199C107.002 175.941 107.307 175.582 107.51 175.121C107.717 174.656 107.82 174.113 107.82 173.492V172.971C107.82 172.482 107.762 172.049 107.645 171.67C107.527 171.287 107.355 170.965 107.129 170.703C106.902 170.438 106.625 170.236 106.297 170.1C105.973 169.963 105.6 169.895 105.178 169.895H103.256V168.969H105.178C105.736 168.969 106.246 169.062 106.707 169.25C107.168 169.434 107.564 169.701 107.896 170.053C108.232 170.4 108.49 170.822 108.67 171.318C108.85 171.811 108.939 172.365 108.939 172.982V173.492C108.939 174.109 108.85 174.666 108.67 175.162C108.49 175.654 108.23 176.074 107.891 176.422C107.555 176.77 107.148 177.037 106.672 177.225C106.199 177.408 105.666 177.5 105.072 177.5ZM103.895 168.969V177.5H102.764V168.969H103.895ZM113.105 177.617C112.664 177.617 112.264 177.543 111.904 177.395C111.549 177.242 111.242 177.029 110.984 176.756C110.73 176.482 110.535 176.158 110.398 175.783C110.262 175.408 110.193 174.998 110.193 174.553V174.307C110.193 173.791 110.27 173.332 110.422 172.93C110.574 172.523 110.781 172.18 111.043 171.898C111.305 171.617 111.602 171.404 111.934 171.26C112.266 171.115 112.609 171.043 112.965 171.043C113.418 171.043 113.809 171.121 114.137 171.277C114.469 171.434 114.74 171.652 114.951 171.934C115.162 172.211 115.318 172.539 115.42 172.918C115.521 173.293 115.572 173.703 115.572 174.148V174.635H110.838V173.75H114.488V173.668C114.473 173.387 114.414 173.113 114.312 172.848C114.215 172.582 114.059 172.363 113.844 172.191C113.629 172.02 113.336 171.934 112.965 171.934C112.719 171.934 112.492 171.986 112.285 172.092C112.078 172.193 111.9 172.346 111.752 172.549C111.604 172.752 111.488 173 111.406 173.293C111.324 173.586 111.283 173.924 111.283 174.307V174.553C111.283 174.854 111.324 175.137 111.406 175.402C111.492 175.664 111.615 175.895 111.775 176.094C111.939 176.293 112.137 176.449 112.367 176.562C112.602 176.676 112.867 176.732 113.164 176.732C113.547 176.732 113.871 176.654 114.137 176.498C114.402 176.342 114.635 176.133 114.834 175.871L115.49 176.393C115.354 176.6 115.18 176.797 114.969 176.984C114.758 177.172 114.498 177.324 114.189 177.441C113.885 177.559 113.523 177.617 113.105 177.617ZM116.832 168.5H117.922V176.27L117.828 177.5H116.832V168.5ZM122.205 174.277V174.4C122.205 174.861 122.15 175.289 122.041 175.684C121.932 176.074 121.771 176.414 121.561 176.703C121.35 176.992 121.092 177.217 120.787 177.377C120.482 177.537 120.133 177.617 119.738 177.617C119.336 177.617 118.982 177.549 118.678 177.412C118.377 177.271 118.123 177.07 117.916 176.809C117.709 176.547 117.543 176.23 117.418 175.859C117.297 175.488 117.213 175.07 117.166 174.605V174.066C117.213 173.598 117.297 173.178 117.418 172.807C117.543 172.436 117.709 172.119 117.916 171.857C118.123 171.592 118.377 171.391 118.678 171.254C118.979 171.113 119.328 171.043 119.727 171.043C120.125 171.043 120.479 171.121 120.787 171.277C121.096 171.43 121.354 171.648 121.561 171.934C121.771 172.219 121.932 172.561 122.041 172.959C122.15 173.354 122.205 173.793 122.205 174.277ZM121.115 174.4V174.277C121.115 173.961 121.086 173.664 121.027 173.387C120.969 173.105 120.875 172.859 120.746 172.648C120.617 172.434 120.447 172.266 120.236 172.145C120.025 172.02 119.766 171.957 119.457 171.957C119.184 171.957 118.945 172.004 118.742 172.098C118.543 172.191 118.373 172.318 118.232 172.479C118.092 172.635 117.977 172.814 117.887 173.018C117.801 173.217 117.736 173.424 117.693 173.639V175.051C117.756 175.324 117.857 175.588 117.998 175.842C118.143 176.092 118.334 176.297 118.572 176.457C118.814 176.617 119.113 176.697 119.469 176.697C119.762 176.697 120.012 176.639 120.219 176.521C120.43 176.4 120.6 176.234 120.729 176.023C120.861 175.812 120.959 175.568 121.021 175.291C121.084 175.014 121.115 174.717 121.115 174.4ZM127.455 176.035V171.16H128.545V177.5H127.508L127.455 176.035ZM127.66 174.699L128.111 174.688C128.111 175.109 128.066 175.5 127.977 175.859C127.891 176.215 127.75 176.523 127.555 176.785C127.359 177.047 127.104 177.252 126.787 177.4C126.471 177.545 126.086 177.617 125.633 177.617C125.324 177.617 125.041 177.572 124.783 177.482C124.529 177.393 124.311 177.254 124.127 177.066C123.943 176.879 123.801 176.635 123.699 176.334C123.602 176.033 123.553 175.672 123.553 175.25V171.16H124.637V175.262C124.637 175.547 124.668 175.783 124.73 175.971C124.797 176.154 124.885 176.301 124.994 176.41C125.107 176.516 125.232 176.59 125.369 176.633C125.51 176.676 125.654 176.697 125.803 176.697C126.264 176.697 126.629 176.609 126.898 176.434C127.168 176.254 127.361 176.014 127.479 175.713C127.6 175.408 127.66 175.07 127.66 174.699ZM134.305 171.16H135.289V177.365C135.289 177.924 135.176 178.4 134.949 178.795C134.723 179.189 134.406 179.488 134 179.691C133.598 179.898 133.133 180.002 132.605 180.002C132.387 180.002 132.129 179.967 131.832 179.896C131.539 179.83 131.25 179.715 130.965 179.551C130.684 179.391 130.447 179.174 130.256 178.9L130.824 178.256C131.09 178.576 131.367 178.799 131.656 178.924C131.949 179.049 132.238 179.111 132.523 179.111C132.867 179.111 133.164 179.047 133.414 178.918C133.664 178.789 133.857 178.598 133.994 178.344C134.135 178.094 134.205 177.785 134.205 177.418V172.555L134.305 171.16ZM129.939 174.4V174.277C129.939 173.793 129.996 173.354 130.109 172.959C130.227 172.561 130.393 172.219 130.607 171.934C130.826 171.648 131.09 171.43 131.398 171.277C131.707 171.121 132.055 171.043 132.441 171.043C132.84 171.043 133.188 171.113 133.484 171.254C133.785 171.391 134.039 171.592 134.246 171.857C134.457 172.119 134.623 172.436 134.744 172.807C134.865 173.178 134.949 173.598 134.996 174.066V174.605C134.953 175.07 134.869 175.488 134.744 175.859C134.623 176.23 134.457 176.547 134.246 176.809C134.039 177.07 133.785 177.271 133.484 177.412C133.184 177.549 132.832 177.617 132.43 177.617C132.051 177.617 131.707 177.537 131.398 177.377C131.094 177.217 130.832 176.992 130.613 176.703C130.395 176.414 130.227 176.074 130.109 175.684C129.996 175.289 129.939 174.861 129.939 174.4ZM131.023 174.277V174.4C131.023 174.717 131.055 175.014 131.117 175.291C131.184 175.568 131.283 175.812 131.416 176.023C131.553 176.234 131.727 176.4 131.938 176.521C132.148 176.639 132.4 176.697 132.693 176.697C133.053 176.697 133.35 176.621 133.584 176.469C133.818 176.316 134.004 176.115 134.141 175.865C134.281 175.615 134.391 175.344 134.469 175.051V173.639C134.426 173.424 134.359 173.217 134.27 173.018C134.184 172.814 134.07 172.635 133.93 172.479C133.793 172.318 133.623 172.191 133.42 172.098C133.217 172.004 132.979 171.957 132.705 171.957C132.408 171.957 132.152 172.02 131.938 172.145C131.727 172.266 131.553 172.434 131.416 172.648C131.283 172.859 131.184 173.105 131.117 173.387C131.055 173.664 131.023 173.961 131.023 174.277ZM139.408 177.5H137.627L137.639 176.58H139.408C140.018 176.58 140.525 176.453 140.932 176.199C141.338 175.941 141.643 175.582 141.846 175.121C142.053 174.656 142.156 174.113 142.156 173.492V172.971C142.156 172.482 142.098 172.049 141.98 171.67C141.863 171.287 141.691 170.965 141.465 170.703C141.238 170.438 140.961 170.236 140.633 170.1C140.309 169.963 139.936 169.895 139.514 169.895H137.592V168.969H139.514C140.072 168.969 140.582 169.062 141.043 169.25C141.504 169.434 141.9 169.701 142.232 170.053C142.568 170.4 142.826 170.822 143.006 171.318C143.186 171.811 143.275 172.365 143.275 172.982V173.492C143.275 174.109 143.186 174.666 143.006 175.162C142.826 175.654 142.566 176.074 142.227 176.422C141.891 176.77 141.484 177.037 141.008 177.225C140.535 177.408 140.002 177.5 139.408 177.5ZM138.23 168.969V177.5H137.1V168.969H138.23ZM147.441 177.617C147 177.617 146.6 177.543 146.24 177.395C145.885 177.242 145.578 177.029 145.32 176.756C145.066 176.482 144.871 176.158 144.734 175.783C144.598 175.408 144.529 174.998 144.529 174.553V174.307C144.529 173.791 144.605 173.332 144.758 172.93C144.91 172.523 145.117 172.18 145.379 171.898C145.641 171.617 145.938 171.404 146.27 171.26C146.602 171.115 146.945 171.043 147.301 171.043C147.754 171.043 148.145 171.121 148.473 171.277C148.805 171.434 149.076 171.652 149.287 171.934C149.498 172.211 149.654 172.539 149.756 172.918C149.857 173.293 149.908 173.703 149.908 174.148V174.635H145.174V173.75H148.824V173.668C148.809 173.387 148.75 173.113 148.648 172.848C148.551 172.582 148.395 172.363 148.18 172.191C147.965 172.02 147.672 171.934 147.301 171.934C147.055 171.934 146.828 171.986 146.621 172.092C146.414 172.193 146.236 172.346 146.088 172.549C145.939 172.752 145.824 173 145.742 173.293C145.66 173.586 145.619 173.924 145.619 174.307V174.553C145.619 174.854 145.66 175.137 145.742 175.402C145.828 175.664 145.951 175.895 146.111 176.094C146.275 176.293 146.473 176.449 146.703 176.562C146.938 176.676 147.203 176.732 147.5 176.732C147.883 176.732 148.207 176.654 148.473 176.498C148.738 176.342 148.971 176.133 149.17 175.871L149.826 176.393C149.689 176.6 149.516 176.797 149.305 176.984C149.094 177.172 148.834 177.324 148.525 177.441C148.221 177.559 147.859 177.617 147.441 177.617ZM152.252 172.42V177.5H151.162V171.16H152.193L152.252 172.42ZM152.029 174.09L151.525 174.072C151.529 173.639 151.586 173.238 151.695 172.871C151.805 172.5 151.967 172.178 152.182 171.904C152.396 171.631 152.664 171.42 152.984 171.271C153.305 171.119 153.676 171.043 154.098 171.043C154.395 171.043 154.668 171.086 154.918 171.172C155.168 171.254 155.385 171.385 155.568 171.564C155.752 171.744 155.895 171.975 155.996 172.256C156.098 172.537 156.148 172.877 156.148 173.275V177.5H155.064V173.328C155.064 172.996 155.008 172.73 154.895 172.531C154.785 172.332 154.629 172.188 154.426 172.098C154.223 172.004 153.984 171.957 153.711 171.957C153.391 171.957 153.123 172.014 152.908 172.127C152.693 172.24 152.521 172.396 152.393 172.596C152.264 172.795 152.17 173.023 152.111 173.281C152.057 173.535 152.029 173.805 152.029 174.09ZM156.137 173.492L155.41 173.715C155.414 173.367 155.471 173.033 155.58 172.713C155.693 172.393 155.855 172.107 156.066 171.857C156.281 171.607 156.545 171.41 156.857 171.266C157.17 171.117 157.527 171.043 157.93 171.043C158.27 171.043 158.57 171.088 158.832 171.178C159.098 171.268 159.32 171.406 159.5 171.594C159.684 171.777 159.822 172.014 159.916 172.303C160.01 172.592 160.057 172.936 160.057 173.334V177.5H158.967V173.322C158.967 172.967 158.91 172.691 158.797 172.496C158.688 172.297 158.531 172.158 158.328 172.08C158.129 171.998 157.891 171.957 157.613 171.957C157.375 171.957 157.164 171.998 156.98 172.08C156.797 172.162 156.643 172.275 156.518 172.42C156.393 172.561 156.297 172.723 156.23 172.906C156.168 173.09 156.137 173.285 156.137 173.492ZM161.41 174.4V174.266C161.41 173.809 161.477 173.385 161.609 172.994C161.742 172.6 161.934 172.258 162.184 171.969C162.434 171.676 162.736 171.449 163.092 171.289C163.447 171.125 163.846 171.043 164.287 171.043C164.732 171.043 165.133 171.125 165.488 171.289C165.848 171.449 166.152 171.676 166.402 171.969C166.656 172.258 166.85 172.6 166.982 172.994C167.115 173.385 167.182 173.809 167.182 174.266V174.4C167.182 174.857 167.115 175.281 166.982 175.672C166.85 176.062 166.656 176.404 166.402 176.697C166.152 176.986 165.85 177.213 165.494 177.377C165.143 177.537 164.744 177.617 164.299 177.617C163.854 177.617 163.453 177.537 163.098 177.377C162.742 177.213 162.438 176.986 162.184 176.697C161.934 176.404 161.742 176.062 161.609 175.672C161.477 175.281 161.41 174.857 161.41 174.4ZM162.494 174.266V174.4C162.494 174.717 162.531 175.016 162.605 175.297C162.68 175.574 162.791 175.82 162.939 176.035C163.092 176.25 163.281 176.42 163.508 176.545C163.734 176.666 163.998 176.727 164.299 176.727C164.596 176.727 164.855 176.666 165.078 176.545C165.305 176.42 165.492 176.25 165.641 176.035C165.789 175.82 165.9 175.574 165.975 175.297C166.053 175.016 166.092 174.717 166.092 174.4V174.266C166.092 173.953 166.053 173.658 165.975 173.381C165.9 173.1 165.787 172.852 165.635 172.637C165.486 172.418 165.299 172.246 165.072 172.121C164.85 171.996 164.588 171.934 164.287 171.934C163.99 171.934 163.729 171.996 163.502 172.121C163.279 172.246 163.092 172.418 162.939 172.637C162.791 172.852 162.68 173.1 162.605 173.381C162.531 173.658 162.494 173.953 162.494 174.266ZM169.625 172.514V177.5H168.541V171.16H169.566L169.625 172.514ZM169.367 174.09L168.916 174.072C168.92 173.639 168.984 173.238 169.109 172.871C169.234 172.5 169.41 172.178 169.637 171.904C169.863 171.631 170.133 171.42 170.445 171.271C170.762 171.119 171.111 171.043 171.494 171.043C171.807 171.043 172.088 171.086 172.338 171.172C172.588 171.254 172.801 171.387 172.977 171.57C173.156 171.754 173.293 171.992 173.387 172.285C173.48 172.574 173.527 172.928 173.527 173.346V177.5H172.438V173.334C172.438 173.002 172.389 172.736 172.291 172.537C172.193 172.334 172.051 172.188 171.863 172.098C171.676 172.004 171.445 171.957 171.172 171.957C170.902 171.957 170.656 172.014 170.434 172.127C170.215 172.24 170.025 172.396 169.865 172.596C169.709 172.795 169.586 173.023 169.496 173.281C169.41 173.535 169.367 173.805 169.367 174.09ZM178.865 175.818C178.865 175.662 178.83 175.518 178.76 175.385C178.693 175.248 178.555 175.125 178.344 175.016C178.137 174.902 177.824 174.805 177.406 174.723C177.055 174.648 176.736 174.561 176.451 174.459C176.17 174.357 175.93 174.234 175.73 174.09C175.535 173.945 175.385 173.775 175.279 173.58C175.174 173.385 175.121 173.156 175.121 172.895C175.121 172.645 175.176 172.408 175.285 172.186C175.398 171.963 175.557 171.766 175.76 171.594C175.967 171.422 176.215 171.287 176.504 171.189C176.793 171.092 177.115 171.043 177.471 171.043C177.979 171.043 178.412 171.133 178.771 171.312C179.131 171.492 179.406 171.732 179.598 172.033C179.789 172.33 179.885 172.66 179.885 173.023H178.801C178.801 172.848 178.748 172.678 178.643 172.514C178.541 172.346 178.391 172.207 178.191 172.098C177.996 171.988 177.756 171.934 177.471 171.934C177.17 171.934 176.926 171.98 176.738 172.074C176.555 172.164 176.42 172.279 176.334 172.42C176.252 172.561 176.211 172.709 176.211 172.865C176.211 172.982 176.23 173.088 176.27 173.182C176.312 173.271 176.387 173.355 176.492 173.434C176.598 173.508 176.746 173.578 176.938 173.645C177.129 173.711 177.373 173.777 177.67 173.844C178.189 173.961 178.617 174.102 178.953 174.266C179.289 174.43 179.539 174.631 179.703 174.869C179.867 175.107 179.949 175.396 179.949 175.736C179.949 176.014 179.891 176.268 179.773 176.498C179.66 176.729 179.494 176.928 179.275 177.096C179.061 177.26 178.803 177.389 178.502 177.482C178.205 177.572 177.871 177.617 177.5 177.617C176.941 177.617 176.469 177.518 176.082 177.318C175.695 177.119 175.402 176.861 175.203 176.545C175.004 176.229 174.904 175.895 174.904 175.543H175.994C176.01 175.84 176.096 176.076 176.252 176.252C176.408 176.424 176.6 176.547 176.826 176.621C177.053 176.691 177.277 176.727 177.5 176.727C177.797 176.727 178.045 176.688 178.244 176.609C178.447 176.531 178.602 176.424 178.707 176.287C178.812 176.15 178.865 175.994 178.865 175.818ZM189.23 173.996H190.086C190.086 174.609 189.91 175.07 189.559 175.379C189.211 175.684 188.738 175.836 188.141 175.836C187.727 175.836 187.367 175.74 187.062 175.549C186.762 175.357 186.527 175.092 186.359 174.752C186.195 174.412 186.113 174.018 186.113 173.568V172.895C186.113 172.445 186.195 172.051 186.359 171.711C186.527 171.371 186.762 171.105 187.062 170.914C187.367 170.723 187.727 170.627 188.141 170.627C188.738 170.627 189.213 170.779 189.564 171.084C189.916 171.389 190.092 171.848 190.092 172.461H189.236C189.236 172.074 189.143 171.797 188.955 171.629C188.771 171.461 188.5 171.377 188.141 171.377C187.883 171.377 187.666 171.441 187.49 171.57C187.314 171.699 187.182 171.879 187.092 172.109C187.002 172.336 186.957 172.596 186.957 172.889V173.568C186.957 173.865 187.002 174.129 187.092 174.359C187.182 174.586 187.314 174.764 187.49 174.893C187.666 175.021 187.883 175.086 188.141 175.086C188.5 175.086 188.771 175.002 188.955 174.834C189.139 174.666 189.23 174.387 189.23 173.996ZM184.736 173.229C184.736 173.748 184.826 174.232 185.006 174.682C185.186 175.131 185.436 175.523 185.756 175.859C186.076 176.195 186.447 176.457 186.869 176.645C187.291 176.832 187.742 176.926 188.223 176.926C188.703 176.926 189.152 176.832 189.57 176.645C189.992 176.457 190.361 176.195 190.678 175.859C190.998 175.523 191.248 175.131 191.428 174.682C191.607 174.232 191.697 173.748 191.697 173.229C191.697 172.705 191.607 172.221 191.428 171.775C191.248 171.33 190.998 170.941 190.678 170.609C190.361 170.273 189.992 170.014 189.57 169.83C189.152 169.643 188.703 169.549 188.223 169.549C187.742 169.549 187.291 169.643 186.869 169.83C186.447 170.014 186.076 170.273 185.756 170.609C185.436 170.941 185.186 171.33 185.006 171.775C184.826 172.221 184.736 172.705 184.736 173.229ZM184.062 173.229C184.062 172.607 184.17 172.031 184.385 171.5C184.6 170.969 184.898 170.506 185.281 170.111C185.664 169.713 186.105 169.404 186.605 169.186C187.109 168.963 187.648 168.852 188.223 168.852C188.797 168.852 189.334 168.963 189.834 169.186C190.338 169.404 190.779 169.713 191.158 170.111C191.541 170.506 191.84 170.969 192.055 171.5C192.27 172.031 192.377 172.607 192.377 173.229C192.377 173.85 192.27 174.426 192.055 174.957C191.84 175.488 191.541 175.955 191.158 176.357C190.779 176.756 190.338 177.066 189.834 177.289C189.334 177.512 188.797 177.623 188.223 177.623C187.648 177.623 187.109 177.512 186.605 177.289C186.105 177.066 185.664 176.756 185.281 176.357C184.898 175.955 184.6 175.488 184.385 174.957C184.17 174.426 184.062 173.85 184.062 173.229ZM202.232 176.609V177.5H196.648V176.721L199.443 173.609C199.787 173.227 200.053 172.902 200.24 172.637C200.432 172.367 200.564 172.127 200.639 171.916C200.717 171.701 200.756 171.482 200.756 171.26C200.756 170.979 200.697 170.725 200.58 170.498C200.467 170.268 200.299 170.084 200.076 169.947C199.854 169.811 199.584 169.742 199.268 169.742C198.889 169.742 198.572 169.816 198.318 169.965C198.068 170.109 197.881 170.312 197.756 170.574C197.631 170.836 197.568 171.137 197.568 171.477H196.484C196.484 170.996 196.59 170.557 196.801 170.158C197.012 169.76 197.324 169.443 197.738 169.209C198.152 168.971 198.662 168.852 199.268 168.852C199.807 168.852 200.268 168.947 200.65 169.139C201.033 169.326 201.326 169.592 201.529 169.936C201.736 170.275 201.84 170.674 201.84 171.131C201.84 171.381 201.797 171.635 201.711 171.893C201.629 172.146 201.514 172.4 201.365 172.654C201.221 172.908 201.051 173.158 200.855 173.404C200.664 173.65 200.459 173.893 200.24 174.131L197.955 176.609H202.232ZM208.748 172.555V173.855C208.748 174.555 208.686 175.145 208.561 175.625C208.436 176.105 208.256 176.492 208.021 176.785C207.787 177.078 207.504 177.291 207.172 177.424C206.844 177.553 206.473 177.617 206.059 177.617C205.73 177.617 205.428 177.576 205.15 177.494C204.873 177.412 204.623 177.281 204.4 177.102C204.182 176.918 203.994 176.68 203.838 176.387C203.682 176.094 203.562 175.738 203.48 175.32C203.398 174.902 203.357 174.414 203.357 173.855V172.555C203.357 171.855 203.42 171.27 203.545 170.797C203.674 170.324 203.855 169.945 204.09 169.66C204.324 169.371 204.605 169.164 204.934 169.039C205.266 168.914 205.637 168.852 206.047 168.852C206.379 168.852 206.684 168.893 206.961 168.975C207.242 169.053 207.492 169.18 207.711 169.355C207.93 169.527 208.115 169.758 208.268 170.047C208.424 170.332 208.543 170.682 208.625 171.096C208.707 171.51 208.748 171.996 208.748 172.555ZM207.658 174.031V172.373C207.658 171.99 207.635 171.654 207.588 171.365C207.545 171.072 207.48 170.822 207.395 170.615C207.309 170.408 207.199 170.24 207.066 170.111C206.938 169.982 206.787 169.889 206.615 169.83C206.447 169.768 206.258 169.736 206.047 169.736C205.789 169.736 205.561 169.785 205.361 169.883C205.162 169.977 204.994 170.127 204.857 170.334C204.725 170.541 204.623 170.812 204.553 171.148C204.482 171.484 204.447 171.893 204.447 172.373V174.031C204.447 174.414 204.469 174.752 204.512 175.045C204.559 175.338 204.627 175.592 204.717 175.807C204.807 176.018 204.916 176.191 205.045 176.328C205.174 176.465 205.322 176.566 205.49 176.633C205.662 176.695 205.852 176.727 206.059 176.727C206.324 176.727 206.557 176.676 206.756 176.574C206.955 176.473 207.121 176.314 207.254 176.1C207.391 175.881 207.492 175.602 207.559 175.262C207.625 174.918 207.658 174.508 207.658 174.031ZM215.732 176.609V177.5H210.148V176.721L212.943 173.609C213.287 173.227 213.553 172.902 213.74 172.637C213.932 172.367 214.064 172.127 214.139 171.916C214.217 171.701 214.256 171.482 214.256 171.26C214.256 170.979 214.197 170.725 214.08 170.498C213.967 170.268 213.799 170.084 213.576 169.947C213.354 169.811 213.084 169.742 212.768 169.742C212.389 169.742 212.072 169.816 211.818 169.965C211.568 170.109 211.381 170.312 211.256 170.574C211.131 170.836 211.068 171.137 211.068 171.477H209.984C209.984 170.996 210.09 170.557 210.301 170.158C210.512 169.76 210.824 169.443 211.238 169.209C211.652 168.971 212.162 168.852 212.768 168.852C213.307 168.852 213.768 168.947 214.15 169.139C214.533 169.326 214.826 169.592 215.029 169.936C215.236 170.275 215.34 170.674 215.34 171.131C215.34 171.381 215.297 171.635 215.211 171.893C215.129 172.146 215.014 172.4 214.865 172.654C214.721 172.908 214.551 173.158 214.355 173.404C214.164 173.65 213.959 173.893 213.74 174.131L211.455 176.609H215.732ZM222.658 174.629V175.52H216.494V174.881L220.314 168.969H221.199L220.25 170.68L217.725 174.629H222.658ZM221.469 168.969V177.5H220.385V168.969H221.469ZM223.777 176.926C223.777 176.742 223.834 176.588 223.947 176.463C224.064 176.334 224.232 176.27 224.451 176.27C224.67 176.27 224.836 176.334 224.949 176.463C225.066 176.588 225.125 176.742 225.125 176.926C225.125 177.105 225.066 177.258 224.949 177.383C224.836 177.508 224.67 177.57 224.451 177.57C224.232 177.57 224.064 177.508 223.947 177.383C223.834 177.258 223.777 177.105 223.777 176.926ZM233.223 169.725L230.398 177.5H229.244L232.496 168.969H233.24L233.223 169.725ZM235.59 177.5L232.76 169.725L232.742 168.969H233.486L236.75 177.5H235.59ZM235.443 174.342V175.268H230.65V174.342H235.443ZM238.906 168.5V177.5H237.816V168.5H238.906ZM241.824 168.5V177.5H240.734V168.5H241.824ZM247.625 172.156V177.5H246.541V171.16H247.596L247.625 172.156ZM249.605 171.125L249.6 172.133C249.51 172.113 249.424 172.102 249.342 172.098C249.264 172.09 249.174 172.086 249.072 172.086C248.822 172.086 248.602 172.125 248.41 172.203C248.219 172.281 248.057 172.391 247.924 172.531C247.791 172.672 247.686 172.84 247.607 173.035C247.533 173.227 247.484 173.438 247.461 173.668L247.156 173.844C247.156 173.461 247.193 173.102 247.268 172.766C247.346 172.43 247.465 172.133 247.625 171.875C247.785 171.613 247.988 171.41 248.234 171.266C248.484 171.117 248.781 171.043 249.125 171.043C249.203 171.043 249.293 171.053 249.395 171.072C249.496 171.088 249.566 171.105 249.605 171.125ZM251.785 171.16V177.5H250.695V171.16H251.785ZM250.613 169.479C250.613 169.303 250.666 169.154 250.771 169.033C250.881 168.912 251.041 168.852 251.252 168.852C251.459 168.852 251.617 168.912 251.727 169.033C251.84 169.154 251.896 169.303 251.896 169.479C251.896 169.646 251.84 169.791 251.727 169.912C251.617 170.029 251.459 170.088 251.252 170.088C251.041 170.088 250.881 170.029 250.771 169.912C250.666 169.791 250.613 169.646 250.613 169.479ZM257.633 171.16H258.617V177.365C258.617 177.924 258.504 178.4 258.277 178.795C258.051 179.189 257.734 179.488 257.328 179.691C256.926 179.898 256.461 180.002 255.934 180.002C255.715 180.002 255.457 179.967 255.16 179.896C254.867 179.83 254.578 179.715 254.293 179.551C254.012 179.391 253.775 179.174 253.584 178.9L254.152 178.256C254.418 178.576 254.695 178.799 254.984 178.924C255.277 179.049 255.566 179.111 255.852 179.111C256.195 179.111 256.492 179.047 256.742 178.918C256.992 178.789 257.186 178.598 257.322 178.344C257.463 178.094 257.533 177.785 257.533 177.418V172.555L257.633 171.16ZM253.268 174.4V174.277C253.268 173.793 253.324 173.354 253.438 172.959C253.555 172.561 253.721 172.219 253.936 171.934C254.154 171.648 254.418 171.43 254.727 171.277C255.035 171.121 255.383 171.043 255.77 171.043C256.168 171.043 256.516 171.113 256.812 171.254C257.113 171.391 257.367 171.592 257.574 171.857C257.785 172.119 257.951 172.436 258.072 172.807C258.193 173.178 258.277 173.598 258.324 174.066V174.605C258.281 175.07 258.197 175.488 258.072 175.859C257.951 176.23 257.785 176.547 257.574 176.809C257.367 177.07 257.113 177.271 256.812 177.412C256.512 177.549 256.16 177.617 255.758 177.617C255.379 177.617 255.035 177.537 254.727 177.377C254.422 177.217 254.16 176.992 253.941 176.703C253.723 176.414 253.555 176.074 253.438 175.684C253.324 175.289 253.268 174.861 253.268 174.4ZM254.352 174.277V174.4C254.352 174.717 254.383 175.014 254.445 175.291C254.512 175.568 254.611 175.812 254.744 176.023C254.881 176.234 255.055 176.4 255.266 176.521C255.477 176.639 255.729 176.697 256.021 176.697C256.381 176.697 256.678 176.621 256.912 176.469C257.146 176.316 257.332 176.115 257.469 175.865C257.609 175.615 257.719 175.344 257.797 175.051V173.639C257.754 173.424 257.688 173.217 257.598 173.018C257.512 172.814 257.398 172.635 257.258 172.479C257.121 172.318 256.951 172.191 256.748 172.098C256.545 172.004 256.307 171.957 256.033 171.957C255.736 171.957 255.48 172.02 255.266 172.145C255.055 172.266 254.881 172.434 254.744 172.648C254.611 172.859 254.512 173.105 254.445 173.387C254.383 173.664 254.352 173.961 254.352 174.277ZM261.348 168.5V177.5H260.264V168.5H261.348ZM261.09 174.09L260.639 174.072C260.643 173.639 260.707 173.238 260.832 172.871C260.957 172.5 261.133 172.178 261.359 171.904C261.586 171.631 261.855 171.42 262.168 171.271C262.484 171.119 262.834 171.043 263.217 171.043C263.529 171.043 263.811 171.086 264.061 171.172C264.311 171.254 264.523 171.387 264.699 171.57C264.879 171.754 265.016 171.992 265.109 172.285C265.203 172.574 265.25 172.928 265.25 173.346V177.5H264.16V173.334C264.16 173.002 264.111 172.736 264.014 172.537C263.916 172.334 263.773 172.188 263.586 172.098C263.398 172.004 263.168 171.957 262.895 171.957C262.625 171.957 262.379 172.014 262.156 172.127C261.938 172.24 261.748 172.396 261.588 172.596C261.432 172.795 261.309 173.023 261.219 173.281C261.133 173.535 261.09 173.805 261.09 174.09ZM269.527 171.16V171.992H266.1V171.16H269.527ZM267.26 169.619H268.344V175.93C268.344 176.145 268.377 176.307 268.443 176.416C268.51 176.525 268.596 176.598 268.701 176.633C268.807 176.668 268.92 176.686 269.041 176.686C269.131 176.686 269.225 176.678 269.322 176.662C269.424 176.643 269.5 176.627 269.551 176.615L269.557 177.5C269.471 177.527 269.357 177.553 269.217 177.576C269.08 177.604 268.914 177.617 268.719 177.617C268.453 177.617 268.209 177.564 267.986 177.459C267.764 177.354 267.586 177.178 267.453 176.932C267.324 176.682 267.26 176.346 267.26 175.924V169.619ZM274.49 175.818C274.49 175.662 274.455 175.518 274.385 175.385C274.318 175.248 274.18 175.125 273.969 175.016C273.762 174.902 273.449 174.805 273.031 174.723C272.68 174.648 272.361 174.561 272.076 174.459C271.795 174.357 271.555 174.234 271.355 174.09C271.16 173.945 271.01 173.775 270.904 173.58C270.799 173.385 270.746 173.156 270.746 172.895C270.746 172.645 270.801 172.408 270.91 172.186C271.023 171.963 271.182 171.766 271.385 171.594C271.592 171.422 271.84 171.287 272.129 171.189C272.418 171.092 272.74 171.043 273.096 171.043C273.604 171.043 274.037 171.133 274.396 171.312C274.756 171.492 275.031 171.732 275.223 172.033C275.414 172.33 275.51 172.66 275.51 173.023H274.426C274.426 172.848 274.373 172.678 274.268 172.514C274.166 172.346 274.016 172.207 273.816 172.098C273.621 171.988 273.381 171.934 273.096 171.934C272.795 171.934 272.551 171.98 272.363 172.074C272.18 172.164 272.045 172.279 271.959 172.42C271.877 172.561 271.836 172.709 271.836 172.865C271.836 172.982 271.855 173.088 271.895 173.182C271.938 173.271 272.012 173.355 272.117 173.434C272.223 173.508 272.371 173.578 272.562 173.645C272.754 173.711 272.998 173.777 273.295 173.844C273.814 173.961 274.242 174.102 274.578 174.266C274.914 174.43 275.164 174.631 275.328 174.869C275.492 175.107 275.574 175.396 275.574 175.736C275.574 176.014 275.516 176.268 275.398 176.498C275.285 176.729 275.119 176.928 274.9 177.096C274.686 177.26 274.428 177.389 274.127 177.482C273.83 177.572 273.496 177.617 273.125 177.617C272.566 177.617 272.094 177.518 271.707 177.318C271.32 177.119 271.027 176.861 270.828 176.545C270.629 176.229 270.529 175.895 270.529 175.543H271.619C271.635 175.84 271.721 176.076 271.877 176.252C272.033 176.424 272.225 176.547 272.451 176.621C272.678 176.691 272.902 176.727 273.125 176.727C273.422 176.727 273.67 176.688 273.869 176.609C274.072 176.531 274.227 176.424 274.332 176.287C274.438 176.15 274.49 175.994 274.49 175.818ZM281.059 172.156V177.5H279.975V171.16H281.029L281.059 172.156ZM283.039 171.125L283.033 172.133C282.943 172.113 282.857 172.102 282.775 172.098C282.697 172.09 282.607 172.086 282.506 172.086C282.256 172.086 282.035 172.125 281.844 172.203C281.652 172.281 281.49 172.391 281.357 172.531C281.225 172.672 281.119 172.84 281.041 173.035C280.967 173.227 280.918 173.438 280.895 173.668L280.59 173.844C280.59 173.461 280.627 173.102 280.701 172.766C280.779 172.43 280.898 172.133 281.059 171.875C281.219 171.613 281.422 171.41 281.668 171.266C281.918 171.117 282.215 171.043 282.559 171.043C282.637 171.043 282.727 171.053 282.828 171.072C282.93 171.088 283 171.105 283.039 171.125ZM286.555 177.617C286.113 177.617 285.713 177.543 285.354 177.395C284.998 177.242 284.691 177.029 284.434 176.756C284.18 176.482 283.984 176.158 283.848 175.783C283.711 175.408 283.643 174.998 283.643 174.553V174.307C283.643 173.791 283.719 173.332 283.871 172.93C284.023 172.523 284.23 172.18 284.492 171.898C284.754 171.617 285.051 171.404 285.383 171.26C285.715 171.115 286.059 171.043 286.414 171.043C286.867 171.043 287.258 171.121 287.586 171.277C287.918 171.434 288.189 171.652 288.4 171.934C288.611 172.211 288.768 172.539 288.869 172.918C288.971 173.293 289.021 173.703 289.021 174.148V174.635H284.287V173.75H287.938V173.668C287.922 173.387 287.863 173.113 287.762 172.848C287.664 172.582 287.508 172.363 287.293 172.191C287.078 172.02 286.785 171.934 286.414 171.934C286.168 171.934 285.941 171.986 285.734 172.092C285.527 172.193 285.35 172.346 285.201 172.549C285.053 172.752 284.938 173 284.855 173.293C284.773 173.586 284.732 173.924 284.732 174.307V174.553C284.732 174.854 284.773 175.137 284.855 175.402C284.941 175.664 285.064 175.895 285.225 176.094C285.389 176.293 285.586 176.449 285.816 176.562C286.051 176.676 286.316 176.732 286.613 176.732C286.996 176.732 287.32 176.654 287.586 176.498C287.852 176.342 288.084 176.133 288.283 175.871L288.939 176.393C288.803 176.6 288.629 176.797 288.418 176.984C288.207 177.172 287.947 177.324 287.639 177.441C287.334 177.559 286.973 177.617 286.555 177.617ZM293.979 175.818C293.979 175.662 293.943 175.518 293.873 175.385C293.807 175.248 293.668 175.125 293.457 175.016C293.25 174.902 292.938 174.805 292.52 174.723C292.168 174.648 291.85 174.561 291.564 174.459C291.283 174.357 291.043 174.234 290.844 174.09C290.648 173.945 290.498 173.775 290.393 173.58C290.287 173.385 290.234 173.156 290.234 172.895C290.234 172.645 290.289 172.408 290.398 172.186C290.512 171.963 290.67 171.766 290.873 171.594C291.08 171.422 291.328 171.287 291.617 171.189C291.906 171.092 292.229 171.043 292.584 171.043C293.092 171.043 293.525 171.133 293.885 171.312C294.244 171.492 294.52 171.732 294.711 172.033C294.902 172.33 294.998 172.66 294.998 173.023H293.914C293.914 172.848 293.861 172.678 293.756 172.514C293.654 172.346 293.504 172.207 293.305 172.098C293.109 171.988 292.869 171.934 292.584 171.934C292.283 171.934 292.039 171.98 291.852 172.074C291.668 172.164 291.533 172.279 291.447 172.42C291.365 172.561 291.324 172.709 291.324 172.865C291.324 172.982 291.344 173.088 291.383 173.182C291.426 173.271 291.5 173.355 291.605 173.434C291.711 173.508 291.859 173.578 292.051 173.645C292.242 173.711 292.486 173.777 292.783 173.844C293.303 173.961 293.73 174.102 294.066 174.266C294.402 174.43 294.652 174.631 294.816 174.869C294.98 175.107 295.062 175.396 295.062 175.736C295.062 176.014 295.004 176.268 294.887 176.498C294.773 176.729 294.607 176.928 294.389 177.096C294.174 177.26 293.916 177.389 293.615 177.482C293.318 177.572 292.984 177.617 292.613 177.617C292.055 177.617 291.582 177.518 291.195 177.318C290.809 177.119 290.516 176.861 290.316 176.545C290.117 176.229 290.018 175.895 290.018 175.543H291.107C291.123 175.84 291.209 176.076 291.365 176.252C291.521 176.424 291.713 176.547 291.939 176.621C292.166 176.691 292.391 176.727 292.613 176.727C292.91 176.727 293.158 176.688 293.357 176.609C293.561 176.531 293.715 176.424 293.82 176.287C293.926 176.15 293.979 175.994 293.979 175.818ZM299.117 177.617C298.676 177.617 298.275 177.543 297.916 177.395C297.561 177.242 297.254 177.029 296.996 176.756C296.742 176.482 296.547 176.158 296.41 175.783C296.273 175.408 296.205 174.998 296.205 174.553V174.307C296.205 173.791 296.281 173.332 296.434 172.93C296.586 172.523 296.793 172.18 297.055 171.898C297.316 171.617 297.613 171.404 297.945 171.26C298.277 171.115 298.621 171.043 298.977 171.043C299.43 171.043 299.82 171.121 300.148 171.277C300.48 171.434 300.752 171.652 300.963 171.934C301.174 172.211 301.33 172.539 301.432 172.918C301.533 173.293 301.584 173.703 301.584 174.148V174.635H296.85V173.75H300.5V173.668C300.484 173.387 300.426 173.113 300.324 172.848C300.227 172.582 300.07 172.363 299.855 172.191C299.641 172.02 299.348 171.934 298.977 171.934C298.73 171.934 298.504 171.986 298.297 172.092C298.09 172.193 297.912 172.346 297.764 172.549C297.615 172.752 297.5 173 297.418 173.293C297.336 173.586 297.295 173.924 297.295 174.307V174.553C297.295 174.854 297.336 175.137 297.418 175.402C297.504 175.664 297.627 175.895 297.787 176.094C297.951 176.293 298.148 176.449 298.379 176.562C298.613 176.676 298.879 176.732 299.176 176.732C299.559 176.732 299.883 176.654 300.148 176.498C300.414 176.342 300.646 176.133 300.846 175.871L301.502 176.393C301.365 176.6 301.191 176.797 300.98 176.984C300.77 177.172 300.51 177.324 300.201 177.441C299.896 177.559 299.535 177.617 299.117 177.617ZM303.934 172.156V177.5H302.85V171.16H303.904L303.934 172.156ZM305.914 171.125L305.908 172.133C305.818 172.113 305.732 172.102 305.65 172.098C305.572 172.09 305.482 172.086 305.381 172.086C305.131 172.086 304.91 172.125 304.719 172.203C304.527 172.281 304.365 172.391 304.232 172.531C304.1 172.672 303.994 172.84 303.916 173.035C303.842 173.227 303.793 173.438 303.77 173.668L303.465 173.844C303.465 173.461 303.502 173.102 303.576 172.766C303.654 172.43 303.773 172.133 303.934 171.875C304.094 171.613 304.297 171.41 304.543 171.266C304.793 171.117 305.09 171.043 305.434 171.043C305.512 171.043 305.602 171.053 305.703 171.072C305.805 171.088 305.875 171.105 305.914 171.125ZM308.949 176.521L310.684 171.16H311.791L309.512 177.5H308.785L308.949 176.521ZM307.502 171.16L309.289 176.551L309.412 177.5H308.686L306.389 171.16H307.502ZM315.383 177.617C314.941 177.617 314.541 177.543 314.182 177.395C313.826 177.242 313.52 177.029 313.262 176.756C313.008 176.482 312.812 176.158 312.676 175.783C312.539 175.408 312.471 174.998 312.471 174.553V174.307C312.471 173.791 312.547 173.332 312.699 172.93C312.852 172.523 313.059 172.18 313.32 171.898C313.582 171.617 313.879 171.404 314.211 171.26C314.543 171.115 314.887 171.043 315.242 171.043C315.695 171.043 316.086 171.121 316.414 171.277C316.746 171.434 317.018 171.652 317.229 171.934C317.439 172.211 317.596 172.539 317.697 172.918C317.799 173.293 317.85 173.703 317.85 174.148V174.635H313.115V173.75H316.766V173.668C316.75 173.387 316.691 173.113 316.59 172.848C316.492 172.582 316.336 172.363 316.121 172.191C315.906 172.02 315.613 171.934 315.242 171.934C314.996 171.934 314.77 171.986 314.562 172.092C314.355 172.193 314.178 172.346 314.029 172.549C313.881 172.752 313.766 173 313.684 173.293C313.602 173.586 313.561 173.924 313.561 174.307V174.553C313.561 174.854 313.602 175.137 313.684 175.402C313.77 175.664 313.893 175.895 314.053 176.094C314.217 176.293 314.414 176.449 314.645 176.562C314.879 176.676 315.145 176.732 315.441 176.732C315.824 176.732 316.148 176.654 316.414 176.498C316.68 176.342 316.912 176.133 317.111 175.871L317.768 176.393C317.631 176.6 317.457 176.797 317.246 176.984C317.035 177.172 316.775 177.324 316.467 177.441C316.162 177.559 315.801 177.617 315.383 177.617ZM323.111 176.27V168.5H324.201V177.5H323.205L323.111 176.27ZM318.846 174.4V174.277C318.846 173.793 318.904 173.354 319.021 172.959C319.143 172.561 319.312 172.219 319.531 171.934C319.754 171.648 320.018 171.43 320.322 171.277C320.631 171.121 320.975 171.043 321.354 171.043C321.752 171.043 322.1 171.113 322.396 171.254C322.697 171.391 322.951 171.592 323.158 171.857C323.369 172.119 323.535 172.436 323.656 172.807C323.777 173.178 323.861 173.598 323.908 174.066V174.605C323.865 175.07 323.781 175.488 323.656 175.859C323.535 176.23 323.369 176.547 323.158 176.809C322.951 177.07 322.697 177.271 322.396 177.412C322.096 177.549 321.744 177.617 321.342 177.617C320.971 177.617 320.631 177.537 320.322 177.377C320.018 177.217 319.754 176.992 319.531 176.703C319.312 176.414 319.143 176.074 319.021 175.684C318.904 175.289 318.846 174.861 318.846 174.4ZM319.936 174.277V174.4C319.936 174.717 319.967 175.014 320.029 175.291C320.096 175.568 320.197 175.812 320.334 176.023C320.471 176.234 320.645 176.4 320.855 176.521C321.066 176.639 321.318 176.697 321.611 176.697C321.971 176.697 322.266 176.621 322.496 176.469C322.73 176.316 322.918 176.115 323.059 175.865C323.199 175.615 323.309 175.344 323.387 175.051V173.639C323.34 173.424 323.271 173.217 323.182 173.018C323.096 172.814 322.982 172.635 322.842 172.479C322.705 172.318 322.535 172.191 322.332 172.098C322.133 172.004 321.896 171.957 321.623 171.957C321.326 171.957 321.07 172.02 320.855 172.145C320.645 172.266 320.471 172.434 320.334 172.648C320.197 172.859 320.096 173.105 320.029 173.387C319.967 173.664 319.936 173.961 319.936 174.277ZM325.906 176.926C325.906 176.742 325.963 176.588 326.076 176.463C326.193 176.334 326.361 176.27 326.58 176.27C326.799 176.27 326.965 176.334 327.078 176.463C327.195 176.588 327.254 176.742 327.254 176.926C327.254 177.105 327.195 177.258 327.078 177.383C326.965 177.508 326.799 177.57 326.58 177.57C326.361 177.57 326.193 177.508 326.076 177.383C325.963 177.258 325.906 177.105 325.906 176.926Z" fill="white"/>
<defs>
<clipPath id="clip0_1688_25239">
<rect width="102.093" height="64" fill="white" transform="translate(163.953 44.5)"/>
</clipPath>
</defs>
</svg>
