<svg width="166" height="108" viewBox="0 0 166 108" fill="none" xmlns="http://www.w3.org/2000/svg">
<g clip-path="url(#clip0_1296_12283)">
<path d="M91.5168 0H112.694L141.269 72.5369L129.499 76.9668L113.369 34.7308L77.7357 69.4739L81.7712 81.7261L70.3392 85.8142L49.4988 30.3132H40.0785V17.7071H72.6882V30.3132H62.6053L73.0255 56.5261L107.31 22.4786L103.949 12.6061H90.6736L91.5168 0Z" fill="#0A304C"/>
<path d="M140.425 46.9464L145.28 59.6868C146.918 60.8949 149.798 63.3478 151.833 67.3749C153.411 70.499 153.869 73.3668 154.014 75.1851C153.954 76.6983 153.556 82.8366 148.388 88.0352C142.943 93.5146 136.089 94.0149 134.619 94.0881C133.294 94.0515 125.849 93.7586 120.284 87.8766C115.827 83.1661 115.309 77.76 115.224 76.1125V70.5112L111.466 57.3925C110.285 58.6007 108.888 60.2725 107.635 62.4814C105.768 65.7885 105.009 68.8881 104.684 70.9749C104.527 72.3661 104.37 73.7695 104.226 75.1607C104.093 76.8569 103.358 88.3891 112.694 97.4319C121.537 105.999 132.74 105.889 134.619 105.84C136.257 105.925 149.858 106.377 159.085 95.9431C166.193 87.9132 166.084 78.6508 165.988 76.381C166.096 74.5505 166.554 63.543 157.712 54.9519C151.038 48.4719 143.015 47.2149 140.449 46.922L140.425 46.9464Z" fill="#0A304C"/>
<path d="M47.0534 53.8658C45.2224 52.6576 40.8013 50.278 35.1756 51.2908C29.5379 52.3037 26.2853 56.0502 25.43 57.0997C24.4543 58.3688 21.8402 62.1275 21.6234 67.6678C21.4065 73.0617 23.5869 76.9424 24.4422 78.3092C28.803 83.6298 35.6936 86.0095 42.1505 84.4353C50.1734 82.4705 53.5585 75.3681 54.3295 73.5132C54.4138 73.318 54.462 73.1715 54.4861 73.1105L60.9791 88.1695L55.6546 92.3553L59.2083 102.399L44.4152 108.012L41.1145 98.2007L33.8264 98.0298L28.9115 106.889L16.0579 100.373L19.5152 90.598L15.3351 85.802L5.44499 89.8902L0 75.2095L9.37213 71.0115L10.2033 63.2868L0.505951 60.2847L5.87866 45.4698L16.3952 48.7892L21.5872 44.0786L17.8408 33.9376L31.5015 28.7512C33.0313 32.0217 34.5612 35.2922 36.0911 38.5749C38.0909 38.819 40.1026 39.0509 42.1023 39.2949" fill="#0A304C"/>
</g>
<defs>
<clipPath id="clip0_1296_12283">
<rect width="166" height="108" fill="white"/>
</clipPath>
</defs>
</svg>
