<svg width="1729" height="1118" viewBox="0 0 1729 1118" fill="none" xmlns="http://www.w3.org/2000/svg">
<g opacity="0.48">
<rect x="1.50525" y="0.742432" width="1727" height="1116" stroke="black" stroke-opacity="0.4"/>
<line x1="0.505249" y1="1117.24" x2="0.505249" y2="0.241455" stroke="black" stroke-opacity="0.4"/>
<line x1="24.0482" y1="1117.24" x2="24.0482" y2="0.241455" stroke="black" stroke-opacity="0.4"/>
<line x1="47.5912" y1="1117.24" x2="47.5912" y2="0.241455" stroke="black" stroke-opacity="0.4"/>
<line x1="71.1342" y1="1117.24" x2="71.1342" y2="0.241455" stroke="black" stroke-opacity="0.4"/>
<line x1="94.6771" y1="1117.24" x2="94.6771" y2="0.241455" stroke="black" stroke-opacity="0.4"/>
<line x1="118.22" y1="1117.24" x2="118.22" y2="0.241455" stroke="black" stroke-opacity="0.4"/>
<line x1="141.763" y1="1117.24" x2="141.763" y2="0.241455" stroke="black" stroke-opacity="0.4"/>
<line x1="165.306" y1="1117.24" x2="165.306" y2="0.241455" stroke="black" stroke-opacity="0.4"/>
<line x1="188.849" y1="1117.24" x2="188.849" y2="0.241455" stroke="black" stroke-opacity="0.4"/>
<line x1="212.392" y1="1117.24" x2="212.392" y2="0.241455" stroke="black" stroke-opacity="0.4"/>
<line x1="235.935" y1="1117.24" x2="235.935" y2="0.241455" stroke="black" stroke-opacity="0.4"/>
<line x1="259.478" y1="1117.24" x2="259.478" y2="0.241455" stroke="black" stroke-opacity="0.4"/>
<line x1="283.021" y1="1117.24" x2="283.021" y2="0.241455" stroke="black" stroke-opacity="0.4"/>
<line x1="306.564" y1="1117.24" x2="306.564" y2="0.241455" stroke="black" stroke-opacity="0.4"/>
<line x1="330.107" y1="1117.24" x2="330.107" y2="0.241455" stroke="black" stroke-opacity="0.4"/>
<line x1="353.65" y1="1117.24" x2="353.65" y2="0.241455" stroke="black" stroke-opacity="0.4"/>
<line x1="377.193" y1="1117.24" x2="377.193" y2="0.241455" stroke="black" stroke-opacity="0.4"/>
<line x1="400.736" y1="1117.24" x2="400.736" y2="0.241455" stroke="black" stroke-opacity="0.4"/>
<line x1="424.279" y1="1117.24" x2="424.279" y2="0.241455" stroke="black" stroke-opacity="0.4"/>
<line x1="447.822" y1="1117.24" x2="447.822" y2="0.241455" stroke="black" stroke-opacity="0.4"/>
<line x1="471.365" y1="1117.24" x2="471.365" y2="0.241455" stroke="black" stroke-opacity="0.4"/>
<line x1="494.908" y1="1117.24" x2="494.908" y2="0.241455" stroke="black" stroke-opacity="0.4"/>
<line x1="518.451" y1="1117.24" x2="518.451" y2="0.241455" stroke="black" stroke-opacity="0.4"/>
<line x1="541.994" y1="1117.24" x2="541.994" y2="0.241455" stroke="black" stroke-opacity="0.4"/>
<line x1="565.536" y1="1117.24" x2="565.536" y2="0.241455" stroke="black" stroke-opacity="0.4"/>
<line x1="589.079" y1="1117.24" x2="589.079" y2="0.241455" stroke="black" stroke-opacity="0.4"/>
<line x1="612.622" y1="1117.24" x2="612.622" y2="0.241455" stroke="black" stroke-opacity="0.4"/>
<line x1="636.165" y1="1117.24" x2="636.165" y2="0.241455" stroke="black" stroke-opacity="0.4"/>
<line x1="659.708" y1="1117.24" x2="659.708" y2="0.241455" stroke="black" stroke-opacity="0.4"/>
<line x1="683.251" y1="1117.24" x2="683.251" y2="0.241455" stroke="black" stroke-opacity="0.4"/>
<line x1="706.794" y1="1117.24" x2="706.794" y2="0.241455" stroke="black" stroke-opacity="0.4"/>
<line x1="730.337" y1="1117.24" x2="730.337" y2="0.241455" stroke="black" stroke-opacity="0.4"/>
<line x1="753.88" y1="1117.24" x2="753.88" y2="0.241455" stroke="black" stroke-opacity="0.4"/>
<line x1="777.423" y1="1117.24" x2="777.423" y2="0.241455" stroke="black" stroke-opacity="0.4"/>
<line x1="800.966" y1="1117.24" x2="800.966" y2="0.241455" stroke="black" stroke-opacity="0.4"/>
<line x1="824.509" y1="1117.24" x2="824.509" y2="0.241455" stroke="black" stroke-opacity="0.4"/>
<line x1="848.052" y1="1117.24" x2="848.052" y2="0.241455" stroke="black" stroke-opacity="0.4"/>
<line x1="871.595" y1="1117.24" x2="871.595" y2="0.241455" stroke="black" stroke-opacity="0.4"/>
<line x1="895.138" y1="1117.24" x2="895.138" y2="0.241455" stroke="black" stroke-opacity="0.4"/>
<line x1="918.681" y1="1117.24" x2="918.681" y2="0.241455" stroke="black" stroke-opacity="0.4"/>
<line x1="942.224" y1="1117.24" x2="942.224" y2="0.241455" stroke="black" stroke-opacity="0.4"/>
<line x1="965.767" y1="1117.24" x2="965.767" y2="0.241455" stroke="black" stroke-opacity="0.4"/>
<line x1="989.31" y1="1117.24" x2="989.31" y2="0.241455" stroke="black" stroke-opacity="0.4"/>
<line x1="1012.85" y1="1117.24" x2="1012.85" y2="0.241455" stroke="black" stroke-opacity="0.4"/>
<line x1="1036.4" y1="1117.24" x2="1036.4" y2="0.241455" stroke="black" stroke-opacity="0.4"/>
<line x1="1059.94" y1="1117.24" x2="1059.94" y2="0.241455" stroke="black" stroke-opacity="0.4"/>
<line x1="1083.48" y1="1117.24" x2="1083.48" y2="0.241455" stroke="black" stroke-opacity="0.4"/>
<line x1="1107.02" y1="1117.24" x2="1107.02" y2="0.241455" stroke="black" stroke-opacity="0.4"/>
<line x1="1130.57" y1="1117.24" x2="1130.57" y2="0.241455" stroke="black" stroke-opacity="0.4"/>
<line x1="1154.11" y1="1117.24" x2="1154.11" y2="0.241455" stroke="black" stroke-opacity="0.4"/>
<line x1="1177.65" y1="1117.24" x2="1177.65" y2="0.241455" stroke="black" stroke-opacity="0.4"/>
<line x1="1201.2" y1="1117.24" x2="1201.2" y2="0.241455" stroke="black" stroke-opacity="0.4"/>
<line x1="1224.74" y1="1117.24" x2="1224.74" y2="0.241455" stroke="black" stroke-opacity="0.4"/>
<line x1="1248.28" y1="1117.24" x2="1248.28" y2="0.241455" stroke="black" stroke-opacity="0.4"/>
<line x1="1271.83" y1="1117.24" x2="1271.83" y2="0.241455" stroke="black" stroke-opacity="0.4"/>
<line x1="1295.37" y1="1117.24" x2="1295.37" y2="0.241455" stroke="black" stroke-opacity="0.4"/>
<line x1="1318.91" y1="1117.24" x2="1318.91" y2="0.241455" stroke="black" stroke-opacity="0.4"/>
<line x1="1342.45" y1="1117.24" x2="1342.45" y2="0.241455" stroke="black" stroke-opacity="0.4"/>
<line x1="1366" y1="1117.24" x2="1366" y2="0.241455" stroke="black" stroke-opacity="0.4"/>
<line x1="1389.54" y1="1117.24" x2="1389.54" y2="0.241455" stroke="black" stroke-opacity="0.4"/>
<line x1="1413.08" y1="1117.24" x2="1413.08" y2="0.241455" stroke="black" stroke-opacity="0.4"/>
<line x1="1436.63" y1="1117.24" x2="1436.63" y2="0.241455" stroke="black" stroke-opacity="0.4"/>
<line x1="1460.17" y1="1117.24" x2="1460.17" y2="0.241455" stroke="black" stroke-opacity="0.4"/>
<line x1="1483.71" y1="1117.24" x2="1483.71" y2="0.241455" stroke="black" stroke-opacity="0.4"/>
<line x1="1507.26" y1="1117.24" x2="1507.26" y2="0.241455" stroke="black" stroke-opacity="0.4"/>
<line x1="1530.8" y1="1117.24" x2="1530.8" y2="0.241455" stroke="black" stroke-opacity="0.4"/>
<line x1="1554.34" y1="1117.24" x2="1554.34" y2="0.241455" stroke="black" stroke-opacity="0.4"/>
<line x1="1577.88" y1="1117.24" x2="1577.88" y2="0.241455" stroke="black" stroke-opacity="0.4"/>
<line x1="1601.43" y1="1117.24" x2="1601.43" y2="0.241455" stroke="black" stroke-opacity="0.4"/>
<line x1="1624.97" y1="1117.24" x2="1624.97" y2="0.241455" stroke="black" stroke-opacity="0.4"/>
<line x1="1648.51" y1="1117.24" x2="1648.51" y2="0.241455" stroke="black" stroke-opacity="0.4"/>
<line x1="1672.06" y1="1117.24" x2="1672.06" y2="0.241455" stroke="black" stroke-opacity="0.4"/>
<line x1="1695.6" y1="1117.24" x2="1695.6" y2="0.241455" stroke="black" stroke-opacity="0.4"/>
<line x1="1719.14" y1="1117.24" x2="1719.14" y2="0.241455" stroke="black" stroke-opacity="0.4"/>
<line x1="1.00525" y1="27.2151" x2="1729.01" y2="27.2151" stroke="black" stroke-opacity="0.4"/>
<line x1="1.00525" y1="27.2151" x2="1729.01" y2="27.2151" stroke="black" stroke-opacity="0.4"/>
<line x1="1.00525" y1="52.5042" x2="1729.01" y2="52.5042" stroke="black" stroke-opacity="0.4"/>
<line x1="1.00525" y1="77.7932" x2="1729.01" y2="77.7932" stroke="black" stroke-opacity="0.4"/>
<line x1="1.00525" y1="103.082" x2="1729.01" y2="103.082" stroke="black" stroke-opacity="0.4"/>
<line x1="1.00525" y1="128.371" x2="1729.01" y2="128.371" stroke="black" stroke-opacity="0.4"/>
<line x1="1.00525" y1="153.66" x2="1729.01" y2="153.66" stroke="black" stroke-opacity="0.4"/>
<line x1="1.00525" y1="178.949" x2="1729.01" y2="178.949" stroke="black" stroke-opacity="0.4"/>
<line x1="1.00525" y1="204.238" x2="1729.01" y2="204.238" stroke="black" stroke-opacity="0.4"/>
<line x1="1.00525" y1="229.527" x2="1729.01" y2="229.527" stroke="black" stroke-opacity="0.4"/>
<line x1="1.00525" y1="254.816" x2="1729.01" y2="254.816" stroke="black" stroke-opacity="0.4"/>
<line x1="1.00525" y1="280.105" x2="1729.01" y2="280.105" stroke="black" stroke-opacity="0.4"/>
<line x1="1.00525" y1="305.395" x2="1729.01" y2="305.395" stroke="black" stroke-opacity="0.4"/>
<line x1="1.00525" y1="330.684" x2="1729.01" y2="330.684" stroke="black" stroke-opacity="0.4"/>
<line x1="1.00525" y1="355.973" x2="1729.01" y2="355.973" stroke="black" stroke-opacity="0.4"/>
<line x1="1.00525" y1="381.262" x2="1729.01" y2="381.262" stroke="black" stroke-opacity="0.4"/>
<line x1="1.00525" y1="406.551" x2="1729.01" y2="406.551" stroke="black" stroke-opacity="0.4"/>
<line x1="1.00525" y1="431.84" x2="1729.01" y2="431.84" stroke="black" stroke-opacity="0.4"/>
<line x1="1.00525" y1="457.129" x2="1729.01" y2="457.129" stroke="black" stroke-opacity="0.4"/>
<line x1="1.00525" y1="482.418" x2="1729.01" y2="482.418" stroke="black" stroke-opacity="0.4"/>
<line x1="1.00525" y1="507.707" x2="1729.01" y2="507.707" stroke="black" stroke-opacity="0.4"/>
<line x1="1.00525" y1="532.996" x2="1729.01" y2="532.996" stroke="black" stroke-opacity="0.4"/>
<line x1="1.00525" y1="558.285" x2="1729.01" y2="558.285" stroke="black" stroke-opacity="0.4"/>
<line x1="1.00525" y1="583.574" x2="1729.01" y2="583.574" stroke="black" stroke-opacity="0.4"/>
<line x1="1.00525" y1="608.863" x2="1729.01" y2="608.863" stroke="black" stroke-opacity="0.4"/>
<line x1="1.00525" y1="634.152" x2="1729.01" y2="634.152" stroke="black" stroke-opacity="0.4"/>
<line x1="1.00525" y1="659.441" x2="1729.01" y2="659.441" stroke="black" stroke-opacity="0.4"/>
<line x1="1.00525" y1="684.73" x2="1729.01" y2="684.73" stroke="black" stroke-opacity="0.4"/>
<line x1="1.00525" y1="710.02" x2="1729.01" y2="710.02" stroke="black" stroke-opacity="0.4"/>
<line x1="1.00525" y1="735.309" x2="1729.01" y2="735.309" stroke="black" stroke-opacity="0.4"/>
<line x1="1.00525" y1="760.598" x2="1729.01" y2="760.598" stroke="black" stroke-opacity="0.4"/>
<line x1="1.00525" y1="785.887" x2="1729.01" y2="785.887" stroke="black" stroke-opacity="0.4"/>
<line x1="1.00525" y1="811.176" x2="1729.01" y2="811.176" stroke="black" stroke-opacity="0.4"/>
<line x1="1.00525" y1="836.465" x2="1729.01" y2="836.465" stroke="black" stroke-opacity="0.4"/>
<line x1="1.00525" y1="861.754" x2="1729.01" y2="861.754" stroke="black" stroke-opacity="0.4"/>
<line x1="1.00525" y1="887.043" x2="1729.01" y2="887.043" stroke="black" stroke-opacity="0.4"/>
<line x1="1.00525" y1="912.332" x2="1729.01" y2="912.332" stroke="black" stroke-opacity="0.4"/>
<line x1="1.00525" y1="937.621" x2="1729.01" y2="937.621" stroke="black" stroke-opacity="0.4"/>
<line x1="1.00525" y1="962.91" x2="1729.01" y2="962.91" stroke="black" stroke-opacity="0.4"/>
<line x1="1.00525" y1="988.199" x2="1729.01" y2="988.199" stroke="black" stroke-opacity="0.4"/>
<line x1="1.00525" y1="1013.49" x2="1729.01" y2="1013.49" stroke="black" stroke-opacity="0.4"/>
<line x1="1.00525" y1="1038.78" x2="1729.01" y2="1038.78" stroke="black" stroke-opacity="0.4"/>
<line x1="1.00525" y1="1064.07" x2="1729.01" y2="1064.07" stroke="black" stroke-opacity="0.4"/>
<line x1="1.00525" y1="1089.36" x2="1729.01" y2="1089.36" stroke="black" stroke-opacity="0.4"/>
<line x1="1.00525" y1="1114.65" x2="1729.01" y2="1114.65" stroke="black" stroke-opacity="0.4"/>
</g>
</svg>
