<svg width="1730" height="1117" viewBox="0 0 1730 1117" fill="none" xmlns="http://www.w3.org/2000/svg">
<rect x="1.59961" width="1728" height="1117" fill="white"/>
<rect x="2.09961" y="0.5" width="1727" height="1116" stroke="black" stroke-opacity="0.4"/>
<line x1="1.09961" y1="1117" x2="1.09961" y2="-0.00170898" stroke="black" stroke-opacity="0.4"/>
<line x1="24.6426" y1="1117" x2="24.6426" y2="-0.00170898" stroke="black" stroke-opacity="0.4"/>
<line x1="48.1855" y1="1117" x2="48.1855" y2="-0.00170898" stroke="black" stroke-opacity="0.4"/>
<line x1="71.7285" y1="1117" x2="71.7285" y2="-0.00170898" stroke="black" stroke-opacity="0.4"/>
<line x1="95.2715" y1="1117" x2="95.2715" y2="-0.00170898" stroke="black" stroke-opacity="0.4"/>
<line x1="118.814" y1="1117" x2="118.814" y2="-0.00170898" stroke="black" stroke-opacity="0.4"/>
<line x1="142.357" y1="1117" x2="142.357" y2="-0.00170898" stroke="black" stroke-opacity="0.4"/>
<line x1="165.9" y1="1117" x2="165.9" y2="-0.00170898" stroke="black" stroke-opacity="0.4"/>
<line x1="189.443" y1="1117" x2="189.443" y2="-0.00170898" stroke="black" stroke-opacity="0.4"/>
<line x1="212.986" y1="1117" x2="212.986" y2="-0.00170898" stroke="black" stroke-opacity="0.4"/>
<line x1="236.529" y1="1117" x2="236.529" y2="-0.00170898" stroke="black" stroke-opacity="0.4"/>
<line x1="260.072" y1="1117" x2="260.072" y2="-0.00170898" stroke="black" stroke-opacity="0.4"/>
<line x1="283.615" y1="1117" x2="283.615" y2="-0.00170898" stroke="black" stroke-opacity="0.4"/>
<line x1="307.158" y1="1117" x2="307.158" y2="-0.00170898" stroke="black" stroke-opacity="0.4"/>
<line x1="330.701" y1="1117" x2="330.701" y2="-0.00170898" stroke="black" stroke-opacity="0.4"/>
<line x1="354.244" y1="1117" x2="354.244" y2="-0.00170898" stroke="black" stroke-opacity="0.4"/>
<line x1="377.787" y1="1117" x2="377.787" y2="-0.00170898" stroke="black" stroke-opacity="0.4"/>
<line x1="401.33" y1="1117" x2="401.33" y2="-0.00170898" stroke="black" stroke-opacity="0.4"/>
<line x1="424.873" y1="1117" x2="424.873" y2="-0.00170898" stroke="black" stroke-opacity="0.4"/>
<line x1="448.416" y1="1117" x2="448.416" y2="-0.00170898" stroke="black" stroke-opacity="0.4"/>
<line x1="471.959" y1="1117" x2="471.959" y2="-0.00170898" stroke="black" stroke-opacity="0.4"/>
<line x1="495.502" y1="1117" x2="495.502" y2="-0.00170898" stroke="black" stroke-opacity="0.4"/>
<line x1="519.045" y1="1117" x2="519.045" y2="-0.00170898" stroke="black" stroke-opacity="0.4"/>
<line x1="542.588" y1="1117" x2="542.588" y2="-0.00170898" stroke="black" stroke-opacity="0.4"/>
<line x1="566.131" y1="1117" x2="566.131" y2="-0.00170898" stroke="black" stroke-opacity="0.4"/>
<line x1="589.674" y1="1117" x2="589.674" y2="-0.00170898" stroke="black" stroke-opacity="0.4"/>
<line x1="613.217" y1="1117" x2="613.217" y2="-0.00170898" stroke="black" stroke-opacity="0.4"/>
<line x1="636.76" y1="1117" x2="636.76" y2="-0.00170898" stroke="black" stroke-opacity="0.4"/>
<line x1="660.303" y1="1117" x2="660.303" y2="-0.00170898" stroke="black" stroke-opacity="0.4"/>
<line x1="683.846" y1="1117" x2="683.846" y2="-0.00170898" stroke="black" stroke-opacity="0.4"/>
<line x1="707.389" y1="1117" x2="707.389" y2="-0.00170898" stroke="black" stroke-opacity="0.4"/>
<line x1="730.932" y1="1117" x2="730.932" y2="-0.00170898" stroke="black" stroke-opacity="0.4"/>
<line x1="754.475" y1="1117" x2="754.475" y2="-0.00170898" stroke="black" stroke-opacity="0.4"/>
<line x1="778.018" y1="1117" x2="778.018" y2="-0.00170898" stroke="black" stroke-opacity="0.4"/>
<line x1="801.561" y1="1117" x2="801.561" y2="-0.00170898" stroke="black" stroke-opacity="0.4"/>
<line x1="825.104" y1="1117" x2="825.104" y2="-0.00170898" stroke="black" stroke-opacity="0.4"/>
<line x1="848.646" y1="1117" x2="848.646" y2="-0.00170898" stroke="black" stroke-opacity="0.4"/>
<line x1="872.189" y1="1117" x2="872.189" y2="-0.00170898" stroke="black" stroke-opacity="0.4"/>
<line x1="895.732" y1="1117" x2="895.732" y2="-0.00170898" stroke="black" stroke-opacity="0.4"/>
<line x1="919.275" y1="1117" x2="919.275" y2="-0.00170898" stroke="black" stroke-opacity="0.4"/>
<line x1="942.818" y1="1117" x2="942.818" y2="-0.00170898" stroke="black" stroke-opacity="0.4"/>
<line x1="966.361" y1="1117" x2="966.361" y2="-0.00170898" stroke="black" stroke-opacity="0.4"/>
<line x1="989.904" y1="1117" x2="989.904" y2="-0.00170898" stroke="black" stroke-opacity="0.4"/>
<line x1="1013.45" y1="1117" x2="1013.45" y2="-0.00170898" stroke="black" stroke-opacity="0.4"/>
<line x1="1036.99" y1="1117" x2="1036.99" y2="-0.00170898" stroke="black" stroke-opacity="0.4"/>
<line x1="1060.53" y1="1117" x2="1060.53" y2="-0.00170898" stroke="black" stroke-opacity="0.4"/>
<line x1="1084.08" y1="1117" x2="1084.08" y2="-0.00170898" stroke="black" stroke-opacity="0.4"/>
<line x1="1107.62" y1="1117" x2="1107.62" y2="-0.00170898" stroke="black" stroke-opacity="0.4"/>
<line x1="1131.16" y1="1117" x2="1131.16" y2="-0.00170898" stroke="black" stroke-opacity="0.4"/>
<line x1="1154.71" y1="1117" x2="1154.71" y2="-0.00170898" stroke="black" stroke-opacity="0.4"/>
<line x1="1178.25" y1="1117" x2="1178.25" y2="-0.00170898" stroke="black" stroke-opacity="0.4"/>
<line x1="1201.79" y1="1117" x2="1201.79" y2="-0.00170898" stroke="black" stroke-opacity="0.4"/>
<line x1="1225.33" y1="1117" x2="1225.33" y2="-0.00170898" stroke="black" stroke-opacity="0.4"/>
<line x1="1248.88" y1="1117" x2="1248.88" y2="-0.00170898" stroke="black" stroke-opacity="0.4"/>
<line x1="1272.42" y1="1117" x2="1272.42" y2="-0.00170898" stroke="black" stroke-opacity="0.4"/>
<line x1="1295.96" y1="1117" x2="1295.96" y2="-0.00170898" stroke="black" stroke-opacity="0.4"/>
<line x1="1319.51" y1="1117" x2="1319.51" y2="-0.00170898" stroke="black" stroke-opacity="0.4"/>
<line x1="1343.05" y1="1117" x2="1343.05" y2="-0.00170898" stroke="black" stroke-opacity="0.4"/>
<line x1="1366.59" y1="1117" x2="1366.59" y2="-0.00170898" stroke="black" stroke-opacity="0.4"/>
<line x1="1390.13" y1="1117" x2="1390.13" y2="-0.00170898" stroke="black" stroke-opacity="0.4"/>
<line x1="1413.68" y1="1117" x2="1413.68" y2="-0.00170898" stroke="black" stroke-opacity="0.4"/>
<line x1="1437.22" y1="1117" x2="1437.22" y2="-0.00170898" stroke="black" stroke-opacity="0.4"/>
<line x1="1460.76" y1="1117" x2="1460.76" y2="-0.00170898" stroke="black" stroke-opacity="0.4"/>
<line x1="1484.31" y1="1117" x2="1484.31" y2="-0.00170898" stroke="black" stroke-opacity="0.4"/>
<line x1="1507.85" y1="1117" x2="1507.85" y2="-0.00170898" stroke="black" stroke-opacity="0.4"/>
<line x1="1531.39" y1="1117" x2="1531.39" y2="-0.00170898" stroke="black" stroke-opacity="0.4"/>
<line x1="1554.94" y1="1117" x2="1554.94" y2="-0.00170898" stroke="black" stroke-opacity="0.4"/>
<line x1="1578.48" y1="1117" x2="1578.48" y2="-0.00170898" stroke="black" stroke-opacity="0.4"/>
<line x1="1602.02" y1="1117" x2="1602.02" y2="-0.00170898" stroke="black" stroke-opacity="0.4"/>
<line x1="1625.56" y1="1117" x2="1625.56" y2="-0.00170898" stroke="black" stroke-opacity="0.4"/>
<line x1="1649.11" y1="1117" x2="1649.11" y2="-0.00170898" stroke="black" stroke-opacity="0.4"/>
<line x1="1672.65" y1="1117" x2="1672.65" y2="-0.00170898" stroke="black" stroke-opacity="0.4"/>
<line x1="1696.19" y1="1117" x2="1696.19" y2="-0.00170898" stroke="black" stroke-opacity="0.4"/>
<line x1="1719.74" y1="1117" x2="1719.74" y2="-0.00170898" stroke="black" stroke-opacity="0.4"/>
<line x1="1.59961" y1="26.9727" x2="1729.6" y2="26.9727" stroke="black" stroke-opacity="0.4"/>
<line x1="1.59961" y1="26.9727" x2="1729.6" y2="26.9727" stroke="black" stroke-opacity="0.4"/>
<line x1="1.59961" y1="52.2617" x2="1729.6" y2="52.2617" stroke="black" stroke-opacity="0.4"/>
<line x1="1.59961" y1="77.5508" x2="1729.6" y2="77.5508" stroke="black" stroke-opacity="0.4"/>
<line x1="1.59961" y1="102.84" x2="1729.6" y2="102.84" stroke="black" stroke-opacity="0.4"/>
<line x1="1.59961" y1="128.129" x2="1729.6" y2="128.129" stroke="black" stroke-opacity="0.4"/>
<line x1="1.59961" y1="153.418" x2="1729.6" y2="153.418" stroke="black" stroke-opacity="0.4"/>
<line x1="1.59961" y1="178.707" x2="1729.6" y2="178.707" stroke="black" stroke-opacity="0.4"/>
<line x1="1.59961" y1="203.996" x2="1729.6" y2="203.996" stroke="black" stroke-opacity="0.4"/>
<line x1="1.59961" y1="229.285" x2="1729.6" y2="229.285" stroke="black" stroke-opacity="0.4"/>
<line x1="1.59961" y1="254.574" x2="1729.6" y2="254.574" stroke="black" stroke-opacity="0.4"/>
<line x1="1.59961" y1="279.863" x2="1729.6" y2="279.863" stroke="black" stroke-opacity="0.4"/>
<line x1="1.59961" y1="305.152" x2="1729.6" y2="305.152" stroke="black" stroke-opacity="0.4"/>
<line x1="1.59961" y1="330.441" x2="1729.6" y2="330.441" stroke="black" stroke-opacity="0.4"/>
<line x1="1.59961" y1="355.73" x2="1729.6" y2="355.73" stroke="black" stroke-opacity="0.4"/>
<line x1="1.59961" y1="381.02" x2="1729.6" y2="381.02" stroke="black" stroke-opacity="0.4"/>
<line x1="1.59961" y1="406.309" x2="1729.6" y2="406.309" stroke="black" stroke-opacity="0.4"/>
<line x1="1.59961" y1="431.598" x2="1729.6" y2="431.598" stroke="black" stroke-opacity="0.4"/>
<line x1="1.59961" y1="456.887" x2="1729.6" y2="456.887" stroke="black" stroke-opacity="0.4"/>
<line x1="1.59961" y1="482.176" x2="1729.6" y2="482.176" stroke="black" stroke-opacity="0.4"/>
<line x1="1.59961" y1="507.465" x2="1729.6" y2="507.465" stroke="black" stroke-opacity="0.4"/>
<line x1="1.59961" y1="532.754" x2="1729.6" y2="532.754" stroke="black" stroke-opacity="0.4"/>
<line x1="1.59961" y1="558.043" x2="1729.6" y2="558.043" stroke="black" stroke-opacity="0.4"/>
<line x1="1.59961" y1="583.332" x2="1729.6" y2="583.332" stroke="black" stroke-opacity="0.4"/>
<line x1="1.59961" y1="608.621" x2="1729.6" y2="608.621" stroke="black" stroke-opacity="0.4"/>
<line x1="1.59961" y1="633.91" x2="1729.6" y2="633.91" stroke="black" stroke-opacity="0.4"/>
<line x1="1.59961" y1="659.199" x2="1729.6" y2="659.199" stroke="black" stroke-opacity="0.4"/>
<line x1="1.59961" y1="684.488" x2="1729.6" y2="684.488" stroke="black" stroke-opacity="0.4"/>
<line x1="1.59961" y1="709.777" x2="1729.6" y2="709.777" stroke="black" stroke-opacity="0.4"/>
<line x1="1.59961" y1="735.066" x2="1729.6" y2="735.066" stroke="black" stroke-opacity="0.4"/>
<line x1="1.59961" y1="760.355" x2="1729.6" y2="760.355" stroke="black" stroke-opacity="0.4"/>
<line x1="1.59961" y1="785.645" x2="1729.6" y2="785.645" stroke="black" stroke-opacity="0.4"/>
<line x1="1.59961" y1="810.934" x2="1729.6" y2="810.934" stroke="black" stroke-opacity="0.4"/>
<line x1="1.59961" y1="836.223" x2="1729.6" y2="836.223" stroke="black" stroke-opacity="0.4"/>
<line x1="1.59961" y1="861.512" x2="1729.6" y2="861.512" stroke="black" stroke-opacity="0.4"/>
<line x1="1.59961" y1="886.801" x2="1729.6" y2="886.801" stroke="black" stroke-opacity="0.4"/>
<line x1="1.59961" y1="912.09" x2="1729.6" y2="912.09" stroke="black" stroke-opacity="0.4"/>
<line x1="1.59961" y1="937.379" x2="1729.6" y2="937.379" stroke="black" stroke-opacity="0.4"/>
<line x1="1.59961" y1="962.668" x2="1729.6" y2="962.668" stroke="black" stroke-opacity="0.4"/>
<line x1="1.59961" y1="987.957" x2="1729.6" y2="987.957" stroke="black" stroke-opacity="0.4"/>
<line x1="1.59961" y1="1013.25" x2="1729.6" y2="1013.25" stroke="black" stroke-opacity="0.4"/>
<line x1="1.59961" y1="1038.54" x2="1729.6" y2="1038.54" stroke="black" stroke-opacity="0.4"/>
<line x1="1.59961" y1="1063.82" x2="1729.6" y2="1063.82" stroke="black" stroke-opacity="0.4"/>
<line x1="1.59961" y1="1089.11" x2="1729.6" y2="1089.11" stroke="black" stroke-opacity="0.4"/>
<line x1="1.59961" y1="1114.4" x2="1729.6" y2="1114.4" stroke="black" stroke-opacity="0.4"/>
</svg>
