<svg width="186" height="102" viewBox="0 0 186 102" fill="none" xmlns="http://www.w3.org/2000/svg">
<circle cx="73.6331" cy="16.4397" r="11.4231" fill="#AC1422"/>
<path d="M25.459 9.0277V1.00171H33.475" stroke="#CC0000" stroke-width="2" stroke-miterlimit="10"/>
<path d="M33.475 101.002H25.459V92.9856" stroke="#CC0000" stroke-width="2" stroke-miterlimit="10"/>
<path d="M153.415 1.00171H161.431V9.0277" stroke="#CC0000" stroke-width="2" stroke-miterlimit="10"/>
<path d="M161.431 92.9856V101.002H153.415" stroke="#CC0000" stroke-width="2" stroke-miterlimit="10"/>
<path d="M1.95605 84.8799C1.95605 84.8799 46.094 41.6615 51.9111 19.9023C51.9111 19.9023 58.4278 36.1342 66.7237 52.3961C72.4908 63.6905 79.1075 74.9948 85.0145 80.9019" stroke="#231F20" stroke-width="2" stroke-linecap="round" stroke-linejoin="round"/>
<path d="M95.6189 45.7293L92.3206 47.2785L90.3816 46.1291L89.462 48.6178L86.7034 49.0276V46.5788L85.3741 47.1386L81.436 49.4374L85.0043 42.8407C86.4036 40.6718 87.503 38.4129 88.0727 36.1541C88.7424 36.1541 91.9608 40.4419 95.609 45.7393L95.6189 45.7293Z" fill="white" stroke="#231F20" stroke-width="2" stroke-linecap="round" stroke-linejoin="round"/>
<path d="M85.6408 68.1763L77.7732 71.3003L69.7583 58.0576L81.1316 48.106L86.6603 46.8422V49.0537H89.3456L90.4513 46.8422H92.5048H94.4003L95.822 45.5786L107.985 64.7055L104.499 69.6805L98.83 68.1763L96.6318 64.7055L91.7726 68.1763H85.6408Z" fill="#AC1422" stroke="black" stroke-width="2" stroke-linejoin="round"/>
<path d="M95.6191 45.7292C101.316 53.9851 108.073 64.6998 107.863 65.4494" stroke="#231F20" stroke-width="2" stroke-linecap="round" stroke-linejoin="round"/>
<path d="M69.7622 58.1731C69.7622 58.1731 79.5973 51.2266 85.0146 42.8308" stroke="#231F20" stroke-width="2" stroke-linecap="round" stroke-linejoin="round"/>
<path d="M184.935 84.8798C184.935 84.8798 147.543 59.9722 136.819 17.8633C136.819 17.8633 110.462 67.4085 99.4268 74.455" stroke="#231F20" stroke-width="2" stroke-linecap="round" stroke-linejoin="round"/>
</svg>
