<svg width="42" height="40" viewBox="0 0 42 40" fill="none" xmlns="http://www.w3.org/2000/svg">
<path d="M24.6888 38.6503C23.6505 39.3557 22.9275 39.6527 22.5196 39.5413C22.1117 39.3928 21.6111 38.8173 21.0179 37.8149L18.9599 33.9164L12.8973 38.9844C12.5636 39.2814 12.1928 39.4299 11.7849 39.4299C11.377 39.3928 10.8023 39.1329 10.0607 38.6503L4.83242 34.8632C3.83125 34.1578 3.31214 33.5637 3.27506 33.0811C3.23798 32.5984 3.6273 31.9115 4.44306 31.0205L9.7826 25.3956L2.3295 24.1703C1.14294 23.9476 0.41988 23.632 0.160319 23.2236C-0.0992412 22.8152 -0.0436279 22.0355 0.327173 20.8845L2.3295 14.7027C2.47782 14.22 2.62615 13.8487 2.77447 13.5889C2.95987 13.2918 3.12674 13.0691 3.27506 12.9205L10.45 6.85012C10.5984 6.70161 10.8023 6.60879 11.0619 6.57166C11.3214 6.53453 11.6366 6.55309 12.0074 6.62735C12.0074 6.59022 12.0259 6.57166 12.063 6.57166L12.1186 6.51597L19.3493 0.445532C19.5347 0.297022 19.7942 0.185637 20.1279 0.11138C20.4987 0.0371244 20.9252 0 21.4072 0H27.9148C29.1384 0 29.8985 0.185646 30.1952 0.556926C30.5289 0.928206 30.5845 1.70788 30.3621 2.89598L29.3609 10.1916L36.0909 7.07288C37.1292 6.55309 37.8708 6.38602 38.3157 6.57166C38.7607 6.7573 39.1686 7.44417 39.5394 8.63227L41.5973 14.8141C41.8569 15.5566 41.9681 16.1136 41.931 16.4848C41.8939 16.8561 41.7456 17.1717 41.4861 17.4316L35.3122 22.611L37.537 24.95C38.2786 25.7668 38.6494 26.398 38.6494 26.8436C38.6494 27.2891 38.3343 27.8089 37.7039 28.4029L30.5289 34.4177C30.4547 34.4548 30.362 34.5105 30.2508 34.5848C30.1766 34.659 30.1025 34.7333 30.0283 34.8075V34.8632H29.9727L24.6888 38.6503ZM20.4617 31.466L24.5219 23.6134L28.6378 31.466C29.0828 32.2457 29.4721 32.6912 29.8058 32.8026C30.1396 32.8769 30.7143 32.6541 31.5301 32.1343L36.7584 28.3472C37.537 27.7903 37.9449 27.3262 37.982 26.9549C38.0191 26.5837 37.7224 26.0453 37.0921 25.3399L30.9739 18.9353L39.4837 17.543C40.4107 17.3945 40.9669 17.1717 41.1523 16.8747C41.3748 16.5405 41.3377 15.9094 41.0411 14.9812L38.9832 8.79933C38.6865 7.87114 38.3528 7.33279 37.982 7.18428C37.6483 7.03576 37.0735 7.16571 36.2578 7.57412L28.6378 11.1384L29.7502 2.84029C29.8985 1.91209 29.8429 1.29948 29.5833 1.00246C29.3609 0.705433 28.7861 0.556926 27.8591 0.556926H21.3516C20.4246 0.556926 19.8128 0.705433 19.5161 1.00246C19.2566 1.29948 19.2009 1.91209 19.3493 2.84029L20.6285 11.1384L12.7305 7.57412C11.9147 7.16571 11.3214 7.03576 10.9506 7.18428C10.5798 7.33279 10.2646 7.87114 10.0051 8.79933L8.00275 14.9812C7.70611 15.9094 7.65049 16.5405 7.83589 16.8747C8.05837 17.1717 8.63313 17.3945 9.56013 17.543L18.0144 18.9353L11.9518 25.3399C11.3214 26.0453 11.0248 26.5837 11.0619 26.9549C11.0989 27.3262 11.5068 27.7903 12.2855 28.3472L17.5138 32.1343C18.3296 32.6541 18.9043 32.8769 19.238 32.8026C19.6088 32.6912 20.0167 32.2457 20.4617 31.466ZM30.6958 25.7297L24.6332 17.0974L18.5706 25.7297L18.1256 25.3956L24.0213 16.9304L14.4547 13.8116L14.6772 13.2547L24.3551 16.4291V5.5692H24.9113V16.4291L34.5892 13.2547L34.8116 13.8116L25.245 16.9304L31.1407 25.3956L30.6958 25.7297Z" fill="#CC0000"/>
</svg>
