<svg width="449" height="57" viewBox="0 0 449 57" fill="none" xmlns="http://www.w3.org/2000/svg">
<path d="M36.0017 55.5829C34.5173 56.5915 33.4836 57.0161 32.9005 56.8569C32.3173 56.6445 31.6017 55.8218 30.7534 54.3886L27.8112 48.8151L19.1437 56.0606C18.6665 56.4853 18.1364 56.6976 17.5533 56.6976C16.9702 56.6445 16.1484 56.273 15.0882 55.5829L7.61341 50.1686C6.18207 49.1601 5.4399 48.3108 5.38688 47.6207C5.33387 46.9307 5.89048 45.9487 7.05676 44.6747L14.6906 36.6329L4.03503 34.8812C2.33863 34.5627 1.30488 34.1115 0.933795 33.5277C0.562707 32.9438 0.642216 31.829 1.17234 30.1835L4.03503 21.3455C4.24709 20.6554 4.45915 20.1246 4.6712 19.7531C4.93627 19.3284 5.17483 19.0099 5.38688 18.7976L15.6448 10.1188C15.8569 9.90649 16.1485 9.77379 16.5195 9.7207C16.8906 9.66762 17.3412 9.69416 17.8714 9.80032C17.8714 9.74724 17.8979 9.7207 17.9509 9.7207L18.0304 9.64108L28.3679 0.962287C28.633 0.749965 29.004 0.590719 29.4812 0.484555C30.0113 0.378394 30.6209 0.325317 31.3101 0.325317H40.6138C42.3632 0.325317 43.45 0.590732 43.8741 1.12154C44.3512 1.65236 44.4308 2.76705 44.1127 4.46565L42.6813 14.8961L52.3031 10.4373C53.7875 9.69415 54.8477 9.4553 55.4839 9.7207C56.12 9.98611 56.7032 10.9681 57.2333 12.6667L60.1755 21.5047C60.5466 22.5664 60.7056 23.3626 60.6526 23.8934C60.5996 24.4242 60.3876 24.8754 60.0165 25.247L51.1899 32.6518L54.3706 35.9959C55.4309 37.1637 55.961 38.0661 55.961 38.7031C55.961 39.34 55.5104 40.0832 54.6092 40.9325L44.3512 49.5316C44.2452 49.5847 44.1126 49.6644 43.9536 49.7705C43.8476 49.8767 43.7416 49.9828 43.6355 50.089V50.1686H43.556L36.0017 55.5829ZM29.9583 45.3117L35.7631 34.085L41.6476 45.3117C42.2837 46.4264 42.8404 47.0634 43.3175 47.2226C43.7946 47.3288 44.6163 47.0103 45.7826 46.2671L53.2574 40.8529C54.3706 40.0567 54.9538 39.3931 55.0068 38.8623C55.0598 38.3315 54.6357 37.5618 53.7345 36.5533L44.9874 27.3968L57.1538 25.4062C58.4791 25.1939 59.2743 24.8754 59.5394 24.4508C59.8574 23.973 59.8044 23.0706 59.3803 21.7436L56.4381 12.9056C56.014 11.5785 55.5369 10.8089 55.0068 10.5965C54.5297 10.3842 53.708 10.57 52.5417 11.1539L41.6476 16.2497L43.238 4.38603C43.45 3.059 43.3705 2.18316 42.9994 1.75851C42.6813 1.33386 41.8596 1.12154 40.5343 1.12154H31.2306C29.9053 1.12154 29.0305 1.33386 28.6064 1.75851C28.2354 2.18316 28.1558 3.059 28.3679 4.38603L30.1968 16.2497L18.9051 11.1539C17.7388 10.57 16.8906 10.3842 16.3605 10.5965C15.8304 10.8089 15.3798 11.5785 15.0087 12.9056L12.146 21.7436C11.7219 23.0706 11.6424 23.973 11.9074 24.4508C12.2255 24.8754 13.0472 25.1939 14.3725 25.4062L26.4594 27.3968L17.7918 36.5533C16.8906 37.5618 16.4665 38.3315 16.5195 38.8623C16.5726 39.3931 17.1557 40.0567 18.269 40.8529L25.7437 46.2671C26.91 47.0103 27.7317 47.3288 28.2089 47.2226C28.739 47.0634 29.3221 46.4264 29.9583 45.3117ZM44.5898 37.1106L35.9222 24.7692L27.2546 37.1106L26.6185 36.6329L35.0475 24.5304L21.3702 20.0716L21.6883 19.2753L35.5246 23.8138V8.28751H36.3198V23.8138L50.1561 19.2753L50.4742 20.0716L36.7969 24.5304L45.2259 36.6329L44.5898 37.1106Z" fill="#CC0000"/>
<path d="M440.326 49.9604V49.271C441.97 48.7938 442.447 47.5741 442.447 43.2257V31.0291C442.447 27.3171 441.811 26.7868 440.326 26.1504V25.5671L446.159 23.0217L446.583 23.3929V43.2257C446.583 47.5741 447.114 48.7938 448.705 49.271V49.9604H440.326ZM444.197 19.787C442.553 19.787 441.28 18.4612 441.28 16.8704C441.28 15.1734 442.553 13.9008 444.197 13.9008C445.894 13.9008 447.114 15.1734 447.114 16.8704C447.114 18.4612 445.841 19.787 444.197 19.787Z" fill="#CC0000"/>
<path d="M418.058 49.9604V49.271C419.702 48.7938 420.179 47.5741 420.179 43.2257V31.0291C420.179 27.3171 419.49 26.7868 418.058 26.1504V25.5671L423.838 23.0217L424.315 23.3929V30.0215C425.164 27.9534 426.596 26.1504 428.186 24.9838C429.83 23.7641 431.686 23.0748 434.232 23.0748C436.353 23.0748 437.679 23.605 437.679 24.5065C437.679 25.6732 436.512 27.5292 434.603 27.5292C433.171 27.5292 431.103 26.9459 427.974 26.0444C426.436 27.158 424.527 30.1276 424.368 32.673H424.315V43.2257C424.315 47.5741 424.846 48.7938 426.436 49.271V49.9604H418.058Z" fill="#CC0000"/>
<path d="M402.355 50.4906C396.522 50.4906 389.788 46.2483 389.788 37.4986C389.788 28.8548 396.31 23.0747 403.734 23.0747C410.416 23.0747 414.287 27.4231 414.446 32.4608H393.712C393.606 33.2562 393.553 34.0517 393.553 34.9001C393.553 42.1651 398.06 47.1498 404.954 47.1498C409.037 47.1498 411.954 45.2938 414.393 42.5363L414.87 43.0136C412.166 46.7256 408.03 50.4906 402.355 50.4906ZM393.871 31.7714H410.204C409.673 28.2185 406.81 24.0292 401.984 24.0292C397.477 23.9762 394.719 27.317 393.871 31.7714Z" fill="#CC0000"/>
<path d="M370.746 50.5437C364.171 50.4906 359.027 44.8166 359.027 37.3395C359.027 29.9685 364.065 23.1808 373.186 23.1278C376.102 23.1278 378.542 24.0292 380.398 25.1959V15.1204C380.398 11.4084 379.708 10.8781 378.276 10.2417V9.65841L384.11 7.11304L384.534 7.48424V43.2257C384.534 47.5741 385.011 48.7937 386.655 49.271V49.9604H381.988C380.981 49.9604 380.398 49.377 380.398 48.3695V45.3468C377.799 48.0513 374.511 50.5967 370.746 50.5437ZM363.004 34.1577C363.004 40.3621 365.921 47.9453 373.133 47.9453C375.89 47.9453 378.329 46.5135 380.398 44.3923V31.4003C379.92 27.9534 375.996 24.1353 371.542 24.1353C365.921 24.1353 363.004 28.5367 363.004 34.1577Z" fill="#CC0000"/>
<path d="M327.847 49.9604V49.271C329.491 48.7938 329.968 47.5741 329.968 43.2257V31.0291C329.968 27.3171 329.331 26.7868 327.847 26.1504V25.5671L333.68 23.0217L334.104 23.3929V27.9534C337.18 25.4611 341.263 23.0748 345.346 23.0748C350.543 23.0748 353.725 26.0974 353.725 32.3018V43.2257C353.725 47.5741 354.255 48.7938 355.846 49.271V49.9604H347.467V49.271C349.111 48.7938 349.589 47.5741 349.589 43.2257V33.3624C349.589 27.8474 347.255 24.8247 342.589 24.8247C339.672 24.8247 336.809 26.5747 334.104 28.8019V43.2257C334.104 47.5741 334.634 48.7938 336.225 49.271V49.9604H327.847Z" fill="#CC0000"/>
<path d="M320.249 49.9603C319.189 49.9603 318.658 49.377 318.658 48.3695V38.8243C317.014 45.3468 312.56 50.4906 307.31 50.4906C303.386 50.4906 299.886 48.1043 299.886 43.5439C299.886 38.0288 305.454 35.9607 311.764 34.2108L318.658 32.3548C318.393 27.211 315.742 24.8247 311.234 24.8247C308.052 24.8247 304.977 26.3095 302.325 29.5442L301.848 29.12C304.871 25.3549 308.742 23.0747 313.355 23.0747C319.772 23.0747 322.741 26.6276 322.741 32.6199V43.2257C322.741 47.574 323.219 48.7937 324.863 49.271V49.9603H320.249ZM303.863 42.059C303.863 45.5059 306.249 47.3619 309.272 47.3619C314.946 47.3619 318.605 40.203 318.658 34.635V33.1502V33.0441L311.977 34.8471C308.052 35.9607 303.81 37.7107 303.863 42.059Z" fill="#CC0000"/>
<path d="M268.753 49.9604V49.271C270.397 48.7937 270.874 47.5741 270.874 43.2257V15.1204C270.874 11.4084 270.184 10.8781 268.753 10.2417V9.65841L274.533 7.11304L275.01 7.48424V27.9534C278.086 25.461 282.169 23.0747 286.252 23.0747C291.449 23.0747 294.631 26.0974 294.631 32.3017V43.2257C294.631 47.5741 295.161 48.7937 296.752 49.271V49.9604H288.373V49.271C290.017 48.7937 290.495 47.5741 290.495 43.2257V33.3623C290.495 27.8473 288.161 24.8247 283.495 24.8247C280.578 24.8247 277.715 26.5746 275.01 28.8018V43.2257C275.01 47.5741 275.54 48.7937 277.131 49.271V49.9604H268.753Z" fill="#CC0000"/>
<path d="M248.374 49.9604H237.556V49.271C239.147 48.7938 239.677 47.5741 239.677 43.2258V19.5749C239.677 15.2265 239.147 14.0068 237.556 13.5296V12.8402H249.964C258.131 12.8402 261.472 15.5447 261.472 19.84C261.472 23.446 259.138 26.7338 253.093 27.8474C261.737 28.2716 265.555 32.5669 265.608 37.7638C265.714 43.703 261.26 49.9604 248.374 49.9604ZM248.851 49.165C257.495 49.165 260.782 44.9757 260.782 39.0895C260.782 32.9912 257.388 28.5367 249.434 28.5367H244.025V44.5515C244.025 48.3696 244.502 49.165 246.783 49.165H248.851ZM248.957 27.7413C254.207 27.7413 256.646 24.6656 256.646 20.7945C256.646 16.3931 253.517 13.6356 248.055 13.6356H244.025V27.7413H248.957Z" fill="#CC0000"/>
<path d="M197.559 49.9604V49.271C199.203 48.7937 199.68 47.5741 199.68 43.2257V15.1204C199.68 11.4084 198.991 10.8781 197.559 10.2417V9.65841L203.339 7.11304L203.817 7.48424V38.4531L213.044 29.5973C216.491 26.2034 216.862 24.3474 215.695 23.8171V23.4459H221.953V24.1353C220.362 24.6126 218.612 25.1428 215.483 28.1125L211.665 31.8245L217.869 43.0136C219.938 46.7256 221.581 49.1649 223.968 49.324V49.9604H220.521C217.922 49.9604 216.172 48.3695 213.574 43.5969L208.748 34.635L203.817 39.4076V43.2257C203.817 47.5741 204.347 48.7937 205.938 49.271V49.9604H197.559Z" fill="#CC0000"/>
<path d="M185.384 49.9604V49.271C187.027 48.7938 187.505 47.5741 187.505 43.2257V31.0291C187.505 27.3171 186.868 26.7868 185.384 26.1504V25.5671L191.217 23.0217L191.641 23.3929V43.2257C191.641 47.5741 192.171 48.7938 193.762 49.271V49.9604H185.384ZM189.255 19.787C187.611 19.787 186.338 18.4612 186.338 16.8704C186.338 15.1734 187.611 13.9008 189.255 13.9008C190.952 13.9008 192.171 15.1734 192.171 16.8704C192.171 18.4612 190.899 19.787 189.255 19.787Z" fill="#CC0000"/>
<path d="M175.48 50.4906C172.139 50.4906 170.124 48.4225 170.124 42.9075V24.1883H166.73V23.4459L173.518 16.9233H174.261V23.4459H182.321L182.056 24.1883H174.261V42.9075C174.261 46.5135 175.745 47.8922 178.026 47.8922C179.51 47.8922 181.366 47.2028 183.116 45.1347L183.594 45.612C181.313 48.2104 178.609 50.4906 175.48 50.4906Z" fill="#CC0000"/>
<path d="M144.887 49.9604V49.271C146.531 48.7938 147.008 47.5741 147.008 43.2257V31.0291C147.008 27.3171 146.319 26.7868 144.887 26.1504V25.5671L150.667 23.0217L151.144 23.3929V30.0215C151.993 27.9534 153.425 26.1504 155.015 24.9838C156.659 23.7641 158.515 23.0748 161.061 23.0748C163.182 23.0748 164.508 23.605 164.508 24.5065C164.508 25.6732 163.341 27.5292 161.432 27.5292C160 27.5292 157.932 26.9459 154.803 26.0444C153.266 27.158 151.356 30.1276 151.197 32.673H151.144V43.2257C151.144 47.5741 151.675 48.7938 153.266 49.271V49.9604H144.887Z" fill="#CC0000"/>
<path d="M137.289 49.9603C136.229 49.9603 135.698 49.377 135.698 48.3695V38.8243C134.054 45.3468 129.6 50.4906 124.35 50.4906C120.426 50.4906 116.926 48.1043 116.926 43.5439C116.926 38.0288 122.494 35.9607 128.804 34.2108L135.698 32.3548C135.433 27.211 132.782 24.8247 128.274 24.8247C125.092 24.8247 122.017 26.3095 119.365 29.5442L118.888 29.12C121.911 25.3549 125.782 23.0747 130.395 23.0747C136.812 23.0747 139.781 26.6276 139.781 32.6199V43.2257C139.781 47.574 140.259 48.7937 141.903 49.271V49.9603H137.289ZM120.903 42.059C120.903 45.5059 123.289 47.3619 126.312 47.3619C131.986 47.3619 135.645 40.203 135.698 34.635V33.1502V33.0441L129.017 34.8471C125.092 35.9607 120.85 37.7107 120.903 42.059Z" fill="#CC0000"/>
<path d="M83.8547 49.9604V49.271C85.4456 48.7938 85.9759 47.5741 85.9759 43.2258V19.5749C85.9759 15.2265 85.4456 14.0068 83.8547 13.5296V12.8402H92.4454V13.5296C90.8015 14.0068 90.3243 15.2265 90.3243 19.5749V33.0442L104.218 18.8325C107.559 15.3856 108.036 13.6356 105.968 13.3175V12.8402H113.339V13.5296C111.642 14.0068 109.415 14.5371 106.392 17.6658L95.0969 29.2261L96.3165 29.1731C104.218 28.6428 105.437 31.5064 109.043 40.5743C111.748 47.362 112.915 49.218 114.611 49.218C114.93 49.218 115.195 49.218 115.513 49.165V49.8544C114.611 50.1195 113.445 50.2256 112.331 50.2256C108.46 50.2256 107.506 47.9453 104.96 41.7409C101.46 33.1503 100.665 29.9155 95.309 30.0746H94.2484L90.3243 34.1048V43.2258C90.3243 47.5741 90.8015 48.7938 92.4454 49.271V49.9604H83.8547Z" fill="#CC0000"/>
</svg>
