<svg width="968" height="40" viewBox="0 0 968 40" fill="none" xmlns="http://www.w3.org/2000/svg">
<path d="M487.698 38.6503C486.66 39.3557 485.937 39.6527 485.529 39.5413C485.121 39.3928 484.62 38.8173 484.027 37.8149L481.969 33.9164L475.907 38.9844C475.573 39.2814 475.202 39.4299 474.794 39.4299C474.386 39.3928 473.812 39.1329 473.07 38.6503L467.842 34.8632C466.841 34.1578 466.321 33.5637 466.284 33.0811C466.247 32.5984 466.637 31.9115 467.452 31.0205L472.792 25.3956L465.339 24.1703C464.152 23.9476 463.429 23.632 463.17 23.2236C462.91 22.8152 462.966 22.0355 463.336 20.8845L465.339 14.7027C465.487 14.22 465.635 13.8487 465.784 13.5889C465.969 13.2918 466.136 13.0691 466.284 12.9205L473.459 6.85012C473.608 6.70161 473.812 6.60879 474.071 6.57166C474.331 6.53453 474.646 6.55309 475.017 6.62735C475.017 6.59022 475.035 6.57166 475.072 6.57166L475.128 6.51597L482.359 0.445532C482.544 0.297022 482.804 0.185637 483.137 0.11138C483.508 0.0371244 483.934 0 484.416 0H490.924C492.148 0 492.908 0.185646 493.204 0.556926C493.538 0.928206 493.594 1.70788 493.371 2.89598L492.37 10.1916L499.1 7.07288C500.138 6.55309 500.88 6.38602 501.325 6.57166C501.77 6.7573 502.178 7.44417 502.549 8.63227L504.607 14.8141C504.866 15.5566 504.977 16.1136 504.94 16.4848C504.903 16.8561 504.755 17.1717 504.495 17.4316L498.322 22.611L500.546 24.95C501.288 25.7668 501.659 26.398 501.659 26.8436C501.659 27.2891 501.344 27.8089 500.713 28.4029L493.538 34.4177C493.464 34.4548 493.371 34.5105 493.26 34.5848C493.186 34.659 493.112 34.7333 493.038 34.8075V34.8632H492.982L487.698 38.6503ZM483.471 31.466L487.531 23.6134L491.647 31.466C492.092 32.2457 492.481 32.6912 492.815 32.8026C493.149 32.8769 493.724 32.6541 494.539 32.1343L499.768 28.3472C500.546 27.7903 500.954 27.3262 500.991 26.9549C501.028 26.5837 500.732 26.0453 500.101 25.3399L493.983 18.9353L502.493 17.543C503.42 17.3945 503.976 17.1717 504.162 16.8747C504.384 16.5405 504.347 15.9094 504.05 14.9812L501.992 8.79933C501.696 7.87114 501.362 7.33279 500.991 7.18428C500.658 7.03576 500.083 7.16571 499.267 7.57412L491.647 11.1384L492.76 2.84029C492.908 1.91209 492.852 1.29948 492.593 1.00246C492.37 0.705433 491.795 0.556926 490.868 0.556926H484.361C483.434 0.556926 482.822 0.705433 482.525 1.00246C482.266 1.29948 482.21 1.91209 482.359 2.84029L483.638 11.1384L475.74 7.57412C474.924 7.16571 474.331 7.03576 473.96 7.18428C473.589 7.33279 473.274 7.87114 473.014 8.79933L471.012 14.9812C470.715 15.9094 470.66 16.5405 470.845 16.8747C471.068 17.1717 471.642 17.3945 472.569 17.543L481.024 18.9353L474.961 25.3399C474.331 26.0453 474.034 26.5837 474.071 26.9549C474.108 27.3262 474.516 27.7903 475.295 28.3472L480.523 32.1343C481.339 32.6541 481.914 32.8769 482.247 32.8026C482.618 32.6912 483.026 32.2457 483.471 31.466ZM493.705 25.7297L487.642 17.0974L481.58 25.7297L481.135 25.3956L487.031 16.9304L477.464 13.8116L477.686 13.2547L487.364 16.4291V5.5692H487.921V16.4291L497.598 13.2547L497.821 13.8116L488.254 16.9304L494.15 25.3956L493.705 25.7297Z" fill="#CC0000"/>
<line x1="427" y1="20.5" y2="20.5" stroke="#CC0000"/>
<line x1="968" y1="20.5" x2="540" y2="20.5" stroke="#CC0000"/>
</svg>
