<svg width="101" height="104" viewBox="0 0 101 104" fill="none" xmlns="http://www.w3.org/2000/svg">
<rect x="21.7413" y="1.20178" width="78" height="78" stroke="#CC0000" stroke-width="2"/>
<circle cx="30.7413" cy="73.5178" r="29" stroke="black" stroke-width="2"/>
<path d="M90.8979 60.4681L90.3988 60.4369C90.0502 60.415 89.7012 60.4375 89.4213 60.4847C89.1554 60.5841 88.9066 60.7173 88.7025 60.8646C88.3818 61.1386 88.1263 61.4797 87.9516 61.8627V66.3783H88.9516V68.3588H87.9516V71.9037C88.1282 72.2864 88.3841 72.6227 88.684 72.8783C88.9134 73.0471 89.1627 73.182 89.3715 73.265C89.7121 73.3326 90.0598 73.3592 90.4066 73.3402L90.9057 73.3129L90.933 73.8119L90.9877 74.8109L91.015 75.3099L90.516 75.3373C89.9806 75.3667 89.4449 75.326 88.8568 75.1986L88.8256 75.1918L88.7953 75.1801C88.3257 75.0124 87.8841 74.7775 87.4623 74.4642L87.4408 74.4467C87.2727 74.3063 87.1151 74.1541 86.9682 73.9935C86.8972 74.076 86.8242 74.1576 86.7475 74.2367L86.5014 74.475L86.4848 74.4906L86.4672 74.5043C86.1071 74.7786 85.7083 74.9939 85.2533 75.1527L85.0541 75.2172L85.0316 75.224L85.0082 75.2289C84.478 75.3353 83.9355 75.3714 83.3959 75.3363L82.8979 75.3041L83.0268 73.308L83.5258 73.3412C83.8833 73.3644 84.2407 73.3389 84.5443 73.2826C84.7955 73.2018 85.028 73.0825 85.2045 72.9535C85.5271 72.6516 85.784 72.2873 85.9613 71.8832V68.3588H84.9613V66.3783H85.9613V61.8949C85.7836 61.4888 85.5289 61.1263 85.2387 60.8519C85.0252 60.6926 84.7899 60.5722 84.5844 60.5033C84.2358 60.4362 83.8801 60.4141 83.5258 60.4369L83.0268 60.4691L82.8979 58.473L83.3969 58.4408C83.9384 58.4059 84.4812 58.4422 85.06 58.5609L85.0834 58.5658L85.1068 58.5736C85.6003 58.7263 86.0612 58.9642 86.5043 59.3041L86.5219 59.3177L86.5375 59.3324C86.6885 59.4711 86.8311 59.6182 86.9643 59.7728C87.1149 59.6076 87.2775 59.4503 87.4525 59.3031L87.4779 59.2836C87.8802 58.987 88.3224 58.7524 88.8598 58.5658L88.892 58.5551L88.9262 58.5482C89.4519 58.4434 89.9889 58.4072 90.5238 58.4408L91.0229 58.472L90.8979 60.4681Z" fill="black" stroke="white"/>
</svg>
